<?xml version="1.0" standalone="no"?>
<!DOCTYPE svg PUBLIC "-//W3C//DTD SVG 1.1//EN" "http://www.w3.org/Graphics/SVG/1.1/DTD/svg11.dtd" >
<svg xmlns="http://www.w3.org/2000/svg" xmlns:xlink="http://www.w3.org/1999/xlink" version="1.1">
<metadata>
Created by FontForge 20170731 at Thu Feb  3 10:12:59 2022
 By Aleksey,,,
Copyright (c) 2021 | Namara Creative Studio, All Right Reserved.
</metadata>
<defs>
<font id="Fallinlove-Regular" horiz-adv-x="885" >
  <font-face 
    font-family="Fall in love"
    font-weight="400"
    font-stretch="normal"
    units-per-em="1000"
    panose-1="0 0 0 0 0 0 0 0 0 0"
    ascent="800"
    descent="-200"
    x-height="472"
    cap-height="849"
    bbox="-376.545 -521 2883.33 1269"
    underline-thickness="0"
    underline-position="0"
    unicode-range="U+000A-F00B"
  />
<missing-glyph horiz-adv-x="527" 
d="M477 700v-700h-427v700h427zM78 680l185 -309l186 309h-371zM264 329l-185 -308h370zM276 350l181 -303v605zM71 49l180 301l-180 300v-601z" />
    <glyph glyph-name=".notdef" horiz-adv-x="527" 
d="M477 700v-700h-427v700h427zM78 680l185 -309l186 309h-371zM264 329l-185 -308h370zM276 350l181 -303v605zM71 49l180 301l-180 300v-601z" />
    <glyph glyph-name="uni0000" horiz-adv-x="0" 
 />
    <glyph glyph-name="uni0000" horiz-adv-x="0" 
 />
    <glyph glyph-name="uni000D" horiz-adv-x="250" 
 />
    <glyph glyph-name="uni000A" unicode="&#xa;" horiz-adv-x="0" 
 />
    <glyph glyph-name="uni000D.1" unicode="&#xd;" horiz-adv-x="0" 
 />
    <glyph glyph-name="space" unicode=" " horiz-adv-x="280" 
 />
    <glyph glyph-name="exclam" unicode="!" horiz-adv-x="475" 
d="M258 306q-22 -57 -39.5 -101t-28 -70t-12.5 -25q-5 3 -13 6l-16 5q-8 2 -13.5 5t-5.5 7q0 7 10.5 50.5t27.5 107t38.5 139.5t43.5 150t42 137.5t35 100.5q7 18 22 26t34 8q13 0 27 -6t26 -23q3 -4 6.5 -13.5t1.5 -15.5q-6 -13 -20.5 -50t-33.5 -87.5t-42 -111t-46 -122
t-44 -117.5zM51 2q3 28 23.5 47t48.5 19q26 -1 42.5 -21t12.5 -49t-25 -48t-47 -18q-27 1 -43 21t-12 49z" />
    <glyph glyph-name="quotedbl" unicode="&#x22;" horiz-adv-x="397" 
d="M365 792q2 -5 2.5 -12.5t-4.5 -12.5q-16 -14 -31 -38t-27.5 -51t-21.5 -54t-12 -47q-1 -1 -1 -3v-1q-2 -15 -16 -15q-9 0 -21.5 7.5t-24 18.5t-19 23.5t-7.5 22.5q2 33 14 65t26 62q-14 -14 -29 -39t-27.5 -52.5t-21 -54.5t-9.5 -46q0 -5 -3.5 -6.5t-7.5 -1.5h-5
q-9 2 -16.5 7.5t-14.5 10.5q-13 11 -26 27.5t-12 33.5q2 28 12 54.5t21 51.5q4 8 12.5 25.5t19.5 35.5t22.5 32t20.5 14q11 0 23 -8t23 -19t19 -24t9 -22q10 19 22.5 39t28.5 34q5 4 11 4q11 0 22.5 -6t21 -15.5t17 -20t10.5 -19.5z" />
    <glyph glyph-name="numbersign" unicode="#" horiz-adv-x="810" 
d="M663 678q-14 -30 -26 -58q23 -4 41 -7.5t33 -10.5t29 -19t29 -32q2 -4 7 -12t4 -13q-1 -6 -6 -6q-2 0 -3.5 0.5t-3.5 0.5q-5 2 -13 4q-2 1 -4 1t-4 1q-1 0 -2 1q-34 7 -68 11t-68 6q-20 -52 -37.5 -105t-32.5 -107q23 -4 40 -8t32 -11t28 -18.5t27 -31.5q2 -3 5 -8
t4.5 -10t1 -9t-5.5 -4l-6 2q-6 2 -12 3t-13 3l-5 2h-2q-57 12 -113 15q-11 -43 -19 -87t-12 -89q-1 -14 -1.5 -28t0.5 -28q2 -21 6 -40q2 -5 0.5 -9t-7.5 -5q-10 0 -22 7.5t-23.5 19t-19.5 24t-11 21.5q-8 32 -7.5 65.5t3.5 65.5q2 22 5.5 43.5t7.5 43.5q-87 0 -174 -9
q-5 -28 -9.5 -55.5t-6.5 -56.5q-1 -14 -1.5 -28t0.5 -28v-7q1 -4 1 -6.5t1 -4.5q1 -5 1.5 -10.5t2.5 -10.5t0.5 -9.5t-7.5 -5.5q-10 0 -22 7.5t-23.5 19t-19.5 24t-11 21.5q-8 32 -7.5 65.5t3.5 65.5q0 2 0.5 3.5t0.5 3.5q-11 -2 -21 -4l-20 -4q-6 -2 -13 3.5t-12 8.5
q-17 13 -32 31q-2 2 -7 8.5t-8.5 13.5t-4.5 13t6 7q58 12 119 18l8 1q10 49 23 96.5t28 94.5q-13 -2 -25.5 -4t-25.5 -4q-6 -2 -13 3.5t-12 8.5q-9 7 -16.5 15t-15.5 16q-1 2 -6 8.5t-8.5 13.5t-4.5 13t6 7q38 8 76 12.5t77 7.5q17 50 36.5 98.5t42.5 95.5q0 3 5 3
q12 0 26 -11t22 -19q5 -4 10.5 -11t10 -14.5t6.5 -15t-1 -14.5q-12 -26 -23 -52l-22 -52q17 0 34.5 0.5t34.5 0.5q51 0 100 -3q13 33 26.5 65t29.5 64q0 3 5 3q11 0 26 -11t22 -19q5 -4 10.5 -11t10 -14.5t6.5 -15t-1 -14.5zM266 345q20 1 40 1.5t40 0.5q46 0 91 -3
q14 52 29.5 103t32.5 102q-44 -1 -87 -2q-43 -2 -86 -6q-17 -48 -32 -97t-28 -99z" />
    <glyph glyph-name="dollar" unicode="$" horiz-adv-x="556" 
d="M263 172l-21 27q-13 -38 -25.5 -75.5t-24.5 -75.5q25 15 46.5 36.5t26.5 51.5q1 5 1 9.5t1 9.5q0 8 -4 17zM180 339l1 -2zM177 345q0 -2 2 -4l1 -1v0l27 -35q7 23 14 45.5t14 45.5q14 45 27.5 89t27.5 89q7 21 13 41t13 40q-29 -19 -55 -51t-46 -69t-31.5 -77t-11.5 -76
v-16l1 -6q1 -1 1 -3t1 -3q0 -1 2 -7v-2zM258 243l34 -42q17 -20 32 -41t23 -46q7 -24 3 -49t-21 -48t-40.5 -40t-51 -27t-52.5 -10q-13 0 -25 3q-6 -20 -11.5 -39t-10.5 -39q0 -1 -2 -1q-5 0 -12 3t-12 6l-13 8q-6 2 -10 6q-1 1 4 22q2 10 6 24t9 34q-35 24 -56 59.5
t-22 78.5q-1 29 8 65q9 32 21 63q3 7 10 7q9 0 20 -7t21 -17t18 -21t12 -20q5 -10 3 -15q-13 -32 -21 -65.5t-8 -68.5q9 0 10 1l34 116q8 29 17 58l18 58l-21 27q-2 4 -5 7t-6 7l-6 6t-5 7l-22 28q-15 20 -25.5 40t-12.5 46q-5 29 0 59q6 39 26 88t51.5 92.5t72 73
t86.5 29.5q14 0 27 -3l12 33q2 8 5 14.5t5 13.5q4 10 7.5 19.5t6.5 20.5q1 1 3 1q6 0 18 -6t24.5 -14.5t24 -17.5t16.5 -15l6 -6q4 -4 2 -9q-5 -11 -9 -20.5t-8 -19.5l-9 -21q-2 -5 -4.5 -10t-4.5 -10q40 -31 59 -65t19 -85q0 -53 -21.5 -98t-57.5 -83l-6 -2q-10 0 -22 8
t-23 19.5t-19.5 24.5t-10.5 22q-3 6 2 11q32 32 50 68.5t23 81.5q1 25 0 49q-1 1 -1.5 1t-1.5 1t-2 1t-2 1q-49 -106 -92.5 -213.5t-83.5 -217.5zM430 675q2 -2 4 -2v1q-1 0 -2 1h-2zM439 678l1 -1q0 1 -1 1zM178 344q-1 0 -1 1zM449 665h1q2 -2 2 -2.5t-3 2.5z" />
    <glyph glyph-name="percent" unicode="%" horiz-adv-x="684" 
d="M573 732q-1 -19 -7 -30q-22 -38 -44.5 -76t-44.5 -76q-63 -109 -123 -220t-114 -226q33 33 73 72t75.5 72.5t62 56.5t32.5 24t13 -4t12 -9q6 -4 14.5 -12t16 -17t14 -18.5t7.5 -16.5q17 -8 32.5 -21.5t27.5 -28.5q35 -43 34 -93q-1 -19 -8 -49t-20.5 -58.5t-33 -48.5
t-45.5 -20q-13 0 -24 5t-21 12q-37 25 -64 64t-31 84q-2 15 0 30.5t5 30.5q8 46 24 89q0 3 -1 3q-6 0 -33.5 -23t-64 -60t-76 -82t-70.5 -90l-1 -2h-1q-2 0 -3 4q-8 5 -13 11.5t-10 13.5q-1 0 1 5q5 13 24.5 58t48.5 108.5t63.5 138t69 148t65.5 137.5t53 107q1 2 4.5 11.5
t2 20.5t-12 20t-37.5 9q-23 0 -59 -8.5t-91 -29.5q-13 -5 -13 -13t6.5 -17.5t16.5 -21t17 -23.5q9 -16 16 -32.5t10 -34.5q5 -26 3 -51.5t-9 -50.5q-14 -46 -41 -89q-27 -44 -66 -74q-14 -11 -32 -20t-38 -9q-16 0 -32 7t-30 18t-25.5 24t-20.5 26q-15 23 -22 49t-4 54
q3 30 16.5 66.5t35.5 69t51.5 54.5t62.5 22q36 0 65 -26q0 2 -0.5 3t-0.5 3q-3 3 -3 8q-20 7 -35 19.5t-26 29.5q-1 2 -5 8t-7 13t-2.5 12.5t7.5 5.5q41 4 80 13t79 14q45 6 79 6q57 0 88 -13t44.5 -30.5t12.5 -35.5zM176 440q24 24 42.5 53.5t31 62t15.5 60.5q-3 0 -5 -1
q-12 0 -25 -5q-26 -12 -48 -35.5t-38.5 -53t-25.5 -61.5t-9 -59q2 1 5 2q3 0 5 1q27 12 52 36zM573 173q1 16 -6.5 28.5t-28.5 14.5q-21 -36 -33.5 -84t-15.5 -89v-17q0 -4 1 -5q23 10 40 36t26 49q0 1 0.5 1.5t0.5 2.5q4 12 9.5 29t6.5 34z" />
    <glyph glyph-name="ampersand" unicode="&#x26;" horiz-adv-x="743" 
d="M565 -38h1q9 -3 5.5 -22.5t-18 -42t-38.5 -41t-57 -18.5q-19 0 -40.5 8.5t-45.5 28.5q-18 15 -32 35.5t-23 39.5q-11 23 -19 46q-3 0 -6 -1h-17q-16 0 -40 2t-51 8.5t-53.5 19t-48.5 34t-36.5 52.5t-15.5 75q-2 56 22.5 104t63 86.5t83.5 69.5q77 52 175 91q20 38 42 74
q19 30 43 63.5t50 57.5q29 29 55.5 39.5t51.5 10.5q13 0 28 -2.5t29 -8.5t25 -16t14 -25q3 -16 -2 -40t-28 -51.5t-70 -58t-128 -59.5q-3 -1 -11 -16t-18.5 -40.5t-22.5 -59t-22 -71.5q36 22 80 38.5t86 16.5q49 0 70.5 -25t24 -61t-11.5 -76t-37 -69q-93 -116 -234 -155
q9 -32 23 -57q12 -21 31.5 -38.5t46.5 -17.5q12 0 22 3q18 5 26 16.5t11.5 23.5t5.5 21t9 9q1 0 2 -1zM145 148q4 -33 17 -52q14 -21 32 -33t35.5 -18t32 -8t21.5 -2q6 0 6 1q-9 66 -7.5 125t9 110t19 92t22 70t18 44.5t6.5 15.5q-49 -17 -86.5 -47.5t-63.5 -68t-41 -79
t-20 -80t0 -70.5zM573 287q-3 27 -19 43.5t-42 17.5q-29 0 -54 -6t-51 -21l-3 -9q-14 -62 -19 -111t-6 -84q0 -41 5 -72q17 0 37 10q18 8 42.5 28.5t53.5 58.5q32 42 45 79.5t11 65.5zM623 620q45 29 57.5 57.5t5.5 48.5q-7 19 -22 19q-14 0 -32 -14t-37 -35.5t-37 -46
t-31.5 -45.5t-21 -34.5t-5.5 -12.5q21 10 57 27t66 36z" />
    <glyph glyph-name="quotesingle" unicode="'" horiz-adv-x="259" 
d="M240 800q9 -11 12 -16q1 -1 5 -8t1 -9q-15 -13 -31.5 -39t-30.5 -55t-23.5 -58t-10.5 -49q0 -3 -3 -3q-5 0 -17.5 9.5t-26 22.5t-24 26t-10.5 20q2 21 11 51t23 60t31 57q17 26 33 40q0 1 2 1q6 0 17 -8.5t22 -19.5t20 -22z" />
    <glyph glyph-name="parenleft" unicode="(" horiz-adv-x="622" 
d="M293 710q-57 -82 -96 -174.5t-60 -186.5q-14 -65 -20.5 -131.5t-1.5 -133.5q3 -43 12.5 -84.5t31.5 -79.5q3 -4 7 -10q2 -3 5 -8t4.5 -10.5t0.5 -9.5t-6 -4q-9 0 -19 7.5t-17 12.5q-25 23 -43.5 54t-30.5 65.5t-18.5 70t-9.5 67.5q-5 61 0 121.5t17 120.5q20 98 58.5 196
t96.5 184t134.5 155t172.5 109q2 1 5 1q8 0 19 -7.5t21.5 -17.5t19 -21t11.5 -17l2 -3q1 -3 2 -6.5t1 -7t-2 -4.5q-92 -38 -166.5 -102.5t-130.5 -145.5z" />
    <glyph glyph-name="parenright" unicode=")" horiz-adv-x="623" 
d="M591 765q5 -61 0 -121.5t-17 -120.5q-20 -99 -59 -197.5t-97.5 -184.5t-136 -155t-174.5 -109q-9 0 -21.5 8t-24 19t-20 23.5t-10.5 21.5q-3 11 6 15q-1 -1 -3 -1q87 36 157.5 95.5t125.5 134.5t94.5 161t62.5 174q19 71 28.5 143.5t5.5 145.5q0 5 -0.5 8.5t-0.5 8.5v5
q-1 13 -3.5 30t-6 34t-8 33t-10.5 28q-2 6 -5 12t-5 11q-2 2 -2 3q-3 5 -6 9.5t-6 9.5q-4 5 -7.5 12.5t-2.5 14.5t9 7q10 0 19 -6.5t17 -12.5q25 -22 43 -53.5t30 -66.5t18.5 -71.5t9.5 -67.5z" />
    <glyph glyph-name="asterisk" unicode="*" horiz-adv-x="358" 
d="M251 911q-1 3 5 3t17 -4t22.5 -9.5t21 -11.5t10.5 -11q3 -8 -1.5 -15.5t-10.5 -14.5q-17 -17 -39 -32t-45 -28q20 -17 41 -33.5t43 -31.5q3 -2 -2 -4.5t-12 -5t-14 -4.5t-8 -2q-16 -4 -37 -4q-8 0 -12 2q-5 4 -9.5 7t-9.5 7q-1 -19 -1.5 -37t-1.5 -36q-1 -9 -4.5 -14.5
t-12.5 -5.5q-10 0 -22.5 7.5t-23.5 18t-18.5 23.5t-7.5 23q1 8 1 16.5t1 17.5l-15 -6q-1 -1 -5 -1q-8 0 -20 5t-19 9q-1 0 -7.5 3.5t-12.5 7.5t-10 8t-1 5q21 8 40.5 17.5t39.5 19.5q-19 17 -36.5 35.5t-28.5 37.5q-5 8 -8 17t2 15q3 5 13 8.5t22 6t23.5 3.5t17.5 1
q2 -1 6.5 -2t2.5 -3q-2 -4 -2 -7q1 -10 10 -24q1 8 4.5 27t9 38.5t13.5 34.5t18 15q14 0 26.5 -8.5t22.5 -18.5q5 -5 10.5 -12t9.5 -15.5t4.5 -17t-4.5 -15.5q-1 -1 -1 -1.5t-1 -1.5q-5 -9 -8 -18l-6 -18q6 5 12 11.5t9 14.5q0 5 -1 8z" />
    <glyph glyph-name="plus" unicode="+" horiz-adv-x="604" 
d="M538 364q-2 0 -3 1q-33 9 -67 13.5t-69 6.5h-19q-5 1 -9 1h-10q-8 0 -16.5 -0.5t-16.5 -0.5q-11 -33 -18.5 -67t-10.5 -69v-19q0 -18 3 -36v-1q1 -2 1 -3t1 -3q0 -1 1 -2q0 -2 1 -4q0 -1 0.5 -1.5t0.5 -1.5q6 -12 5 -25t-19 -13q-8 0 -17.5 5.5t-18 13t-15.5 16t-10 15.5
q-13 23 -18 49t-4 52q1 22 3.5 43.5t7.5 42.5q-29 -3 -57 -8t-57 -12q-1 0 -1.5 -0.5t-2.5 -0.5q-7 0 -15 4.5t-16 10.5t-14.5 13t-10.5 12q-3 3 -7.5 10.5t-7 15t-1.5 14.5t9 9q51 13 102.5 19.5t104.5 8.5q17 52 39 101.5t51 96.5q3 5 10 5q15 0 27.5 -8.5t22.5 -18.5
q11 -11 20 -28t0 -32q-17 -29 -31 -58t-27 -59q40 -3 79 -9.5t77 -21.5q17 -6 33 -23.5t23 -34.5q2 -5 3 -12t-3 -11q-3 -3 -9 -3q-4 0 -8 1t-7 2q-3 2 -9 4z" />
    <glyph glyph-name="comma" unicode="," horiz-adv-x="171" 
d="M132 72q9 -12 9.5 -29t-4 -35t-8.5 -29q-4 -10 -12 -27.5t-19 -34t-24 -28.5t-25 -12q-5 0 -10 2t-8 4q-4 3 3 12t14.5 22.5t10 31t-10.5 36.5t-13 35.5t7 29.5q6 13 17.5 21.5t21.5 10.5q5 1 9.5 1.5t8.5 0.5q23 0 33 -12z" />
    <glyph glyph-name="hyphen" unicode="-" horiz-adv-x="598" 
d="M391 307q52 -5 101 -24q8 -3 19 -11.5t22 -19.5t20 -22t13 -20q0 -1 2 -6.5t-4 -3.5q-45 17 -100 23.5t-102 6.5q-63 0 -127 -7t-125 -22q-1 -1 -2 -1q-6 0 -16.5 8.5t-21.5 20t-20.5 22.5t-12.5 15q0 1 -4.5 8.5t-1.5 8.5q62 16 126.5 22.5t128.5 6.5q52 0 105 -5z" />
    <glyph glyph-name="period" unicode="." horiz-adv-x="168" 
d="M66 -34q-21 7 -31 28.5t-2 44.5q6 19 21 30t33 11q10 0 15 -2q21 -7 31 -28t2 -44q-6 -19 -21 -31q-16 -11 -33 -11q-5 0 -15 2z" />
    <glyph glyph-name="slash" unicode="/" horiz-adv-x="525" 
d="M480 752q44 77 78.5 133.5t50.5 79.5q2 3 11 -3t19 -15t19 -17.5t10 -10.5q18 -20 30 -39q2 -4 5 -9.5t0 -10.5q-169 -235 -329 -476t-292 -499q-2 -4 -11 2.5t-11 8.5q-8 6 -15.5 13t-14.5 15q-2 2 18.5 43t55.5 107t81.5 151.5t97 177t102 182t95.5 167.5z" />
    <glyph glyph-name="zero" unicode="0" horiz-adv-x="487" 
d="M489 498q-8 -39 -24 -91t-39 -107t-53 -108t-65.5 -95t-76.5 -67.5t-87 -25.5q-24 0 -46.5 8t-42 21.5t-36.5 31t-29 35.5q-24 36 -31 79.5t-5 85.5q2 49 13.5 103t31.5 108.5t47 106.5t61 97t74 81t84 58q6 2 8 2q12 0 28.5 -11.5t24.5 -19.5q20 13 42 13q11 0 22 -3.5
t21 -8.5q36 -20 59 -51t30 -72q8 -42 3 -85t-14 -85zM416 696q0 6 -0.5 12t-1.5 12q-22 -13 -31.5 -31.5t-15.5 -41.5q-3 -7 -10 -7q-9 0 -20.5 7t-23 17t-20.5 21t-12 18l-3 -2q-44 -36 -81 -84.5t-65.5 -103t-48.5 -112.5t-31 -114q-5 -30 -8.5 -60t-1.5 -61q0 -19 3 -39
q0 -2 1 -2v-5q5 -19 12 -39h13q41 0 78 22.5t69.5 59t59.5 83t49 94t37.5 91.5t24.5 77q13 46 21 93t6 95z" />
    <glyph glyph-name="one" unicode="1" horiz-adv-x="385" 
d="M435 751q0 -8 -5 -15q-51 -68 -91 -140.5t-71.5 -148.5t-56.5 -155t-45 -161h3q9 2 18.5 3.5t19.5 1.5q29 0 54 -19.5t40 -43.5q8 -13 11.5 -28t-4.5 -29q-1 -1 -6.5 3t-17.5 10t-31.5 11t-48.5 5q-38 0 -91 -13t-127 -48q-18 0 -34 12.5t-27 26.5q-3 3 -8 10t-8 14.5
t-2 14t9 9.5q37 11 73.5 21t73.5 19q-1 3 -0.5 6t0.5 6q17 74 36.5 146.5t43.5 143.5t54 139.5t68 134.5q-17 -17 -35 -32.5t-35 -27t-32 -18.5t-27 -7q-15 0 -25 13.5t-16 25.5q-3 6 -5.5 15t0.5 16q2 6 6.5 7.5t9.5 1.5h5q37 0 70.5 12.5t64 33t57.5 45.5t52 50q3 3 9 3
q14 0 27 -9.5t22 -19.5q5 -5 10 -12.5t8.5 -16t3.5 -16.5z" />
    <glyph glyph-name="two" unicode="2" horiz-adv-x="535" 
d="M430 49l8 -14t5 -13t-6 -7q-20 -2 -40.5 -3.5t-40.5 -3.5q-81 -5 -162.5 -7t-163.5 -7q-7 -1 -13.5 4t-11.5 8q-12 9 -25.5 24t-21.5 28q0 1 -1.5 3.5t-2.5 6t-1 6.5t2 4q22 12 42 28t40 33q32 27 71.5 65.5t81 84t81.5 96t72 101.5t53 101t25 94q2 15 0 30q0 4 -1 8
q-1 3 -1 7q-1 5 -2 8.5t-3 7.5q-1 0 -2 0.5t-2 0.5h-3q-6 2 -12 2.5t-11 0.5q-45 0 -88.5 -19.5t-78.5 -52t-57 -74.5t-22 -87q0 -6 -5 -6q-9 0 -22.5 9.5t-25.5 22.5t-21 26.5t-9 20.5q0 48 23 92.5t60 78t83 54t92 20.5q35 0 69 -19.5t61 -49t43.5 -65.5t17.5 -69
q1 -44 -16.5 -93.5t-47 -101t-67.5 -101.5t-77.5 -95.5t-77.5 -84t-67 -65.5q54 2 107.5 4.5t107.5 8.5q7 1 13.5 -4t11.5 -8q9 -7 16.5 -15t15.5 -16q2 -2 7 -8z" />
    <glyph glyph-name="three" unicode="3" horiz-adv-x="583" 
d="M352 392q-28 0 -61 -5t-61.5 -11t-49 -11.5t-23.5 -6.5q-1 -1 -3 -1q-8 0 -17.5 10t-18.5 22.5t-15.5 25.5t-8.5 19q-1 2 -3 10.5t3 10.5q69 33 127.5 67.5t120.5 78.5q26 18 57 43.5t53 49t26 40t-24 16.5q-18 0 -53 -9t-92 -30q-22 -8 -55.5 -23.5t-66 -36t-57.5 -45.5
t-28 -51v-5q2 -5 0 -8.5t-7 -3.5q-6 1 -12 6.5t-10 10.5q-14 14 -24 32t-15 38q-1 9 0 18q1 16 9 29t19 24q26 27 67 49.5t86.5 38t91 24t81.5 8.5q26 0 50.5 -5t45.5 -19q12 -8 24 -20t22 -26t16.5 -29.5t6.5 -29.5q0 -20 -5 -37t-16 -33q-12 -16 -38 -39.5t-55 -47
t-56.5 -43.5t-44.5 -31q57 -2 91 -28.5t57 -79.5q13 -28 12 -54q-1 -23 -12.5 -45t-25.5 -40q-34 -45 -79.5 -82.5t-97.5 -64t-108.5 -41t-113.5 -14.5q-24 0 -48 2.5t-47 7.5q-6 2 -13.5 8.5t-14 14.5t-12 16.5t-8.5 14.5q-1 2 -4 9t-6 15t-3 14.5t5 6.5h2q46 -10 96 -10
q41 0 82.5 8.5t81.5 23.5t77 37t67 49q57 50 80.5 82.5t23.5 51.5t-19.5 26.5t-48.5 7.5z" />
    <glyph glyph-name="four" unicode="4" horiz-adv-x="635" 
d="M572 630q-17 -44 -35 -88q-27 -66 -55.5 -131t-54.5 -132q-26 -69 -46 -138.5t-33 -141.5q-1 -7 -12 -7t-19.5 5.5t-16.5 12.5q-13 11 -24.5 28t-8.5 34q18 109 56 218q-42 -9 -90.5 -18.5t-93 -18t-79 -14.5t-49.5 -8q-10 0 -21 8t-21 19.5t-17 24t-10 21.5q-2 5 -3 13
t3 13q20 20 40.5 39t42.5 38q38 33 79 65q40 32 78 66.5t72 74t59 87.5q27 54 36 114q1 9 8 9q9 0 19 -7t19 -17t16 -20.5t11 -17.5q3 -7 5.5 -15t1.5 -16q-5 -53 -26 -96.5t-51.5 -79t-68 -65.5t-75.5 -55.5t-73.5 -48.5t-62.5 -45q38 0 76.5 -0.5t76.5 -2.5l28 -2
q14 -1 28 -1q15 0 30 1t29 4q15 40 31.5 79t33.5 79q32 73 61.5 146.5t55.5 148.5q3 8 12 8t18.5 -5.5t18.5 -14t16 -17.5t11 -16q2 -5 5 -13t1 -15q-15 -45 -32 -89z" />
    <glyph glyph-name="five" unicode="5" horiz-adv-x="485" 
d="M369 471q-18 16 -47 16q-22 0 -47.5 -7.5t-52 -18.5t-51 -24.5t-43.5 -24.5t-30.5 -18.5t-12.5 -7.5q-1 -1 -3 -1q-7 0 -17 10.5t-20 24.5t-17 27.5t-8 18.5q-2 6 -1 9q1 13 12.5 43.5t29 70t38.5 81.5t41 77t37 57.5t25 22.5q4 0 9.5 -4.5t11.5 -10.5t10.5 -12t6.5 -9
q32 -11 64.5 -19t67.5 -8q24 1 48.5 2t48.5 1q8 0 15.5 -5t14.5 -12.5t12.5 -16t9.5 -14.5l5 -9q3 -7 6 -14.5t2.5 -13.5t-6.5 -6h-36q-15 0 -30 -1q-11 -1 -21 -1.5t-21 -0.5q-16 0 -41.5 4t-51.5 11t-48 16t-32 18q-19 -22 -38 -52.5t-36 -64t-32 -67t-26 -60.5
q18 12 40 25t46.5 23.5t50 17.5t49.5 7q30 0 56.5 -12.5t46.5 -42.5q18 -27 31.5 -56t16.5 -63q5 -53 -13 -104.5t-46 -94.5q-21 -33 -53 -65t-69.5 -57t-79 -40t-83.5 -15q-58 0 -104 29t-80 74q-7 8 7 8q7 0 17 -2t20.5 -4t19.5 -4.5t15 -4.5q24 -6 49 -6q50 0 98.5 21.5
t90.5 56.5t74 78.5t50 87.5q7 19 12.5 38.5t6.5 39.5q2 42 -15 58z" />
    <glyph glyph-name="six" unicode="6" horiz-adv-x="580" 
d="M549 380q2 -32 -7.5 -62.5t-21.5 -59.5q-16 -40 -48.5 -84.5t-73.5 -82t-87 -62.5t-90 -25q-34 0 -65.5 16t-57.5 40.5t-45 55t-28 60.5q-7 22 -9 45t-1 46q2 53 15 103.5t32 98.5q11 27 29 63.5t41.5 75t51 76.5t58.5 67.5t63.5 48t65.5 18.5q17 0 36 -7.5t35.5 -19.5
t29.5 -27.5t17 -32.5q2 -13 -6 -14q-5 -2 -12.5 2.5t-11.5 7.5l-2 2q-8 2 -13 4q-15 0 -26.5 -2t-25.5 -7q-35 -15 -68 -44.5t-62.5 -67.5t-55.5 -82t-46.5 -88.5t-35 -86.5t-22.5 -77q-5 -26 -8 -52t-2 -52q0 -8 1 -12v-4q2 -14 5 -28t8 -25q1 -1 1 -2q3 -2 5.5 -3t4.5 -2
h-2q1 -1 7 -3t8 -2q2 -1 7.5 -3t7.5 -1q-1 -1 -3 -0.5t2 0.5h4q4 -1 10 -1q17 0 32.5 4t30.5 10q45 20 88.5 56t78.5 81t57.5 95.5t26.5 98.5v23q-4 1 -7.5 1h-6.5q-40 0 -77.5 -18.5t-69 -48t-54 -66.5t-31.5 -73q-1 -7 -8 -7t-16 6t-17.5 14.5t-15.5 17t-10 14.5
q-3 4 -7.5 12.5t-2.5 13.5q10 40 33.5 79t56.5 70.5t73 51t82 19.5q30 0 57.5 -14.5t49 -37.5t34.5 -52t14 -58zM119 97q-1 0 -2 1q1 -1 2 -1z" />
    <glyph glyph-name="seven" unicode="7" horiz-adv-x="549" 
d="M-73 730q-2 0 -4 2zM516 735q3 -10 2 -18q-3 -14 -9 -27.5t-12 -26.5q-23 -45 -48.5 -87.5t-51.5 -85.5l-64 -108t-62 -110q-13 -24 -30.5 -58.5t-33.5 -71t-26.5 -72.5t-10.5 -65q0 -4 -4 -4q-8 0 -21 9.5t-26 22t-22 25t-9 18.5q0 35 12.5 72.5t26.5 69.5
q36 85 82 165.5t94 159.5q22 36 42 72.5t43 71.5q29 47 34.5 65.5t-5.5 18.5q-10 0 -30 -10.5t-47 -26t-59.5 -33.5t-67 -33.5t-69.5 -26t-66 -10.5q-6 0 -11.5 0.5t-11.5 1.5q-19 3 -37.5 15.5t-30.5 27t-14 25.5t13 11h6q6 -1 12 -1.5t12 -0.5q26 0 52.5 5.5t52.5 13.5
q38 12 74.5 28t72.5 31q24 11 57.5 23t59.5 12q17 0 37.5 -8t39 -20.5t33.5 -28.5t21 -31z" />
    <glyph glyph-name="eight" unicode="8" horiz-adv-x="500" 
d="M299 354q19 -17 37 -36.5t32 -41t20 -42.5q5 -17 4.5 -32t-7.5 -32q-7 -18 -19 -33t-26 -29q-21 -19 -46.5 -38t-53.5 -33.5t-58 -23.5t-59 -9q-57 0 -101.5 31t-73.5 77q-13 20 -19.5 41.5t-2.5 45.5q5 31 21.5 58.5t39.5 51.5t49 44.5t50 37.5q11 8 22.5 16.5
t22.5 16.5q-19 13 -41.5 31t-42.5 39.5t-35 44.5t-19 47q-2 15 2 30.5t10 29.5q20 43 56 74.5t80.5 52.5t92.5 33.5t91 18.5q15 3 32 3q13 0 26 -2.5t24 -7.5q13 -5 27.5 -16t28 -25t24 -29.5t13.5 -29.5q4 -16 1.5 -32.5t-9 -32.5t-15.5 -31t-18 -28q-40 -60 -91 -111.5
t-106 -98.5q17 -13 37 -30zM228 694q-38 -18 -71 -42.5t-56 -55.5t-26 -67v-15l1 -2q1 -2 1 -3t1 -3q8 -6 14 -10l6 -5q8 -5 15 -9.5t15 -9.5q9 -6 18 -11.5t17 -10.5q30 25 68 60t74.5 75t66.5 80.5t43 76.5q-30 -2 -59.5 -7.5t-58.5 -13.5q-32 -10 -69 -27zM276 206
q22 25 31 49q1 4 3 14q2 8 0 16v6l-4 12q0 2 -0.5 2.5t-0.5 1.5q-1 1 -1 1.5t-1 1.5q-7 6 -14 11.5t-15 10.5l-2 2q-10 7 -19 13q-10 6 -20 13q-20 -16 -39.5 -31t-39.5 -29q-21 -15 -42.5 -31.5t-40.5 -36t-34 -42t-24 -47.5q-4 -12 -5 -24t0 -24l4 -2q17 -4 40 -4
q27 0 57 8q26 8 56.5 24.5t59 38t51.5 46.5z" />
    <glyph glyph-name="nine" unicode="9" horiz-adv-x="525" 
d="M479 443q-11 -47 -27.5 -91.5t-38.5 -87.5q-17 -34 -45.5 -79.5t-63.5 -86t-76 -68.5t-84 -29q-17 -1 -33.5 4.5t-30.5 14.5q-35 21 -56 56q-2 2 -5 9t1 10q1 1 3 1q5 0 9.5 -2t6.5 -4h1l4 -2q2 -1 3 -1t3 -1l10 -2t11 -1q37 0 73 24t68 58t58 72t42 66q-25 -14 -53 -23
t-57 -9q-32 0 -64.5 14.5t-60 38t-48 52.5t-29.5 59q-10 33 -9 67t9 66q11 42 36 87t60 81.5t78 60.5t89 24q41 0 79.5 -19.5t69 -50.5t52 -69.5t27.5 -76.5q6 -41 2 -82t-14 -80zM393 725q-10 5 -25 10q-8 2 -16.5 3t-17.5 1q-42 0 -80.5 -21.5t-71 -54.5t-57 -72
t-37.5 -75q-7 -23 -11 -46.5t-4 -47.5q0 -30 11 -60q4 -2 6 -2q2 -1 4 -1.5t4 -1.5l-2 1h-1h2q2 -1 4 -1q14 -3 29 -3q26 0 50.5 7.5t47 19.5t42.5 28t38 34q2 2 4 2q5 0 12.5 -4.5t15 -10.5t14 -12.5l9.5 -9.5q15 38 26.5 77.5t17.5 80.5q8 47 3 94q-1 7 -1.5 13.5
t-2.5 14.5v3l-1 1q-2 8 -4.5 16t-6.5 16z" />
    <glyph glyph-name="colon" unicode=":" horiz-adv-x="277" 
d="M166 92q-6 -20 -21.5 -31t-32.5 -11q-5 0 -15 2q-21 7 -31 28t-2 44q6 20 21 31t33 11q5 0 15 -2q21 -7 31 -28t2 -44zM114 300q-10 21 -2 44q6 20 21.5 31t32.5 11q5 0 15 -2q21 -7 31 -28t2 -44q-6 -20 -21.5 -31t-32.5 -11q-5 0 -15 2q-21 7 -31 28z" />
    <glyph glyph-name="semicolon" unicode=";" horiz-adv-x="284" 
d="M147 -49q-8 -17 -19.5 -33.5t-24 -28.5t-25.5 -12q-5 0 -9.5 2t-7.5 4q-4 3 3 12t14.5 22.5t10 31t-10.5 36.5t-13 35.5t6.5 29.5t18 21.5t21.5 10.5q5 1 9.5 1.5t8.5 0.5q23 0 32.5 -12t10.5 -29q0 -17 -4.5 -35t-8.5 -29q-4 -10 -12 -28zM151 186q-21 7 -30.5 28
t-2.5 44q6 20 21.5 31t32.5 11q5 0 15 -2q21 -7 31 -28t2 -44q-6 -20 -21 -31t-33 -11q-5 0 -15 2z" />
    <glyph glyph-name="less" unicode="&#x3c;" horiz-adv-x="756" 
d="M53 313q10 4 19 8q19 8 38 14.5t38 13.5q50 17 99.5 34t98.5 36q32 12 76.5 30.5t88.5 41.5t79.5 49t48.5 54q1 3 2 6.5t1 6.5q1 3 1 8v3q-3 12 7 12q9 0 21.5 -8.5t23.5 -20t19.5 -23.5t9.5 -20q6 -25 -8 -51q-15 -28 -52 -54t-80.5 -48.5t-87 -39.5t-71.5 -28
q-63 -24 -125 -45.5t-125 -44.5q57 -19 122.5 -43t128.5 -55.5t117.5 -71t90.5 -89.5q3 -5 7 -12t3 -14q0 -7 -7 -7q-8 0 -17.5 5.5t-18 13t-15.5 16.5l-20 22q-2 2 -3 2q-5 4 -10 7.5t-10 7.5q-27 18 -56.5 32t-58.5 28q-3 2 -6 2.5t-5 2.5q-61 24 -122 46t-123 44
q-18 6 -36.5 12.5t-35.5 15.5q-20 10 -37.5 27t-27.5 37q-4 6 -5 13.5t5 12.5q8 7 18 11z" />
    <glyph glyph-name="equal" unicode="=" horiz-adv-x="689" 
d="M660 453q1 -7 -4 -12q-4 -3 -10 -3q-4 0 -8 1t-6 2q-3 1 -5.5 2t-5.5 2l-1 1h-3q-6 2 -8 2q-38 11 -78 15t-79 4h-2q-65 0 -130 -6.5t-128 -22.5q-1 0 -2 -0.5t-2 -0.5q-7 0 -15.5 4.5t-16.5 10.5t-14.5 13t-10.5 12q-3 3 -7 11q-5 7 -7.5 15t-1.5 15t10 9
q63 15 127 21.5t128 6.5q56 0 112 -6t108 -26q19 -7 34 -23.5t23 -34.5q2 -5 3 -12zM161 342q63 6 126 6q54 0 108 -5q53 -6 104 -25q14 -6 31.5 -23.5t26.5 -29.5q2 -2 5 -7l5 -10q2 -5 2 -9t-5 -4q-2 0 -6 2q-5 2 -10 3.5t-10 3.5h-2q-42 13 -86.5 16.5t-88.5 3.5
q-64 0 -128 -6.5t-126 -22.5q-9 2 -15 6l-10 7q-6 5 -13.5 12t-15 15.5t-13.5 17t-8 15.5q-5 10 3 11q62 16 126 23z" />
    <glyph glyph-name="greater" unicode="&#x3e;" horiz-adv-x="757" 
d="M31 25q-5 31 11.5 55.5t39.5 42.5q37 30 92.5 58t116.5 52.5t122 46t110 37.5l56 20q-52 18 -117 41.5t-128.5 54t-118 68t-86.5 83.5q-2 2 -6.5 9t-8 15t-3 14.5t8.5 8.5q16 0 33.5 -14t26.5 -27q2 -2 6 -8q2 -2 4 -3q2 -3 5.5 -6t6.5 -5l2 -2q50 -39 114.5 -65.5
t124.5 -48.5h1q2 0 3 -1q3 -1 1 -1l68 -24q26 -9 51.5 -17.5t51.5 -17.5q32 -12 61.5 -29t43.5 -51q3 -8 3.5 -16t-6.5 -13q-4 -3 -8.5 -5.5t-9.5 -4.5q-42 -19 -85 -33.5t-87 -29.5q-58 -20 -115 -41.5t-113 -46.5q-22 -10 -49 -23t-53.5 -29.5t-48 -35t-32.5 -38.5
q-5 -11 -5 -26q3 -15 -9 -15q-10 0 -22.5 7.5t-24 19t-18.5 23.5q-8 12 -10 21z" />
    <glyph glyph-name="question" unicode="?" horiz-adv-x="807" 
d="M650 737l-7 3q1 0 -5 2q-41 16 -90 16q-51 0 -107.5 -16t-110 -43.5t-98 -66t-71.5 -83.5q-24 -40 -24 -84q1 -1 1 -7v-3q1 -8 3 -17t7 -15q3 -5 5.5 -10t3.5 -10q2 -4 0 -9q-1 -4 -8 -4q-14 0 -28 11t-26 27t-21.5 33.5t-13.5 30.5q-13 39 -2 81q15 59 60.5 108.5
t106 85.5t128 56.5t126.5 20.5q89 0 159 -46t113 -121q15 -27 22 -58q8 -39 -2 -70q-13 -44 -51 -81.5t-86 -69t-99.5 -56t-93.5 -43.5q-20 -10 -39.5 -19t-39.5 -19q-19 -9 -43.5 -22t-48.5 -28t-44 -33t-30 -38q-3 -8 -4 -13q-1 -4 0 -10q0 -1 -1 -4q1 -1 1 -3t1 -3
q2 -4 0 -9q-1 -3 -7 -5q-1 -1 -2 -1q-6 0 -12.5 3.5t-11.5 8.5q-18 11 -34 29.5t-18 41.5q-3 29 11 52q9 14 23 27.5t30.5 25.5t34 22.5t32.5 18.5q30 16 60 31t61 29q26 12 60 27t69.5 34.5t70.5 41.5t63 47.5t47 54t22 58.5q1 3 1 11q-1 3 -1 10q-1 14 -6 27l-2 4
q-1 2 -2 5t-3 7l-1 1q-2 4 -3 5q-1 2 -3 5t-4 5l-1 1q-4 4 -10 7l-3 3q1 -1 1 -2q-2 2 -5 4zM151 -64q-20 -14 -43 -14q-3 0 -7 0.5t-9 1.5q-26 8 -37 31q-10 24 0 51q8 21 27 35t42 14h8q13 0 26.5 -10.5t18.5 -21.5q11 -25 1 -51q-8 -22 -27 -36zM677 712q0 1 -2 2z
M677 712q0 -1 1 -2q-1 1 -1 2z" />
    <glyph glyph-name="at" unicode="@" horiz-adv-x="837" 
d="M612 82q1 1 3 1q5 0 1.5 -17.5t-17 -40.5t-38 -46t-62.5 -35q-60 -19 -119 -19q-81 0 -148.5 34t-114 91.5t-69.5 132.5t-16.5 156t47 163t120.5 153q62 55 129 79.5t133 24.5q62 0 119 -19.5t103 -54t77 -81.5t41 -103q13 -72 0.5 -146t-44.5 -133.5t-79.5 -97.5
t-104.5 -38q-30 0 -64 14q-15 6 -24 15t-14.5 19t-8 20t-5.5 19q-5 17 -3.5 32.5t-0.5 27.5q-6 -8 -19.5 -31t-29.5 -48t-32.5 -44.5t-28.5 -20.5q-15 0 -33 10.5t-34 25.5t-28.5 32.5t-16.5 31.5q-6 20 -4.5 40.5t4.5 40.5q11 56 32.5 109.5t55.5 99.5q10 14 22 27
t26.5 23.5t30.5 17t34 6.5q25 0 46 -12.5t39 -28.5l5 -5q2 4 4.5 12.5t5 16.5t4.5 14.5t3 6.5h2q6 0 21.5 -4.5t31.5 -13t28.5 -20.5t10.5 -26q0 -1 -7 -20t-16.5 -48t-20 -65t-18 -70.5t-10 -64.5t2.5 -47q12 -39 35 -39q16 0 33.5 19t33 50t27.5 72t17 85.5t0.5 89
t-22.5 82.5q-28 63 -82 97.5t-124 34.5q-71 0 -147 -38q-64 -32 -107 -80.5t-66.5 -104t-28.5 -114t7.5 -111.5t41.5 -95.5t73 -66.5q33 -18 75.5 -34.5t93.5 -16.5q42 0 89 16t99 58zM379 366q-24 -44 -40 -90t-23 -78q3 3 24 15.5t49.5 43t61 82.5t58.5 134
q-40 -1 -73 -32.5t-57 -74.5z" />
    <glyph glyph-name="A" unicode="A" horiz-adv-x="950" 
d="M802 -92q2 -7 4 -13t4 -13l4 -8l8 -5q23 -5 41 -23t26 -39q2 -5 2.5 -12.5t-4.5 -12.5q-4 -4 -11 -4q-4 0 -8 1t-7 2q-34 11 -61.5 33t-46.5 50q-19 29 -30 62.5t-14 68.5q-5 63 5.5 125.5t26.5 122.5q4 15 8 30.5t9 30.5q-88 19 -158 19q-78 -120 -137.5 -218.5
t-111 -172t-101 -119.5t-107.5 -59q-5 -2 -8 -2h-8q-25 0 -48 9t-43 23q-6 4 -13 11.5t-12.5 16.5t-8.5 18t-1 18q3 10 16 10q8 0 15 -3.5t14 -7.5q1 -1 2 -1h2q14 -3 25 -3h8q20 2 40 6.5t39 13.5q30 16 63.5 47.5t68.5 72t70.5 86t67.5 91t60.5 88t50.5 74.5
q-44 -4 -77.5 -13t-57.5 -19t-39 -19t-23 -14l-4 -2q-7 -4 -9 -6q0 -8 -9 -8t-21 8.5t-23.5 20.5t-20 24t-9.5 19q-1 17 13 25q21 10 55 15.5t71 8t72 3t58 0.5h27q12 0 26 -1q97 145 196.5 286.5t208.5 277.5q4 4 11 4q10 0 19.5 -5t18.5 -12.5t16.5 -16.5t11.5 -16
q4 -8 6.5 -16t1.5 -16q-1 -21 -7 -46.5t-14.5 -52t-18.5 -52t-18 -45.5q-23 -57 -46 -112.5t-45 -112.5q-19 -49 -37.5 -101t-34.5 -105t-27.5 -106.5t-16.5 -106.5v-5q-1 -3 0 -4l-1 -13v-26q0 -13 2 -26q0 -7 1 -14t3 -14zM876 623q23 55 46 111q4 11 6 15.5t3.5 8
t3.5 8.5t5 16q1 2 1 5v1q-2 0 -13.5 -17t-28.5 -37q-83 -101 -150 -194t-124 -178q73 -4 145 -21q14 43 29 85t31 84q22 57 46 113z" />
    <glyph glyph-name="B" unicode="B" horiz-adv-x="899" 
d="M298 -24q60 0 127.5 26t131.5 68t117.5 94t85.5 104q-53 -22 -120 -54t-134 -70.5t-126.5 -80.5t-98.5 -86q3 -1 9 -1h8zM795 356q4 19 -1 36q-11 27 -37.5 34t-51.5 7q-43 0 -87.5 -8.5t-89 -22t-88 -29.5t-83.5 -32q-12 -24 -25 -53t-23.5 -59t-17.5 -60t-8 -58l6 -9
q1 -2 1 -3q118 68 243 123t253 102q6 15 9 32zM856 348q35 11 63.5 20.5t50.5 17.5q44 14 64 14q27 0 30 -28q0 -4 -25 -11q-32 -10 -63 -19.5t-62 -17.5q-17 -5 -29.5 -9t-20.5 -7q3 -36 -9 -72q-15 -42 -45.5 -85.5t-71.5 -83t-89 -74t-99 -60.5t-102.5 -40.5t-98.5 -14.5
q-68 0 -105 29.5t-58 90.5q-4 11 1 23q3 8 13.5 17.5t23 18.5t25 17t19.5 12q-17 15 -34 41t-22 49q-3 17 -2 30q2 26 12 62t25.5 76t35.5 82t40.5 82t41.5 74.5t38 58.5q3 5 8 11.5t11 13.5t12.5 11.5t12.5 4.5q10 0 19.5 -9t15.5 -16q4 -5 8 -10.5t8 -10.5t6 -9.5t4 -7.5
q1 -2 3 -5t4 -7q4 -8 2 -14q-2 -5 -5 -5q-2 0 -3 1q-6 -3 -16 -14t-19.5 -24.5t-17.5 -25.5t-11 -18q35 17 86.5 47.5t103 68t93.5 77.5t57 77q5 14 0 24q-5 11 -18 17t-29 9t-31.5 4t-26.5 1q-56 0 -123 -14t-135 -40.5t-131.5 -64.5t-113 -86.5t-79.5 -106.5t-30 -124
q1 -4 1 -7.5v-6.5q0 -9 1 -13q0 -12 -6 -12q-7 0 -18 10t-20.5 24t-16.5 28.5t-7 23.5q-1 7 -1.5 13.5t-0.5 13.5q0 71 28 131.5t75.5 110.5t109.5 88.5t130 64.5t138 39.5t132 13.5q78 0 133 -28.5t90 -98.5q11 -23 16 -49q3 -19 0 -37q-6 -30 -27.5 -60t-49.5 -57
t-59 -49.5t-55 -37.5q72 -6 122 -45t73 -108zM1094 341q-3 0 -4 1q1 0 1.5 -0.5t2.5 -0.5zM283 105l2 -7z" />
    <glyph glyph-name="C" unicode="C" horiz-adv-x="703" 
d="M685 856q32 -24 55 -56q12 -17 18.5 -36t4.5 -40q-3 -41 -17.5 -87t-38 -90.5t-56 -85t-71 -71.5t-82 -49t-89.5 -18h-15q-7 0 -15 2q-9 1 -21 10t-23 20.5t-20 23.5t-11 19q-1 2 -1.5 7.5t5.5 3.5q8 -1 15 -1.5t15 -0.5q26 0 55 8q59 17 109 57t87.5 92.5t61 113
t30.5 118.5q-34 -1 -70.5 -15.5t-72 -35t-67.5 -44.5t-57 -45q-58 -49 -108.5 -113t-90 -136t-65 -148.5t-33.5 -151.5q-3 -28 -3 -55.5t5 -55.5q2 -8 2 -12l1 -2q2 -8 5 -16.5t6 -16.5q11 -8 30.5 -9.5t31.5 -1.5q53 0 108 21.5t109.5 56.5t107 79.5t99.5 91t86.5 91t68 79
t45 55.5t17.5 21q9 -5 19 -8.5t18 -11.5q2 -2 -11 -25.5t-38 -61.5t-61 -86.5t-81 -98.5t-97 -98.5t-109.5 -87t-119.5 -63t-125 -27.5q-15 0 -31.5 5.5t-33 14.5t-30.5 19.5t-24 21.5q-38 40 -56.5 82t-22.5 97q-3 50 4.5 99.5t21.5 97.5q33 116 97.5 224t153.5 191
q25 23 62 51.5t78 53.5t83.5 41.5t78.5 16.5q41 0 73 -24z" />
    <glyph glyph-name="D" unicode="D" horiz-adv-x="892" 
d="M86 321q0 -1 1 -2q0 -3 1 -4q4 -9 5 -17q1 -7 -1 -17q-5 -8 -13 -8q-12 0 -23 9t-20 21.5t-15.5 26t-9.5 22.5q-5 17 -7.5 32.5t-3.5 30.5q-1 39 11 81q14 48 42 99t66.5 100t85.5 92.5t98.5 76.5t106.5 52t109 19q83 0 149 -39.5t112.5 -102.5t71 -140t24.5 -152
q1 -14 0.5 -27t-1.5 -27q-2 -14 -4 -27.5t-4 -27.5q19 9 41.5 18.5t45.5 17t46.5 12.5t44.5 5q40 0 62 -18q6 -10 6 -18q2 -7 -3 -12q-4 -6 -19 -6q-3 0 -4 1h-10q-27 0 -56.5 -6t-59 -16t-57.5 -22.5t-52 -25.5q-12 -47 -35.5 -105t-56.5 -117.5t-75 -116t-90.5 -100.5
t-102 -70.5t-110.5 -26.5q-95 0 -132 90q-12 32 -5 61q1 7 31 34q14 14 33.5 31.5t44.5 38.5q-14 15 -24 32t-14 37q-4 22 -1 52q3 51 16 112t32.5 124t43 122.5t47.5 106.5l10 20q4 8 11.5 18.5t17.5 10.5q9 0 19.5 -7t20.5 -17t19 -21t14 -19q2 -2 5 -9q3 -8 -1 -11
q-1 -1 -4 -1h-3q-5 -4 -13 -15q-8 -13 -14.5 -25.5t-11.5 -26.5q-3 -7 -5 -11.5t-4 -7.5q-20 -47 -40 -100.5t-37 -109.5t-28.5 -111.5t-13.5 -107.5q82 69 171.5 132.5t180.5 118.5q14 35 23 71.5t17 73.5l1 7v5q4 25 6 52q1 27 0 55q-1 5 -1 14q0 8 -1 13q0 2 -1 4
q-2 14 -4.5 28.5t-7.5 28.5q-5 19 -12 32q-4 8 -10.5 20t-13.5 19l-3 5q-5 5 -7 8l-13 13q-2 1 -9 8q-8 6 -9 7l-3 2q-22 14 -43 22t-47 12q-1 1 -4 1h-1q-5 0 -10.5 0.5t-10.5 1.5q-53 0 -108.5 -19t-108.5 -52t-100.5 -77.5t-85 -94.5t-63.5 -103.5t-35 -104.5q0 -5 -1 -6
q0 -9 -1 -12v-12v-9q1 -1 1 -2v-1q0 -5 1 -6v-3q0 -1 0.5 -1.5t0.5 -1.5q1 -2 1 -6v3zM490 -46q34 27 66 60.5t59.5 70t50.5 74t40 70.5q-40 -28 -92.5 -67.5t-104.5 -85t-97 -93.5t-71 -91q39 2 76.5 19t72.5 43z" />
    <glyph glyph-name="E" unicode="E" horiz-adv-x="737" 
d="M348 529q-14 3 -25 9t-20.5 16t-20.5 25q-9 12 -11 18q-16 -19 -32 -40.5t-29.5 -44.5t-24 -47.5t-15.5 -48.5q-6 -24 -4 -50h5q2 -1 4 -1q12 -2 24 -2.5t24 -0.5q43 0 84.5 5.5t83.5 13.5l21 11q16 7 21 8q11 0 23.5 -7.5t24.5 -18.5t21 -23.5t12 -23.5q0 -3 1 -4v-4
q-2 -9 -5 -10q-13 -6 -27 -9l-16 -4q-40 -24 -89.5 -59t-96.5 -76t-86.5 -86.5t-58.5 -90.5q-2 -7 -4.5 -14t-4.5 -15q-4 -13 -1 -28q10 -50 63 -50q33 0 73 15.5t83.5 40.5t88 57t85.5 65.5t76.5 66t60.5 57.5q54 54 104.5 114.5t85.5 129.5q2 3 3 3q5 0 11 -13
q3 -7 5.5 -12.5t4.5 -9.5q1 -2 2 -5t2 -5q1 -5 -1 -11q-22 -42 -62 -99t-91.5 -117.5t-111 -119.5t-121 -105.5t-122.5 -75.5t-114 -29q-31 0 -63 12t-60 32.5t-49 47.5t-32 57q-7 17 -5 42q3 35 24.5 72t52 72t64.5 66t62 53q-33 6 -61.5 20t-50.5 35t-35.5 49t-15.5 62
q-1 20 3 39q13 63 56 127.5t101.5 123t124.5 105.5t126 74q54 25 104 25q22 0 43.5 -8t40.5 -21.5t33.5 -31.5t21.5 -39q5 -17 2 -32q-9 -46 -47 -95.5t-90.5 -90.5t-111 -67.5t-108.5 -26.5q-19 0 -33 3zM505 690q46 34 83.5 77t56.5 84q-46 -6 -96 -31t-98 -59.5
t-91 -73.5t-75 -74q3 0 4 -1h14q3 -1 10 -1q45 0 95 22t97 57z" />
    <glyph glyph-name="F" unicode="F" horiz-adv-x="784" 
d="M1256 890q22 -7 49.5 -22.5t52 -36.5t41 -46t16.5 -52q0 -12 -10 -25.5t-23 -13.5q-9 0 -21 8.5t-23 20t-19 24t-10 19.5q-1 11 6 15l-2 -1q11 6 16 13q0 3 1 4q-4 2 -7 3t-7 3q-70 22 -138.5 33.5t-140.5 11.5q-137 0 -274 -32t-263 -86q-50 -22 -112.5 -55t-121 -73.5
t-105.5 -87t-67 -95.5q-5 -12 -7.5 -24t-1.5 -25q0 -5 2 -15q15 -8 26 -12q1 -1 2 -1q26 -10 54 -15.5t55 -8.5q10 -2 14 -2h-2q-1 1 1 0q60 -7 101.5 -32.5t73.5 -78.5q8 29 15.5 56.5t16.5 55.5q-9 -6 -17.5 -13.5t-13.5 -16.5q-2 -4 -2 -8q5 -9 5.5 -17t-9.5 -10
q-1 -1 -3 -1q-7 0 -15.5 4.5t-16.5 10.5t-14.5 13t-10.5 12q-9 13 -16 26.5t-6 29.5q1 21 21 37.5t46 29t53.5 20t43.5 10.5q23 57 49.5 113t58.5 109q5 7 17 25t26.5 36.5t29 33t22.5 14.5q9 0 20 -7t21 -17t18.5 -20.5t11.5 -18.5q2 -3 4 -10.5t-3 -11.5
q-26 -21 -48.5 -49.5t-41.5 -60t-35.5 -64t-30.5 -62.5q38 -1 75.5 -5t74.5 -10q17 -3 34.5 -20t26.5 -31q3 -5 6.5 -13.5t1.5 -14.5q-1 -8 -11 -8h-5q-49 9 -100 12q-1 0 -4 0.5t-4 0.5q-34 0 -67.5 -1t-67.5 -6q-21 -54 -40.5 -115.5t-35.5 -125.5t-26 -128t-12 -121
q0 -8 -7 -8q-10 0 -23 8t-24.5 19.5t-20 24t-9.5 20.5q-2 13 -2 25.5v26.5q0 31 1 61t0 61q0 5 -0.5 8.5t-0.5 8.5q-1 3 -0.5 5.5t-0.5 4.5q-2 17 -4.5 35t-7.5 35l-2 4q0 2 -1 3q-1 3 -5 11q-1 1 -2 1l-1 1q-6 2 -11.5 3t-11.5 2h-4q-43 3 -88 12t-85.5 27t-74 46.5
t-54.5 70.5q-19 34 -14 71q3 29 18 57.5t36.5 54t45.5 48t45 39.5q81 64 182 116t210 88.5t220 56.5t212 20q72 0 144.5 -10.5t141.5 -34.5zM355 216q-1 0 -3 3zM351 220q0 -1 1 -1q-1 0 -1 1zM349 219q-1 0 -1 2zM1330 801v3l-2 4l2 -2v-5zM1335 797q0 1 -0.5 1t-0.5 1
q0 -1 3 -4zM1339 792l2 -1l2 -2q-1 0 -1 0.5t-1 0.5q1 -1 0.5 -1t-2.5 3z" />
    <glyph glyph-name="G" unicode="G" horiz-adv-x="763" 
d="M673 515q2 0 4.5 -0.5t4.5 -0.5h2q10 0 24.5 -11.5t28.5 -27t25 -32.5t14 -29q1 -8 0.5 -15.5t-1.5 -15.5q-4 -24 -11.5 -46.5t-15.5 -45.5q-25 -65 -53 -128t-55 -127q-28 -66 -52.5 -132.5t-38.5 -136.5q-5 -24 -7 -49t1 -50q1 -4 -2 -4q-7 0 -20 10t-25.5 23.5
t-22.5 26.5t-10 19q-5 38 1 75t15 73q7 27 20 60t30 69.5t36 74t37.5 73t34.5 67.5t27 57q-19 -23 -48.5 -60.5t-62 -77t-63.5 -76t-52 -57.5q-20 -21 -49 -48t-62 -51t-67 -40.5t-65 -16.5q-19 0 -39.5 10.5t-38.5 26t-33 33.5t-24 33q-23 40 -26 85t2 89q11 99 47.5 206
t92 206.5t127.5 184.5t153 140q15 11 34.5 22.5t40 20.5t42 15t40.5 6t37.5 -8.5t35 -22t30 -30t22.5 -31.5q12 -19 14 -38.5t-3 -40.5q-1 -3 -8 1t-9 5q-14 9 -30.5 27t-25.5 32q-2 4 -4.5 8t-1.5 9v2q0 1 1 2h-3q-34 -6 -69.5 -23.5t-68.5 -41t-62.5 -50t-53.5 -50.5
q-57 -60 -110 -140.5t-94 -169.5t-67 -180t-29 -171q-1 -17 -1 -27t2 -27q6 -48 43 -48q29 0 72 27.5t93 71t103 97.5t101.5 106t88 97t62.5 71q1 3 3 7q-8 4 -21 4q-22 0 -58.5 -9.5t-77.5 -31t-83 -57t-74 -86.5q-1 -2 -14.5 9t-26.5 30t-18 43t11 49q15 23 37.5 39.5
t49 29.5t54.5 23.5t53 19.5q15 6 35.5 13.5t43 14.5t44 12t37.5 5z" />
    <glyph glyph-name="H" unicode="H" horiz-adv-x="1127" 
d="M609 772q0 1 -1 2q0 -1 1 -2zM613 766l-1 2zM1120 300q6 -11 5 -26q-1 -5 -3.5 -15.5t-7 -21.5t-10 -19t-11.5 -8q-5 0 -7 11q-2 14 -14 24t-27.5 16.5t-32.5 10.5t-28 6q-7 -14 -13.5 -29t-13.5 -29q-12 -27 -23.5 -54t-22.5 -54q-7 -17 -14.5 -37t-13.5 -41.5
t-9.5 -42.5t-3.5 -40v-11q0 -7 1 -10v-4.5t2 -4.5q0 -3 1 -4q7 -8 14.5 -19.5t8.5 -22.5q0 -14 -14 -14q-18 0 -35 14t-30.5 34t-22.5 42.5t-11 39.5q-1 19 0 38q7 63 29 121t48 115q2 6 5 12t5 12q-7 1 -14 1h-15h-30q-42 0 -82.5 -1t-82.5 -6q-2 -5 -3.5 -9t-3.5 -8
q-9 -23 -18 -45t-19 -45t-19.5 -45.5t-17.5 -45.5q1 -15 1 -30t-2 -30q-5 -57 -20.5 -112t-38.5 -106q-4 -10 -15 -10q-9 0 -19 5t-19 13t-16.5 16.5t-10.5 16.5q-8 21 -8 50q-1 68 20 137q10 34 21.5 67t24.5 65q-8 23 -27.5 38.5t-39.5 27.5q-11 5 -20 10t-17 10
q-16 9 -16 18q0 15 14.5 25t34 16t39.5 9.5t31 4.5q17 2 35 5t36 5q29 69 53 140.5t30 146.5q0 34 -2.5 67.5t-14.5 62.5l-2 4q-1 1 -3 5q-1 1 -0.5 1t1.5 -2q-1 1 -1 2t-1 2l-1 1q-1 1 -1 2l-1 1q-1 1 -1 1.5t-1 1.5t-1 1.5t-1 1.5l-2 2l-2 2q-1 1 -1.5 1t-1.5 1l-6 3
q-15 7 -29.5 9.5t-31.5 2.5q-50 0 -100.5 -21.5t-97 -56t-85.5 -76t-66 -82.5q-41 -63 -65 -132t-30 -143q0 -2 -1 -7v-2q-2 -18 0 -35q0 -9 0.5 -18t1.5 -17q1 -15 -10 -19q-12 0 -25 6.5t-24.5 16.5t-19 23t-8.5 25q-3 27 -3 54q1 87 29.5 174t79 162t120.5 133t154 88
q45 16 93 16q57 0 102.5 -23.5t77.5 -62.5t49.5 -88.5t19.5 -102.5q2 -55 -7 -104q-8 -41 -20 -80t-26 -77q57 5 114.5 6.5t115.5 1.5q9 20 18.5 40.5t19.5 40.5q10 23 20 45.5t20 45.5q18 42 35 92t19 96q0 20 -4 33q-2 6 -2 11q0 12 13 12q14 0 26.5 -8.5t23 -21t18 -27
t9.5 -27.5q4 -19 3.5 -38t-4.5 -38q-16 -69 -42.5 -135.5t-58.5 -129.5q11 -2 26.5 -5t31 -8t28 -13t18.5 -20zM610 771q0 -1 0.5 -1t0.5 -1zM638 625q-1 0 -1 -1q1 2 1 3.5t0 -2.5zM617 758q0 1 -0.5 1.5t-0.5 1.5q0 -2 1 -2v-1z" />
    <glyph glyph-name="I" unicode="I" horiz-adv-x="521" 
d="M513 720q-1 13 -6 25q-2 1 -3 1t-2 1l-13 4q-30 8 -61 9q-68 0 -123.5 -36t-95.5 -91.5t-63.5 -122t-26.5 -126.5q0 -30 6 -62q1 -3 1 -5q1 -2 1.5 -3.5t1.5 -3.5l3 -9q1 -2 3 -4q3 -4 7 -11.5t6.5 -15.5t1.5 -15t-9 -9q-16 0 -30.5 9.5t-26.5 23t-20.5 30t-13.5 29.5
q-20 47 -18 99t14 100q14 57 42.5 112.5t70 100t94.5 72t116 27.5q39 0 76 -10.5t67.5 -31.5t52.5 -51.5t31 -70.5q4 -18 4.5 -36.5t-0.5 -37.5q-3 -45 -15 -88t-26 -85q-17 -51 -37 -100l-40 -98q-21 -48 -41.5 -95.5t-39.5 -95.5q-15 -38 -29 -76.5t-22 -79.5
q-2 -7 -2.5 -14t-1.5 -15v-6q1 -3 1 -8q18 -20 21 -40q3 -13 -9 -18q-15 0 -29 9q-25 16 -43.5 40t-24.5 53q-4 20 -1 43q2 25 8 49.5t14 47.5q23 68 50.5 132.5t55.5 129.5q29 69 57 137.5t48 140.5q8 29 12.5 57t7.5 57v4q0 14 -1 28z" />
    <glyph glyph-name="J" unicode="J" horiz-adv-x="645" 
d="M501 700q-1 0 -3 1q-3 1 -6.5 1t-6.5 1h-2q-42 0 -85 -24.5t-82.5 -64.5t-74 -90.5t-60 -103t-41 -102t-16.5 -87.5v-15q17 -14 31 -32t15 -24q1 -4 -0.5 -10.5t-7.5 -5.5q-24 1 -46 13t-39 31t-27.5 42.5t-11.5 46.5q-1 38 8 79q9 39 28 86.5t46 95.5t60.5 94t72 81
t80 56.5t84.5 21.5q39 0 71.5 -18t56 -46.5t38 -64t18.5 -71.5q5 -38 2 -76.5t-8 -76.5q-3 -20 -7 -39t-9 -39q12 6 38.5 17t56 22.5t55.5 20t37 8.5q10 0 13.5 -8.5t5.5 -19.5q1 -13 0 -29q-63 -12 -117.5 -30t-103.5 -41q-11 -39 -32.5 -99t-51.5 -126t-66.5 -132.5
t-78 -119.5t-87 -86t-91.5 -33q-15 0 -35.5 6.5t-39.5 17t-33.5 25t-16.5 31.5q-1 8 10.5 35t35 67t58.5 89.5t82 102.5t105.5 106t127.5 100q26 79 46.5 160t20.5 165v2q-1 19 -2.5 38.5t-7.5 36.5v2l-2 6q-1 3 -2 5q-2 1 -3 1zM304 -25q27 45 50.5 89t41.5 84.5t30 69.5
q-75 -55 -129 -116.5t-90.5 -120t-57.5 -107.5t-31 -79q33 9 65 35.5t62.5 63.5t58.5 81z" />
    <glyph glyph-name="K" unicode="K" horiz-adv-x="711" 
d="M276 456q1 2 2 5l2 6t3 11q-32 -47 -81 -74.5t-102 -43.5q-14 -5 -11 -18q2 -9 8 -20t14 -22t16.5 -21t14.5 -17q11 -13 22 -25.5t22 -26.5q4 -6 7 -8l9 -9q10 33 19 66l18 66q9 32 18 65t19 66zM320 95q26 -19 53 -36.5t55 -33.5l5 -3q22 -12 44 -22.5t45 -18.5
q1 0 2 -1q35 -12 71 -15l2 -1q27 0 52 9q23 11 35 32q3 4 7 4q10 0 22 -7.5t23.5 -18t20 -23t10.5 -22.5q2 -8 -3 -15q-17 -26 -41.5 -36t-54.5 -10q-45 0 -95.5 17.5t-100 44t-95.5 57.5t-82 59q-17 -29 -32.5 -58t-29.5 -60q-5 -17 -11 -34.5t-11 -34.5t-11 -34.5
t-11 -34.5v-3l2 4q-2 -6 -2 -5v1q-1 -1 -1 -2t-1 -3q-5 -8 -12 -8q-8 0 -17.5 5.5t-18.5 13t-17 16.5t-12 16q-2 7 -6 13q-4 9 -3 15q24 71 45.5 141t42.5 142q-20 19 -45 44.5t-48 54t-40.5 58.5t-22.5 58q-3 17 6 32q3 5 9 8t11 5l9 3q6 0 9 1q33 9 64.5 32.5t61.5 56.5
t57 72t50 79.5t42 79t32 70.5q5 9 12 9q9 0 18 -5.5t18 -13.5t16.5 -17t12.5 -16q1 -2 3 -5.5t4 -7.5q4 -8 2 -15q-33 -91 -61 -182t-54 -184q-13 -46 -25.5 -91t-25.5 -91q8 10 16.5 20t16.5 21q20 26 39.5 50.5t39.5 49.5l94 120q43 54 87 107t90 105q15 17 38.5 40t50 44
t54.5 36t53 15q15 0 30.5 -6.5t28.5 -17t22.5 -24.5t12.5 -29q1 -6 -4 -11q-3 -3 -8 -3q-8 0 -16 5q-46 -6 -103 -41t-117 -87t-121 -116t-115.5 -129.5t-99 -126.5t-73.5 -107zM525 -20q-1 0 -1.5 0.5t-1.5 0.5l2 -1h1z" />
    <glyph glyph-name="L" unicode="L" horiz-adv-x="483" 
d="M670 -41q6 -5 13 -12.5t13 -16t9 -17.5t1 -18q-3 -10 -16 -10q-9 0 -18.5 5.5t-16.5 10.5q-10 7 -30 10.5t-42 4.5q-23 2 -44 2.5t-34 0.5h-8q-6 0 -12.5 -0.5t-12.5 -0.5q-48 -3 -99 -10.5t-101 -20t-98 -30.5t-90 -42q-6 -3 -13 -3q-10 0 -20.5 6t-20 15.5t-17 20
t-10.5 19.5q-2 3 -3 12t4 12q26 14 51.5 26t52.5 22q-14 18 -18 38q-1 6 -1 12v12q1 31 8.5 68.5t17.5 75.5t21 75t20 66q17 53 36 110t40.5 113.5t45.5 111t51 103.5q8 16 17 31t20 29q6 8 14 15t19 7q5 0 13.5 -5.5t16.5 -13t15 -14.5t10 -11q1 -1 6 -7.5t9.5 -13.5t6 -13
t-4.5 -6q-14 -4 -30.5 -27t-31.5 -50.5t-27 -54.5t-18 -39q-51 -114 -91.5 -231.5t-72.5 -238.5q-8 -30 -14.5 -60t-11.5 -60q144 42 295 42q24 0 51.5 -2t54.5 -7t52 -15t43 -26z" />
    <glyph glyph-name="M" unicode="M" horiz-adv-x="1325" 
d="M1439 738q-36 -75 -74 -163.5t-70 -181.5t-52.5 -186t-20.5 -177q1 -4 1 -12q0 -2 1 -5.5t0 -5.5q0 2 -0.5 3.5t0.5 -1.5q4 -34 16 -68q4 -2 3 -2t-1 0.5t-1 0.5q1 0 1.5 -0.5t1.5 -0.5q20 -8 35 -21.5t26 -30.5q2 -4 6.5 -11.5t2.5 -12.5q-1 -6 -8 -6q-4 0 -6 1
q-31 11 -57 31t-46.5 46t-33.5 56.5t-17 62.5q-8 54 -2 107t17 105q19 91 48.5 177.5t64.5 171.5q-49 -46 -98 -111.5t-94 -136.5t-83.5 -140.5t-68 -125.5t-47 -91.5t-20.5 -36.5q-7 -4 -16 -4q-18 0 -35.5 11.5t-32.5 28.5t-25 36t-13 34q-8 40 -3 81.5t13 80.5
q15 88 38 174t49 171q-25 -43 -60.5 -105t-73.5 -133t-75 -146.5t-65.5 -146t-45 -131.5t-13.5 -103q1 -6 -3 -11.5t-7 -11.5q-2 -6 -5 -8.5t-11 -2.5q-13 0 -28 9.5t-27.5 23.5t-21.5 29.5t-11 27.5q-3 26 2 52t11 51q9 39 20.5 77t23.5 76q14 45 28.5 90.5t28.5 90.5
q14 46 28 91t27 91q15 57 27.5 113.5t12.5 115.5q-2 11 -3.5 20.5t-4.5 18.5q-2 2 -2.5 4t-1.5 4q-1 0 -1 0.5t-1 0.5q-14 6 -28 9l-18 2t-18 1q-23 0 -44.5 -4t-43.5 -11q-66 -21 -129 -62t-112 -96.5t-79.5 -122t-32.5 -138.5v-21q0 -7 1 -10v-4q5 -45 19 -84q4 -1 13 -1
q21 0 35.5 -13t28.5 -27q2 -2 6.5 -8.5t7.5 -13.5t3 -13t-8 -6q-2 -1 -8 -1q-36 0 -63.5 15.5t-48 40t-34 55t-21.5 61.5q-8 32 -11 66t2 67q8 62 35 119t68 105q30 35 70 69t86.5 60.5t95.5 43t97 16.5q38 0 73 -13t64 -36t50.5 -54t31.5 -67q12 -42 6 -85t-14 -85
q-13 -59 -29.5 -116t-34.5 -114q-7 -23 -14 -46.5t-15 -46.5q64 127 132.5 250.5t149.5 240.5q3 5 6 10.5t8 8.5q4 2 6 2q9 0 19.5 -7t21 -16.5t18.5 -20t11 -17.5q5 -12 4 -21q-1 -8 -2.5 -15t-3.5 -15q-8 -30 -16.5 -60t-17.5 -59q-11 -42 -22.5 -82t-22.5 -82
q-14 -59 -27 -118.5t-18 -119.5q2 2 3 4q14 16 26 32t24 33q33 47 64.5 93.5t63.5 94.5q36 54 71.5 108t72.5 108q31 46 63 90.5t67 88.5l24 28t26 27q9 8 19 15t22 9q6 1 14 -4t12 -8q12 -9 22.5 -20t18.5 -25q5 -6 6 -13zM103 227l-1 1zM79 238q0 -1 1 -1zM82 236
q-1 1 -1.5 1t-1.5 1t0 0.5t3 -2.5zM1236 -48q-1 0 -1 2q-1 1 -0.5 0t1.5 -2zM1245 -62q-1 1 -2 1q1 0 2 -1z" />
    <glyph glyph-name="N" unicode="N" horiz-adv-x="831" 
d="M899 808q8 28 13 57q0 4 0.5 7.5t0.5 7.5q-3 5 -6.5 10.5t-5.5 11t-1.5 9t6.5 4.5q12 0 25.5 -8.5t26 -21t22.5 -26.5t13 -24q5 -12 3 -25q0 -17 -3.5 -34t-8.5 -34q-16 -57 -36 -111.5t-41 -108.5q-48 -118 -100 -234.5t-112 -228.5q-9 -16 -17.5 -31.5t-18.5 -29.5
q-3 -4 -5.5 -8t-6.5 -7q-7 -5 -11 -5q-9 1 -17 5.5t-14 9.5q-51 37 -67 95q-8 27 -12.5 55t-9.5 55q-7 41 -12.5 81t-11.5 82q-10 63 -19.5 124.5t-20.5 124.5q-48 -149 -100 -295.5t-118 -288.5q-15 -32 -31.5 -64t-39.5 -59q-8 -10 -18.5 -19t-24.5 -9q-10 0 -21 6
t-21.5 15t-19.5 19t-15 18q-3 5 -7.5 12t-3.5 14q1 6 7 6q4 0 14 -4h4q8 4 14 9.5t11 12.5q27 32 58.5 95t64 142.5t64 167.5t59 170.5t49.5 151.5t35 110q0 2 2 3.5t4 2.5q8 0 18 -6t19.5 -14t17.5 -17.5t12 -15.5q2 -3 7 -12t3 -14q14 -68 26.5 -135.5t23.5 -136.5
q15 -91 28 -180t28 -180q54 95 101.5 199.5t89.5 205.5q24 57 47 115t43 118q9 27 17 55z" />
    <glyph glyph-name="O" unicode="O" horiz-adv-x="694" 
d="M856 341q2 -8 0.5 -14.5t-9.5 -9.5q-57 -24 -119.5 -38.5t-124.5 -14.5h-17q-9 0 -17 1q-11 -28 -29.5 -68.5t-42.5 -84.5t-52.5 -87.5t-60.5 -78t-67 -56t-70 -21.5q-45 0 -84 26t-67 59q-29 34 -43.5 76t-18.5 86q-4 47 1 93.5t15 91.5q21 94 63 191t98 176
q6 9 21.5 28.5t33.5 40t35.5 35.5t27.5 15q12 0 23.5 -7.5t19.5 -15.5q11 18 26 36t33 33t39 25q21 9 43 9q5 0 9.5 -0.5t9.5 -1.5q32 -7 55.5 -27t39.5 -46t24.5 -57t9.5 -61q2 -38 -2.5 -76t-11.5 -76q-8 -42 -19 -83t-25 -82q45 6 90 18.5t87 29.5q1 1 5 1q7 0 15 -4
t16 -10t14.5 -13t10.5 -12q4 -4 8 -11.5t7 -14.5zM184 386q-27 -69 -43.5 -139t-20.5 -132q0 -25 1 -49t6 -49l1 -1q2 -8 4.5 -15t5.5 -15q2 -2 3 -5t3 -5q1 -1 1 -1.5t1 -1.5l3 -3q1 0 2 -2q2 -2 3 -2t2 -1q4 -2 7 -2.5t7 -2.5q10 -2 17 -2q30 2 59.5 20.5t56.5 47.5
t51.5 65t45.5 72.5t37.5 70.5t27.5 59q-48 23 -84 65t-51 93q-8 26 -11.5 52t-2.5 52q0 40 7 74q-41 -49 -76.5 -112t-62.5 -131zM479 359l12 -2q32 80 55 168.5t28 174.5v2q0 18 -0.5 36t-4.5 36q-1 1 -1 3q-7 0 -16.5 -3t-15.5 -6q-33 -18 -57 -48t-40.5 -65.5t-25 -74
t-10.5 -73.5v-3q0 -43 7 -81q0 -1 0.5 -1.5t0.5 -1.5q5 -18 12 -32q1 -2 1.5 -2t1.5 -1l3 -4q0 -1 1 -1l2 -3q8 -4 11 -6l24 -9q6 -2 12 -3z" />
    <glyph glyph-name="P" unicode="P" horiz-adv-x="704" 
d="M568 201q-16 -10 -35.5 -19.5t-41 -17t-43 -12t-40.5 -4.5q-35 0 -63.5 17.5t-49.5 45.5q-1 2 -5.5 8t-8 13.5t-3.5 13.5t7 7q5 1 12.5 -3.5t11.5 -7.5q8 -6 12 -10l6 -2h6q3 -1 11 -1q15 0 30 3q54 9 103.5 36.5t91 66.5t73.5 86.5t50 97.5q35 98 42 165.5t-2.5 109
t-30.5 60t-43 18.5q-5 0 -9.5 -1t-9.5 -3q-35 -13 -73.5 -52t-78 -96.5t-79.5 -130t-77 -151.5t-71.5 -161.5t-63 -161t-50.5 -149t-36 -125.5q-3 -7 -8 -7q-7 0 -16 5.5t-17.5 13.5t-16 16.5t-10.5 14.5q-3 5 -7 12t-3 13q7 42 14.5 83.5t15.5 83.5q36 181 80.5 361
t101.5 356q1 7 8 7t15.5 -6t17 -14t16 -16.5t10.5 -13.5q2 -4 7 -12t3 -13q-24 -76 -45.5 -151.5t-41.5 -152.5q0 -4 3 -4q1 0 3 2q15 29 40.5 77t58 102.5t70.5 110.5t77.5 101t79 73.5t74.5 28.5q25 0 49 -12.5t44.5 -31t36.5 -41.5t25 -44q19 -45 21 -95t-6 -98
q-9 -55 -29.5 -111.5t-51.5 -108.5t-71.5 -95.5t-89.5 -73.5z" />
    <glyph glyph-name="Q" unicode="Q" horiz-adv-x="584" 
d="M613 852q14 -20 20 -40q8 -25 11 -50t3 -51q0 -51 -12 -116.5t-33.5 -137t-51 -145t-63.5 -141t-72 -124t-77 -94.5q21 -5 56 -17t69.5 -29.5t61.5 -39.5t32 -47q2 -8 -2 -12q-4 -3 -10 -3t-13 3t-12 6q-4 3 -12 7q-4 2 -7 4l-6 4q-15 8 -31 14.5t-33 13.5h-4q-1 1 1 1
q2 -1 3 -1q-27 12 -58.5 16.5t-60.5 6.5q-54 0 -103.5 -10t-93.5 -45q-4 -3 -9 -3q-10 0 -22.5 7.5t-23 18t-18.5 23t-10 23.5q-2 8 3 11q40 33 94 48q-48 48 -71 106t-25 124q-1 18 -0.5 36t1.5 36q5 72 27.5 158t58.5 169.5t83.5 157.5t102.5 123q8 7 23 17t26 10
q12 0 24.5 -9t20.5 -17q18 23 43 42.5t57 19.5q21 0 42 -10.5t39 -27t32 -36.5zM417 635q-9 -42 -12 -77q-2 -8 -10 -8t-20.5 6.5t-17.5 11.5q-7 5 -13 12t-13 15q-13 17 -12 33q6 53 20 108q-46 -54 -86 -127t-70 -154t-47.5 -164t-17.5 -156v-5q2 -21 3.5 -36.5t4.5 -29.5
t8 -28.5t13 -33.5l1 -2q1 -2 2 -3.5t2 -3.5l3 -3q1 -2 2 -3l-2 2q-2 2 -3 2l4 -4h-1h1q2 -1 3.5 -1t3.5 -1q32 0 63.5 22t61.5 57t57 78.5t50 87t40.5 82.5t27.5 65q17 42 34.5 93t32 104.5t23.5 106.5t9 99v7q-1 1 -1 3q0 26 -6 50q-5 -1 -9 -2t-9 -3q-33 -16 -56.5 -48.5
t-39.5 -71.5t-24 -80zM162 -16l-2 1q-1 1 -2 1l2 -2h2zM153 -12q0 1 -2 1q1 0 2 -1z" />
    <glyph glyph-name="R" unicode="R" horiz-adv-x="905" 
d="M944 705q-1 2 -1.5 5t-1.5 5v5l-1 2q-1 2 -1 4q-2 6 -4.5 12.5t-5.5 13.5l-8 15q-2 3 -4 5q-1 2 -2 3t-2 3l-1 2q-8 9 -19 16l-4 4q-5 3 -10.5 6.5t-10.5 5.5l-2 1q-40 19 -81 25.5t-85 6.5h-19q-110 -6 -214 -48.5t-186 -114.5t-134.5 -169t-58.5 -213v-8q-1 -5 -1 -14
q0 -8 -3 -13t-12 -5q-10 0 -22.5 8t-23.5 19t-18.5 23t-7.5 21q0 18 1 35.5t3 34.5q9 78 39 148t76.5 129.5t107 106.5t129.5 80.5t144 51t151 17.5q54 0 106.5 -12t99.5 -36.5t84.5 -62t61.5 -87.5q26 -55 31 -115.5t-17 -117.5q-28 -73 -87 -131t-133 -100.5t-154.5 -70
t-151.5 -39.5q23 -10 46 -19t46 -19q27 -12 60 -26q32 -15 64.5 -33t61 -38.5t46.5 -44.5q3 -4 7 -11.5t6.5 -15.5t1.5 -15t-10 -9q-17 0 -31 10t-25 22q-2 1 -2.5 2t-2.5 2q-1 0 -1 0.5t-1 0.5q-13 8 -26 15.5t-26 14.5l-20 10q-74 35 -149 64.5t-151 57.5
q-21 -67 -39 -134t-32 -136q0 -5 -5 -5q-6 0 -15.5 6.5t-19.5 15.5t-18 18t-11 14q-2 3 -8 11.5t-5 13.5q12 59 27 116.5t32 114.5q-14 8 -24.5 20.5t-16.5 25.5q-3 6 -5 12t0 12q2 7 7 8.5t11 1.5q13 -2 25.5 -2.5t26.5 -1.5q43 133 95.5 262t119.5 250q1 2 4 2
q6 0 16.5 -7.5t21.5 -18t20 -21.5t13 -18l5 -9q2 -5 -1 -10q-55 -101 -100.5 -206t-83.5 -214q49 8 106 24.5t114 42t110 59t94.5 75t68 91t29.5 105.5v2q0 14 -0.5 27.5t-2.5 27.5z" />
    <glyph glyph-name="S" unicode="S" horiz-adv-x="648" 
d="M478 585q-2 6 -2.5 13t4.5 12q4 4 11 4q13 0 25 -7q20 16 40 44.5t37 61.5t30.5 65.5t20.5 55.5q-38 -8 -87.5 -26.5t-101.5 -45.5t-101.5 -60.5t-89 -71.5t-63.5 -79t-24 -82v-9q0 -5 1 -10q0 -3 0.5 -5.5t0.5 -5.5q1 -1 1 -3l1 -2q0 -2 0.5 -2.5t0.5 -2.5q3 -4 3 -6
q1 0 1 -0.5t1 -0.5q1 -1 1 -1.5t1 -1.5q14 -12 37.5 -22.5t50.5 -19t53 -15t43 -9.5q16 -4 31.5 -7t31.5 -7q28 -6 53.5 -13.5t47.5 -20t39 -32t29 -49.5q8 -20 8 -40.5t-5 -40.5q-10 -38 -35.5 -70.5t-59 -59.5t-71 -48t-71.5 -36q-16 -7 -47.5 -19t-66 -23t-66.5 -19.5
t-50 -8.5q-16 0 -31.5 5.5t-29 15.5t-24 23t-17.5 27q-3 6 -5 13.5t-1.5 13.5t4.5 10t14 4q10 -1 21 -8t18 -14q7 1 13 2t12 3q35 10 77 23t85.5 30.5t85.5 39.5t76 49.5t57 60.5t29 72v10q-2 1 -2.5 1t-2.5 1q-3 0 -4 1q-1 0 -2 0.5t-2 0.5q-8 2 -13 3q-29 7 -58 13t-58 13
q-32 8 -65 17t-64 22.5t-59 32t-51 43.5q-23 26 -38 55.5t-17 64.5q-3 41 11 80q15 41 41.5 75t58.5 63q35 32 89.5 68t114.5 66.5t120 50.5t105 20q19 0 39 -7t37 -19.5t28 -30t12 -37.5q1 -11 -2 -23.5t-5 -23.5q-14 -57 -40.5 -112t-59.5 -104q-6 -9 -14 -19.5t-18 -20
t-21 -16t-23 -6.5q-14 0 -27 7t-24.5 18t-20 24t-12.5 25z" />
    <glyph glyph-name="T" unicode="T" horiz-adv-x="538" 
d="M1103 891q25 -8 44 -20q12 -7 26 -19t26.5 -26t21.5 -29t11 -30q1 -5 -4 -5q-7 0 -15.5 5t-17 12.5t-15.5 15t-11 12.5q-16 6 -35.5 9.5t-39.5 5t-40 2t-37 0.5q-84 0 -166.5 -8t-164.5 -22q-57 -102 -98.5 -210.5t-77.5 -218.5q-35 -104 -63.5 -209t-48.5 -213
q-4 -32 -8.5 -63.5t-9.5 -63.5q0 -5 -5 -5q-6 0 -19 9t-26 22t-22.5 26t-9.5 22q2 32 6.5 62.5t10.5 61.5q9 78 13.5 155.5t1.5 155.5q-2 65 -11.5 128.5t-35.5 123.5l-3 5v2q-2 3 -4 6.5t-4 6.5q-3 7 -8 13h-1q-6 4 -9 5q-6 3 -12.5 5.5t-13.5 4.5l-1 1q-19 4 -41 4
q-26 0 -54 -6.5t-51 -19.5q-1 -1 -4 -1q-7 0 -18 8t-22 18.5t-19.5 21t-11.5 16.5q-1 2 -4.5 10t0.5 10q63 37 138 67t155 53t160 40.5t152 29.5q2 3 6 1q83 14 166.5 22.5t167.5 8.5q22 0 49 -1.5t54 -5.5t53 -11zM351 538q39 -80 52 -175q32 103 68 205t81 200
q-82 -17 -162 -39.5t-158 -52.5q80 -58 119 -138z" />
    <glyph glyph-name="U" unicode="U" horiz-adv-x="964" 
d="M1015 572q-6 -16 -11 -32q-17 -51 -32.5 -101.5t-30.5 -101.5q-21 -72 -39 -146t-25 -149q-2 -18 -2 -36.5t3 -36.5q5 -5 10 -10.5t10 -11.5q1 -1 6 -7t9.5 -12.5t6.5 -12t-3 -5.5q-13 1 -29.5 11.5t-31.5 25.5t-27.5 31t-18.5 27q-7 12 -10 25.5t-4 27.5
q-2 26 -0.5 51.5t5.5 51.5q-22 -38 -47.5 -80t-53 -83t-57.5 -79t-60 -67q-17 -17 -35 -27t-44 -10q-18 0 -39 13.5t-39 33t-30.5 41t-14.5 38.5q-3 24 2 51q5 37 15 73t21 71q14 44 29 86.5t30 85.5q17 45 32.5 89.5t29.5 90.5q17 52 32.5 110t15.5 114q0 17 -3 32
q-21 6 -45 6q-46 0 -96 -21t-98 -56.5t-92 -81t-79.5 -95t-59 -99.5t-31.5 -93q-3 -17 -3.5 -33t4.5 -33q0 -3 2 -7v-2q0 -1 1 -2q8 -11 16.5 -20t13.5 -20q2 -4 3 -7t-4 -3q-5 -1 -13 6t-10 9q-16 12 -32 28t-29 35t-21.5 39.5t-10.5 41.5q-2 20 1 40t9 40q12 43 38 91
t62 94.5t79 88.5t89.5 74t94.5 51t93 19q30 0 62 -13.5t59.5 -35t48 -49t27.5 -56.5q6 -27 4 -59q-2 -42 -11.5 -82t-20.5 -80q-14 -48 -30 -95t-33 -95t-33.5 -94t-32.5 -94q-13 -38 -24 -77t-18 -79q-2 -9 -3 -18.5t-1 -19.5v-6q9 -9 21 -9q23 0 53 26.5t65 71t72 103.5
t73 124.5t69 133.5t60 130l18 60q9 30 19 59q9 27 17.5 53.5t16.5 53.5q1 3 8 -1.5t9 -5.5q7 -5 15 -12t15.5 -15t14.5 -16.5t11 -15.5q2 -3 5.5 -7.5t1.5 -9.5z" />
    <glyph glyph-name="V" unicode="V" horiz-adv-x="881" 
d="M686 55q-18 -30 -35.5 -60t-37.5 -59q-6 -9 -18.5 -27.5t-27.5 -38t-30 -35t-26 -16.5q-12 0 -27 10.5t-28 25.5t-22.5 31t-9.5 27q0 15 3.5 29.5t6.5 28.5q6 24 12.5 47.5t13.5 46.5q19 64 37.5 127t35.5 128q18 69 33 138.5t23 140.5q3 32 4.5 62.5t-0.5 62.5
q-2 27 -6 52.5t-15 51.5q-15 3 -28 3q-16 0 -31.5 -2.5t-30.5 -7.5q-59 -18 -119 -56t-112.5 -88t-92.5 -108t-60 -115q-11 -33 -14.5 -67.5t2.5 -69.5q0 -5 -5 -5q-9 0 -21.5 9.5t-24.5 22t-21 26t-11 21.5q-5 30 -2 57q4 64 31 122t65 108q29 37 72.5 79t94 77t105 58.5
t103.5 23.5q30 0 57 -13.5t50.5 -34.5t41.5 -47t29 -51q17 -38 22 -79.5t4 -82.5q0 -51 -6.5 -100.5t-16.5 -98.5q-17 -87 -40 -171t-48 -169q37 60 71.5 120t69.5 120q45 78 90.5 153.5t95.5 149.5q19 28 44 64t55.5 74t65 75t71 65.5t74.5 46.5t76 18q19 0 35.5 -14.5
t27.5 -28.5q1 -1 6 -8t9.5 -14.5t5.5 -13.5t-6 -6q-13 0 -25 -1t-25 -5q-43 -13 -86.5 -45.5t-85.5 -77t-81.5 -96.5t-74.5 -104.5t-65 -101t-52 -85.5q-45 -74 -88 -149t-87 -150z" />
    <glyph glyph-name="W" unicode="W" horiz-adv-x="1263" 
d="M1039 4q-28 -27 -58.5 -44.5t-60.5 -20.5q-12 -4 -27 -4q-25 0 -50 15t-46.5 37t-37.5 47.5t-22 46.5q-11 36 -12.5 73t1.5 75q2 29 5.5 57t8.5 57q-38 -61 -87 -124.5t-95.5 -128t-84.5 -131t-55 -134.5q-3 -10 -17 -10q-12 0 -27.5 10.5t-29 25t-23 30t-11.5 26.5
q-2 17 3 34t10 33q19 63 43 122.5t48 119.5q30 77 58.5 153.5t51.5 155.5q11 37 20.5 74t16.5 75q5 29 8 58.5t2 58.5q0 14 -2 27.5t-4 27.5q-2 4 -1 3q-2 6 -2 7q-2 4 -2 6q-2 0 -6 2q-11 2 -22.5 3.5t-23.5 1.5q-53 0 -102.5 -23.5t-93.5 -63t-81.5 -90t-66.5 -104.5
t-48.5 -107.5t-27.5 -97.5q-4 -22 -5.5 -44.5t1.5 -45.5q2 -4 2 -8q6 -6 11.5 -12.5t10.5 -13.5q2 -3 7.5 -11t4.5 -13q0 -5 -5 -5q-2 0 -6 2q-20 10 -38.5 26t-33 35.5t-24.5 41.5t-12 44t0 44t7 44q10 48 30.5 102.5t50 108.5t67.5 103.5t82.5 88t94.5 61t103 22.5
q31 0 59 -10t52.5 -27t44 -39.5t33.5 -48.5q20 -37 25 -77.5t2 -82.5q-4 -52 -16 -106t-27.5 -107.5t-34.5 -105.5t-37 -101q-19 -50 -38 -99t-39 -100q33 45 64 89.5t63 89.5q46 66 91.5 132.5t95.5 129.5q2 2 3 2q6 0 16 -7t19.5 -16.5t18 -18.5t11.5 -13q2 -3 8 -11.5
t5 -13.5q-17 -63 -29.5 -126.5t-17.5 -129.5q-3 -33 -2 -66t8 -65v-2q1 -1 1 -1.5t1 -1.5q2 -1 7 -1q34 0 67 18t58 40q39 34 76.5 83.5t72 108.5t63.5 124.5t50 131t33 128t12 116.5q-1 16 -2.5 31.5t-4.5 31.5q0 2 -1.5 5.5t-0.5 4.5l-7 21q-3 1 -7 3q-1 0 -2 0.5t-2 0.5
q-2 1 -4.5 1t-4.5 1q-9 2 -21 11t-23 20t-19.5 23t-11.5 19q-1 2 -1.5 7.5t5.5 3.5q34 -6 65 -26t55.5 -48.5t41 -62.5t22.5 -67q10 -57 2 -116t-22 -114q-36 -137 -101 -266q-12 -24 -30 -56t-40 -66t-48 -67t-54 -60z" />
    <glyph glyph-name="X" unicode="X" horiz-adv-x="840" 
d="M869 217q22 38 35.5 63.5t14.5 24.5q6 -7 12 -15t10 -16q2 -3 4 -8.5t0 -9.5q-11 -18 -29 -51.5t-42.5 -73t-54 -81t-63 -76.5t-70.5 -59t-76 -29q-2 -1 -7 -1q-18 0 -46 13.5t-56.5 52t-54.5 107.5t-40 181q-32 -35 -76 -85.5t-87 -106t-77 -110t-46 -96.5q-3 -9 -12 -9
t-18.5 4.5t-19 11t-17 14.5t-11.5 15q-4 5 -7.5 12.5t-1.5 13.5q10 35 33 77t54.5 86.5t68.5 90t74 87t71.5 78.5t60.5 64q-2 45 -1.5 93.5t2.5 103.5q3 74 1.5 147t-1.5 147q0 5 4 5q3 0 8 -3t10 -6.5t9 -7t5 -4.5q7 -7 12.5 -16t13.5 -16q13 -12 21.5 -43t13.5 -75
t8.5 -98.5t5.5 -114.5q28 27 70 66.5t92 84t104 88.5t105 79t94.5 57t72.5 22q18 0 36.5 -15t29.5 -29q3 -5 6.5 -12.5t1.5 -13.5q-3 -9 -14 -9q-23 -1 -55 -17t-65 -38t-62.5 -44.5t-46.5 -36.5q-97 -76 -187 -158.5t-176 -170.5q3 -55 6.5 -108t10 -99t15.5 -82t22 -58
q14 -23 29.5 -33t32.5 -10q30 0 63 25.5t65 64t61 83.5t51 83z" />
    <glyph glyph-name="Y" unicode="Y" horiz-adv-x="963" 
d="M565 868q-2 5 -3 10t-3 10q-18 8 -35.5 11.5t-36.5 3.5q-62 1 -123 -23.5t-113.5 -65.5t-92 -95t-58.5 -111q-14 -43 -16.5 -88t5.5 -90q0 -6 -5 -6t-7 2q-8 3 -15 8.5t-14 11.5q-15 13 -24 24t-13.5 22.5t-6.5 25.5t-3 33q-5 92 33.5 175.5t106.5 144.5q26 24 58 45.5
t67.5 37t72.5 25t73 9.5q45 0 83.5 -16.5t70.5 -46.5q34 -32 58.5 -71t24.5 -87q0 -35 -11 -77t-27.5 -84t-35 -82t-34.5 -71q-20 -40 -40.5 -78.5t-40.5 -78.5q-33 -64 -30 -92.5t30 -28.5t71 23.5t94 64t101.5 93.5t92.5 112t65.5 119.5t22.5 116.5q0 9 7 9q8 0 21 -8.5
t19 -13.5q15 -14 29.5 -32t13.5 -40q0 -19 -3 -37q-5 -38 -16.5 -91.5t-28.5 -116t-40.5 -129.5t-52.5 -131.5t-63.5 -122t-74.5 -101t-85 -69t-95 -25.5q-25 0 -40.5 13t-31.5 31q-1 1 -5.5 8t-9 14.5t-5.5 13.5t5 5h16q51 0 96 27.5t84 72.5t71.5 102t58.5 115t45 112.5
t31 94.5q-31 -39 -76 -87t-97.5 -89.5t-108 -69.5t-107.5 -28q-44 0 -78.5 22t-56.5 60q-10 16 -7 34q5 22 14.5 43t19.5 41q15 30 30.5 59.5t31.5 58.5q35 68 69 136.5t58 140.5q8 26 14 51.5t8 51.5v20q0 9 -2 19z" />
    <glyph glyph-name="Z" unicode="Z" horiz-adv-x="820" 
d="M743 813q38 -4 63 -14t52 -39q14 -14 26.5 -32t20.5 -38q6 -16 6 -31.5t-4 -32.5q-13 -48 -52 -104.5t-93.5 -116t-119 -117.5t-128.5 -110.5t-121.5 -95t-98.5 -69.5q23 -2 46 -5t46 -8q26 -5 52.5 -10.5t53.5 -7.5q10 -1 19 -1h18q72 0 125 17t90.5 43t62 56t39 55.5
t20 42.5t6.5 16q6 -8 11.5 -16t10.5 -16q2 -3 4 -8.5t0 -10.5q-24 -53 -51.5 -101t-64.5 -84t-86 -57.5t-115 -21.5q-10 0 -19.5 0.5t-19.5 1.5q-26 3 -51 8.5t-51 10.5q-51 8 -101 12.5t-101 4.5q-26 0 -51 -2t-51 -7q-12 -5 -24 -6q-5 -1 -10.5 5t-9.5 9q-12 11 -23 26
l-14 21q-5 8 -7.5 15t-0.5 8q6 2 11.5 3t10.5 3q37 13 71.5 33.5t68.5 42.5q44 29 106.5 75.5t131 102.5t136.5 118.5t123.5 123.5t92 117t42.5 99q-3 3 -8 3q-22 4 -48 6.5t-53 3.5t-53 1h-48q-46 0 -103 -3t-115.5 -13t-114.5 -28t-99.5 -47.5t-70 -72t-26.5 -101.5
q0 -4 -3 -4q-7 0 -18.5 10.5t-22 24t-18.5 26.5t-8 18q0 62 27 106.5t72 75.5t102 49t116.5 28t117.5 13t103 3q44 0 86.5 -1.5t86.5 -5.5z" />
    <glyph glyph-name="bracketleft" unicode="[" horiz-adv-x="613" 
d="M578 995q4 -8 5 -14t-6 -6q-49 -2 -98 -3.5t-99 -3.5q-46 -113 -87 -232t-74.5 -241t-58.5 -245t-40 -244h17q9 0 17 1q29 1 58.5 2.5t58.5 9.5q5 2 12.5 -4t11.5 -9q6 -4 14 -11.5t15.5 -15.5t13.5 -17t8 -16q3 -11 -5 -12q-18 -5 -41 -7.5t-47 -4t-47.5 -2t-43.5 -0.5
q-14 0 -27.5 0.5t-27.5 1.5q-7 1 -20 10t-25.5 21.5t-22 26t-9.5 22.5q4 54 11.5 107.5t16.5 107.5q18 104 43.5 210.5t56 213t67 210t76.5 200.5l4 1q51 2 100.5 4t100.5 4q6 0 14.5 -5t16.5 -12t15 -14.5t11 -11.5q1 -1 6 -8t9 -14z" />
    <glyph glyph-name="backslash" unicode="\" horiz-adv-x="525" 
d="M162 634q40 -73 81 -146.5t78.5 -142.5t70 -129.5t56 -106t36.5 -72t11 -28.5q-15 -17 -30 -29q-2 -1 -11 -7.5t-11 -3.5q-132 258 -292 499.5t-329 476.5q-3 4 0.5 10t5.5 10q12 19 30 39l9 10q9 8 19 17t19 15.5t11 3.5q13 -18 38 -58.5t57.5 -96t71 -122.5t79.5 -139z
" />
    <glyph glyph-name="bracketright" unicode="]" horiz-adv-x="613" 
d="M574 999q3 -4 6.5 -9.5t2.5 -10.5q-4 -54 -11.5 -107.5t-16.5 -107.5q-18 -103 -43 -210.5t-56 -214t-67 -210.5t-77 -200l-4 -1q-51 -2 -100.5 -4t-100.5 -4q-6 0 -14 5.5t-16 12.5q-9 7 -16 14.5t-11 11.5q-1 1 -6 8t-9 14t-5 13t6 6q50 2 98.5 4t98.5 4q21 50 40 99.5
t36 100.5q63 186 112 376.5t72 385.5q-8 0 -16.5 -0.5t-17.5 -0.5q-29 -2 -58.5 -3t-57.5 -9q-6 -2 -13.5 4t-11.5 9q-6 4 -14 11.5t-15.5 15.5t-13.5 17t-8 16q-3 10 5 12q28 8 57.5 9t58.5 3q16 1 32 1h59q13 0 27 -2q8 0 18.5 -7t20 -16.5t17.5 -19.5t12 -16z" />
    <glyph glyph-name="asciicircum" unicode="^" horiz-adv-x="554" 
d="M33 403q60 82 100 164t76 176l8 20q4 10 10 19q5 8 15 8q7 0 14.5 -3.5t12.5 -7.5q24 -16 38 -37t22 -48q15 -46 33 -91.5t41 -89.5q0 -1 0.5 -1.5t0.5 -1.5q14 -26 28.5 -50t31.5 -48l2 -2q0 -1 2 -3q18 -25 39 -51q2 -3 6.5 -10t7.5 -14.5t2.5 -14t-8.5 -8.5
q-1 0 -1 -0.5t-1 -0.5q-17 0 -41 24.5t-47.5 56.5t-43 63t-27.5 45q-21 35 -38.5 71t-32.5 74q-33 -86 -75 -166t-96 -155q-1 -3 -7 -3q-9 0 -20.5 7t-21.5 16.5t-18 20.5t-11 19q-2 5 -3.5 11t2.5 11z" />
    <glyph glyph-name="underscore" unicode="_" horiz-adv-x="756" 
d="M509 -22q65 -5 128 -25q19 -7 34.5 -24t21.5 -35q2 -5 2.5 -12.5t-4.5 -12.5q-4 -4 -12 -4t-14 3q-56 18 -116 22t-119 4h-32q-16 0 -32 -2q-57 0 -115 -7.5t-114 -19.5q-12 0 -25 6.5t-24.5 16.5t-19 23t-8.5 25q0 6 2 11.5t9 7.5q75 16 152.5 22.5t154.5 6.5
q66 0 131 -6z" />
    <glyph glyph-name="grave" unicode="`" horiz-adv-x="200" 
d="M140 506q-10 5 -18.5 12.5t-16 16.5t-12.5 16q-32 48 -48.5 103.5t-14.5 114.5q0 5 3.5 6t7.5 1h5q9 -2 17 -7t14 -11q14 -10 26.5 -26.5t11.5 -34.5q-2 -43 12 -90l1 -1v-4q1 -1 1 -2v-1l1 -3q1 -3 2 -5l8 -20q1 -2 2 -4.5t2 -4.5l-1 2v1l3 -5q0 -1 2 -3q3 -6 6 -11
t7 -10q4 -6 7 -13.5t1 -14.5q-1 -8 -11 -8q-9 0 -18 6z" />
    <glyph glyph-name="a" unicode="a" horiz-adv-x="449" 
d="M428 80q-25 -36 -52 -59.5t-56 -23.5q-17 0 -31.5 7.5t-26 19.5t-19.5 27t-12 30q-5 18 -3.5 33.5t-0.5 27.5q-6 -8 -19.5 -31.5t-29.5 -48t-32.5 -44.5t-28.5 -20q-15 0 -33 10.5t-34 25.5t-28.5 32.5t-16.5 31.5q-6 20 -4.5 40.5t4.5 40.5q4 22 12.5 51t21.5 61
t30.5 62.5t38.5 55t45.5 39t52.5 14.5q26 0 49 -14.5t41 -31.5q2 4 4.5 12.5t5 16.5t4.5 14.5t3 6.5h2q5 0 20.5 -4.5t32 -13t28.5 -20.5t10 -27q0 -1 -7.5 -20t-18 -48.5t-21.5 -65.5t-18.5 -70.5t-9.5 -64t6 -45.5q6 -9 12 -9q13 0 31 24t39 61t43 82t42 87q3 7 8.5 9.5
t10.5 2.5q10 0 17.5 -5.5t5.5 -10.5q-1 -3 -10.5 -29t-25 -62.5t-36.5 -78.5t-46 -78zM114 123q20 12 49 42.5t61.5 82.5t58.5 134q-27 -1 -50.5 -16t-43.5 -38.5t-36.5 -53t-28.5 -59.5t-21 -58.5t-13 -49.5q3 3 24 16z" />
    <glyph glyph-name="b" unicode="b" horiz-adv-x="532" 
d="M387 42q-24 -37 -51 -65.5t-55.5 -46.5t-57.5 -18q-21 0 -39.5 10t-32 26.5t-21 37t-7.5 40.5q1 48 27.5 89t66.5 73t85.5 56t84.5 39q11 29 17.5 60t6.5 62q-9 0 -18 -3q-29 -11 -63 -39t-69 -66t-68.5 -82.5t-61.5 -87.5t-49.5 -82t-32.5 -65q-1 -2 -4 -2q-7 0 -17 6.5
t-19.5 15.5t-17.5 18t-12 14q-3 4 -8 12t-4 14q11 72 32.5 150.5t50.5 156.5t64 151t72 135q9 15 26 41t37.5 50.5t43 43t43.5 18.5q11 0 24 -7.5t25 -19t21.5 -24t12.5 -22.5q1 -2 1 -8.5t-6 -4.5h-6q-8 0 -12 -1q-22 -8 -46.5 -33t-48 -58.5t-45.5 -73t-41.5 -77.5
t-34 -71t-23.5 -54q15 18 37.5 42.5t48 46.5t53 37t52.5 15t49 -13t43.5 -32.5t33 -43.5t17.5 -47q2 -10 2.5 -19t0.5 -19q30 8 60.5 15t61.5 13q6 1 13 -4t12 -8q9 -7 6 -21.5t-14 -16.5q-26 -4 -65 -14t-84 -25q-7 -28 -21 -64t-33 -74.5t-43 -75.5zM230 117
q-21 -24 -28 -49t5 -51q23 15 44.5 37t40 46.5t34 51t27.5 50.5q-38 -19 -70 -40.5t-53 -44.5z" />
    <glyph glyph-name="c" unicode="c" horiz-adv-x="324" 
d="M429 321q-1 -4 -17.5 -29t-43 -61t-60.5 -76.5t-70 -75t-71 -57t-63 -22.5q-19 0 -36.5 9t-32 23t-25.5 31.5t-17 34.5q-8 23 -9 46.5t3.5 46.5t13 46t17.5 44q20 46 49 89.5t70 75.5q11 8 29.5 17.5t32.5 9.5q15 0 31 -10.5t29.5 -26t22.5 -32.5t10 -31q1 -8 0.5 -16.5
t-4.5 -16.5l-4 -8q-2 -4 -6 -8l-8 -8v-4q1 -4 2 -7.5t2 -7.5q4 -13 -7 -16q-10 0 -21.5 6.5t-21.5 16t-18 20.5t-12 20q-7 -6 -12.5 -12.5t-10.5 -12.5q-6 -7 -18.5 -26t-26.5 -43.5t-26.5 -53t-19 -55t-4.5 -48.5t18 -35q5 -3 10 -3q16 0 43 20.5t58.5 51t64 66t59 67
t45 53t20.5 23.5q9 9 19 9q9 0 13.5 -8.5t2.5 -15.5z" />
    <glyph glyph-name="d" unicode="d" horiz-adv-x="428" 
d="M350 -181q-14 0 -28 9q-33 19 -52.5 51.5t-28.5 68.5q-8 33 -8 68t4 69q1 8 2 15.5t2 15.5q-11 -16 -28 -36t-37 -38t-41.5 -30t-41.5 -12q-21 0 -39.5 11t-33.5 28t-25 37.5t-12 39.5q-4 32 4.5 64.5t19.5 61.5q8 21 21 49t30.5 58t38.5 59.5t44 52.5t47.5 37.5
t48.5 14.5q15 0 31 -6.5t30 -17t24.5 -23.5t15.5 -27q6 14 20.5 43t33.5 65.5t41.5 75t44.5 70.5t42.5 52.5t34.5 20.5q10 0 21 -6.5t20.5 -15.5t17 -19.5t10.5 -19.5q2 -4 3 -12.5t-4 -11.5q-10 -6 -21 -17t-21 -23.5t-19 -25t-15 -21.5q-42 -62 -81.5 -138.5t-70.5 -158
t-51 -163t-24 -154.5q0 -21 2 -42t5 -42q2 -3 2.5 -6t1.5 -5q11 -10 19 -22.5t10 -26.5q1 -5 -1 -10t-9 -7zM66 57v-3q1 -1 1 -1.5t1 -1.5q6 -5 16 -5q17 0 39.5 18t47.5 48.5t51.5 71t52.5 84.5q11 36 23.5 71.5t27.5 70.5q-12 2 -21 9q-2 1 -5 1h-1q-16 0 -27 -5
q-36 -16 -71.5 -57.5t-65 -91.5t-48.5 -101.5t-22 -89.5v-15q0 -2 1 -3z" />
    <glyph glyph-name="e" unicode="e" horiz-adv-x="341" 
d="M442 347q5 2 10 2q7 0 12.5 -4.5t8.5 -10.5t3.5 -12t-2.5 -10t-23 -29.5t-51 -60.5t-70 -74.5t-79.5 -72.5t-79 -54.5t-69.5 -20.5q-37 1 -61 16t-37 36q-14 20 -19.5 43t-4.5 40q3 48 23.5 107.5t55 111.5t80 87.5t97.5 35.5q14 0 32.5 -8.5t36 -21.5t32 -28t20.5 -27
q7 -13 6.5 -27.5t-5.5 -28.5q-7 -24 -22 -48t-35 -43.5t-45 -31.5t-52 -12q-24 0 -47 14t-41 29q-18 -35 -31.5 -72t-18.5 -76q-2 -16 8 -24t22 -8q23 0 56 20t69.5 50t73 65t66 66t49 52t21.5 23q5 5 11 7zM130 268q24 0 48 13q23 13 42.5 32.5t34 43.5t20.5 45
q-48 -17 -84 -54.5t-61 -79.5z" />
    <glyph glyph-name="f" unicode="f" horiz-adv-x="312" 
d="M285 431q10 0 20 -1t20 -3q15 -3 31.5 -13.5t31.5 -24t27 -28.5t19 -28q2 -4 2.5 -6.5t-4.5 -3.5q-5 2 -13 8l-9 7q-2 1 -2.5 2t-2.5 2q-22 6 -48 6q-54 0 -114.5 -15t-109.5 -36q-8 -21 -15 -42t-14 -43q28 -28 46 -54.5t27 -65.5q8 -36 9 -73.5t-3 -73.5
q-4 -37 -11.5 -73.5t-21.5 -70.5l-10 -20q-6 -12 -14.5 -22.5t-18 -18t-20.5 -7.5q-7 0 -15 4.5t-16 11t-14.5 13.5t-11.5 12q-21 22 -33 41t-20 48q-8 32 -10 64t0 64q2 63 12.5 124.5t27.5 122.5q-5 5 -12 13t-13.5 17t-11 18t-4.5 16q0 14 10 26t23.5 21.5t29 17.5
t25.5 12q22 58 48 114t58 110q3 5 12.5 19t20.5 29t21.5 27t16.5 12t16.5 -9t21.5 -20t20 -22t12 -15t5 -8q4 -8 2 -9q-16 -11 -34 -35t-35 -52.5t-31 -55.5t-22 -44q24 5 49 8t50 3zM101 142q-2 9 -3.5 18t-3.5 18q-14 -45 -23.5 -89.5t-16.5 -90.5q-5 -37 -7 -74t1 -75
q0 -1 0.5 -2t0.5 -3q12 17 21.5 39.5t16 47t10.5 49t6 44.5q2 29 2.5 59t-4.5 59z" />
    <glyph glyph-name="g" unicode="g" horiz-adv-x="488" 
d="M369 -51q-28 -73 -65 -131t-81.5 -94t-97.5 -36q-11 0 -22 2t-21 7q-12 6 -26 18t-27 26t-23 29.5t-12 29.5q0 5 4 5q11 0 25.5 -13t21.5 -20h9q46 0 85 29t71 75t57.5 104t44 116t31.5 111t20 88q-29 -42 -57.5 -82t-59.5 -79q-12 -15 -31.5 -38.5t-42.5 -46.5
t-47 -39.5t-44 -16.5q-14 0 -32.5 12t-35.5 28.5t-29 34.5t-14 30q-2 7 -1 14.5t3 14.5q6 33 18 73.5t30.5 81t42.5 79.5t53.5 68.5t63.5 48t72 18.5q7 0 17.5 -8t21 -18.5t19.5 -21.5t12 -16q6 11 13 19q12 18 27 36l4 4q2 2 4 3q4 2 6 2q5 0 9 -2.5t8 -4.5
q22 -14 43.5 -39.5t25.5 -51.5q2 -11 1.5 -22.5t-1.5 -22.5q-2 -48 -13.5 -115.5t-31.5 -141.5t-48 -147zM67 107q20 16 37.5 35.5t33.5 38.5q29 35 56 71t53 73q15 21 30 42.5t30 43.5q-47 -6 -86 -39t-69 -79t-51.5 -96.5t-33.5 -89.5z" />
    <glyph glyph-name="h" unicode="h" horiz-adv-x="514" 
d="M407 -4q-26 0 -47 21t-30 43q-6 13 -8 31t-2 37.5t1.5 38.5t3.5 33q5 39 16 76.5t22 75.5l-3 -3q-42 -46 -81 -95t-77 -98q-38 -48 -80 -98q-14 -17 -29 -34t-32 -32q-1 -1 -3 -1q-6 0 -15.5 7t-19.5 16.5t-18.5 18.5t-11.5 13q-2 3 -7.5 11.5t-4.5 13.5q11 73 32 151
t49.5 155.5t63.5 150.5t72 135q9 15 26 40.5t37.5 50.5t43 43t43.5 18q10 0 23 -8.5t25 -20t22 -24t13 -20.5q1 -2 1.5 -7.5t-5.5 -3.5h-13q-19 -5 -39.5 -23.5t-41 -44t-39.5 -56t-35.5 -60t-29 -55t-20.5 -41.5q-12 -26 -26 -61t-27 -72.5t-25 -73t-21 -62.5q9 11 24 32.5
t33 48.5t36.5 55t35 53t29 42.5t17.5 22.5q9 10 19 20t22 17q10 7 26 7q17 0 36.5 -12t36 -29.5t27 -37.5t10.5 -35q1 -19 -3.5 -37.5t-9.5 -36.5q-7 -23 -14.5 -46t-12.5 -47q-17 -75 -17 -106t11 -31q9 0 24.5 20t33.5 49.5t36.5 64.5t33.5 65t25 50.5t10 21.5
q11 20 28 20q13 0 21 -10t3 -21t-17 -40t-28.5 -65t-37 -75t-43.5 -71.5t-48 -53.5t-50 -21z" />
    <glyph glyph-name="i" unicode="i" horiz-adv-x="234" 
d="M309 349q10 0 17 -6t7 -12q0 -5 -12.5 -31.5t-32 -63t-44.5 -77.5t-50 -76t-47.5 -58.5t-38.5 -24.5q-18 0 -35 8t-30.5 21.5t-23 30t-11.5 34.5q-2 17 -2 34.5t3 34.5q7 38 19.5 80t29.5 83.5t37 80t41 69.5q2 2 4 2q7 0 17.5 -8t21 -18.5t19.5 -21.5t13 -17
q2 -3 4.5 -9t0.5 -10q-17 -25 -36.5 -61.5t-36.5 -77t-30 -80t-18 -70.5q-7 -40 6 -40q9 0 26.5 19.5t38 49.5t42 65t39.5 65t30.5 51.5t13.5 23.5q7 10 18 10zM343 679q2 -3 5 -10q2 -7 -2 -11q-31 -29 -48 -74.5t-25 -86.5q-1 -6 -8 -6t-16.5 6t-19 14.5t-17.5 17.5
t-12 15q-2 5 -7 13t-4 13q5 24 12 47t16 46q2 5 8.5 18t15 26.5t17 24t14.5 10.5q8 0 19 -7.5t21.5 -17.5t19 -21t11.5 -17z" />
    <glyph glyph-name="j" unicode="j" horiz-adv-x="234" 
d="M203 282q-13 -66 -39.5 -149.5t-62 -166.5t-77.5 -156.5t-84 -119.5q-26 -29 -55 -46t-68 -17h-12q-5 0 -11 1q-17 3 -35 13t-33.5 24.5t-26.5 32t-13 34.5q-1 14 9 14q14 0 28.5 -11.5t22.5 -20.5q14 0 27 2t26 7q30 14 59 45q30 32 57 74t51.5 90.5t45 95.5t36.5 90
t26 73q-9 3 -19 9.5t-19 15.5t-16 18.5t-10 17.5q-2 5 -4 11.5t2 10.5q25 26 42 55t29 62q5 15 9 30.5t10 29.5q4 10 9 15.5t14 5.5q14 0 29.5 -11t24.5 -22q18 -18 26 -35t10 -43q1 -20 -1.5 -39.5t-6.5 -39.5zM275 682q2 -3 5 -9q2 -6 -1 -10q-51 -64 -56 -145q0 -6 -5 -6
q-7 0 -16.5 6.5t-19 15.5t-17.5 18t-12 15q-3 4 -7.5 11.5t-4.5 13.5q2 42 17 81.5t41 71.5q2 2 4 2q8 0 18.5 -7.5t21 -18t19.5 -21.5t13 -18z" />
    <glyph glyph-name="k" unicode="k" horiz-adv-x="378" 
d="M321 533q17 0 32 -8t27 -19q19 -17 14.5 -46.5t-22.5 -64t-44.5 -71t-52.5 -67.5t-47 -53t-28 -28q-7 -7 -14.5 -13.5t-14.5 -14.5q9 -9 20.5 -20t25 -21.5t27.5 -17.5t27 -7q24 0 47 18.5t44 46.5t39.5 60.5t33 60t24 46.5t12.5 19h7q28 0 33.5 -18t-5 -47t-32.5 -63.5
t-48.5 -68.5t-54 -62t-47.5 -43q-24 -17 -47.5 -27.5t-47.5 -10.5q-36 0 -71.5 28.5t-70.5 96.5q-11 -26 -21 -53t-20 -56q0 1 -1 -2.5t-4 -8t-6.5 -8t-7.5 -3.5q-7 0 -16.5 6t-18.5 14.5t-16.5 17t-10.5 14.5q-3 5 -7 12.5t-3 14.5q11 73 32.5 151.5t50.5 156t64 151
t73 135.5q10 17 27 43t37.5 50.5t43.5 42t46 17.5q22 0 41 -18t30 -35q3 -5 7 -13t2 -14q-1 -7 -9 -7q-3 0 -4 1q-10 -2 -17 -4q-23 -11 -47.5 -37.5t-48 -61t-46 -75t-41.5 -79.5t-34 -73.5t-24 -57.5q-5 -13 -7.5 -21.5t-4.5 -14.5t-2 -10q37 60 69 108q14 21 27.5 41
t25 36t21 27t13.5 14q10 5 20 9.5t21 4.5zM270 408q16 25 13 25l-5 -3q-32 -29 -72.5 -85.5t-85.5 -151.5q23 34 53 76q29 41 54.5 77.5t42.5 61.5z" />
    <glyph glyph-name="l" unicode="l" horiz-adv-x="189" 
d="M-16 123q16 114 56 222.5t94 209.5q5 9 17 30t28.5 47.5t35.5 55t38 52.5q18 23 34 38.5t27 15.5q8 0 19 -7.5t21 -17.5t18.5 -20.5t11.5 -17.5q1 -1 4.5 -9.5t-1.5 -10.5q-12 -7 -21.5 -16.5t-18.5 -19.5q-33 -37 -67.5 -89t-66 -112t-59 -126t-48 -130.5t-32.5 -126
t-12 -112.5q1 -8 1 -15t1 -15l1 -2v-5q0 -2 0.5 -3t0.5 -3q2 -6 3 -12.5t3 -12.5q15 -15 22 -30q2 -3 4.5 -10t-1.5 -11q-1 -2 -6 -2q-4 0 -8.5 1.5t-6.5 3.5q-34 21 -58 53t-32 71q-8 34 -7.5 68t5.5 68z" />
    <glyph glyph-name="m" unicode="m" horiz-adv-x="673" 
d="M478 134q3 24 7.5 49.5t9.5 48.5t8 33q5 14 9 27.5t9 27.5q-17 -22 -31.5 -44.5t-28.5 -45.5q-15 -25 -30 -49.5t-30 -50.5q-12 -18 -23.5 -36.5t-25.5 -35.5q-6 -6 -14 -13t-18 -7q-9 0 -20.5 7t-22 17t-19 21t-11.5 19q-7 17 -4 34.5t7 34.5q7 34 15 68l16 68
q-54 -69 -101 -142t-92 -148q-5 -7 -8.5 -13.5t-11.5 -8.5q-20 0 -33.5 9.5t-26.5 23.5q-17 17 -25 34t-10 42q-1 20 2 39t7 38q5 26 11.5 50.5t14.5 48.5q3 9 13.5 36.5t23.5 57t27 52.5t24 23q9 0 20.5 -7t21.5 -17t18.5 -20.5t11.5 -18.5q2 -4 3.5 -11t-2.5 -11
q-14 -14 -24 -31.5t-18 -34.5q-2 -4 -5 -15.5t-7 -24.5t-7 -24t-5 -16q6 9 19.5 30.5t30.5 48t35.5 55.5t34.5 53.5t28 40.5t15 18q14 8 32 8q15 0 29 -7.5t26 -19t20.5 -25.5t12.5 -27q3 -12 1 -31q0 -6 -2 -23q-3 -17 -6 -36.5t-6 -36.5t-4 -23q5 9 16.5 29t26 45.5
t30.5 53t31.5 51.5t28 40.5t20.5 20.5q17 9 32 9q14 0 28.5 -8t27 -20t21.5 -26t12 -26q4 -18 -0.5 -37.5t-9.5 -36.5q-16 -57 -34.5 -111.5t-31.5 -111.5q-6 -27 -6 -38.5t6 -11.5q8 0 24 20.5t36 51.5t42 67t40.5 67t31.5 51.5t16 20.5q21 -1 29.5 -6t10.5 -11t0 -11.5
t-2 -6.5q-1 -2 -11.5 -22t-27.5 -50t-38 -65.5t-43 -68t-43 -58.5t-37 -36q-18 -11 -36 -11q-19 0 -35 12t-27.5 28t-17 32.5t-5.5 26.5q0 13 4 38z" />
    <glyph glyph-name="n" unicode="n" horiz-adv-x="480" 
d="M383 154q-6 -25 -9 -45.5t-3 -34t5 -14.5q9 -2 22.5 12t28.5 37.5t31.5 53.5t32 61t29.5 59.5t24 49.5q2 4 13 4q6 0 12.5 -1.5t10.5 -6.5q2 -2 -5.5 -27t-22.5 -62t-35.5 -80t-44.5 -79.5t-50.5 -60.5t-52.5 -24q-15 0 -29 9.5t-25.5 23t-19 29t-10.5 27.5
q-5 22 -4.5 44.5t4.5 45.5q2 15 6 36t8.5 43t9.5 43t9 36q-22 -22 -48 -56t-53 -71t-53.5 -74.5t-49.5 -67.5t-41 -48.5t-29 -18.5q-6 0 -16.5 8t-21 19.5t-18 23t-8.5 17.5q-3 21 -2 41.5t3 40.5q4 31 15 73t25.5 85.5t32.5 82.5t37 64q1 2 5 2q9 0 20 -7.5t21.5 -17.5
t19 -20.5t11.5 -17.5q2 -5 4 -10.5t-1 -10.5q-23 -29 -40 -70t-29 -76q0 -2 -2.5 -11t-5 -19.5t-4.5 -19.5t-3 -11q3 4 14.5 21t28.5 41.5t37 53.5t40 56.5t38.5 50t31.5 35.5q11 11 24 21.5t28 13.5q17 0 26.5 -5.5t22.5 -17.5q17 -14 31 -33.5t17 -42.5q2 -21 -3 -43
l-11 -42q-3 -9 -8 -28.5t-10.5 -42.5t-10.5 -47z" />
    <glyph glyph-name="o" unicode="o" horiz-adv-x="371" 
d="M347 268q-5 -29 -13 -56q-10 -33 -26.5 -70.5t-40.5 -69.5t-55.5 -53.5t-70.5 -21.5q-28 0 -54 13.5t-46 34.5t-33 47.5t-16 53.5q-4 29 1 57.5t13 56.5q4 13 13 37.5t21.5 49t28.5 43t33 18.5q10 0 20 -5q10 -6 19 -14.5t16.5 -17.5t12.5 -16q3 -4 7.5 -12t3.5 -14
q-1 -5 -3 -5.5t-6 -0.5h-3q-1 0 -1.5 -0.5t-1.5 -0.5q-9 -5 -16.5 -13.5t-13.5 -16.5q-29 -45 -45.5 -100t-16.5 -109q10 0 20 2t19 5q29 12 53.5 39.5t43.5 61t31.5 69.5t18.5 65q8 33 6 68l-1 8q-20 -1 -39.5 -6.5t-37.5 -13.5q-2 -1 -6 -1q-9 0 -19.5 7.5t-21 17.5
t-19 20.5t-11.5 17.5q0 1 -3.5 9.5t1.5 10.5q20 9 42 16.5t44 7.5q29 0 56 -15t48 -38.5t34 -52.5t16 -56q2 -29 -2 -57z" />
    <glyph glyph-name="p" unicode="p" horiz-adv-x="538" 
d="M510 374q2 -13 4 -28q1 -29 0 -59q-3 -55 -18.5 -108.5t-44.5 -100.5q-11 -17 -26.5 -35.5t-34 -34t-39.5 -25.5t-43 -10q-16 0 -36.5 10t-40 25t-35.5 31.5t-25 29.5q-54 -104 -97 -212t-68 -223q0 -1 -2 -1q-6 0 -15.5 6.5t-20 15.5t-19.5 18t-12 13q-2 2 -9 10t-6 13
q5 40 11.5 79.5t14.5 78.5q34 158 82 310.5t93 307.5q0 2 2 2q6 0 17.5 -8t23 -18.5t21.5 -21t13 -15.5q2 -3 5.5 -7.5t1.5 -9.5q-8 -27 -16 -54.5t-17 -55.5q15 22 37.5 53t50.5 59.5t58.5 48.5t60.5 20q16 0 33 -7.5t32.5 -19t29 -25.5t22.5 -26q10 -13 12 -26zM202 127
q11 -10 21.5 -20t18.5 -21q2 -4 5.5 -8t1.5 -9q-1 -4 -1.5 -7t-1.5 -7q41 11 72.5 41t54 70t36 84t18.5 81q5 32 3 63q-32 -12 -65 -43.5t-63 -70.5t-56 -80t-44 -73z" />
    <glyph glyph-name="q" unicode="q" horiz-adv-x="476" 
d="M470 190q10 18 12 20q3 3 10 3q5 0 11 -1.5t8 -3.5q2 -1 -8.5 -24.5t-29 -61t-43.5 -84.5t-51 -96.5t-52 -97t-46.5 -85t-33.5 -60.5t-15 -24q-4 -2 -7 -2q-11 0 -24 10t-25 23.5t-20.5 28.5t-10.5 25q-2 12 -1.5 24t2.5 25q5 29 14.5 64t21.5 70t25.5 69t25.5 62
q-21 -20 -44 -39.5t-49 -31.5q-16 -8 -30 -8q-12 0 -25 6.5t-25 16.5t-22 21.5t-16 21.5q-15 23 -18.5 47t1.5 50q7 44 28.5 96t54.5 97t76 75t91 30q70 0 115 -49q7 11 11.5 18t6.5 10l21 33q1 3 3 7q2 2 5 2q5 2 13.5 -4t12.5 -8q13 -10 24 -21t19 -25q2 -5 5 -10.5
t3 -10.5q0 -2 -4 -10l-4 -8q-60 -123 -116 -247.5t-101 -253.5q24 26 48 59q24 34 47 70.5t43.5 71.5t36.5 63t26 47zM86 75q30 11 66 45q35 33 70.5 76.5t68 90.5t56.5 83q-5 1 -10 1h-11q-48 0 -89.5 -31t-73.5 -76.5t-52 -96.5t-25 -92z" />
    <glyph glyph-name="r" unicode="r" horiz-adv-x="356" 
d="M-31 65q17 107 50.5 212t77.5 204q5 12 17 12q6 0 10 -3q17 -14 30 -27q11 -11 20 -22t7 -17q-5 -20 -14 -45.5t-15 -40.5q-5 -13 -7.5 -21.5t-4.5 -14.5q-1 -6 -1 -10q37 60 68 108q14 21 27.5 41t25.5 36t21 27t14 14q9 5 19 9.5t21 4.5q17 0 32 -8t27 -19
q9 -8 8.5 -24.5t-6 -37.5t-13.5 -44t-14 -44.5t-7.5 -39t6.5 -27.5q-34 5 -58 15q-20 10 -34.5 26.5t-6.5 42.5q9 27 19 43t8 16l-1 -1q-1 0 -2 -1q-32 -29 -73 -85.5t-86 -151.5l-33 -75q-11 -26 -20.5 -53t-20.5 -56q0 1 -1 -2.5t-4 -8t-6.5 -8t-7.5 -3.5q-7 0 -16 6
t-18 14.5t-16.5 17t-11.5 14.5q-3 5 -7 12.5t-3 14.5z" />
    <glyph glyph-name="s" unicode="s" horiz-adv-x="336" 
d="M348 468q2 -3 4.5 -9t5.5 -13.5t4.5 -14t0.5 -10.5q-2 -6 -5 -7.5t-8 -1.5q-24 0 -54 -6q-31 -6 -61 -17t-55 -28t-37 -40q-2 -5 -4 -11.5t1.5 -20t15.5 -35t37 -56.5q20 14 50 33.5t58.5 38.5t50.5 33.5t27 18.5q7 5 16 5h1q11 -1 14.5 -11.5t-5.5 -17.5
q-47 -36 -93.5 -65.5t-94.5 -66.5q14 -18 28 -37t25 -39q5 -9 9.5 -23t4 -31.5t-8.5 -37.5t-28 -40q-14 -14 -38.5 -30.5t-52.5 -30.5t-56 -23t-49 -9q-17 0 -31.5 6.5t-28.5 19.5l-16 15q-8 9 -15 19.5t-9.5 22t2.5 23.5q7 19 23 37q20 24 43.5 45.5t46.5 41.5
q21 19 42.5 35.5t44.5 33.5q-7 9 -17 23.5t-20.5 29.5t-20 30t-15.5 26q-20 34 -19.5 63.5t12.5 56.5q12 26 34 48t49.5 38t57.5 25.5t57 9.5q29 0 45 -10t32 -36zM-16 -43q24 3 60 13.5t70 27.5t58.5 40.5t27.5 51.5q0 5 -2.5 11t-6 12.5t-7.5 12t-6 7.5
q-63 -57 -112.5 -100.5t-81.5 -75.5z" />
    <glyph glyph-name="t" unicode="t" horiz-adv-x="180" 
d="M459 567q4 -5 8.5 -12.5t2.5 -14.5q-1 -8 -11 -8h-4q-94 9 -190 9q-32 -54 -65 -119.5t-60 -136t-45 -141.5t-20 -136q-2 -22 0 -43q1 -5 1.5 -10t1.5 -10v-3q2 -6 3.5 -12t3.5 -12q8 -8 14 -16.5t9 -17.5q2 -5 1 -9t-6 -6h-3q-6 0 -13 4t-11 6q-32 20 -54 50t-30 67
q-6 34 -5.5 68t5.5 69q16 103 55 207t88 196q-29 -2 -57 -4.5t-57 -6.5q-10 0 -23 6.5t-25 16.5t-21 22t-11 22q-2 5 -1 10t7 6q60 8 118.5 11.5t118.5 4.5l27 41q19 28 41.5 58t44 52.5t34.5 22.5q9 0 20.5 -6.5t22 -15.5t19 -19t12.5 -17q0 -1 1.5 -4t2.5 -6.5t1 -6.5
t-2 -4q-11 -6 -24 -18.5t-25 -26.5t-23 -28t-19 -25q20 -2 40 -3t40 -3q8 -1 17 -6.5t17.5 -12.5t16 -15t11.5 -14z" />
    <glyph glyph-name="u" unicode="u" horiz-adv-x="458" 
d="M392 14q-24 -24 -45 -24q-5 0 -8 1q-22 6 -37.5 24t-24.5 41.5t-13 48.5t-4 45q-1 -1 -7.5 -13.5t-17.5 -30t-24.5 -37.5t-29 -37t-31 -28.5t-30.5 -11.5q-7 0 -23 7.5t-33.5 20.5t-34 30.5t-25.5 38.5q-12 26 -13.5 53.5t4 55t15 54t20.5 50.5q11 23 23 46t25 46l32 56
q4 10 14 10q9 0 18.5 -5.5t18.5 -13.5t16 -17t11 -16q2 -5 5.5 -14.5t0.5 -15.5t-15.5 -27.5t-28 -51t-31.5 -63.5t-25.5 -64.5t-9.5 -54t15 -31.5q1 -1 3 -1q11 0 31.5 25.5t46.5 64.5t53.5 85.5t50.5 88.5t39.5 74.5t20.5 42.5q3 6 11 6q9 0 22 -6.5t25 -17.5t20 -25
t7 -29q-2 -22 -8 -42.5t-14 -40.5t-16.5 -40t-14.5 -41q-8 -27 -12 -52t-6 -45t-1.5 -33t1.5 -15q0 -2 3 -2q6 0 17 14t25 36.5t29.5 50t30 54t26 49t17.5 34.5q5 12 17 12q8 0 15.5 -4t12.5 -9q3 -2 -5.5 -27.5t-24.5 -62t-37 -79t-44.5 -78t-47.5 -59.5z" />
    <glyph glyph-name="v" unicode="v" horiz-adv-x="416" 
d="M449 459l15 -16q2 -2 6.5 -8t8.5 -13t5 -12.5t-5 -5.5q-2 -1 -5 -1q-20 -7 -37 -24t-30 -32q-17 -20 -32 -41.5t-30 -43.5q-32 -48 -64 -95.5t-68 -92.5q-6 -8 -17.5 -21.5t-25 -26t-27 -21.5t-25.5 -9q-16 0 -31 10t-26 19q-29 25 -44.5 50.5t-17.5 64.5q-2 27 2.5 54.5
t10.5 53.5q8 32 18 63t21 61q2 5 9.5 23t16.5 37t17.5 34t11.5 15q8 0 19 -7.5t22 -17.5t19.5 -20t11.5 -16l5 -9q2 -5 -1 -10q-18 -30 -35 -68.5t-31 -79.5t-23.5 -82t-11.5 -76q12 10 22.5 21t19.5 22q42 51 77.5 105t72.5 108q17 24 34 47.5t37 44.5q12 14 28 26.5
t36 14.5q6 1 12.5 -4t11.5 -8q9 -6 17 -13z" />
    <glyph glyph-name="w" unicode="w" horiz-adv-x="607" 
d="M494 503q16 -3 32 -9t29.5 -15.5t22.5 -24.5q16 -26 19 -59.5t-3 -71t-19.5 -77t-32 -77t-40.5 -71.5t-44 -60q-13 -15 -30 -25.5t-37 -10.5q-24 0 -44.5 11.5t-36.5 29.5t-27.5 40t-16.5 43q-14 -24 -29 -47.5t-33 -44.5q-12 -13 -26 -23.5t-33 -10.5q-16 0 -31.5 6.5
t-29 17.5t-24 25t-16.5 28q-12 28 -13.5 75t7.5 100t27.5 107t45.5 96q17 27 37 27q15 0 27.5 -13t22 -29.5t14 -30.5t2.5 -16q-13 -14 -25 -39.5t-22 -55.5t-18 -61.5t-13 -58.5t-7.5 -47t-2.5 -27q1 -18 10 -18t24.5 20.5t33 51t35.5 66t33 66.5t25 52l9 20q4 2 8 2
q9 0 22 -7t25.5 -16t23.5 -17q10 -8 14.5 -19.5t-0.5 -22.5q-25 -64 -34.5 -101t-11 -55.5t2 -23.5t3.5 -7q12 7 23.5 18.5t22 25.5t19.5 28.5t16 26.5q17 31 33 71t20.5 81.5t-6 80.5t-46.5 67q-5 5 4.5 8t27.5 3q14 0 31 -2z" />
    <glyph glyph-name="x" unicode="x" horiz-adv-x="379" 
d="M454 305q14 21 16 23q11 7 21 7q14 0 23.5 -10.5t7.5 -18.5q-1 -3 -16 -24.5t-39 -53t-54 -68.5q-31 -37 -63 -70.5t-63 -59.5t-56 -35q-15 -5 -32 -5q-37 0 -64 17t-44 49q-28 -48 -52.5 -98.5t-37.5 -104.5q-1 -7 -9 -7t-17.5 6t-19 14t-17 17.5t-11.5 15.5
q-3 4 -7.5 12.5t-2.5 14.5q8 33 22.5 69t32.5 71t38.5 68.5t39.5 62.5q-2 6 -2.5 11.5t-1.5 10.5q-8 63 -11 125.5t5 124.5q0 2 4 2q8 0 25.5 -7.5t35 -20t30.5 -28.5t11 -32q-2 -17 -3 -32t-2 -29q6 7 20.5 24t33 38t40 43.5t41.5 41t36 30.5t24 12q9 0 20 -7t21 -17
t18.5 -21t11.5 -18q1 -2 3.5 -10.5t-2.5 -10.5q-33 -21 -68 -54.5t-68 -71t-62.5 -75.5t-51.5 -69q2 -17 5 -33t8 -32q7 -23 17.5 -32.5t24.5 -9.5q22 0 48.5 20t54.5 50.5t54.5 66t48 66.5t35.5 52z" />
    <glyph glyph-name="y" unicode="y" horiz-adv-x="494" 
d="M368 437q16 36 13 50q-1 2 2 4l5 2q3 2 7 2t8.5 -2t7.5 -4q24 -14 45 -40t24 -54q2 -11 1.5 -23t-1.5 -23q-3 -47 -14.5 -115t-31.5 -141.5t-48.5 -146t-64.5 -130.5t-81 -94t-97 -36q-21 0 -43.5 10t-41 26t-31 36t-15.5 40q-1 6 5 6t13 -3.5t13.5 -9t12.5 -11t10 -9.5
q47 -2 87 26.5t72.5 74.5t58 104.5t45 117t32 111.5t19.5 88q-41 -63 -91.5 -131t-103.5 -119q-8 -8 -18 -17t-21.5 -17t-24 -13t-24.5 -5q-15 0 -30.5 9t-29.5 22.5t-25.5 28.5t-17.5 26q-9 18 -5 37q3 12 6 23.5t7 22.5q11 33 21.5 65.5t21.5 64.5q10 32 19.5 65t15.5 67
q2 8 3 16.5t1 17.5q-3 3 -7.5 10t-8 13.5t-3.5 11.5t6 5q12 0 26.5 -9.5t28 -22.5t23.5 -27.5t13 -25.5q4 -12 4 -24.5t-2 -24.5q-4 -32 -12.5 -63t-17.5 -61q-10 -32 -20 -62.5t-21 -62.5q-5 -21 -4 -30t8 -9q12 0 38.5 26.5t59 67.5t67 90.5t62 95.5t44.5 83z" />
    <glyph glyph-name="z" unicode="z" horiz-adv-x="468" 
d="M477 346l-20 -20q-21 -21 -57.5 -51t-77 -60.5t-79 -58.5t-62.5 -44q30 20 69 35.5t70 15.5q5 0 9 -0.5t9 -1.5q35 -8 51.5 -26.5t21.5 -37.5t2.5 -33.5t-5.5 -14.5q-5 0 -14 6t-37 6q-30 0 -63.5 -7t-68 -17.5t-67 -24.5t-59.5 -27q-1 0 -2 -1q-6 -3 -12 -3
q-13 0 -25.5 9.5t-20.5 17.5q-4 4 -10 11.5t-10.5 16t-5.5 17t5 14.5q15 17 31.5 32t33.5 31t41.5 37.5t51.5 44.5t54.5 46t50 42t38 31.5t18.5 15.5q-7 -6 -26 -11t-41 -8.5t-42.5 -6t-31.5 -2.5q-25 0 -48.5 9.5t-41.5 26t-28.5 39t-10.5 48.5q0 2 8 -1t24.5 -7.5t42 -9
t59.5 -4.5q21 0 45.5 2.5t52.5 7.5q22 4 46 17t45 18q14 4 27.5 7.5t27.5 5.5q20 0 31.5 -9t25.5 -23q8 -10 16 -25t0 -28q-5 -8 -10.5 -14t-11.5 -12q-10 -11 -19 -21z" />
    <glyph glyph-name="braceleft" unicode="{" horiz-adv-x="514" 
d="M378 989q-11 -17 -16 -44q-5 -29 -10 -63.5t-11 -70.5t-13.5 -71.5t-17.5 -65.5t-24 -53.5t-32 -35.5q-38 -26 -67 -35t-37 -10q5 -3 18 -12.5t26 -23t22 -30.5t5 -35q-2 -8 -7.5 -25.5t-12.5 -40.5q-32 -106 -41 -178.5t-3.5 -119t21 -72t32 -37t30.5 -13.5l13 -2
q-8 -1 -18 -2q-8 0 -18.5 -0.5t-23.5 -0.5q-17 0 -35.5 1t-36 4.5t-32.5 9.5t-25 15q-22 21 -29 53.5t-4 74t15 90t27 99.5q9 30 17 58t13.5 52.5t8 45t0.5 33.5q-2 11 -15.5 25.5t-28 28t-26 24t-8.5 14.5q1 1 10.5 2.5t22 2.5t25.5 2.5t21 2.5q27 3 43.5 20t26 44t15 62
t9.5 75q5 45 12 95t22 101q6 21 19.5 35.5t30.5 23t37.5 12.5t39.5 4q25 0 46 -5t36.5 -11.5t24.5 -11.5l9 -5q-4 1 -9 2q-10 2 -22 2t-26 -3t-26.5 -12t-22.5 -25z" />
    <glyph glyph-name="bar" unicode="|" horiz-adv-x="294" 
d="M30 22q30 520 147 1025q1 10 12 10q9 0 19.5 -5t19.5 -12.5t16.5 -16t11.5 -16.5q3 -6 6 -14t1 -16q-116 -508 -146 -1025q-1 -7 -7.5 -8.5t-11.5 -1.5q-8 1 -16.5 6t-15.5 10q-14 11 -25.5 28t-10.5 36z" />
    <glyph glyph-name="braceright" unicode="}" horiz-adv-x="514" 
d="M448 425q-13 -2 -26 -3t-21 -2q-27 -3 -43 -20t-26 -44t-15 -62t-10 -76q-5 -45 -12 -95t-22 -101q-6 -21 -19.5 -35t-30.5 -23t-37 -12.5t-40 -3.5q-25 0 -46 5t-36.5 11.5t-24.5 11.5l-9 5q4 -1 9 -2q10 -2 22 -2t26 3t26.5 12t23 25.5t15.5 42.5q8 44 16 99t19 107
t28.5 94.5t45.5 60.5q38 25 66.5 34t36.5 10q-5 3 -18 13t-26 23.5t-22 30t-5 34.5q2 9 7.5 26.5t13.5 40.5q32 106 40.5 178.5t3 119t-21 72t-32 37t-29.5 13.5t-14 2q8 1 18 2q8 0 19 0.5t23 0.5q17 0 35.5 -1t36 -4.5t32.5 -9.5t25 -15q22 -21 29 -53.5t4 -74t-15 -90
t-27 -100.5q-9 -29 -17 -57t-13.5 -52.5t-8 -44.5t-0.5 -34q2 -11 15.5 -25.5t28 -28t26 -24t8.5 -14.5q-1 -1 -10.5 -2.5t-21.5 -2.5z" />
    <glyph glyph-name="asciitilde" unicode="~" horiz-adv-x="791" 
d="M743 404q9 -11 12 -16q2 -3 5 -9t0 -10q-17 -21 -40 -37t-49.5 -26.5t-54.5 -15.5t-55 -5q-48 0 -85 13.5t-75 40.5q1 -1 -2.5 1.5t-5.5 4.5l-8 4l-3 3q-5 2 -10 3.5t-10 3.5q-2 1 -3 1q-2 1 -5 1q-19 4 -42 4q-57 0 -106.5 -22.5t-94.5 -54.5q-1 -1 -4 -1q-7 0 -18 8
t-21.5 18.5t-19.5 21.5t-12 16q-1 2 -4.5 9.5t-0.5 9.5q48 33 99.5 56t110.5 23q39 0 66.5 -10.5t59.5 -32.5l3 -3q4 -3 8 -5.5t8 -4.5l2 -1q29 -11 50 -16.5t53 -5.5q26 0 52.5 5t51.5 15t47 25t38 36q2 2 4 2q7 0 18 -8t21.5 -19t19.5 -22z" />
    <glyph glyph-name="uni00A0" unicode="&#xa0;" horiz-adv-x="366" 
 />
    <glyph glyph-name="exclamdown" unicode="&#xa1;" horiz-adv-x="455" 
d="M285 378q11 26 12 25q5 -3 13 -5.5t15.5 -5t13.5 -5.5t6 -7q0 -5 -6 -31t-16.5 -66.5t-24.5 -92t-29 -107.5q-16 -56 -33 -113t-33 -108.5t-30 -95t-25 -71.5q-8 -17 -23 -25.5t-33 -8.5q-14 0 -27.5 6t-25.5 23q-3 5 -7 14t-1 15q6 13 20.5 50t33.5 87.5t42 111t46 122
t44.5 118t39 100.5t28.5 70zM307 544q10 18 26.5 27.5t33.5 9.5t28 -7q23 -13 28.5 -39.5t-9.5 -52.5q-10 -18 -26.5 -27.5t-33.5 -9.5q-16 0 -29 7q-22 14 -27.5 40.5t9.5 51.5z" />
    <glyph glyph-name="cent" unicode="&#xa2;" horiz-adv-x="506" 
d="M422 370q16 19 18 21q11 9 19 9q9 0 13.5 -8.5t2.5 -15.5q-1 -4 -17.5 -29t-43 -61t-60.5 -76.5t-70 -75t-71 -57t-63 -22.5q-6 0 -10 1q-11 -26 -21 -52.5t-19 -52.5q0 -2 -6.5 0t-8.5 2q-6 2 -11.5 5t-10.5 6q-2 1 8.5 31t27.5 78q-22 15 -36.5 35.5t-23.5 44.5
q-16 44 -5 92.5t30 90.5q20 45 49 89t70 75q11 8 29.5 18t32.5 10q11 0 25 -7q11 27 19.5 47t15.5 31q5 0 14 -4t19 -9t18.5 -11t12.5 -10q2 -2 5 -4.5t1 -4.5q-12 -23 -24.5 -46.5t-24.5 -46.5q9 -16 12 -35q1 -9 0.5 -17t-4.5 -16q-3 -9 -10 -16l-8 -8v-4q1 -4 2 -7.5
t2 -7.5q4 -13 -7 -16q-11 0 -21.5 6.5t-19.5 13.5q-29 -60 -57 -120.5t-54 -123.5q19 6 46 28.5t57 53t60.5 64.5t55.5 63t42 49zM123 142q19 51 40 106t42 109q-12 -17 -28 -44t-29.5 -57.5t-21.5 -60.5t-3 -53z" />
    <glyph glyph-name="sterling" unicode="&#xa3;" horiz-adv-x="729" 
d="M518 646q-19 -25 -33.5 -53t-24.5 -55q-17 -43 -29.5 -87t-23.5 -89q-6 -23 -11.5 -45t-10.5 -45q8 1 15.5 1.5t15.5 0.5q48 0 77 -16t58 -54q2 -2 8 -10t6 -13q-1 -4 -4 -4q-2 0 -6 2q-13 7 -31.5 9.5t-32.5 2.5q-35 0 -69.5 -9t-66.5 -22q-10 -33 -20.5 -65.5
t-24.5 -64.5q29 8 59 12.5t60 4.5q43 0 84 -12t76 -41q15 -12 30 -27t20 -33q4 -13 -5 -13q-6 0 -14 4.5t-11 6.5q-4 4 -10 7.5t-11 5.5q-19 8 -34 12q-14 2 -26.5 3t-26.5 1q-37 0 -75 -7t-75.5 -18.5t-73.5 -26.5t-69 -31q-7 -6 -20.5 -15t-28.5 -17.5t-29.5 -14
t-24.5 -5.5q-8 0 -18.5 8t-21 18.5t-19 21t-11.5 16.5q-1 2 -4 10t1 10q24 14 48 26.5t49 24.5q29 24 50 55.5t38 65.5q-6 -5 -12 -9t-11 -9q-1 -1 -3 -1q-6 0 -16.5 8.5t-21.5 20t-20 22.5t-12 15q-1 1 -5 8t-2 9q35 29 76.5 54t83.5 42q17 60 31.5 120.5t30.5 121.5
q8 31 18.5 65.5t24.5 69t31 66.5t39 56q20 23 51.5 42t63.5 19q18 0 36 -8.5t34 -22t28.5 -30t20.5 -31.5q14 -28 16 -58.5t-3 -60.5q-3 -20 -10.5 -48.5t-19 -58.5t-26.5 -59.5t-33.5 -52.5t-40 -37.5t-46.5 -14.5q-27 0 -48.5 18.5t-36.5 39.5q-2 4 -7 12t-4 14q2 6 7 6
q2 0 6 -2q2 0 6 -2h4q2 -1 5 -1q9 0 18 3q34 14 61 50.5t46 82t29 92.5t10 81q-30 -7 -54.5 -25t-43.5 -43z" />
    <glyph glyph-name="currency" unicode="&#xa4;" horiz-adv-x="560" 
d="M389 797q10 6 22 11.5t23.5 9.5t18.5 4t18 -8t21.5 -18.5t19.5 -21.5t12 -16q0 -1 4.5 -9t0.5 -9q-58 -15 -103 -57q5 -38 -2 -77t-24 -75q-8 -19 -18 -36t-22 -33q25 -31 56 -52q4 -2 1.5 -9t-4.5 -10q-3 -6 -11 -18t-18 -24t-20 -21t-17 -9q-50 33 -76 81q-3 -1 -8 -1
q-18 0 -34 8.5t-29 19.5q-50 -26 -88 -67q-3 -3 -7 -3q-9 0 -20 7t-21 17t-18.5 21t-11.5 18q-2 5 -4 11t2 11q44 47 102 74v2q-15 38 -9 79.5t22 79.5q-20 17 -35.5 39t-25.5 47q-2 5 -0.5 9t3.5 9q7 15 22 34.5t28 29.5q0 1 7.5 6.5t9.5 1.5q9 -23 23.5 -43.5t32.5 -37.5
q29 24 63 24q23 0 36.5 -7.5t28.5 -23.5q0 1 -2 7l-3 9q-1 2 -1 2.5t-1 2.5q-2 3 -4.5 9.5t1.5 10.5q2 2 5 2q8 0 20 -8.5t17 -13.5q6 5 17 11zM246 635q-14 -24 -23 -50.5t-13 -50.5q-2 -12 -2.5 -24t0.5 -24q2 0 2.5 0.5t2.5 0.5q28 11 51.5 37t41 58t28 66.5t11.5 62.5
q-13 0 -25 -4q-23 -9 -42 -28.5t-32 -43.5z" />
    <glyph glyph-name="yen" unicode="&#xa5;" horiz-adv-x="745" 
d="M674 142q-1 -6 -7 -6q-4 0 -6 1q-12 6 -24 10t-25 7q-36 6 -62 8t-61 2q-20 -31 -45 -62.5t-55.5 -57t-65.5 -41t-76 -15.5q-25 0 -40.5 13t-31.5 31q-1 1 -6 8t-9 14.5t-5.5 13.5t5.5 6q4 -1 8 -1h8q44 0 81 19.5t69 49.5l-21 -6q-8 0 -15 5l-10 7q-6 4 -14 11.5
t-15.5 15.5t-13.5 17t-8 16q-3 11 5 13q43 14 88 20t90 8l21 36q-23 -4 -44.5 -8.5t-42.5 -11.5q-9 0 -15 6l-10 6q-6 4 -14 11.5t-15.5 15.5t-13 17t-7.5 16q-3 7 0 10q-24 -10 -48 -17t-50 -7q-44 0 -79 22t-57 60q-9 16 -6 34q5 22 14.5 43t19.5 41q14 30 30 59.5
t31 58.5q35 68 69 136.5t58 140.5q8 26 14 51.5t8 51.5q1 10 0.5 19.5t-2.5 19.5v5q-1 2 -3 8q-1 2 -1.5 3.5t-1.5 3.5q24 -15 41 -27t28 -25t16.5 -29t5.5 -40q0 -35 -11 -77t-27.5 -84t-35 -82t-34.5 -71q-20 -40 -40.5 -78.5t-40.5 -78.5q-33 -64 -30 -92.5t30 -28.5
t71 23.5t94 64t101.5 93.5t92.5 112t65.5 119.5t22.5 116.5q-1 9 6 9q8 0 21 -8.5t19 -13.5q16 -14 30 -32t14 -40q0 -9 -1 -18.5t-2 -18.5q-14 -102 -44.5 -206.5t-68.5 -200.5q38 -8 64 -23.5t49 -47.5q3 -4 8 -12t4 -13q-1 -6 -7 -6q-4 0 -6 1q-11 6 -23.5 10t-25.5 7
q-1 0 -3 1q-1 0 -1.5 0.5t-1.5 0.5l-9 1q-20 4 -39.5 5.5t-39.5 2.5q-6 -14 -12.5 -26.5t-12.5 -25.5q41 -8 72 -24t56 -51q3 -4 8 -12t4 -13zM357 397q-39 -28 -79 -46q50 15 100.5 21.5t102.5 6.5q24 53 44 107.5t37 110.5q-27 -34 -60 -70t-69 -69q-37 -33 -76 -61z" />
    <glyph glyph-name="section" unicode="&#xa7;" horiz-adv-x="633" 
d="M339 609l9 -9q2 -1 3 -2t3 -2q2 -3 5 -5l1 -1q1 -1 3 -1l2 -2q7 -6 15 -12t18 -13l18 -12q5 -3 9 -6t8 -7q11 -7 25 -19t27.5 -26.5t23 -30t11.5 -29.5q1 -5 1.5 -9t-0.5 -9q-5 -31 -20.5 -56.5t-37.5 -46.5t-48 -37t-53 -28q11 -14 17.5 -28.5t6.5 -31.5
q-2 -39 -27.5 -71.5t-61.5 -58t-77.5 -43t-75.5 -26.5q-3 -1 -14 -1t-27 10.5t-32 25.5t-27.5 31t-13.5 27q-1 1 4 3q5 -2 13 -8l8 -6h2q12 2 19 4q31 11 68 26.5t70 36.5t58 49t32 65q-31 12 -63.5 31t-61 43.5t-50 54.5t-31.5 63q-5 17 -4 31q1 27 16.5 60t40 62.5
t54.5 50t60 21.5q-11 17 -17.5 35t-6.5 39q-1 42 19 83q14 27 39.5 57t57.5 56t67 43t68 17q16 0 33 -10t32 -24.5t27.5 -31t18.5 -29.5q2 -3 -4 -3q-8 3 -13 8l-8 6q-3 1 -11 1q-36 0 -76.5 -22t-76.5 -55.5t-61.5 -74t-30.5 -77.5q-3 -30 5 -57l6 -10q0 -2 1 -3q2 -2 3 -4
q0 -2 2 -2zM320 347q28 16 53.5 38t44 48t22.5 55v9q-57 40 -104 87q-25 -4 -52 -22.5t-50.5 -44.5t-39.5 -56t-19 -56q-2 -18 1 -29l2 -10q1 -5 3 -10q3 -3 5 -3l16 -8q1 -1 2 -1q1 -1 2 -1q12 -5 24.5 -10t25.5 -8q2 -1 5 -2t5 -2q25 9 54 26z" />
    <glyph glyph-name="dieresis" unicode="&#xa8;" horiz-adv-x="352" 
d="M265 500q-5 0 -15 2q-21 7 -31 28t-2 44q6 20 21.5 31t32.5 11q5 0 15 -2q21 -7 31 -28t2 -44q-6 -20 -21 -31t-33 -11zM114 511q-16 -11 -33 -11q-5 0 -15 2q-21 7 -31 28t-2 44q6 20 21 31t33 11q5 0 15 -2q21 -7 31 -28t2 -44q-6 -20 -21 -31z" />
    <glyph glyph-name="copyright" unicode="&#xa9;" horiz-adv-x="547" 
d="M474 805q10 -10 18 -21t11 -20q5 -13 8.5 -26t4.5 -27q2 -29 0 -55q-4 -47 -22.5 -94t-47.5 -87.5t-68 -72t-85 -48.5q-31 -11 -62 -11q-33 0 -65 13t-58 35t-44.5 51.5t-26.5 61.5q-10 38 -5 82q7 52 28.5 99.5t55 87t76.5 68.5t94 43q32 9 62 9t56.5 -11.5t43.5 -37.5
q2 -2 3 -4q2 -3 0 -5t-5 1l-7 4q-13 7 -27 9.5t-28 2.5q-61 0 -116.5 -29.5t-98.5 -76.5t-69 -105.5t-29 -117.5q-1 -16 2 -36q2 -12 4.5 -23.5t8.5 -22.5q1 -2 2 -5t2 -5q1 -1 1.5 -2t1.5 -2q0 -2 2 -4l3 -3q0 -1 2 -3l14 -11q18 -11 39 -16t42 -5q38 0 74.5 16t68 41.5
t57 58t41.5 64.5q41 79 41 169l-3 27q-2 10 -3 14q-1 3 -3 11q-10 -1 -19 -9q0 -1 -2 -1q-4 0 -12 8l-14 14q-8 7 -11 15l-1 5q12 10 24 10q9 0 20 -6.5t21 -16.5zM336 671q0 -1 1 -3q0 -4 1 -5q1 -10 -5 -11q-14 0 -29.5 15t-20.5 28l-8 -8q-2 -2 -4 -4.5t-4 -4.5
q-9 -11 -18.5 -26t-17.5 -31t-15 -32t-10 -31q-4 -18 -3 -33q2 -15 12 -24q3 -3 7 -3q10 0 25.5 11t34 27.5t38 37.5t36.5 40.5t30.5 35.5t19.5 24t10 12l4 4q8 6 13 6q6 0 9 -5q3 -7 2 -11q0 -3 -11 -20q-13 -19 -38 -52.5t-55 -66t-61.5 -56.5t-56.5 -24q-13 0 -25 6
t-22 15.5t-17.5 21t-11.5 23.5q-10 31 -3 64q5 23 15 48t23.5 48.5t30.5 44.5t36 36q20 15 38 15q11 0 21.5 -6.5t19.5 -17t15.5 -22t7.5 -22.5q2 -14 -3 -22q-1 -6 -6 -11l-6 -6v-3q1 -1 1 -2z" />
    <glyph glyph-name="guillemotleft" unicode="&#xab;" horiz-adv-x="673" 
d="M339 288q-2 -2 -3.5 -5t-3.5 -5t-4 -5t-4 -5q27 -19 66 -49.5t77.5 -65.5t71 -70t46.5 -64q2 -7 -2 -11q-2 -2 -5 -2q-11 0 -25.5 11.5t-21.5 19.5q-31 35 -64 67v-1l-10 10q-5 5 -11 10.5t-12 10.5l-24 21q-3 2 -5 5q-2 1 -3 2t-3 2l-21 17q-5 3 -10 6.5t-10 7.5
q-8 5 -16.5 11t-16.5 11q-24 16 -48.5 36.5t-37.5 46.5q-11 21 0 41q5 10 12 18.5t15 16.5q13 16 27 31t29 29q61 60 120.5 121.5t118.5 125.5l6 2q9 0 21 -8t23 -20t19.5 -24.5t12.5 -21.5q2 -7 -2 -11q-90 -97 -184 -190l-37 -37q-18 -18 -36 -37zM374 6q-11 0 -25 11.5
t-22 19.5q-32 35 -65 67l-9 9q-7 7 -14 13.5t-14 12.5q-8 6 -15 12t-15 13l-2 2q-5 4 -9.5 7.5t-9.5 7.5q-5 3 -10 6.5t-10 7.5q-8 5 -16.5 11t-16.5 11q-25 16 -48 36t-37 47q-11 21 0 41t26 35q14 16 28 31t28 29l58 58q48 46 92.5 93.5t89.5 95.5q2 2 5 2q9 0 21 -8
t23 -20t19.5 -24.5t12.5 -21.5q2 -7 -2 -11q-63 -68 -127 -133t-130 -131l-44 -48q-4 -4 -8 -10q-2 -2 -4 -5t-4 -5q27 -19 66 -49.5t77.5 -65.5t71 -70t46.5 -64q2 -7 -2 -11q-2 -2 -5 -2z" />
    <glyph glyph-name="uni00AD" unicode="&#xad;" horiz-adv-x="0" 
 />
    <glyph glyph-name="registered" unicode="&#xae;" horiz-adv-x="549" 
d="M171 825q26 20 56 35.5t62 24.5t63 9q11 0 27 -3t32 -9t28 -16t14 -24q1 -8 -5 -8q-3 0 -7 1.5t-6 3.5q0 1 -2 1l-8 5q-21 6 -42 6q-26 0 -53.5 -7.5t-53.5 -19.5t-49.5 -28t-41.5 -33q32 17 67 26q34 9 69 9q38 0 76 -14.5t57 -49.5q10 -18 12 -37.5t-6 -37.5
q-11 -25 -34.5 -43.5t-51.5 -32t-58 -22t-54 -12.5q12 -4 29.5 -10t35 -13t33 -16t24.5 -19l2 -2q40 45 63.5 101t26.5 117q1 14 0.5 25.5t-2.5 25.5q-1 3 -3 14t-4 13q-3 0 -7 -2t-10 -6q-1 -2 -5 -2q-6 0 -13 5.5t-13 13t-9 14.5t0 10q6 5 12.5 8t14.5 3q11 0 21.5 -6
t19.5 -15t16 -19.5t11 -19.5q11 -26 13 -55.5t0 -57.5q-9 -83 -53.5 -155.5t-114.5 -118.5q-28 -18 -58 -29t-63 -11q-47 0 -87.5 22.5t-68.5 59.5q-27 35 -36.5 76.5t-4.5 84.5q7 50 32.5 105t59.5 93q20 22 47 42zM89 589q-3 2 -5 4q-11 -35 -12 -70q0 -14 2 -31t7 -31
l1 -3q0 -1 0.5 -1.5t0.5 -1.5q4 -10 7 -14q-1 0 0.5 -2.5t2.5 -3.5q2 -4 3 -5q1 -2 3 -4q2 -3 6 -7l3 -3q3 -3 4 -3l2 -2q3 -2 5.5 -3.5t4.5 -3.5q1 0 3.5 -1.5t3.5 -1.5l6 -3q2 -1 3.5 -1.5t3.5 -1.5l4 -1q23 -8 49 -8q52 0 98 27.5t80 64.5q-3 2 -6 3.5t-5 3.5q0 1 -0.5 1
t-0.5 1q-5 3 -10.5 5.5t-10.5 4.5l-2 1q-29 11 -58.5 21.5t-59.5 19.5q-8 -21 -14.5 -42.5t-11.5 -44.5q0 -1 -2 -1q-5 0 -13 6.5t-11 10.5q-1 1 -3 3.5t-2 4.5q5 19 10 37.5t12 36.5q-5 3 -9 7t-6 8q-3 5 -2 8q0 3 7 3q5 -1 15 -1h4q17 43 36.5 84.5t44.5 80.5
q2 2 9.5 -3.5t8.5 -6.5q4 -3 10 -11q3 -3 2 -6q-21 -32 -38 -66t-31 -69q24 3 57 13t63 26t52 38.5t23 50.5v9q0 4 -1 9q0 2 -1 5l-1 2q-1 6 -7 13q0 1 -0.5 1t-0.5 1l-5 5q-2 2 -4 2q-6 5 -7 5l-3 1q-14 5 -27.5 7t-27.5 3h-6q-38 -1 -77.5 -12.5t-72.5 -33.5t-55.5 -54.5
t-25.5 -74.5v-7q0 -5 -4 -6q-5 -1 -11 3q-4 2 -7 5z" />
    <glyph glyph-name="degree" unicode="&#xb0;" horiz-adv-x="272" 
d="M53 685q-8 11 -13 21q-15 33 -8 69t23 66q14 26 37.5 48t53.5 22q17 0 27 -7t20 -21q2 -4 4.5 -10t-2.5 -6h-3q-8 2 -13 2q-22 0 -41 -15t-33 -36.5t-22.5 -46.5t-10.5 -45q-2 -14 0 -26q1 -3 1.5 -6.5t2.5 -6.5q15 0 25 4t21 13q33 25 55 68t24 85q0 11 -1 21.5t-5 20.5
q0 2 -1 2q0 1 -1 2q-1 2 -1 3t-1 2q-6 11 2 11q4 0 9 -3.5t10 -8.5t9 -10.5t6 -8.5q19 -36 15 -75t-21 -74q-7 -14 -17.5 -30.5t-24.5 -31t-30 -24t-34 -9.5q-12 0 -23.5 6t-21.5 15t-17 20z" />
    <glyph glyph-name="plusminus" unicode="&#xb1;" horiz-adv-x="631" 
d="M356 368q-13 -41 -22 -83.5t-9 -84.5q0 -2 1 -3v-4q1 -3 0.5 -6.5t0.5 -5.5q2 -14 4 -22q2 -3 2.5 -5.5t2.5 -5.5q2 -5 4 -11.5t-3 -11.5q-2 -2 -8 -2q-10 0 -21 6.5t-20.5 16t-17 20.5t-12.5 19q-11 22 -14.5 46.5t-2.5 49.5q0 20 2.5 39.5t6.5 39.5q-29 -4 -57 -8.5
t-56 -12.5q-5 -2 -12.5 4t-12.5 9q-16 12 -31 30q-2 2 -7 8.5t-8.5 13.5t-4.5 13t6 7q51 13 103 19.5t105 8.5q4 10 11 28.5t16 41.5t19 46.5t20 42.5t18 31.5t13 12.5q13 0 27 -10.5t22 -18.5q5 -4 10.5 -11t10 -15t6 -16t-2.5 -14q-17 -29 -31 -58q-15 -30 -28 -61
q37 -2 73.5 -8.5t71.5 -19.5q6 -3 18 -12t23.5 -21t20 -24t8.5 -21q-1 -6 -7 -6q-2 0 -6 2q-8 3 -15.5 5.5t-15.5 4.5l-1 1h-3q-2 0 -4 1q-48 11 -96 13t-97 2zM517 84q19 -8 34.5 -23.5t22.5 -34.5q2 -6 2 -13.5t-5 -12.5q-4 -4 -12 -4q-7 0 -13 3q-8 3 -15 5.5t-15 4.5
q-3 0 -4 1q-39 9 -79.5 12t-80.5 3q-62 0 -123.5 -6.5t-121.5 -21.5q-1 -1 -5 -1q-11 0 -23.5 7.5t-23 18.5t-17.5 23t-8 22q0 6 2 11.5t9 7.5q63 16 128.5 22.5t130.5 6.5q54 0 110 -5.5t107 -25.5z" />
    <glyph glyph-name="acute" unicode="&#xb4;" horiz-adv-x="261" 
d="M107 602q-18 -34 -44 -63l-1 -1q-1 -1 -1 -1.5t-1 -1.5l-3 -3q-4 -4 -8 -7.5t-8 -7.5q-2 -1 -7 -6.5t-3 -8.5q0 -2 4 -2q9 0 20.5 5t23.5 12t23 14.5t17 12.5q41 36 70 81.5t42 99.5q2 5 -5 5t-22 -6.5t-30.5 -15.5t-27 -18.5t-13.5 -15.5q-9 -38 -26 -72z" />
    <glyph glyph-name="paragraph" unicode="&#xb6;" horiz-adv-x="675" 
d="M429 961l193 -10q11 0 18 -5.5t5 -12.5l-99 -894q-1 -12 -8 -19.5t-16.5 -12t-21 -6t-20.5 -1.5h-14l103 935l-80 4l-97 -896q-1 -10 -7.5 -17t-15.5 -11t-19 -6t-18 -2l-19 1l57 528q-10 -1 -21.5 -1.5t-24.5 -0.5q-44 0 -96 7.5t-96.5 30t-73.5 64.5t-28 110
q1 49 20.5 84t51 59t71 38.5t79 22t76 10t61.5 2.5h11q5 0 10 -1h19z" />
    <glyph glyph-name="periodcentered" unicode="&#xb7;" horiz-adv-x="253" 
d="M110 200q-4 0 -8 2q-26 7 -37 30.5t0 50.5q8 23 27.5 36.5t41.5 13.5q9 0 16 -3q26 -7 37 -30.5t1 -50.5q-9 -23 -28.5 -36t-41.5 -13h-8z" />
    <glyph glyph-name="guillemotright" unicode="&#xbb;" horiz-adv-x="673" 
d="M379 284q-14 -15 -28 -29q-62 -61 -121.5 -122.5t-118.5 -124.5q-2 -2 -5 -2q-7 0 -19 8.5t-24 20t-21 24t-11 21.5q-3 6 1 10q45 50 90.5 97t93.5 94q49 49 95 98l11 11q6 6 11 13q2 2 4.5 5t4.5 5t3.5 5t3.5 5q-24 17 -64 48t-80.5 67t-73 72.5t-42.5 62.5q-3 6 1 10
q2 2 5 2q11 0 25.5 -11.5t21.5 -19.5q16 -18 33 -35.5t34 -34.5l1 -1q1 -1 2 -1.5t2 -1.5q15 -14 31 -28l14 -12q7 -6 15 -13l2 -2q35 -27 72 -51q24 -17 47.5 -36.5t37.5 -46.5q11 -21 0 -41q-5 -10 -11.5 -19t-14.5 -17q-14 -16 -28 -30zM409 539q-28 25 -52 49t-41.5 46
t-23.5 39q-3 5 2 10q2 2 5 2q11 0 25.5 -11.5t21.5 -19.5l32 -34q16 -17 33 -34q3 -2 9 -8q14 -14 28 -27t30 -24l2 -2q35 -27 72 -51q24 -17 47.5 -36.5t37.5 -46.5q11 -21 0 -41q-5 -10 -11.5 -19t-14.5 -17q-14 -16 -28 -30.5t-28 -28.5q-62 -61 -121.5 -122.5
t-118.5 -124.5q-2 -2 -5 -2q-7 0 -19 8.5t-24 20t-21 24t-11 21.5q-3 6 1 10q45 50 90.5 97t93.5 94q49 49 95 98l11 11q6 6 11 13q2 2 4.5 5t4.5 5t3.5 5t3.5 5q-16 11 -39.5 29t-50.5 40t-54 47z" />
    <glyph glyph-name="questiondown" unicode="&#xbf;" horiz-adv-x="787" 
d="M129 -198q0 -1 1 -1zM218 1q-16 -12 -33.5 -27t-31.5 -31.5t-24 -36t-13 -40.5v-6q-1 -2 -1 -6v-5q1 -3 1 -6t1 -6q0 -5 2 -11l1 -4q1 -2 1 -3t1 -3q1 -1 1 -2t1 -3q1 -1 1 -2t1 -2t1 -1.5t1 -1.5l5 -10l3 -3q1 -2 2 -3t2 -3q1 -1 1.5 -2t1.5 -2q2 -1 5 -4q7 -4 13 -7.5
t11 -5.5q4 -2 7 -3h2l-2 1q12 -5 25.5 -8.5t27.5 -3.5q5 0 15 -2q36 0 81.5 9t92 26.5t91 42.5t79.5 57t56.5 70.5t22.5 81.5v3q-1 3 -1 6t-1 7q-2 8 -3 13q-1 1 -1 4q0 2 -1 3l-2 4q-1 3 -3 5q-3 5 -5.5 11t-2.5 12q-1 4 2 9q1 4 9 4q14 0 27.5 -10.5t25 -25.5t20.5 -32
t13 -30q14 -44 4 -83q-16 -60 -61.5 -110t-106.5 -87t-129 -57.5t-128 -20.5q-49 0 -96.5 16.5t-87 46t-68 70t-40.5 89.5q-9 38 1 71q12 44 49 82t85 69.5t99.5 56.5t92.5 43l80 38q19 9 44 21.5t49 28t45 33.5t31 37q5 11 6 24q-1 2 -1 6q0 3 -1 5q-4 13 8 16h4q6 0 13 -3
q22 -13 40 -33t22 -46q3 -28 -11 -51q-17 -26 -43 -46t-52 -34q-35 -20 -70.5 -38t-71.5 -35q-60 -27 -120.5 -57t-114.5 -69zM753 500q-8 -23 -27 -36.5t-43 -13.5h-7q-14 0 -27 10.5t-18 22.5q-11 25 -1 50q8 22 27 36t42 14q5 0 8.5 -0.5t8.5 -1.5q26 -8 37 -31
q11 -24 0 -50zM660 76q-2 4 -2 3l1 -2z" />
    <glyph glyph-name="Agrave" unicode="&#xc0;" horiz-adv-x="951" 
d="M346 254q-4 -2 -5 -2q-6 -4 -8 -6q0 -8 -9 -8t-21 8.5t-23.5 20.5t-20 24t-9.5 19q-1 17 13 24q21 10 55 15.5t71.5 8.5t73 3.5t58.5 0.5q13 0 25.5 -0.5t25.5 -0.5q7 10 13.5 20t13.5 20q91 134 183.5 265.5t194.5 257.5q4 5 11 5q9 0 19 -5t18.5 -12.5t16 -16.5
t11.5 -16q10 -17 9 -32q-1 -21 -7 -47t-14.5 -52.5t-18.5 -51.5l-18 -45q-23 -57 -46.5 -112.5t-45.5 -112.5q-38 -101 -71 -205.5t-44 -213.5q0 -3 -1 -5q0 -3 1 -4q-1 -3 -1 -7v-6q-1 -13 -0.5 -26t1.5 -26q1 -6 1.5 -12t2.5 -12l1 -4q2 -7 4 -13.5t4 -12.5l4 -8l8 -5
q23 -9 40.5 -23t25.5 -39q2 -5 2.5 -12.5t-4.5 -12.5q-4 -4 -11 -4q-4 0 -7.5 1t-6.5 2q-34 11 -61.5 33t-46.5 50.5t-30 62t-14 68.5q-5 63 5.5 125t26.5 122q4 16 8 31.5t9 30.5q-88 19 -158 19q-78 -120 -137.5 -218.5t-111.5 -172t-101.5 -119.5t-107.5 -59
q-5 -2 -16 -2q-24 0 -47 9t-43 23q-6 4 -13 11.5t-12.5 16t-8.5 18t-1 17.5q3 11 16 11q8 0 15 -3.5t14 -8.5h3q8 -2 15 -3h14q21 2 42.5 6t41.5 14q37 21 75.5 58.5t75 81t69 88t56.5 79.5q27 38 53 76l52 76q-44 -4 -77.5 -13t-57.5 -19t-39 -19t-23 -14zM932 755q1 3 3 8
t5 16q1 2 1 5v1q-2 0 -13.5 -17t-28.5 -37q-83 -101 -150 -194t-124 -178q73 -4 145 -21q26 83 60 169q22 57 45 112.5t46 111.5q5 10 7 15t4 9zM947 1098q-11 26 -16 44q-8 29 -12 58t-2 59q0 6 5 8t10 2q1 0 1.5 -0.5t1.5 -0.5q8 -1 16.5 -6t15.5 -10q14 -11 25.5 -27.5
t10.5 -35.5q0 -38 9 -77q0 -3 1 -4q2 -5 3.5 -11t3.5 -11q1 -2 4 -12.5t5 -10.5q2 -3 6 -11q2 -2 3 -5t3 -5q1 -1 1 -2q2 -1 3 -3q2 -5 4 -7q4 -8 7 -16t2 -15t-10 -9q-22 0 -41 17t-34 41t-26 50z" />
    <glyph glyph-name="Aacute" unicode="&#xc1;" horiz-adv-x="1073" 
d="M1022 696l-18 -45q-23 -57 -46.5 -112.5t-45.5 -112.5q-38 -101 -71 -205.5t-44 -213.5q0 -3 -1 -5q0 -3 1 -4q-1 -3 -1 -7v-6q-1 -13 -0.5 -26t1.5 -26q1 -6 1.5 -12t2.5 -12l1 -4q2 -7 4 -13.5t4 -12.5l4 -8l8 -5q23 -9 40.5 -23t25.5 -39q2 -5 2.5 -12.5t-4.5 -12.5
q-4 -4 -11 -4q-4 0 -7.5 1t-6.5 2q-34 11 -61.5 33t-46.5 50.5t-30 62t-14 68.5q-5 63 5.5 125t26.5 122q4 16 8 31.5t9 30.5q-88 19 -158 19q-78 -120 -137.5 -218.5t-111.5 -172t-101.5 -119.5t-107.5 -59q-5 -2 -16 -2q-24 0 -47 9t-43 23q-6 4 -13 11.5t-12.5 16
t-8.5 18t-1 17.5q3 11 16 11q8 0 15 -3.5t14 -8.5q3 0 3 -1q8 -2 15 -2h14q26 2 49 8t46 18q35 22 71.5 59t71.5 79.5t66.5 85.5t55.5 77q27 38 53 76l52 76q-45 -4 -78.5 -13t-57.5 -19t-38.5 -19t-22.5 -14q-4 -2 -5 -2q-6 -4 -8 -6q0 -8 -9 -8t-21 8.5t-23.5 20.5t-20 24
t-9.5 19q-1 17 13 24q21 10 55 15.5t71 8.5t72 3.5t58 0.5h27q12 0 26 -1q97 145 196 286t209 277q4 5 11 5q9 0 19 -5t18.5 -12.5t16 -16.5t11.5 -16q10 -17 9 -32q-1 -21 -7 -47t-14.5 -52.5t-18.5 -51.5zM625 359q73 -4 145 -21q26 83 60 169q22 57 45 112.5t46 111.5
q5 10 7 15t3.5 8.5t3.5 8.5t5 16q1 2 1 5v1q-2 0 -13.5 -17t-28.5 -37q-83 -101 -150 -194t-124 -178zM1024 1048q23 27 38.5 59t23.5 67q2 7 14.5 16.5t28.5 18.5t30.5 15t19.5 6q7 0 5 -5q-12 -54 -41 -99.5t-71 -80.5q-6 -5 -16.5 -13t-22.5 -15t-24 -12t-21 -5
q-3 0 -4 2q-2 3 3 9q5 5 7 6q5 4 9 8l10 10q1 1 1 1.5t1 1.5z" />
    <glyph glyph-name="Acircumflex" unicode="&#xc2;" horiz-adv-x="1044" 
d="M383 90q31 43 55 77q27 38 53 76l52 76q-44 -4 -77.5 -13t-57.5 -19t-39 -19t-23 -14q-4 -2 -5 -2q-6 -4 -8 -6q0 -8 -9 -8q-7 0 -19.5 8t-24 19.5t-20.5 23.5t-10 21q-1 17 13 24q21 10 55 15.5t71 8.5t72 3.5t58 0.5h27q12 0 26 -1q7 11 13.5 20.5t13.5 19.5
q91 134 183.5 265.5t194.5 257.5q4 5 11 5q9 0 19 -5t19 -12.5t16 -16.5t11 -16q10 -17 9 -32q-1 -21 -7 -47t-14.5 -52.5t-18.5 -51.5l-18 -45q-23 -57 -46.5 -112.5t-45.5 -112.5q-19 -49 -37.5 -101t-34 -105t-27 -106.5t-16.5 -106.5q0 -3 -1 -5q0 -3 1 -4q-1 -3 -1 -7
v-6q-1 -13 -0.5 -26t1.5 -26q1 -6 1.5 -12t2.5 -12l1 -4q2 -7 4 -13.5t4 -12.5l4 -8l8 -5q23 -9 40.5 -23t25.5 -39q2 -5 2.5 -12.5t-4.5 -12.5q-4 -4 -11 -4q-4 0 -7.5 1t-6.5 2q-34 11 -61.5 33t-46.5 50.5t-30 62t-14 68.5q-5 63 5.5 125t26.5 122q4 16 8 31.5t9 30.5
q-88 19 -158 19q-78 -120 -137.5 -218.5t-111.5 -172t-101.5 -119.5t-107.5 -59q-5 -2 -16 -2q-24 0 -47 9t-43 23q-6 4 -13 11.5t-12.5 16t-8.5 18t-1 17.5q3 11 16 11q8 0 15 -3.5t14 -8.5h3q8 -2 14.5 -2.5t14.5 -0.5h5q25 3 46.5 9t43.5 17q35 22 71.5 59t71.5 79.5
t67 85.5zM830 507q22 57 45 112.5t46 111.5q5 10 7 15t3.5 8.5t3.5 8.5t5 16q1 2 1 5v1q-2 0 -13.5 -17t-28.5 -37q-83 -101 -150 -194t-124 -178q73 -4 145 -21q26 83 60 169zM963 1132q24 35 38 79q3 8 11 8q9 0 20 -7t21 -17t17 -20.5t7 -18.5q0 -16 4 -34.5t11 -37.5
q6 -19 14 -36.5t15 -30.5q2 -2 2.5 -3t2.5 -3q11 -10 21.5 -24t7.5 -28q-1 -5 -4.5 -6.5t-7.5 -1.5q-15 0 -31 14t-30 33t-25.5 39t-17.5 32q-5 -7 -15 -19t-22 -23.5t-24 -20t-21 -8.5q-8 0 -17.5 5.5t-18 14t-15.5 18t-10 16.5q-1 3 -2.5 11t3.5 10q42 23 66 59z" />
    <glyph glyph-name="Atilde" unicode="&#xc3;" horiz-adv-x="1125" 
d="M1026 912q9 -8 16 -17t11 -16q10 -17 9 -32q-1 -21 -7 -47t-14.5 -52.5t-18.5 -51.5l-18 -45q-23 -57 -46.5 -112.5t-45.5 -112.5q-38 -101 -71 -205.5t-44 -213.5q0 -3 -1 -5q0 -3 1 -4q-1 -3 -1 -7v-6q-1 -13 -0.5 -26t1.5 -26q1 -6 1.5 -12t2.5 -12l1 -4q2 -7 4 -13.5
t4 -12.5l4 -8l8 -5q23 -9 40.5 -23t25.5 -39q2 -5 2.5 -12.5t-4.5 -12.5q-4 -4 -11 -4q-4 0 -7.5 1t-6.5 2q-34 11 -61.5 33t-46.5 50.5t-30 62t-14 68.5q-5 63 5.5 125t26.5 122q4 16 8 31.5t9 30.5q-88 19 -158 19q-78 -120 -137.5 -218.5t-111.5 -172t-101.5 -119.5
t-107.5 -59q-5 -2 -16 -2q-24 0 -47 9t-43 23q-6 4 -13 11.5t-12.5 16t-8.5 18t-1 17.5q3 11 16 11q8 0 15 -3.5t14 -8.5h3q8 -2 14.5 -2.5t14.5 -0.5q26 2 49 8t46 18q35 22 71.5 59t71.5 79.5t66.5 85.5t55.5 77q27 38 53 76l52 76q-45 -4 -78.5 -13t-57.5 -19t-38.5 -19
t-22.5 -14q-4 -2 -5 -2q-6 -4 -8 -6q0 -8 -9 -8t-21 8.5t-23.5 20.5t-20 24t-9.5 19q-1 17 13 24q21 10 55 15.5t71 8.5t72 3.5t58 0.5h27q12 0 26 -1q97 145 196 286t209 277q4 5 11 5q9 0 19 -5t19 -12zM625 359q73 -4 145 -21q26 83 60 169q22 57 45 112.5t46 111.5
q5 10 7 15t3.5 8.5t3.5 8.5t5 16q1 2 1 5v1q-2 0 -13.5 -17t-28.5 -37q-83 -101 -150 -194t-124 -178zM1037 1060q-15 7 -31 14t-36 12q-13 3 -27 3q-19 0 -36 -4q-18 -5 -32 -10q-16 -7 -30 -15q15 34 35 61q18 23 43.5 41.5t57.5 18.5q34 0 73 -26q23 -17 43 -23.5
t37 -6.5q24 0 43 9t33 20q15 12 27 28q-4 -42 -17 -74q-11 -29 -33 -52t-61 -23q-13 0 -27 3q-18 4 -33 10.5t-29 13.5z" />
    <glyph glyph-name="Adieresis" unicode="&#xc4;" horiz-adv-x="1110" 
d="M1007 924q10 -5 19 -12.5t16 -16.5t11 -16q10 -17 9 -32q-1 -21 -7 -47t-14.5 -52.5t-18.5 -51.5l-18 -45q-23 -57 -46.5 -112.5t-45.5 -112.5q-19 -49 -37.5 -101t-34 -105t-27 -106.5t-16.5 -106.5q0 -3 -1 -5q0 -3 1 -4q-1 -3 -1 -7v-6q-1 -13 -0.5 -26t1.5 -26
q1 -6 1.5 -12t2.5 -12l1 -4q2 -7 4 -13.5t4 -12.5l4 -8l8 -5q23 -9 40.5 -23t25.5 -39q2 -5 2.5 -12.5t-4.5 -12.5q-4 -4 -11 -4q-4 0 -7.5 1t-6.5 2q-34 11 -61.5 33t-46.5 50.5t-30 62t-14 68.5q-5 63 5.5 125t26.5 122q4 16 8 31.5t9 30.5q-88 19 -158 19
q-78 -120 -137.5 -218.5t-111.5 -172t-101.5 -119.5t-107.5 -59q-5 -2 -16 -2q-24 0 -47 9t-43 23q-6 4 -13 11.5t-12.5 16t-8.5 18t-1 17.5q3 11 16 11q8 0 15 -3.5t14 -8.5h3q8 -2 14.5 -2.5t14.5 -0.5q26 2 49 8t46 18q35 22 71.5 59t71.5 79.5t66.5 85.5t55.5 77
q27 38 53 76l52 76q-45 -4 -78.5 -13t-57.5 -19t-38.5 -19t-22.5 -14q-4 -2 -5 -2q-6 -4 -8 -6q0 -8 -9 -8t-21 8.5t-23.5 20.5t-20 24t-9.5 19q-1 17 13 24q21 10 55 15.5t71 8.5t72 3.5t58 0.5h27q12 0 26 -1q97 145 196 286t209 277q4 5 11 5q9 0 19 -5zM625 359
q73 -4 145 -21q26 83 60 169q22 57 45 112.5t46 111.5q5 10 7 15t3.5 8.5t3.5 8.5t5 16q1 2 1 5v1q-2 0 -13.5 -17t-28.5 -37q-83 -101 -150 -194t-124 -178zM875 1125q6 19 21.5 30t32.5 11q10 0 15 -2q21 -7 31 -28t2 -44q-6 -19 -21 -30.5t-33 -11.5q-5 0 -15 2
q-21 7 -31 28.5t-2 44.5zM1117 1125q6 19 21 30t32 11q10 0 15 -2q22 -7 31.5 -28t1.5 -44q-6 -19 -21 -30.5t-32 -11.5q-5 0 -15 2q-21 7 -31 28.5t-2 44.5z" />
    <glyph glyph-name="Aring" unicode="&#xc5;" horiz-adv-x="1048" 
d="M130 -151q21 6 43 17q35 22 72 59t72 79.5t66 85.5t55 77q27 38 53 76l52 76q-45 -4 -78.5 -13t-57.5 -19t-38.5 -19t-22.5 -14q-4 -2 -5 -2q-6 -4 -8 -6q0 -8 -9 -8t-21 8.5t-23.5 20.5t-20 24t-9.5 19q-1 17 13 24q21 10 55 15.5t71 8.5t72 3.5t58 0.5h27q12 0 26 -1
q97 145 196 286t209 277q4 5 11 5q9 0 19 -5t19 -12.5t16 -16.5t11 -16q10 -17 9 -32q-1 -21 -7 -47t-14.5 -52.5t-18.5 -51.5l-18 -45q-23 -57 -46.5 -112.5t-45.5 -112.5q-19 -49 -37.5 -101t-34 -105t-27 -106.5t-16.5 -106.5q0 -3 -1 -5q0 -3 1 -4q-1 -3 -1 -7v-6
q-1 -13 -0.5 -26t1.5 -26q1 -6 1.5 -12t2.5 -12l1 -4q2 -7 4 -13.5t4 -12.5l4 -8l8 -5q23 -9 40.5 -23t25.5 -39q2 -5 2.5 -12.5t-4.5 -12.5q-4 -4 -11 -4q-4 0 -7.5 1t-6.5 2q-34 11 -61.5 33t-46.5 50.5t-30 62t-14 68.5q-5 63 6 125q10 62 26 122q4 16 8 31.5t9 30.5
q-88 19 -158 19q-78 -120 -137.5 -218.5t-111.5 -172t-101.5 -119.5t-107.5 -59q-5 -2 -16 -2q-24 0 -47 9t-43 23q-6 4 -13 11.5t-12.5 16t-8.5 18t-1 17.5q3 11 16 11q8 0 15 -3.5t14 -8.5h3q8 -2 14.5 -2.5t14.5 -0.5h5q25 3 47 9zM625 359q73 -4 145 -21q26 83 60 169
q22 57 45 112.5t46 111.5q5 10 7 15t3.5 8.5t3.5 8.5t5 16q1 2 1 5v1q-2 0 -13.5 -17t-28.5 -37q-83 -101 -150 -194t-124 -178zM974 1123q5 16 14.5 32t22.5 28.5t29 20.5t34 8q14 0 22.5 -6.5t17.5 -17.5l3 -3q2 -3 4.5 -7t3.5 -7t-2 -2q-5 1 -13 1q-17 0 -32.5 -8
t-27.5 -20.5t-21.5 -27.5t-14.5 -30q-14 -35 -6 -71q2 -10 6 -17q4 -2 14 -2q18 0 33.5 10.5t26.5 26.5t18.5 34.5t10.5 33.5q2 9 2.5 18t-1.5 18v5q-3 3 -5.5 6t-4.5 6q-2 2 -5 8t1 6q6 0 14.5 -6.5t16 -15.5t14 -18.5t7.5 -15.5q4 -11 4 -23t-2 -23q-3 -16 -10.5 -36
t-19 -36.5t-27.5 -28t-36 -11.5q-16 0 -32 9t-28.5 22.5t-22 30t-13.5 30.5q-11 40 5 79z" />
    <glyph glyph-name="AE" unicode="&#xc6;" horiz-adv-x="1464" 
d="M351 -71q-52 -73 -101.5 -119t-107.5 -59q-5 -2 -16 -2q-24 0 -47 9t-43 23q-6 4 -13 11.5t-12.5 16t-8.5 18t-1 17.5q3 11 16 11q8 0 15 -3.5t14 -8.5q3 0 3 -1q8 -2 15 -2h14q22 2 43 6t41 14q37 21 75.5 58.5t75 81t69 88t56.5 79.5q27 38 53 76l52 76
q-45 -4 -78.5 -13t-57.5 -19t-38.5 -19t-22.5 -14q-4 -2 -5 -2q-6 -4 -8 -6q0 -8 -9 -8t-21 8.5t-23.5 20.5t-20 24t-9.5 19q-1 17 13 24q21 10 55 15.5t71 8.5t72 3.5t58 0.5q14 0 26.5 -0.5t26.5 -0.5q97 145 196 286t209 277q4 5 11 5q9 0 19 -5t18.5 -12.5t16 -16.5
t11.5 -16q10 -17 9 -32q-1 -28 -9 -55.5t-17 -54.5q27 23 62.5 48t74 46t77.5 35t73 14q22 0 44 -8t41 -22t33.5 -32t20.5 -39q5 -16 2 -31q-4 -20 -13 -38t-20 -34q-24 -36 -60.5 -73.5t-80 -67.5t-90.5 -49t-93 -19q-11 0 -21 1t-21 4q-9 2 -19.5 10t-20 18t-17.5 21
t-11 18q-26 -31 -48 -64.5t-38 -69.5q-10 -23 -15.5 -47.5t-3.5 -49.5q1 -1 2 -1t4 -1h3q24 -3 48 -3q43 0 84.5 5.5t83.5 13.5q8 5 21 11t21 8q11 0 24 -7.5t25 -19t20.5 -24t11.5 -22.5q0 -2 0.5 -4t0.5 -4q-1 -7 -5.5 -9.5t-10.5 -4.5l-32 -8q-40 -24 -90 -60t-97.5 -78
t-86.5 -87t-57 -88q-5 -14 -9 -28t-1 -29q3 -13 10 -26l12 -12q15 -12 41 -12q39 0 94 24.5t117.5 66t129 96t126.5 115.5t110 124t80 121q2 2 3 2q5 0 11 -13.5t10 -21.5q3 -5 4.5 -10.5t-1.5 -10.5q-23 -42 -63 -99t-92 -118t-111.5 -120t-121 -105.5t-122 -75
t-112.5 -28.5q-47 2 -85 22q-5 -12 -17 -12q-4 0 -7.5 1t-6.5 2q-34 11 -61.5 33t-46.5 50.5t-30 62t-14 68.5q-5 63 5.5 125t26.5 122q4 16 8 31.5t9 30.5q-88 19 -158 19q-78 -120 -137 -218q-60 -99 -112 -173zM830 507q22 57 45 112.5t46 111.5q5 10 7 15t3.5 8.5
t3.5 8.5t5 16q1 2 1 5v1q-2 0 -13.5 -17t-28.5 -37q-83 -101 -150 -194t-124 -178q73 -4 145 -21q26 83 60 169zM1084 627q-43 -39 -72 -72q1 -1 3 -1q8 -1 14 -1h10q46 0 96.5 22.5t96.5 57.5t83 77t56 82q-46 -6 -97 -31.5t-99.5 -60t-90.5 -73.5zM836 91q20 24 42.5 46.5
t46.5 43.5t46 39q-33 5 -61 18t-51 37q-19 -57 -34.5 -115t-23.5 -117q15 24 35 48z" />
    <glyph glyph-name="Ccedilla" unicode="&#xc7;" horiz-adv-x="703" 
d="M813 229q-31 -45 -74 -100.5t-96.5 -110.5t-114.5 -104t-128 -82q2 -9 2.5 -17.5t-0.5 -15.5q0 -2 1 -3v-4q3 -15 9 -30q0 -1 1 -2v-1q7 -18 15 -36.5t18 -35.5q2 -2 2 -3l2 -3q7 -11 14 -20.5t15 -18.5q5 -5 8 -15.5t4 -18.5q2 -20 -1 -37l-2 -10q-2 -6 -4.5 -11.5
t-6.5 -9.5t-9 -4q-4 0 -6 2q-32 17 -63 26q-32 9 -69 9q-31 0 -63 -9q-5 -2 -10 6t-7 11q-5 9 -6.5 19.5t-1.5 20.5q0 7 0.5 16t3 17.5t7 15.5t12.5 9q16 5 31.5 6.5t30.5 1.5q13 0 25.5 -1t24.5 -4q-11 32 -18.5 64t-5.5 65q-29 -11 -61 -18.5t-64 -7.5q-14 0 -30.5 6
t-32.5 15t-30.5 19.5t-23.5 20.5q-38 40 -56.5 82t-21.5 97q-3 50 4.5 99.5t21.5 97.5q33 116 97 224t154 191q25 23 62 51.5t78 53.5t83.5 41.5t78.5 16.5q41 0 73 -24t54 -56q12 -17 18.5 -36t5.5 -40q-3 -42 -17.5 -88.5t-39 -91t-57 -84.5t-71 -70.5t-81.5 -48.5
t-88 -18h-15q-7 0 -15 2q-9 1 -21 10t-23 20.5t-20 23.5t-11 19q-1 2 -1.5 7.5t5.5 3.5q7 -1 14 -1.5t15 -0.5q65 0 125 37.5t107 95t77 126t34 130.5q-34 -1 -70.5 -15.5t-71.5 -35t-67 -44.5t-57 -45q-58 -49 -108.5 -112.5t-90 -135.5t-65 -149t-33.5 -152
q-3 -28 -3 -55.5t5 -55.5q1 -3 1 -6t1 -6l1 -2q3 -17 11 -33q10 -7 29.5 -9t31.5 -2q53 0 108.5 21.5t110 56.5t107 79.5t99.5 91t86.5 91t68 79t45 55.5t17.5 21q9 -5 19 -8.5t18 -11.5q2 -2 -14 -31t-46 -73z" />
    <glyph glyph-name="Egrave" unicode="&#xc8;" horiz-adv-x="738" 
d="M866 342q2 -6 4 -10q1 -2 2 -5t2 -5q1 -6 -2 -11q-6 -13 -13.5 -24.5t-15.5 -23.5q-25 -39 -64.5 -91.5t-88 -107.5t-103.5 -109t-112.5 -96t-114.5 -68t-109 -26q-31 0 -63 12.5t-59.5 33t-49 47.5t-32.5 56q-7 17 -5 42q3 36 24.5 73t52 71.5t64.5 65.5t62 54
q-32 4 -61 18t-51 36t-35.5 50.5t-15.5 61.5q-1 19 3 38q13 63 56 128t101 123.5t124 105.5t126 74q54 25 105 25q21 0 43 -8t41 -22t33.5 -32t21.5 -39l3 -15q0 -40 -28.5 -83.5t-70 -82t-87 -68.5t-79.5 -44q-45 -19 -93 -19q-38 0 -66.5 18.5t-43.5 53.5q-32 -38 -61 -85
t-40 -96q-6 -24 -4 -50l1 -1q3 0 8 -1q24 -3 48 -3q43 0 84.5 5.5t83.5 13.5q8 5 20.5 11t21.5 8q11 0 23.5 -7.5t24 -18.5t20.5 -23.5t12 -23.5q2 -5 1 -8q-2 -11 -15 -14l-32 -8q-39 -23 -88.5 -58.5t-97.5 -77.5t-87.5 -87.5t-57.5 -89.5q-2 -7 -4.5 -14t-4.5 -14
q-4 -13 -1 -29q11 -50 63 -50q33 0 73 15.5t83.5 40.5t88 57t85.5 65.5t76.5 66t60.5 57.5q54 55 104.5 115.5t85.5 129.5q0 2 3 2q5 0 11 -13q3 -7 6 -12zM549 762q-50 -25 -98 -59.5t-91 -73.5t-75 -74q1 -1 4 -1q4 -1 8 -1h16q45 0 95 22t96 56.5t84 77t57 83.5
q-46 -6 -96 -30zM519 1109q-18 53 -16 112q0 6 5 6q8 0 20.5 -9t25.5 -22t22 -26.5t9 -22.5q-2 -51 10 -91q5 -18 12 -35.5t18 -33.5l2 -2q0 -1 1 -2q2 -2 4 -5t4 -7q4 -7 3 -13q0 -6 -5 -6q-7 0 -16 6t-18.5 15t-17.5 18t-13 15q-33 50 -50 103z" />
    <glyph glyph-name="Eacute" unicode="&#xc9;" horiz-adv-x="738" 
d="M870 332q1 -2 2 -5t2 -5q1 -6 -2 -11q-6 -13 -13.5 -24.5t-15.5 -23.5q-25 -39 -64.5 -91.5t-88 -107.5t-103.5 -109t-112.5 -96t-114.5 -68t-109 -26q-31 0 -63 12.5t-59.5 33t-49 47.5t-32.5 56q-7 17 -5 42q3 36 24.5 73t52 71.5t64.5 65.5t62 54q-32 4 -61 18t-51 36
t-35.5 50.5t-15.5 61.5q-1 19 3 38q13 63 56 128t101 123.5t124 105.5t126 74q54 25 105 25q21 0 43 -8t41 -22t33.5 -32t21.5 -39l3 -15q0 -40 -28.5 -83.5t-70 -82t-87 -68.5t-79.5 -44q-45 -19 -93 -19q-38 0 -66.5 18.5t-43.5 53.5q-32 -38 -61 -85t-40 -96
q-6 -24 -4 -50l1 -1h5l2 -1h1q24 -3 48 -3q43 0 84.5 5.5t83.5 13.5q8 5 20.5 11t21.5 8q11 0 23.5 -7.5t24 -18.5t20.5 -23.5t12 -23.5q2 -5 1 -8q-2 -11 -15 -14l-32 -8q-39 -23 -88.5 -58.5t-97.5 -77.5t-87.5 -87.5t-57.5 -89.5q-2 -7 -4.5 -14t-4.5 -14q-4 -13 -1 -29
q11 -50 63 -50q33 0 73 15.5t83.5 40.5t88 57t85.5 65.5t76.5 66t60.5 57.5q54 55 104.5 115.5t85.5 129.5q0 2 3 2q5 0 11 -13q3 -7 5.5 -12.5t4.5 -9.5zM588 709q38 42 57 83q-46 -6 -96 -30.5t-98 -59t-91 -73.5t-75 -74q1 -1 4 -1q4 -1 8 -1h16q45 0 95 22t96 56.5
t84 77.5zM480 946l12 12q54 59 71 136q2 6 13.5 15.5t27 18.5t30.5 15.5t23 6.5q6 0 4 -5q-7 -33 -23.5 -66.5t-39.5 -63t-51.5 -53t-60.5 -37.5q-13 -5 -20 -5q-3 0 -5 2q-1 5 3 9l7 7q2 2 4.5 4t4.5 4z" />
    <glyph glyph-name="Ecircumflex" unicode="&#xca;" horiz-adv-x="738" 
d="M640 872q22 -8 41 -22t33.5 -32t21.5 -39q2 -8 2.5 -15.5t-0.5 -15.5q-4 -20 -13.5 -38t-20.5 -35q-24 -36 -60.5 -73t-79.5 -67t-90 -49t-93 -19q-11 0 -21.5 1t-21.5 4q-9 2 -19 10t-20 18t-17.5 21t-10.5 18q-26 -31 -48 -64.5t-38 -69.5q-10 -23 -15.5 -47.5
t-3.5 -49.5l1 -1q2 0 5 -1h3q24 -3 48 -3q43 0 84.5 5.5t83.5 13.5q7 5 20.5 11t21.5 8q11 0 24 -7.5t24.5 -19t20 -24t11.5 -22.5q2 -4 1 -8q-1 -11 -15 -14l-32 -8q-40 -24 -90 -60t-97.5 -78t-86.5 -87t-57 -88q-5 -14 -9 -28t-1 -29q10 -50 63 -50q39 0 94 24.5t118 66
t129 96t126 115.5t110 124t80 121q0 2 3 2q5 0 11 -13.5t10 -21.5q2 -5 3.5 -10.5t-1.5 -10.5q-6 -12 -13.5 -24t-15.5 -24q-28 -43 -69.5 -97t-90.5 -109.5t-104 -108t-111.5 -93.5t-111.5 -65.5t-105 -24.5q-28 0 -55 9.5t-51 24.5t-44 35t-35 43q-12 18 -19 37.5t-5 41.5
q3 36 25.5 74t53.5 73t65 65.5t59 51.5q-31 4 -60 18t-51.5 36t-35.5 51q-14 28 -16 61q-1 19 3 38t10 37q17 48 44 89t59 79q32 36 80 79.5t102.5 82t111 64t105.5 25.5q21 0 43 -8zM608 1082q6 -17 14 -33q2 -7 5.5 -13t7.5 -12l2 -2q0 -2 2 -2q10 -10 20.5 -24.5
t7.5 -28.5q-1 -5 -4.5 -6.5t-7.5 -1.5q-15 0 -31 14t-30.5 32.5t-26 38.5t-16.5 32q-5 -7 -15 -19t-22 -23t-24.5 -19.5t-21.5 -8.5q-8 0 -17.5 5.5t-18 14t-15 18t-9.5 16.5q-1 3 -2.5 11t3.5 10q42 23 66 58.5t38 79.5q3 8 12 8t20 -7t20.5 -16.5t16.5 -20.5t7 -19
q0 -11 2 -22t5 -22q0 -2 1 -3q5 -18 11 -35zM506 633q46 35 83 77t56 82q-46 -6 -97 -31.5t-99.5 -60t-90.5 -73.5q-43 -39 -73 -72q1 -1 4 -1h2q6 -1 12 -1h10q46 0 96.5 22.5t96.5 57.5z" />
    <glyph glyph-name="Edieresis" unicode="&#xcb;" horiz-adv-x="738" 
d="M866 342q2 -6 4 -10q1 -2 2 -5t2 -5q1 -6 -2 -11q-6 -13 -13.5 -24.5t-15.5 -23.5q-25 -39 -64.5 -91.5t-88 -107.5t-103.5 -109t-112.5 -96t-114.5 -68t-109 -26q-31 0 -63 12.5t-59.5 33t-49 47.5t-32.5 56q-7 17 -5 42q3 36 24.5 73t52 71.5t64.5 65.5t62 54
q-32 4 -61 18t-51 36t-35.5 50.5t-15.5 61.5q-1 19 3 38q13 63 56 128t101 123.5t124 105.5t126 74q54 25 105 25q21 0 43 -8t41 -22t33.5 -32t21.5 -39l3 -15q0 -40 -28.5 -83.5t-70 -82t-87 -68.5t-79.5 -44q-45 -19 -93 -19q-38 0 -66.5 18.5t-43.5 53.5q-32 -38 -61 -85
t-40 -96q-6 -24 -4 -50l1 -1q3 0 8 -1q24 -3 48 -3q43 0 84.5 5.5t83.5 13.5q8 5 20.5 11t21.5 8q11 0 23.5 -7.5t24 -18.5t20.5 -23.5t12 -23.5q2 -5 1 -8q-2 -11 -15 -14l-32 -8q-39 -23 -88.5 -58.5t-97.5 -77.5t-87.5 -87.5t-57.5 -89.5q-2 -7 -4.5 -14t-4.5 -14
q-4 -13 -1 -29q11 -50 63 -50q33 0 73 15.5t83.5 40.5t88 57t85.5 65.5t76.5 66t60.5 57.5q54 55 104.5 115.5t85.5 129.5q0 2 3 2q5 0 11 -13q3 -7 6 -12zM549 762q-50 -25 -98 -59.5t-91 -73.5t-75 -74q1 -1 4 -1q4 -1 8 -1h16q45 0 95 22t96 56.5t84 77t57 83.5
q-46 -6 -96 -30zM655 1107q15 12 34 12q2 0 6 -0.5t9 -1.5q21 -7 31 -28t2 -45q-5 -17 -20 -29t-34 -12q-32 0 -46 30q-10 20 -2 44q5 17 20 30zM476 1015q-15 -12 -34 -12q-32 0 -46 30q-10 20 -2 44q6 18 20 30t34 12q2 0 6 -0.5t9 -1.5q21 -7 31 -28q9 -23 2 -45
q-6 -17 -20 -29z" />
    <glyph glyph-name="Igrave" unicode="&#xcc;" horiz-adv-x="629" 
d="M365 -11q-16 -46 -21 -94q0 -9 1 -14q18 -20 21 -40q2 -14 -9 -18q-8 0 -15.5 2t-13.5 7q-25 16 -43.5 40t-24.5 53q-2 11 -2.5 21.5t0.5 21.5q2 25 8.5 49.5t14.5 47.5q22 68 50 132.5t56 129.5q29 69 57 138q28 68 48 140q8 29 12.5 57t7.5 57v4q0 22 -4 41q0 3 -1 4
q0 2 -2 8q-2 1 -3 1t-2 1l-9 3q-16 4 -32 6.5t-33 3.5q-68 0 -123.5 -36t-95.5 -91.5t-63.5 -121.5t-26.5 -126v-10q0 -26 6 -53l1 -5q2 -4 2 -7q2 -3 4 -9l2 -4q3 -4 7.5 -11.5t7 -15.5t1.5 -14.5t-10 -8.5q-1 -1 -4 -1q-14 0 -27.5 10t-25.5 24.5t-20.5 30.5t-13.5 27
q-19 47 -17 99t14 100q14 57 42.5 112.5t69.5 100t94 72t117 27.5q39 0 76 -10.5t67 -31.5t52 -51.5t32 -70.5q4 -18 4.5 -36.5t-0.5 -37.5q-3 -42 -15.5 -90.5t-30 -98t-37 -96.5t-36.5 -86q-20 -48 -40.5 -95t-39.5 -96q-19 -45 -34 -91zM375 1000q1 -2 2 -4.5t2 -4.5
l2 -2q2 -4 4.5 -7t4.5 -6q3 -5 7 -12.5t3 -14.5t-8 -7q-9 0 -18.5 6t-18.5 14t-16.5 17t-12.5 16q-32 48 -49 103t-15 113q0 7 7 7q9 0 22 -8.5t25 -21t21 -26.5t9 -24q-2 -24 0.5 -45t9.5 -45q3 -11 7 -20q2 -8 5.5 -14.5t6.5 -13.5z" />
    <glyph glyph-name="Iacute" unicode="&#xcd;" horiz-adv-x="629" 
d="M357 -177q-8 0 -15.5 2t-13.5 7q-25 16 -43.5 40t-24.5 53q-2 11 -2.5 21.5t0.5 21.5q2 25 8.5 49.5t14.5 47.5q22 68 50 132.5t56 129.5q29 69 57 137.5t48 140.5q8 29 12.5 57t7.5 57v4q0 22 -4 41q0 3 -1 4q0 2 -2 8q-2 1 -3 1t-2 1l-9 3q-16 4 -32 6.5t-33 3.5
q-68 0 -123.5 -36t-95.5 -91.5t-63.5 -121.5t-26.5 -126v-10q0 -26 6 -53l1 -5q2 -4 2 -7q2 -3 4 -9l2 -4q3 -4 7.5 -11.5t7 -15.5t1.5 -14.5t-10 -8.5q-1 -1 -4 -1q-14 0 -27.5 10t-25.5 24.5t-20.5 30.5t-13.5 27q-19 47 -17 99t14 100q14 57 42.5 112.5t69.5 100t94 72
t117 27.5q39 0 76 -10.5t67 -31.5t52 -51.5t32 -70.5q4 -18 4.5 -36.5t-0.5 -37.5q-3 -42 -15.5 -90.5t-30 -98t-37 -96.5t-36.5 -86q-20 -48 -40.5 -95t-39.5 -96q-19 -45 -34.5 -91t-20.5 -94q0 -9 1 -14q18 -20 21 -40q2 -14 -9 -18zM426 1127q2 7 15 16.5t28.5 18.5
t30 15t20.5 6q5 0 4 -5q-12 -53 -41 -99t-71 -81q-6 -5 -16.5 -13t-22.5 -15t-24 -12t-20 -5q-3 0 -5 2q-2 4 3 9l7 7q5 4 8.5 7t7.5 8q0 -1 3 2t3 4q26 29 44 63t26 72z" />
    <glyph glyph-name="Icircumflex" unicode="&#xce;" horiz-adv-x="629" 
d="M357 -177q-8 0 -15.5 2t-13.5 7q-25 16 -43.5 40t-24.5 53q-2 11 -2.5 21.5t0.5 21.5q2 25 8.5 49.5t14.5 47.5q22 68 50 132.5t56 129.5q29 69 57 137.5t48 140.5q8 29 14 59t6 60q0 11 -1 20.5t-3 19.5q0 3 -1 4q0 2 -2 8q-2 1 -3 1t-2 1l-9 3q-16 4 -32 6.5t-33 3.5
q-69 0 -124.5 -36t-95 -91.5t-62.5 -122t-27 -126.5v-9q0 -26 6 -53l1 -5q2 -4 2 -7q2 -3 4 -9q1 -2 1.5 -2.5t1.5 -2.5q3 -4 7 -11.5t6.5 -15t1.5 -14t-10 -8.5q-1 -1 -4 -1q-14 0 -27.5 10t-25.5 24.5t-20.5 30.5t-13.5 27q-19 47 -17 99t14 100q14 57 42.5 112.5
t69.5 100t94 72t117 27.5q39 0 76 -10.5t67 -31.5t52 -51.5t32 -70.5q4 -18 4.5 -36.5t-0.5 -37.5q-3 -42 -15.5 -90.5t-30 -98t-37 -96.5t-36.5 -86q-20 -48 -40.5 -95t-39.5 -96q-19 -45 -34.5 -91t-20.5 -94v-8q0 -3 1 -6q18 -20 21 -40q2 -14 -9 -18zM394 1068
q-12 -12 -24 -20.5t-21 -8.5q-8 0 -17.5 6t-18.5 14.5t-15.5 18t-9.5 16.5q-2 2 -3.5 10t2.5 10q42 23 66.5 58.5t38.5 80.5q3 7 10 7q8 0 18 -6t14 -10q16 -13 23.5 -25t10.5 -32q2 -16 6 -33q2 -6 3.5 -12.5t3.5 -12.5q-1 3 0 -1q1 -2 1 -3t1 -3q6 -17 13 -34
q7 -16 16 -31l4 -6q12 -11 22 -27q4 -5 7 -11.5t1 -13.5q-1 -7 -10 -7q-15 0 -31 14t-31 33.5t-26.5 39.5t-16.5 32q-5 -7 -15 -19t-22 -24z" />
    <glyph glyph-name="Idieresis" unicode="&#xcf;" horiz-adv-x="648" 
d="M510 838q30 -21 52 -51.5t32 -70.5q4 -18 4.5 -36.5t-0.5 -37.5q-3 -42 -15.5 -90.5t-30 -98t-37 -96.5t-36.5 -86q-20 -48 -40.5 -95t-39.5 -96q-19 -45 -34.5 -91t-20.5 -94q0 -9 1 -14q18 -20 21 -40q2 -14 -9 -18q-8 0 -15.5 2t-13.5 7q-25 16 -43.5 40t-24.5 53
q-2 11 -2.5 21.5t0.5 21.5q2 25 8.5 49.5t14.5 47.5q22 68 50 132.5t56 129.5q29 69 57 137.5t48 140.5q8 29 12.5 57t7.5 57v4q0 22 -4 41q0 3 -1 4q0 2 -2 8q-2 1 -3 1t-2 1l-9 3q-16 4 -32 6.5t-33 3.5q-68 0 -123.5 -36t-95.5 -91.5t-63.5 -121.5t-26.5 -126v-10
q0 -26 6 -53l1 -5q2 -4 2 -7q2 -3 4 -9l2 -4q3 -4 7.5 -11.5t7 -15.5t1.5 -14.5t-10 -8.5q-1 -1 -4 -1q-14 0 -27.5 10t-25.5 24.5t-20.5 30.5t-13.5 27q-19 47 -17 99t14 100q14 57 42.5 112.5t69.5 100t94 72t117 27.5q39 0 76 -10.5t67 -31.5zM582 1149q21 -7 31 -28
t2 -44q-6 -19 -21.5 -30t-32.5 -11q-10 0 -15 2q-21 7 -31 28t-2 44q6 19 21.5 30.5t32.5 11.5q8 0 15 -3zM326 1152q8 0 15 -3q21 -7 30.5 -28t2.5 -44q-7 -19 -22 -30t-32 -11q-10 0 -15 2q-21 7 -31 28t-2 44q6 19 21 30.5t33 11.5z" />
    <glyph glyph-name="Eth" unicode="&#xd0;" horiz-adv-x="892" 
d="M85 249q0 -2 1 -4q-1 2 -1 5q2 -6 3 -8q3 -8 4.5 -16.5t-0.5 -16.5q-4 -9 -13 -9q-11 0 -20.5 7.5t-16.5 15.5q-21 23 -31 56t-11 64q-1 40 10.5 79.5t28.5 74.5q31 64 82.5 129t115.5 117.5t137 85.5t146 33q55 0 102.5 -18.5t87 -50t70.5 -73.5t52 -90t32.5 -99.5
t11.5 -101.5q1 -28 -1.5 -55.5t-7.5 -54.5q52 25 97 39.5t80 14.5q40 0 63 -19q5 -10 6 -18q0 -6 -4.5 -11.5t-18.5 -6.5q-1 0 -3 1h-10q-11 0 -31 -2t-48.5 -9.5t-64.5 -20.5q-37 -14 -81 -38q-13 -48 -37 -107t-57.5 -118.5t-75 -115.5t-89.5 -99.5t-101.5 -69.5
t-109.5 -26q-48 0 -81 23t-51 67q-12 30 -5 62q1 6 29.5 33t76.5 68q-13 14 -22 30t-13 34q-3 14 -3.5 29t1.5 30q4 54 16.5 106.5t28.5 104.5q-62 -6 -118 -21q-7 0 -18 8t-21.5 18.5t-20 21.5t-13.5 17q-1 2 -5 9t-2 8q56 14 113 20.5t114 8.5q14 42 30 83.5t36 80.5
q10 23 22 39q9 10 19 10t21 -7t21 -16.5t18.5 -20.5t12.5 -19q2 -3 4 -10t-2 -11q-3 -2 -8 -2q-7 -5 -17 -22.5t-19.5 -38.5t-17.5 -40t-11 -28q32 -3 63.5 -9t61.5 -17q8 -3 19.5 -12t22.5 -20t20 -22t13 -20l2 -6q0 -4 -4 -3q-52 20 -111.5 24.5t-115.5 4.5
q-11 -33 -23 -71.5t-22.5 -78t-17.5 -79t-8 -75.5q36 30 78 62t87 64.5t92.5 64t93.5 59.5q28 76 41 152v5q2 13 3 25.5t2 26.5t1.5 27.5t-0.5 27.5q-1 7 -1 13.5t-1 13.5q-1 3 -1 5q-6 58 -35 110q-4 5 -7 9t-6 9q-2 2 -3 4q-4 4 -7.5 8t-7.5 8t-7.5 7t-7.5 6q-2 2 -4 3.5
t-4 3.5q-1 0 -3 2q-8 5 -15.5 9t-15.5 9q-14 5 -28.5 9.5t-30.5 7.5h-5q-5 0 -10 1q-6 1 -12 1q-65 0 -126.5 -24t-116.5 -63.5t-101.5 -89t-80.5 -100.5q-32 -49 -54.5 -101.5t-22.5 -112.5q0 -2 1 -2q0 -5 1 -6q-1 1 -1 7q1 -5 1 -7v-1h-1l1 -2q0 -1 0.5 -1.5t0.5 -1.5
q1 -2 1 -3zM341 -180q59 4 114 39t102.5 85.5t85.5 107.5t62 104q-41 -29 -93.5 -70t-104 -86t-95.5 -92q-45 -47 -71 -88z" />
    <glyph glyph-name="Ntilde" unicode="&#xd1;" horiz-adv-x="829" 
d="M598 51q15 26 28.5 52.5t26.5 52.5q65 130 123 262.5t104 270.5q9 28 17 55.5t12 56.5q2 10 2 15q-3 5 -7 10.5t-6 11t-1 9.5t6 5q12 0 26 -8.5t26.5 -21t22.5 -26t13 -24.5q2 -7 2.5 -13t0.5 -13q-1 -27 -11.5 -66t-24.5 -80t-29 -78l-25 -63q-47 -118 -99 -235
t-113 -229q-8 -16 -16.5 -31t-18.5 -30l-12 -15q-5 -4 -11 -4q-9 0 -17 4.5t-14 9.5q-50 37 -67 96q-8 27 -12.5 54.5t-9.5 55.5q-7 41 -13 81t-12 81q-9 63 -18.5 125t-20.5 125q-49 -149 -100.5 -295.5t-117.5 -288.5q-15 -32 -31.5 -64t-39.5 -60q-8 -10 -18.5 -19
t-24.5 -9q-10 0 -21 6t-21.5 15t-19.5 19t-15 18l-7 12q-5 8 -4 14q1 7 7 7t14 -5q2 0 4 1q8 3 13.5 9t10.5 12q18 21 36 53t35 67.5t31.5 69.5t24.5 60q58 146 107.5 292t96.5 295l1 2q0 2 2.5 3.5t4.5 1.5q7 0 16.5 -6.5t19 -15t17 -17.5t11.5 -15q2 -3 7.5 -12t3.5 -14
q14 -68 26.5 -135.5t23.5 -135.5q15 -91 27.5 -180.5t27.5 -180.5zM625 846q-16 7 -36 12q-13 3 -27 3q-19 0 -36.5 -4.5t-31.5 -9.5q-16 -7 -30 -15q15 34 35 61q18 23 43.5 42t57.5 19q17 0 35 -6.5t38 -20.5q23 -16 43 -22.5t37 -6.5q24 0 43 9t33 20q15 12 27 28
q-4 -42 -17 -74q-11 -29 -33 -52t-61 -23q-13 0 -27 3q-18 4 -33 10t-29.5 13t-30.5 14z" />
    <glyph glyph-name="Ograve" unicode="&#xd2;" 
d="M538 210q-19 -41 -43 -85t-53 -87.5t-61 -78t-66.5 -56t-69.5 -21.5q-46 0 -84.5 26t-67.5 59q-28 34 -43 75.5t-18 85.5q-4 47 0.5 94t15.5 92q21 94 63 191t97 176q6 9 21.5 28.5t33.5 40t35.5 35.5t28.5 15q12 0 23.5 -7.5t19.5 -15.5q11 18 25.5 36t33 33t39.5 24.5
t43 9.5q5 0 9 -0.5t9 -1.5q32 -7 56 -27t40 -46.5t24.5 -57t9.5 -60.5q2 -38 -2.5 -76t-12.5 -76q-8 -42 -19 -83t-25 -82q45 6 90.5 18.5t87.5 29.5q1 1 5 1q7 0 15 -4q8 -5 16 -11t14.5 -12.5t10.5 -11.5q4 -4 8 -11.5t6.5 -15t1 -14t-9.5 -9.5q-57 -25 -120 -39.5
t-125 -14.5q-8 0 -16.5 0.5t-16.5 1.5q-11 -28 -29 -68zM121 56q3 -37 21 -67q0 -2 2 -4t5 -3.5t5 -3.5q4 -2 6 -2q2 -1 3.5 -1.5t3.5 -1.5q5 -1 9 -1.5t9 -0.5q30 2 59.5 20.5t56.5 47.5t51.5 65t45.5 72.5t37.5 70.5t27.5 59q-48 23 -84 65t-52 93q-15 49 -13 104
q0 38 6 74q-40 -48 -75.5 -112t-62.5 -133t-44 -138.5t-20 -130.5q-1 -1 -1 -5q0 -33 4 -67zM571 749q-1 17 -3 34q-1 1 -1 4q-1 1 -1 1.5t-1 1.5q-16 -1 -31 -9q-33 -18 -57.5 -48t-40.5 -66t-24.5 -74.5t-10.5 -73.5v-2q-1 -5 -1 -8v-9q1 -23 4 -45t12 -43q0 -1 0.5 -1.5
t0.5 -1.5l3 -6q1 -1 1 -2l1 -1q0 -1 1 -2l8 -8q1 -1 1.5 -1t1.5 -1q2 -1 3.5 -2t3.5 -2q13 -5 24 -8l24 -7q31 84 54.5 169t28.5 175v2q0 17 -1 34zM511 935q1 -2 5 -8.5t1 -8.5q-2 -2 -3 -2q-7 0 -17.5 8.5t-21.5 19.5t-20 22t-12 16q-31 45 -47 97t-14 107q0 3 3 3
q8 0 21 -10t26 -23.5t22 -26.5t9 -18q-1 -48 11 -96q7 -27 21 -53q1 -1 2.5 -5t1.5 -3q3 -5 6 -9.5t6 -9.5z" />
    <glyph glyph-name="Oacute" unicode="&#xd3;" 
d="M691 389q45 12 87 29q1 1 5 1q7 0 15 -4.5t16 -10.5t14.5 -12.5t10.5 -11.5q4 -4 8 -11.5t6.5 -15t1 -14t-9.5 -9.5q-57 -25 -120 -39.5t-125 -14.5q-8 0 -16.5 0.5t-16.5 1.5q-11 -28 -29.5 -68.5t-42.5 -84.5t-53 -87.5t-61 -78t-66.5 -56t-69.5 -21.5q-46 0 -84.5 26
t-67.5 59q-28 34 -43 75.5t-18 85.5q-4 47 0.5 94t15.5 92q21 94 63 191t97 176q6 9 21.5 28.5t33.5 40t35.5 35.5t28.5 15q12 0 23.5 -7.5t19.5 -15.5q11 18 25.5 36t33 33t39.5 24.5t43 9.5q5 0 9 -0.5t9 -1.5q32 -7 56 -27t40 -46.5t24.5 -57t9.5 -60.5q2 -38 -2.5 -76
t-12.5 -76q-8 -42 -19 -83t-25 -82q45 6 91 19zM117 123q0 -33 4 -67q3 -37 21 -67q0 -2 2 -4t5 -3.5t5 -3.5q4 -2 6 -2q2 -1 3.5 -1.5t3.5 -1.5q5 -1 9 -1.5t9 -0.5q30 2 59.5 20.5t56.5 47.5t51.5 65t45.5 72.5t37.5 70.5t27.5 59q-48 23 -84 65t-52 93q-15 49 -13 104
q0 38 6 74q-40 -48 -75.5 -112t-62.5 -133t-44 -138.5t-20 -130.5q-1 -1 -1 -5zM568 783q-1 1 -1 4q-1 1 -1 1.5t-1 1.5q-16 -1 -31 -9q-33 -18 -57.5 -48t-40.5 -66t-24.5 -74.5t-10.5 -73.5v-2q-1 -8 0 -17q0 -23 3 -45t12 -43q0 -1 0.5 -1.5t0.5 -1.5l3 -6q1 -1 1 -2
l1 -1q0 -1 1 -2l8 -8q1 -1 2 -1l1 -1q2 -1 3.5 -2t3.5 -2q13 -5 24 -8l24 -7q31 84 54.5 169t28.5 175v2q0 17 -1 34t-3 34zM633 1148q14 6 19 6q7 0 5 -5q-12 -54 -41 -99.5t-71 -80.5q-6 -5 -16.5 -13t-22.5 -15t-24 -12t-21 -5q-4 0 -4 2q-2 4 3 9t7 6q4 4 8 7.5t8 7.5
q15 17 26.5 33t20.5 32.5t16 35.5t13 41q2 7 14.5 16.5t28.5 18.5t31 15z" />
    <glyph glyph-name="Ocircumflex" unicode="&#xd4;" 
d="M230 710q15 19 33 39.5t35.5 35.5t28.5 15q12 0 23.5 -7.5t19.5 -15.5q11 18 25.5 36t33 33t39.5 24.5t43 9.5q5 0 9 -0.5t9 -1.5q32 -7 56 -27t40 -46.5t24.5 -57t9.5 -60.5q2 -38 -2 -76q-5 -38 -13 -76q-8 -42 -19 -83t-25 -82q45 6 90.5 18.5t87.5 29.5q1 1 5 1
q7 0 15 -4.5t16 -10.5t14.5 -12.5t10.5 -11.5q4 -4 8 -11.5t6.5 -15t1 -14t-9.5 -9.5q-57 -25 -120 -39.5t-125 -14.5q-8 0 -16.5 0.5t-16.5 1.5q-11 -28 -29.5 -68.5t-42.5 -84.5t-53 -87.5t-61 -78t-66.5 -56t-69.5 -21.5q-46 0 -84.5 26t-67.5 59q-28 34 -43 75.5
t-18 85.5q-4 47 0.5 94t15.5 92q21 94 63 191t97 176q6 9 22 29zM164 -26q1 0 3 -1q5 -1 9 -1.5t9 -0.5q30 2 59.5 20.5t56.5 47.5t51.5 65t45.5 72.5t37.5 70.5t27.5 59q-48 23 -84 65t-52 93q-15 49 -13 104q0 38 6 74q-40 -48 -75.5 -112t-62.5 -133t-44 -138.5
t-20 -130.5q-1 -1 -1 -5q0 -33 4 -67q3 -37 21 -67q0 -2 2 -4t5 -3.5t5 -3.5q4 -2 6 -2zM401 500q0 -23 3 -45t12 -43q0 -1 0.5 -1.5t0.5 -1.5l3 -6q1 -1 1 -2l1 -1q0 -1 1 -2l8 -8q1 -1 2 -1l1 -1q2 -1 3.5 -2t3.5 -2q13 -5 24 -8l24 -7q31 84 54.5 169t28.5 175v2
q0 17 -1 34t-3 34q-1 1 -1 4q-1 1 -1 1.5t-1 1.5q-16 -1 -31 -9q-33 -18 -57.5 -48t-40.5 -66t-24.5 -74.5t-10.5 -73.5v-2q-1 -8 0 -17zM415 968q-10 5 -18 13t-14.5 17.5t-9.5 17.5q-2 3 -3 11t4 10q42 23 66 58t38 79q3 9 12 9t20 -6.5t21 -16.5t16.5 -20.5t6.5 -18.5
q0 -13 3.5 -29t8.5 -32.5t10.5 -31.5t11.5 -26q3 -4 7 -12q2 -4 4 -7.5t5 -6.5q11 -9 21 -23.5t7 -28.5q-1 -5 -5 -7t-8 -2q-15 0 -31 13.5t-30.5 32.5t-25.5 39t-17 32q-5 -7 -15 -19t-21.5 -23t-24 -19.5t-21.5 -8.5t-18 6z" />
    <glyph glyph-name="Otilde" unicode="&#xd5;" 
d="M584 277q-9 0 -17 1q-11 -28 -29.5 -68.5t-42.5 -84.5t-53 -87.5t-61 -78t-66.5 -56t-69.5 -21.5q-46 0 -84.5 26t-67.5 59q-28 34 -43 75.5t-18 85.5q-4 47 0.5 94t15.5 92q21 94 63 191t97 176q6 9 21.5 28.5t33.5 40t35.5 35.5t28.5 15q12 0 23.5 -7.5t19.5 -15.5
q11 18 25.5 36t33 33t39.5 24.5t43 9.5q5 0 9 -0.5t9 -1.5q32 -7 56 -27t40 -46.5t24.5 -57t9.5 -60.5q2 -38 -2.5 -76t-12.5 -76q-8 -42 -19 -83t-25 -82q45 6 90.5 18.5t87.5 29.5q1 1 5 1q7 0 15 -4.5t16 -10.5t14.5 -12.5t10.5 -11.5q4 -4 8 -11.5t6.5 -15t1 -14
t-9.5 -9.5q-57 -25 -120 -39.5t-125 -14.5q-8 0 -16 1zM118 95q0 -20 2.5 -40.5t7.5 -38.5t14 -27q0 -2 2 -4t5 -3.5t5 -3.5q4 -2 6 -2q2 -1 3.5 -1.5t3.5 -1.5q5 -1 9 -1.5t9 -0.5q30 2 59.5 20.5t56.5 47.5t51.5 65t45.5 72.5t37.5 70.5t27.5 59q-48 23 -84 65t-52 93
q-15 49 -13 104q0 38 6 74q-40 -48 -75.5 -112t-62.5 -133t-44 -138.5t-20 -130.5q-1 -1 -1 -5q0 -11 1 -28zM571 749q-1 17 -3 34q-1 1 -1 4q-1 1 -1 1.5t-1 1.5q-16 -1 -31 -9q-33 -18 -57.5 -48t-40.5 -66t-24.5 -74.5t-10.5 -73.5v-2q-1 -8 0 -17q0 -23 3 -45t12 -43
q0 -1 0.5 -1.5t0.5 -1.5l3 -6q1 -1 1 -2t2 -3l8 -8q1 -1 1.5 -1t1.5 -1q2 -1 3.5 -2t3.5 -2q13 -5 24 -8l24 -7q31 84 54.5 169t28.5 175v2q0 17 -1 34zM622 1034q24 0 42.5 8.5t32.5 19.5q15 12 27 28q-4 -42 -16 -74q-11 -29 -33.5 -52t-61.5 -23q-12 0 -27 3
q-18 4 -32.5 10.5t-29 13.5t-30.5 14t-37 12q-13 3 -26 3q-19 0 -36.5 -4.5t-31.5 -9.5q-17 -7 -31 -15q15 34 36 61q17 23 42.5 41.5t58.5 18.5q16 0 34 -6t38 -20q23 -17 43 -23t38 -6z" />
    <glyph glyph-name="Odieresis" unicode="&#xd6;" 
d="M584 277q-9 0 -17 1q-11 -28 -29.5 -68.5t-42.5 -84.5t-53 -87.5t-61 -78t-66.5 -56t-69.5 -21.5q-46 0 -84.5 26t-67.5 59q-28 34 -43 75.5t-18 85.5q-4 47 0.5 94t15.5 92q21 94 63 191t97 176q6 9 21.5 28.5t33.5 40t35.5 35.5t28.5 15q12 0 23.5 -7.5t19.5 -15.5
q11 18 25.5 36t33 33t39.5 24.5t43 9.5q5 0 9 -0.5t9 -1.5q32 -7 56 -27t40 -46.5t24.5 -57t9.5 -60.5q2 -38 -2.5 -76t-12.5 -76q-8 -42 -19 -83t-25 -82q45 6 90.5 18.5t87.5 29.5q1 1 5 1q7 0 15 -4q8 -5 16 -11t14.5 -12.5t10.5 -11.5q4 -4 8 -11.5t6.5 -15t1 -14
t-9.5 -9.5q-57 -25 -120 -39.5t-125 -14.5q-8 0 -16 1zM118 95q0 -20 2.5 -40.5t7.5 -38.5t14 -27q0 -2 2 -4t5 -3.5t5 -3.5q4 -2 6 -2q2 -1 3.5 -1.5t3.5 -1.5q5 -1 9 -1.5t9 -0.5q30 2 59.5 20.5t56.5 47.5t51.5 65t45.5 72.5t37.5 70.5t27.5 59q-48 23 -84 65t-52 93
q-15 49 -13 104q0 38 6 74q-40 -48 -75.5 -112t-62.5 -133t-44 -138.5t-20 -130.5q-1 -1 -1 -5q0 -11 1 -28zM416 412q0 -1 0.5 -1.5t0.5 -1.5l3 -6q1 -1 1 -2l1 -1q0 -1 1 -2l8 -8q1 -1 1.5 -1t1.5 -1q2 -1 3.5 -2t3.5 -2q13 -5 24 -8l24 -7q31 84 54.5 169t28.5 175v2
q0 17 -1 34t-3 34q-1 1 -1 4q-1 1 -1 1.5t-1 1.5q-16 -1 -31 -9q-33 -18 -57.5 -48t-40.5 -66t-24.5 -74.5t-10.5 -73.5v-2q-1 -5 -1 -8v-9q1 -23 4 -45t12 -43zM597 1033q6 19 21 30.5t33 11.5q5 0 15 -2q21 -7 30.5 -28.5t2.5 -44.5q-7 -19 -22 -30t-32 -11q-10 0 -15 2
q-21 7 -31 28t-2 44zM424 1072q22 -7 31.5 -28t1.5 -44q-6 -19 -21 -30t-32 -11q-10 0 -15 2q-21 7 -31 28t-2 44q6 19 21 30.5t32 11.5q8 0 15 -3z" />
    <glyph glyph-name="multiply" unicode="&#xd7;" horiz-adv-x="420" 
d="M276 232q22 -11 36 -22.5t28 -31.5q3 -5 7.5 -13t3.5 -14q-1 -7 -9 -7q-2 0 -3 0.5t-3 0.5q-48 20 -88.5 63.5t-68.5 88.5q-20 -28 -39 -63.5t-22 -69.5v-11q1 -11 -3.5 -14.5t-11.5 -3.5q-11 0 -23.5 7t-23 18t-18 23.5t-8.5 22.5q-2 23 3.5 45t15.5 42q14 32 33 61
t40 56q-21 51 -38.5 104t-25.5 109q-3 13 7 13q9 0 21.5 -8.5t24 -20t20 -23.5t9.5 -20q4 -26 10.5 -52t14.5 -52q1 0 1 0.5t1 0.5q8 9 29 30.5t45 44t46 39.5t32 17q9 0 20 -6.5t20.5 -15.5t17 -19.5t10.5 -19.5q2 -5 3 -13t-4 -12q-50 -35 -93.5 -78t-81.5 -89
q5 -11 10.5 -22t11.5 -22l2 -4l2 -4q1 -1 3 -5q1 -1 1 -2h1q4 -7 8 -13.5t9 -13.5l2 -2q2 -4 4 -6q1 -2 2 -3.5t3 -3.5zM269 239q0 1 -2 3l-1 1z" />
    <glyph glyph-name="Oslash" unicode="&#xd8;" 
d="M845 330q-57 -25 -119.5 -39.5t-125.5 -14.5q-8 0 -16.5 0.5t-16.5 1.5q-11 -28 -29.5 -68.5t-42.5 -84.5t-52.5 -87.5t-60.5 -78t-67 -56t-70 -21.5q-26 0 -49.5 9t-45.5 23q-8 -16 -16.5 -32t-16.5 -32q-2 -3 -11 3t-11 8q-8 6 -15 13l-15 15q-2 2 7 21t26 52
q-31 37 -46.5 77.5t-19.5 88.5q-4 47 0.5 94t15.5 92q21 94 63 191t97 176q6 9 21.5 28.5t33.5 40t35.5 35.5t28.5 15q12 0 23.5 -7.5t19.5 -15.5q11 18 25.5 36t33 33t39.5 25q21 9 43 9t42.5 -10t36.5 -24q18 29 31.5 50.5t22.5 34.5q2 3 11 -3.5t19 -15.5t18.5 -17.5
t9.5 -10.5q8 -9 16 -18.5t14 -20.5q2 -3 5.5 -9t0.5 -10l-81 -114q1 -6 1.5 -12.5t0.5 -12.5q2 -38 -2.5 -76t-12.5 -76q-8 -42 -19 -83t-25 -82q45 6 90.5 18.5t87.5 29.5q1 1 5 1q7 0 15 -4.5t16 -10.5t14.5 -12.5t10.5 -11.5q4 -4 8 -11.5t6.5 -15t1 -14t-9.5 -9.5z
M138 259q-17 -70 -20 -131q-1 0 -1 -2q0 -24 1.5 -48t6.5 -48l1 -2q0 -2 2 -8q20 38 45 84.5t53 98t58.5 106.5t61.5 111q-6 11 -10.5 22t-8.5 22q-15 49 -13 104q0 38 6 74q-40 -48 -75.5 -112t-62.5 -133t-44 -138zM185 -29q30 2 59.5 20.5t56.5 47.5t51.5 65t45.5 72.5
t37.5 70.5t27.5 59q-29 14 -58 38q-60 -92 -115.5 -184.5t-108.5 -188.5h4zM477 733q-24 -30 -40.5 -65.5t-24.5 -73.5q-9 -39 -11 -74q43 75 82.5 143.5t72.5 125.5q-6 -2 -11.5 -4t-10.5 -4q-33 -18 -57 -48zM489 369q17 47 32 93t27 94q-58 -82 -114 -168l4 -2q1 -1 3 -2
q13 -5 24 -8z" />
    <glyph glyph-name="Ugrave" unicode="&#xd9;" horiz-adv-x="1055" 
d="M201 552q-44 -54 -76 -113t-42 -115q-2 -17 -2.5 -33.5t3.5 -33.5q2 -4 2 -7q1 -1 1 -2t1 -2q3 -4 5.5 -7t4.5 -5q5 -7 10.5 -13.5t9.5 -14.5q2 -4 2.5 -6.5t-4.5 -3.5q-5 0 -12.5 6.5t-9.5 8.5q-16 13 -32 29t-29 34.5t-22 39t-11 41.5q-2 20 1.5 40t9.5 40
q12 44 38 91.5t61.5 94t79 88.5t90 74t95 51t93.5 19q30 0 61.5 -13.5t59 -35.5t48 -49.5t27.5 -55.5q6 -27 4 -59q-2 -42 -11.5 -82t-20.5 -80q-14 -48 -30 -95t-33 -95q-17 -47 -33.5 -93.5t-32.5 -94.5q-13 -38 -24.5 -76.5t-18.5 -78.5q-2 -11 -3 -22.5t-1 -22.5
q11 -9 22 -9q23 0 53 26.5t65 71t72 103.5t73 124.5t69 133.5t60 130l18 60q9 30 19 60q8 26 17 52.5t17 53.5q0 3 7.5 -1.5t9.5 -5.5q14 -9 30.5 -26.5t25.5 -31.5q2 -4 5 -8.5t2 -8.5q-5 -17 -10.5 -33t-10.5 -32q-17 -51 -32.5 -101.5t-30.5 -101.5q-21 -72 -39.5 -146
t-24.5 -149q-2 -18 -2 -36.5t3 -36.5q5 -5 10 -10.5t10 -11.5q1 -1 6 -7t9.5 -12.5t6.5 -12t-3 -5.5q-15 1 -27.5 10t-23.5 18q-29 26 -48 53t-23 67q-2 26 0 51.5t6 51.5q-8 -14 -16.5 -28t-17.5 -28q-19 -31 -40.5 -64.5t-44.5 -67t-48 -65t-51 -56.5q-18 -17 -35.5 -27
t-43.5 -10q-18 0 -39 13.5t-39 33t-30.5 41t-14.5 38.5q-2 13 -1.5 25.5t2.5 25.5q5 37 15 73t21 71q14 44 29.5 86.5t30.5 85.5q17 45 32.5 90t29.5 90q17 54 32.5 111t15.5 114q0 16 -3 32q-21 6 -45 6q-38 0 -75.5 -14t-69.5 -33q-48 -28 -99 -73t-95 -98zM793 936
q0 -1 0.5 -1.5t0.5 -1.5v-1q1 -1 1 -2q2 -4 5.5 -10.5t4.5 -8.5q2 -2 3 -5t3 -5l1 -2q3 -4 7 -11.5t6.5 -15.5t1 -14.5t-10.5 -9.5q-1 -1 -5 -1q-7 0 -15.5 4t-16.5 10t-14.5 12.5t-10.5 12.5q-33 49 -52 105.5t-17 116.5q0 8 3.5 14t12.5 6q15 0 32 -14t25 -25
q4 -6 9.5 -15.5t5.5 -17.5q-1 -13 -0.5 -25t2.5 -24q2 -19 6 -36.5t12 -34.5z" />
    <glyph glyph-name="Uacute" unicode="&#xda;" horiz-adv-x="1055" 
d="M911 600q8 26 17 52.5t17 53.5q0 3 7.5 -1.5t9.5 -5.5q14 -9 30.5 -26.5t25.5 -31.5q2 -4 5 -8.5t2 -8.5q-5 -17 -10.5 -33t-10.5 -32q-17 -51 -32.5 -101.5t-30.5 -101.5q-21 -72 -39.5 -146t-24.5 -149q-2 -18 -2 -36.5t3 -36.5q5 -5 10 -10.5t10 -11.5q1 -1 6 -7
t9.5 -12.5t6.5 -12t-3 -5.5q-15 1 -27.5 10t-23.5 18q-29 26 -48 53t-23 67q-2 26 0 51.5t6 51.5q-8 -14 -16.5 -28t-17.5 -28q-19 -31 -40.5 -64.5t-44.5 -67t-48 -65t-51 -56.5q-18 -17 -35.5 -27t-43.5 -10q-18 0 -39 13.5t-39 33t-30.5 41t-14.5 38.5q-2 13 -1.5 25.5
t2.5 25.5q5 37 15 73t21 71q14 44 29.5 86.5t30.5 85.5q17 45 32.5 90t29.5 90q17 54 32.5 111t15.5 114q0 16 -3 32q-21 6 -45 6q-46 0 -96 -21t-98 -56.5t-92.5 -81t-79.5 -95t-59 -99.5t-32 -93q-2 -17 -2.5 -33.5t3.5 -33.5q2 -4 2 -7q1 -1 1 -2t1 -2q3 -4 5.5 -7
t4.5 -5q5 -7 10.5 -13.5t9.5 -14.5q2 -4 2.5 -6.5t-4.5 -3.5q-5 0 -12.5 6.5t-9.5 8.5q-16 13 -32 29t-29 34.5t-22 39t-11 41.5q-2 20 1.5 40t9.5 40q12 44 38 91.5t61.5 94t79 88.5t90 74t95 51t93.5 19q30 0 61.5 -13.5t59 -35.5t48 -49.5t27.5 -55.5q6 -27 4 -59
q-2 -42 -11.5 -82t-20.5 -80q-14 -48 -30 -95t-33 -95q-17 -47 -33.5 -93.5t-32.5 -94.5q-13 -38 -24.5 -76.5t-18.5 -78.5q-2 -11 -3 -22.5t-1 -22.5q11 -9 22 -9q23 0 53 26.5t65 71t72 103.5t73 124.5t69 133.5t60 130l18 60q9 30 19 60zM920 1056q15 9 29.5 15t20.5 6
q5 0 4 -5q-12 -53 -41 -99t-71 -81q-6 -5 -16.5 -13t-22.5 -15t-24 -12t-20 -5q-3 0 -5 2q-2 4 3 9l7 7q5 4 9 8l7 7q2 1 3 3l2 2q1 0 1 1l9 9q46 57 61 126q2 7 15 16.5t29 18.5z" />
    <glyph glyph-name="Ucircumflex" unicode="&#xdb;" horiz-adv-x="1055" 
d="M73 259q1 0 -1 2q-1 0 -3 2zM938 883q1 -2 1 -3v1q0 1 -1 2zM1018 641l2 -4t3 -4q3 -5 2 -9q-2 -8 -5 -16.5t-5 -16.5q-65 -189 -113 -381q-11 -45 -19 -92t-8 -93q0 -19 3 -37q5 -5 10 -10.5t10 -11.5q5 -5 12.5 -14.5t9.5 -17.5q2 -5 -3 -5q-16 2 -27 10
q-37 26 -63.5 59t-31.5 79q-2 26 0 52t6 51q-18 -31 -48 -80.5t-65 -100t-71.5 -93.5t-68.5 -62q-17 -10 -44 -10q-17 0 -37.5 13t-39 32t-31.5 41t-15 40q-1 7 -1.5 13t0.5 12q1 29 8 62.5t17 67.5t21.5 67t21.5 60q8 21 15 42t15 43q54 143 95 291q15 57 15 114
q0 16 -3 32q-21 6 -45 6q-45 0 -94.5 -20.5t-97.5 -55t-92 -80t-80 -95t-60.5 -100t-32.5 -95.5q-1 -8 -1.5 -16.5t-0.5 -16.5q-2 -17 3 -34q2 -6 2 -7q1 -1 1 -2t1 -2q2 -3 4.5 -6t5.5 -6q2 -4 5 -7l6 -6q3 -4 6.5 -10t5.5 -11q0 -2 -5 -4q-5 0 -11.5 5.5t-10.5 9.5
q-16 13 -32 29t-29 34.5t-22 39t-11 41.5q-1 10 -0.5 20t2.5 20q11 64 47 131.5t88 127.5t114 108t124 72q47 19 93 19q29 0 60.5 -13t59.5 -35t48.5 -49.5t27.5 -56.5q6 -25 4 -59q-3 -64 -22 -130t-40 -127q-8 -23 -16.5 -47t-16.5 -48q-17 -47 -33.5 -93.5t-32.5 -94.5
q-13 -38 -24.5 -76.5t-18.5 -78.5q-4 -20 -4 -45q11 -9 22 -9q28 0 63.5 34t74 88t77.5 121t73.5 132t61.5 122.5t42 91.5l18 60q8 29 17 56.5t19 56.5q5 13 9 26t8 27q0 4 8 -1q8 -4 9 -6q14 -9 30.5 -26.5t25.5 -31.5zM772 886q-6 0 -15.5 6.5t-19 15.5t-17.5 19t-11 17
q-1 0 -4 7q-4 8 0 9q42 24 68 62t40 83q0 2 2 2q6 0 17.5 -8.5t23 -20.5t20.5 -24t9 -19q0 -5 0.5 -10.5t1.5 -10.5l4 -20v-1q1 -1 1 -2v-2q6 -19 12 -36q2 -9 5.5 -18t7.5 -17l6 -12l6 -9l2 -4l2 -4l20 -24q2 -2 4 -4.5t4 -5.5q5 -7 3 -12q0 -5 -4 -5q-5 0 -16 8t-15 12
q-25 21 -44 48t-33 56q-29 -48 -76 -75q-1 -1 -4 -1zM87 248v-1q0 -1 0.5 -1.5t0.5 -1.5v2zM465 -133q1 -1 0 1v-1zM832 15h1q-3 2 -3 1.5t2 -1.5z" />
    <glyph glyph-name="Udieresis" unicode="&#xdc;" horiz-adv-x="1055" 
d="M928 653q9 26 17 53q0 3 7.5 -1.5t9.5 -5.5q14 -9 30.5 -26.5t25.5 -31.5q2 -4 5 -8.5t2 -8.5q-5 -17 -10.5 -33t-10.5 -32q-17 -51 -32.5 -101.5t-30.5 -101.5q-21 -72 -39.5 -146t-24.5 -149q-2 -18 -2 -36.5t3 -36.5q5 -5 10 -10.5t10 -11.5q1 -1 6 -7t9.5 -12.5
t6.5 -12t-3 -5.5q-15 1 -27.5 10t-23.5 18q-29 26 -48 53t-23 67q-2 26 0 51.5t6 51.5q-8 -14 -16.5 -28t-17.5 -28q-19 -31 -40.5 -64.5t-44.5 -67t-48 -65t-51 -56.5q-18 -17 -36 -27t-43 -10q-18 0 -39 13.5t-39 33t-30.5 41t-14.5 38.5q-2 13 -1.5 25.5t2.5 25.5
q5 37 15 73t21 71q14 44 29.5 86.5t30.5 85.5q17 45 32.5 90t29.5 90q17 54 33 111q15 57 15 114q0 16 -3 32q-21 6 -45 6q-46 0 -96 -21t-98 -56.5t-92.5 -81t-79.5 -95t-59 -99.5t-32 -93q-2 -17 -2.5 -33.5t3.5 -33.5q2 -4 2 -7l2 -4q3 -4 5.5 -7t4.5 -5q5 -7 10.5 -13.5
t9.5 -14.5q2 -4 2.5 -6.5t-4.5 -3.5q-5 0 -12.5 6.5t-9.5 8.5q-16 13 -32 29t-29 34.5t-22 39t-11 41.5q-2 20 1.5 40t9.5 40q12 44 38 91.5t61.5 94t79 88.5t90 74t95 51t93.5 19q30 0 61.5 -13.5t59 -35.5t48 -49.5t27.5 -55.5q6 -27 4 -59q-2 -42 -11.5 -82t-20.5 -80
q-14 -48 -30 -95t-33 -95q-17 -47 -33.5 -93.5t-32.5 -94.5q-13 -38 -24.5 -76.5t-18.5 -78.5q-2 -11 -3 -22.5t-1 -22.5q11 -9 22 -9q23 0 53 26.5t65 71t72 103.5t73 124.5t69 133.5t60 130l18 60q9 30 19 60q8 26 17 53zM653 1004q6 19 21.5 30.5t32.5 11.5q5 0 15 -2
q21 -7 31 -28.5t2 -44.5q-6 -19 -21 -30t-33 -11q-10 0 -15 2q-21 7 -31 28t-2 44zM948 1046q8 0 15 -3q21 -7 31 -28t2 -44q-6 -19 -21 -30t-32 -11q-10 0 -15 2q-21 7 -31 28t-2 44q6 19 21 30.5t32 11.5z" />
    <glyph glyph-name="Yacute" unicode="&#xdd;" horiz-adv-x="1027" 
d="M638 586q-11 -42 -27.5 -84t-35 -81.5t-34.5 -71.5q-20 -40 -40.5 -78.5t-40.5 -77.5q-33 -65 -30 -93t30 -28t71 23.5t94 64t101.5 93.5t92.5 112t65.5 119.5t22.5 116.5q0 9 7 9q8 0 21 -9t18 -14q16 -14 30 -31.5t14 -40.5q0 -18 -3 -36q-8 -57 -26.5 -138t-48 -168.5
t-68.5 -173.5t-87 -154t-104.5 -110.5t-121.5 -42.5q-25 0 -40.5 13t-31.5 31q-1 1 -5.5 8t-9 14.5t-5.5 13.5t5 6q4 -1 8 -1h8q51 0 96 27.5t84 72.5t71.5 102t58.5 115t45 112.5t31 94.5q-31 -39 -76 -87t-97.5 -89.5t-108 -69.5t-107.5 -28q-44 0 -78.5 22t-56.5 60
q-10 16 -7 34q5 22 14.5 43t19.5 41q15 30 30.5 59.5t31.5 59.5q35 67 69 135.5t58 140.5q8 26 13.5 51.5t7.5 51.5q2 23 -1 40q-1 1 -1 4q-1 2 -1.5 4t-1.5 4q0 4 -3 8q-6 3 -12 5l-12 4q-24 5 -47 6q-62 1 -123 -23.5t-113.5 -66t-92 -95t-58.5 -110.5q-14 -44 -16.5 -89
t5.5 -90q0 -5 -5 -5q-6 0 -8 1q-8 3 -15 9t-13 11q-15 14 -24 24.5t-14 22t-6.5 25.5t-2.5 33q-5 93 33.5 176t106.5 144q26 24 58 45.5t67.5 37t72.5 25t73 9.5q45 0 83.5 -16.5t70.5 -46.5q33 -32 58 -71t25 -87q0 -35 -11 -77zM770 858l7 7q4 4 8 7.5t8 7.5l14 15
q45 56 62 126q2 7 14.5 16.5t28.5 18.5t31 15q14 6 19 6q6 0 5 -5q-12 -53 -41 -99t-71 -81q-6 -5 -16.5 -13t-22.5 -15t-24 -12t-21 -5q-4 0 -4 2q-2 4 3 9z" />
    <glyph glyph-name="Thorn" unicode="&#xde;" horiz-adv-x="844" 
d="M564 718q-39 -39 -78.5 -96.5t-79.5 -130t-77.5 -151.5t-71.5 -162t-63 -161.5t-51 -149t-36 -125.5q-1 -7 -8 -7t-15.5 5.5t-17 13.5t-16 16.5t-10.5 14.5q-3 5 -7 12.5t-3 13.5q6 42 14 83.5t16 83.5q36 182 80.5 360.5t100.5 355.5q3 7 9 7q7 0 15.5 -5.5t17 -13.5
t16 -16.5t10.5 -14.5q2 -3 7 -11.5t3 -13.5q-24 -75 -45.5 -151t-41.5 -152q0 -4 3 -4q2 0 3 1q16 31 41.5 79.5t58.5 103.5t71 110t77 99.5t78 72.5t74 28q24 0 48 -12.5t45 -31t37 -41t25 -43.5q19 -46 21 -95.5t-6 -97.5q-9 -56 -30 -112.5t-51.5 -108t-71 -95
t-89.5 -73.5q-16 -10 -35.5 -20t-41 -17.5t-43 -12t-40.5 -4.5q-35 0 -63.5 18t-49.5 45q-1 2 -5.5 8.5t-8 13.5t-3.5 13t7 7q5 2 12 -2.5t12 -7.5q3 -2 6 -5t6 -5l6 -2q2 0 3 -1h2q11 0 21 0.5t21 1.5q54 9 103.5 37t91 67t73.5 87t50 97q35 98 42 165t-2.5 108.5t-30.5 60
t-43 18.5q-10 0 -19 -3q-35 -13 -73 -52z" />
    <glyph glyph-name="germandbls" unicode="&#xdf;" horiz-adv-x="688" 
d="M473 318q-1 0 -1.5 0.5t-1.5 0.5q1 -1 3 -1zM656 171q9 -48 -12 -99q-20 -47 -60.5 -77t-91.5 -30q-33 0 -72.5 16t-75 42t-61.5 59.5t-32 68.5q-3 14 10 18q1 1 6 1q10 0 21.5 -7t22 -17.5t18.5 -22.5t10 -23q0 -1 2 -3q-1 2 -2 3l1 -1q2 -2 2 -3l18 -15h1
q20 -14 46 -22l4 -2h5q2 -1 7 -1q2 -1 6 -1t7 -1q39 6 66 22t48 50q17 37 20 69v13q-1 2 -1 10q-1 1 -1 5q0 3 -1 4q-1 9 -6 18l-1 3l-2 4t-3 5q-5 5 -6 7q-1 1 -1 2l-2 2l-4 4q-7 4 -13 9t-11 10l-26 17q-5 3 -10 5.5l-9 4.5q0 -2 -2 0q-1 1 -2 1q-27 13 -55 23.5t-57 20.5
q-20 8 -35 25t-23 37q-4 14 3 21q27 24 64 62.5t70.5 83t58.5 90t29 84.5v17q0 7 -1 9v3q-2 8 -2 7q-1 1 -1 2t-1 2h-14q-19 -3 -40.5 -14.5t-41.5 -27.5t-37 -34.5t-27 -36.5q-7 -12 -13.5 -25.5t-13.5 -27.5q-60 -128 -115 -257t-90 -266q-6 -22 -9 -45v-4q-2 -17 -16 -17
q-9 0 -21.5 7.5t-23.5 18.5t-19 23.5t-8 22.5q2 31 9 60.5t16 58.5q42 128 92.5 251t110.5 243q11 25 32 53t47.5 52t57 40t60.5 16q25 0 49 -12t44 -31t35 -42.5t22 -46.5q9 -29 6 -61q-3 -35 -22 -76t-46 -80.5t-57.5 -76t-56.5 -62.5q38 -16 75 -39.5t68 -53.5
t53.5 -66.5t30.5 -78.5zM341 97q1 0 1 -0.5t1 -0.5q-1 0 -1 0.5t-1 0.5zM338 100l2 -1q-1 0 -1 0.5t-1 0.5zM521 805q8 -4 2 0h-2z" />
    <glyph glyph-name="agrave" unicode="&#xe0;" horiz-adv-x="451" 
d="M292 421q2 -3 5 -5q2 4 4.5 12.5t5 16.5t4.5 15l2 6h2q6 0 21.5 -4.5t32 -13t28.5 -20.5t10 -27q0 -1 -7.5 -20t-18 -48.5t-21.5 -65.5t-18.5 -70.5t-9.5 -64t6 -45.5q5 -9 12 -9q13 0 31 24t39 61t43 82t42 87q5 12 19 12q10 0 17.5 -5.5t5.5 -10.5q-1 -3 -10.5 -29
t-25 -62.5t-36.5 -78.5t-46 -78t-52.5 -59.5t-56.5 -23.5q-17 0 -31 8q-15 7 -26 19t-19 27t-12 30q-5 18 -3.5 33.5t-0.5 27.5q-6 -8 -19.5 -31.5t-30 -48t-33 -44.5t-28.5 -20q-15 0 -32.5 10.5t-33.5 26t-28.5 33t-16.5 30.5q-6 20 -5 40.5t5 40.5q4 22 12.5 51t21.5 61
t30.5 62.5t38.5 55t45.5 39t52.5 14.5q24 0 45.5 -12.5t39.5 -28.5zM91 107q3 3 23.5 15.5t49.5 42.5t61 82.5t59 134.5q-39 -1 -72 -32t-58 -74.5t-41 -90t-22 -78.5zM272 554q3 -6 4.5 -11.5t0.5 -9.5t-7 -4q-8 0 -17.5 6t-18.5 14.5t-17 17.5t-12 15q-32 48 -49.5 103
t-15.5 113q0 7 6 7q8 0 18 -6t19.5 -14.5t17.5 -18t12 -15.5q3 -5 7 -12t3 -14q-1 -24 1.5 -45.5t9.5 -44.5q2 -8 4.5 -15t5.5 -15q0 1 1.5 -3t1.5 -5q3 -5 5.5 -11t5.5 -11l2 -2q2 -3 3.5 -6t3.5 -5q2 -3 5 -8z" />
    <glyph glyph-name="aacute" unicode="&#xe1;" horiz-adv-x="451" 
d="M350 78q13 0 31 24t39 61t43 82t42 87q5 12 19 12q10 0 17.5 -5.5t5.5 -10.5q-1 -3 -10.5 -29t-25 -62.5t-36.5 -78.5t-46 -78t-52.5 -59.5t-56.5 -23.5q-17 0 -31.5 7.5t-25.5 19.5t-19 27t-12 30q-5 18 -3.5 33.5t-0.5 27.5q-6 -8 -19.5 -31.5t-30 -48t-33 -44.5
t-28.5 -20q-15 0 -32.5 10.5t-33.5 26t-28.5 33t-16.5 30.5q-6 20 -5 40.5t5 40.5q4 22 12.5 51t21.5 61t30.5 62.5t38.5 55t45.5 39t52.5 14.5q26 0 48.5 -14.5t41.5 -31.5q2 4 4.5 12.5t5 16.5t4.5 15l2 6h2q6 0 21.5 -4.5t32 -13t28.5 -20.5t10 -27q0 -1 -7.5 -20
t-18 -48.5t-21.5 -65.5t-18.5 -70.5t-9.5 -64t6 -45.5q5 -9 12 -9zM115 123q20 12 49 42t61 82.5t59 134.5q-39 -1 -72 -32t-58 -74.5t-41 -90t-22 -78.5q3 3 24 16zM320 582q-6 -5 -17 -13t-23 -15t-23.5 -12t-20.5 -5q-3 0 -5 2q-2 4 3.5 9t7.5 7q4 4 8 7.5t8 7.5
q29 29 47.5 65t28.5 76q2 7 14.5 16.5t28.5 18.5t30.5 15t19.5 6q6 0 5 -5q-13 -53 -42 -99t-70 -81z" />
    <glyph glyph-name="acircumflex" unicode="&#xe2;" horiz-adv-x="451" 
d="M297 416q2 4 4.5 12.5t5 16.5t4.5 15l2 6h2q6 0 21.5 -4.5t32 -13t28.5 -20.5t10 -27q0 -1 -7.5 -20t-18 -48.5t-21.5 -65.5t-18.5 -70.5t-9.5 -64t6 -45.5q5 -9 12 -9q13 0 31 24t39 61t43 82t42 87q5 12 19 12q10 0 17.5 -5.5t5.5 -10.5q-1 -3 -10.5 -29t-25 -62.5
t-36.5 -78.5t-46 -78t-52.5 -59.5t-56.5 -23.5q-17 0 -31.5 7.5t-25.5 19.5t-19 27t-12 30q-5 18 -3.5 33.5t-0.5 27.5q-6 -8 -19.5 -31.5t-30 -48t-33 -44.5t-28.5 -20q-15 0 -32.5 10.5t-33.5 26t-28.5 33t-16.5 30.5q-6 20 -5 40.5t5 40.5q4 22 12.5 51t21.5 61
t30.5 62.5t38.5 55t45.5 39t52.5 14.5q24 0 45.5 -12.5t39.5 -28.5q2 -3 5 -5zM327 695q6 -9 6 -14q0 -16 4.5 -34t10.5 -36t13.5 -35t14.5 -31l2 -4q8 -8 15.5 -16.5t12.5 -18.5q4 -8 -2 -8q-4 -1 -10.5 4.5t-8.5 7.5q-26 22 -46 48t-35 56q-14 -22 -32 -40t-41 -32h-2
q-3 0 -8.5 3.5t-11.5 8.5t-11 10l-7 7q-1 1 -6.5 7t-11 12.5t-9 13t-0.5 7.5q40 22 64 58t38 78q1 2 7 -1.5t8 -4.5q5 -3 13.5 -11t17 -17.5t15.5 -17.5zM91 107q3 3 24 16q20 12 49 42t61 82.5t59 134.5q-39 -1 -72 -32t-58 -74.5t-41 -90t-22 -78.5z" />
    <glyph glyph-name="atilde" unicode="&#xe3;" horiz-adv-x="450" 
d="M368 449q16 -9 28 -21t10 -27q0 -1 -7.5 -20t-18 -48.5t-21.5 -65.5t-18.5 -70.5t-9.5 -64t6 -45.5q5 -9 12 -9q13 0 31 24t39 61t43 82t42 87q5 12 19 12q10 0 17.5 -5.5t5.5 -10.5q-1 -3 -10.5 -29t-25 -62.5t-36.5 -78.5t-46 -78t-52.5 -59.5t-56.5 -23.5
q-17 0 -31.5 7.5t-25.5 19.5t-19 27t-12 30q-5 18 -3.5 33.5t-0.5 27.5q-6 -8 -19.5 -31.5t-30 -48t-33 -44.5t-28.5 -20q-15 0 -32.5 10.5t-33.5 26t-28.5 33t-16.5 30.5q-6 20 -5 40.5t5 40.5q4 22 12.5 51t21.5 61t30.5 62.5t38.5 55t45.5 39t52.5 14.5q24 0 45.5 -12.5
t39.5 -28.5q2 -3 5 -5q2 4 4.5 12.5t5 16.5t4.5 15l2 6h2q6 0 21.5 -4.5t32.5 -12.5zM391 612q20 0 35.5 7.5t26.5 16.5q12 10 22 23q-3 -34 -14 -61q-9 -23 -27 -42.5t-50 -19.5q-11 0 -23 3q-15 3 -27 8t-24 11t-25.5 11.5t-30.5 9.5q-10 3 -22 3q-15 0 -30 -3.5t-26 -8.5
q-13 -5 -25 -12q12 28 29 50q14 19 35.5 34.5t48.5 15.5q29 0 60 -21q19 -14 35.5 -19.5t31.5 -5.5zM114 123q20 12 49 42t61 82.5t59 134.5q-39 -1 -72 -32t-58 -74.5t-41 -90t-22 -78.5q3 3 24 16z" />
    <glyph glyph-name="adieresis" unicode="&#xe4;" horiz-adv-x="451" 
d="M313 466h2q6 0 21.5 -4.5t32.5 -12.5q16 -9 28 -21t10 -27q0 -1 -7.5 -20t-18 -48.5t-21.5 -65.5t-18.5 -70.5t-9.5 -64t6 -45.5q5 -9 12 -9q13 0 31 24t39 61t43 82t42 87q5 12 19 12q10 0 17.5 -5.5t5.5 -10.5q-1 -3 -10.5 -29t-25 -62.5t-36.5 -78.5t-46 -78
t-52.5 -59.5t-56.5 -23.5q-17 0 -31.5 7.5t-25.5 19.5t-19 27t-12 30q-5 18 -3.5 33.5t-0.5 27.5q-6 -8 -19.5 -31.5t-30 -48t-33 -44.5t-28.5 -20q-15 0 -32.5 10.5t-33.5 26t-28.5 33t-16.5 30.5q-6 20 -5 40.5t5 40.5q4 22 12.5 51t21.5 61t30.5 62.5t38.5 55t45.5 39
t52.5 14.5q26 0 48.5 -14.5t41.5 -31.5q2 4 4.5 12.5t5 16.5t4.5 15zM91 107q3 3 23.5 15.5t49.5 42.5t61 82.5t59 134.5q-39 -1 -72 -32t-58 -74.5t-41 -90t-22 -78.5zM333 534q-21 7 -31 28t-2 44q6 20 21 31t33 11q5 0 15 -2q21 -7 30.5 -28t2.5 -44q-7 -20 -22 -31
t-32 -11q-5 0 -15 2zM217 574q-6 -20 -21 -31t-32 -11q-5 0 -15 2q-21 7 -31 28t-2 44q6 20 21 31t32 11q5 0 15 -2q22 -7 31.5 -28t1.5 -44z" />
    <glyph glyph-name="aring" unicode="&#xe5;" horiz-adv-x="451" 
d="M337 462q15 -5 31.5 -13.5t28.5 -20.5t10 -27q0 -1 -7.5 -20t-18 -48.5t-21.5 -65.5t-18.5 -70.5t-9.5 -64t6 -45.5q5 -9 12 -9q13 0 31 24t39 61t43 82t42 87q5 12 19 12q10 0 17.5 -5.5t5.5 -10.5q-1 -3 -10.5 -29t-25 -62.5t-36.5 -78.5t-46 -78t-52.5 -59.5
t-56.5 -23.5q-17 0 -31.5 7.5t-25.5 19.5t-19 27t-12 30q-5 18 -3.5 33.5t-0.5 27.5q-6 -8 -19.5 -31.5t-30 -48t-33 -44.5t-28.5 -20q-15 0 -32.5 10.5t-33.5 26t-28.5 33t-16.5 30.5q-6 20 -5 40.5t5 40.5q4 22 12.5 51t21.5 61t30.5 62.5t38.5 55t45.5 39t52.5 14.5
q24 0 45.5 -12.5t39.5 -28.5q2 -3 5 -5q2 4 4.5 12.5t5.5 16.5q2 8 4 15l2 6h2q6 0 22 -4zM284 382q-39 -1 -72 -32t-58 -74.5t-41 -90t-22 -78.5q3 3 24 16q20 12 49 42t61 82.5t59 134.5zM315 617l-3 6q-2 4 0 4q5 0 10.5 -4.5t11 -10.5t9.5 -12t5 -10q3 -8 3 -16t-2 -16
q-2 -12 -7 -25.5t-13 -25t-19 -19t-25 -7.5q-11 0 -21.5 6t-19.5 15t-15 20t-9 21q-8 28 3 55q8 21 25.5 41t43.5 20q10 0 15.5 -4t12.5 -12q3 -4 5 -7q4 -7 0 -7q-3 1 -9 1q-12 0 -22 -5.5t-18.5 -14t-15 -19t-10.5 -20.5q-8 -26 -4 -49l2 -6q1 -3 2 -5l2 -1q3 -1 8 -1
q13 0 23.5 7.5t18 18t12.5 23.5t7 23q1 7 1.5 13t-0.5 12v3q-2 2 -3.5 4t-3.5 4z" />
    <glyph glyph-name="ae" unicode="&#xe6;" horiz-adv-x="779" 
d="M504 367q33 47 76.5 79.5t92.5 32.5q15 0 33.5 -8.5t36 -21.5t32 -28t20.5 -27q6 -14 5.5 -28t-4.5 -28q-7 -24 -22.5 -48.5t-35.5 -44t-45 -31.5t-52 -12q-24 0 -46.5 14.5t-40.5 28.5q-19 -35 -32.5 -72t-18.5 -76q-2 -14 8 -24q8 -7 22 -7q23 0 56 20t69.5 50t73 65
t66 65.5t49 51.5t21.5 23q11 10 21 10q7 0 12.5 -4.5t8.5 -10.5t3.5 -12.5t-1.5 -10.5q-3 -4 -23 -29.5t-51.5 -60t-70.5 -74t-79 -72.5t-78.5 -54.5t-69.5 -20.5q-48 1 -74.5 24t-37.5 52q-25 -35 -52 -58t-56 -23q-17 0 -31.5 7.5t-25.5 19.5t-19 27t-12 30
q-5 18 -3.5 33.5t-0.5 27.5q-6 -8 -19.5 -31.5t-30 -48t-33 -44.5t-28.5 -20q-15 0 -32.5 10.5t-33.5 26t-28.5 33t-16.5 30.5q-6 20 -5 40.5t5 40.5q10 56 32 109.5t55 99.5q10 13 22.5 26.5t26.5 24t30.5 17t34.5 6.5q24 0 45.5 -12.5t39.5 -28.5q2 -3 5 -5q2 4 4.5 12.5
t5 16.5t4.5 15l2 6h2q6 0 21.5 -4.5t32 -13t28.5 -20.5t10 -27q0 -1 -7.5 -20t-18 -48.5t-21.5 -65.5t-18.5 -70.5t-9.5 -64t6 -45.5q5 -9 12 -9q13 0 31 24t39 62q6 45 28 100t56 103zM113 186q-16 -47 -22 -79q3 3 24 16q20 12 49 42t61 82.5t59 134.5q-39 -1 -72 -32
t-58 -74.5t-41 -89.5zM629 350q-37 -38 -62 -80h6q24 3 46.5 16t41 31.5t32.5 41t20 45.5q-48 -17 -84 -54z" />
    <glyph glyph-name="ccedilla" unicode="&#xe7;" horiz-adv-x="323" 
d="M263 282q-9 0 -20 7t-21 17t-18 21t-11 18l-12 -12q-6 -6 -11 -13q-6 -7 -18.5 -26t-26.5 -43.5t-26.5 -53t-19 -55t-4 -48.5t18.5 -35q3 -3 9 -3q16 0 43 20.5t58.5 51t64 66.5t59 67t45 53t20.5 24q9 8 19 8q9 0 13.5 -8t2.5 -15q0 -3 -10.5 -19.5t-28 -41t-40.5 -54.5
t-49.5 -60.5t-54.5 -58.5t-55 -49q1 -2 1 -4.5t1 -5.5l6 -10q3 -5 7 -10l6 -8q24 -29 51 -51q8 -6 12.5 -22t5.5 -25q1 -4 1 -15t-6 -11h-3q-24 9 -51 9q-25 0 -49 -6t-47 -16q-3 -2 -6.5 2.5t-4.5 6.5q-8 11 -11 26q-2 7 -3.5 14t-0.5 14q0 4 0.5 8t4.5 6q46 19 91 22
q-9 14 -16.5 29t-11.5 31q-17 -11 -33.5 -17t-30.5 -6q-19 0 -36.5 9t-32 23t-25.5 31.5t-17 34.5q-8 23 -9 46.5t3.5 46.5t13 46t17.5 44q20 46 49 90t70 75q11 8 29.5 18t32.5 10q15 0 31 -10.5t29.5 -26.5t22.5 -33t10 -31q1 -8 0.5 -16.5t-4.5 -16.5q-4 -10 -10 -15
q-2 -2 -4 -4.5t-4 -4.5v-4q1 -4 2 -7.5t2 -7.5q4 -13 -7 -15q-1 -1 -3 -1z" />
    <glyph glyph-name="egrave" unicode="&#xe8;" horiz-adv-x="342" 
d="M251 76q-41 -33 -79.5 -54.5t-69.5 -20.5q-37 1 -61 15.5t-37.5 35t-19 43.5t-4.5 41q3 48 23.5 107t55 111.5t80 88t97.5 35.5q14 0 32.5 -8.5t36 -21.5t32 -28t20.5 -27q7 -14 6.5 -28t-5.5 -28q-7 -24 -22 -48.5t-35.5 -44t-45.5 -31.5t-52 -12q-25 0 -46.5 14.5
t-40.5 28.5q-18 -35 -31.5 -72t-18.5 -76q-4 -14 8 -24q7 -7 21 -7q23 0 56 20t69.5 50t73 65t66 65.5t49 51.5t21.5 23q11 10 22 10q7 0 12.5 -4.5t8.5 -10.5t3.5 -12.5t-2.5 -10.5t-23 -29.5t-51 -60t-70 -74t-79 -72.5zM256 498q-10 6 -17 12q-49 46 -85 102.5t-49 122.5
q-2 8 0.5 11t7.5 3q10 0 22.5 -8t23.5 -19t19 -23t10 -21q2 -8 4 -17t4 -17l2 -4q0 -2 1 -4q3 -9 8 -18q2 -5 5 -10t5 -10q0 -1 0.5 -1.5t0.5 -1.5l10 -14q1 -1 2 -3l2 -2q4 -6 7 -9q3 -5 8 -8q0 -2 2 -2q8 -8 14.5 -15t11.5 -16q4 -5 7.5 -12.5t2.5 -14.5q-1 -8 -10 -8
t-19 7zM275 403q-48 -17 -84 -54.5t-62 -79.5h6q24 3 46.5 16t41 31.5t32.5 41t20 45.5z" />
    <glyph glyph-name="eacute" unicode="&#xe9;" horiz-adv-x="342" 
d="M330 149q-39 -40 -79.5 -73t-79 -54.5t-69.5 -20.5q-37 1 -61 15.5t-37.5 35t-19 43.5t-4.5 41q3 48 23.5 107t55 111.5t80 88t97.5 35.5q15 0 33.5 -9t36 -21.5t31.5 -27.5t20 -27q7 -14 7 -28q-1 -14 -6 -28q-7 -24 -22 -48.5t-35.5 -44t-45.5 -31.5t-52 -12
q-25 0 -46.5 14.5t-40.5 28.5q-18 -35 -31.5 -72t-18.5 -76q-4 -14 8 -24q7 -7 21 -7q23 0 56 20t69.5 50t73 65t66 65.5t49 51.5t21.5 23q11 10 22 10q7 0 12.5 -4.5t8.5 -10.5t3.5 -12.5t-2.5 -10.5t-23 -29.5t-51 -60t-70 -73.5zM358 642q-17 -35 -41 -66t-54 -55
t-63 -35q-2 0 -6 -1.5t-8 -1.5t-4 2q-2 4 3 9l7 7q4 3 8 6.5t8 7.5q29 34 47.5 66t28.5 76q2 7 14.5 16.5t28.5 18.5t30.5 15t19.5 6q6 0 5 -5q-7 -31 -24 -66zM129 269h6q24 3 46.5 16t41 31.5t32.5 41t20 45.5q-48 -17 -84 -54.5t-62 -79.5z" />
    <glyph glyph-name="ecircumflex" unicode="&#xea;" horiz-adv-x="342" 
d="M305 448q17 -13 32 -28q14 -15 20 -27q7 -14 6.5 -28t-5.5 -28q-7 -24 -22 -48.5t-35.5 -44t-45.5 -31.5t-52 -12q-25 0 -46.5 14.5t-40.5 28.5q-18 -35 -31.5 -72t-18.5 -76q-4 -14 8 -24q7 -7 21 -7q23 0 56 20t69.5 50t73 65t66 65.5t49 51.5t21.5 23q11 10 22 10
q7 0 12.5 -4.5t8.5 -10.5t3.5 -12.5t-2.5 -10.5t-23 -29.5t-51 -60t-70 -74t-79.5 -72.5t-79 -54.5t-69.5 -20.5q-37 1 -61 15.5t-37.5 35t-19 43.5t-4.5 41q3 48 23.5 107t55 111.5t80 88t97.5 35.5q14 0 32.5 -8.5t36.5 -21.5zM304 556q2 -5 5 -10t5 -10q11 -8 22.5 -22
t15.5 -27q2 -10 -5 -11q-5 -1 -12 3t-11 7q-26 17 -45.5 42t-33.5 54q-4 -6 -16 -20t-25.5 -28.5t-26.5 -25.5t-19 -11q-7 0 -16.5 6.5t-18.5 15.5t-16 18t-10 15q-2 2 -4 9t1 9q39 29 69 65t39 85q2 6 7 6q8 0 18.5 -7.5t20.5 -18t17.5 -21t8.5 -16.5q4 -26 11 -50.5
t16 -48.5l1 -2q0 -2 2 -6zM191 349q-36 -38 -62 -80h6q24 3 46.5 16t41 31.5t32.5 41t20 45.5q-48 -17 -84 -54z" />
    <glyph glyph-name="edieresis" unicode="&#xeb;" horiz-adv-x="342" 
d="M409 317q19 21 21 23q11 10 22 10q7 0 12.5 -4.5t8.5 -10.5t3.5 -12.5t-2.5 -10.5t-23 -29.5t-51 -60t-70 -74t-79.5 -72.5t-79 -54.5t-69.5 -20.5q-37 1 -61 15.5t-37.5 35t-19 43.5t-4.5 41q3 48 23.5 107t55 111.5t80 88t97.5 35.5q14 0 32.5 -8.5t36 -21.5t32 -28
t20.5 -27q7 -14 7 -28q-1 -14 -6 -28q-7 -24 -22 -48.5t-35.5 -44t-45.5 -31.5t-52 -12q-25 0 -46.5 14.5t-40.5 28.5q-18 -35 -31.5 -72t-18.5 -76q-4 -14 8 -24q7 -7 21 -7q23 0 56 20t69.5 50t73 65t66 65.5t49.5 51.5zM91 598q6 19 21 30.5t33 11.5q8 0 15 -3
q21 -7 31 -28t2 -44q-6 -19 -21.5 -30.5t-32.5 -11.5q-7 0 -15 3q-21 7 -31 28t-2 44zM356 535q-16 -12 -33 -12q-7 0 -15 3q-21 7 -31 28t-2 44q6 19 21 30.5t33 11.5q8 0 15 -3q21 -7 31 -28t2 -44q-6 -19 -21 -30zM129 269h6q24 3 46.5 16t41 31.5t32.5 41t20 45.5
q-48 -17 -84 -54.5t-62 -79.5z" />
    <glyph glyph-name="igrave" unicode="&#xec;" horiz-adv-x="219" 
d="M326 343q7 -6 7 -12q0 -5 -12.5 -31.5t-32 -63t-44.5 -78t-50 -76.5t-48 -58t-38 -24q-18 0 -35.5 8t-31 21t-22.5 30t-11 35q-5 36 1 69q7 38 19.5 80t29.5 83.5t37 80t41 69.5q2 2 4 2q7 0 17.5 -8t21 -18.5t19.5 -21.5t13 -18q2 -3 4.5 -8.5t-0.5 -10.5
q-34 -51 -59 -106.5t-43 -113.5q-5 -17 -10.5 -34t-8.5 -34q-3 -22 -1 -31t8 -9q9 0 26.5 19.5t38 49.5t42 65t39.5 65t30 51.5t14 23.5q7 10 18 10q9 0 17 -6zM240 478q-7 0 -17.5 8t-21 19t-19.5 22t-13 16q-30 45 -46 97t-14 107q0 4 3 4q5 0 18 -9.5t26.5 -22.5
t23.5 -26.5t10 -20.5q-1 -25 1.5 -49t9.5 -47q7 -27 21 -53q0 -1 2 -4t2 -4q3 -5 5.5 -9t6.5 -9q1 -2 4.5 -8.5t0.5 -9.5q-1 -1 -3 -1z" />
    <glyph glyph-name="iacute" unicode="&#xed;" horiz-adv-x="248" 
d="M289 237q-20 -37 -45 -78.5t-50 -76.5t-48 -58t-38 -24q-18 0 -35.5 8t-31 21t-22.5 30t-11 35q-5 36 1 69q7 38 19.5 80t29.5 83.5t37 80t41 69.5q2 2 4 2q7 0 17.5 -8t21 -18.5t19.5 -21.5t13 -18q2 -3 4.5 -8.5t-0.5 -10.5q-34 -51 -59 -106.5t-43 -113.5
q-5 -17 -10.5 -34t-8.5 -34q-3 -22 -1 -31t8 -9q9 0 26.5 19.5t38 49.5t42 65t39.5 65t30 51.5t14 23.5q7 10 18 10q9 0 16.5 -6t7.5 -12q0 -5 -12.5 -31.5t-31.5 -62.5zM357 752q5 0 5 -4q-13 -54 -42 -100t-71 -81q-6 -5 -16.5 -13t-22.5 -15t-24 -12t-20 -5q-3 0 -5 2
q-2 4 3 9l7 7q5 4 9 8l10 10q2 2 3 2q0 1 1 1l8 10q45 54 62 126q2 7 14.5 16.5t28 18t30 14.5t20.5 6z" />
    <glyph glyph-name="icircumflex" unicode="&#xee;" horiz-adv-x="219" 
d="M291 339q7 10 18 10q9 0 16.5 -6t7.5 -12q0 -5 -12.5 -31.5t-32 -63t-44.5 -78t-50 -76.5t-48 -58t-38 -24q-18 0 -35.5 8t-31 21t-22.5 30t-11 35q-5 36 1 69q7 38 19.5 80t29.5 83.5t37 80t41 69.5q2 2 4 2q7 0 17.5 -8t21 -18.5t19.5 -21.5t13 -18q2 -3 4.5 -8.5
t-0.5 -10.5q-35 -51 -60 -108t-44 -116l2 4q-5 -17 -10.5 -34t-8.5 -34q-3 -22 -1 -31t8 -9q9 0 26.5 19.5t38 49.5t42 65t39.5 65t30 51.5t14 23.5zM297 549l-1 1q0 1 -1 2q1 -1 1 -1.5t1 -1.5zM142 537q-7 0 -16 5.5t-17 13.5t-14.5 16.5t-9.5 15.5q-1 2 -3 9.5t3 9.5
q38 22 61 55t37 75q1 6 9 6q9 0 19.5 -7t19.5 -17t15.5 -21t6.5 -19q2 -33 13.5 -66t28.5 -61l2 -3q8 -7 12.5 -13t9.5 -13q3 -5 6 -11t1 -12q-1 -7 -9 -7q-13 0 -28.5 13.5t-29 31.5t-24.5 36.5t-16 29.5q-4 -6 -13.5 -17.5t-21 -22.5t-23 -19t-19.5 -8zM300 546
q1 -1 1 -1.5t1 -1.5l1 -1l-1 1q0 1 -2 3zM298 548q-1 0 -1 0.5t-1 0.5q1 0 1 -0.5t1 -0.5z" />
    <glyph glyph-name="idieresis" unicode="&#xef;" horiz-adv-x="231" 
d="M333 331q0 -5 -12.5 -31.5t-32 -63t-44.5 -78t-50 -76.5t-48 -58t-38 -24q-18 0 -35.5 8t-31 21t-22.5 30t-11 35q-5 36 1 69q7 38 19.5 80t29.5 83.5t37 80t41 69.5q2 2 4 2q7 0 17.5 -8t21 -18.5t19.5 -21.5t13 -18q2 -3 4.5 -8.5t-0.5 -10.5q-16 -24 -35.5 -60.5
t-36.5 -77t-30.5 -80t-18.5 -70.5q-3 -22 -1 -31t8 -9q9 0 26.5 19.5t38 49.5t42 65t39.5 65t30 51.5t14 23.5q7 10 18 10q9 0 16.5 -6t7.5 -12zM77 652q15 11 32 11q8 0 15 -3q21 -7 31 -28t2 -44q-6 -19 -21 -30t-33 -11q-10 0 -15 2q-21 7 -31 28t-2 44q6 19 22 31z
M341 588q-6 -19 -21 -30t-33 -11q-10 0 -15 2q-21 7 -30.5 28t-2.5 44q7 19 22 30.5t32 11.5q8 0 15 -3q21 -7 31 -28t2 -44z" />
    <glyph glyph-name="eth" unicode="&#xf0;" horiz-adv-x="224" 
d="M202 663l18 27q12 18 26.5 36t29.5 31.5t26 13.5q9 0 20 -6.5t21 -16t17.5 -20t10.5 -19.5q2 -3 3 -12t-4 -12q-11 -6 -19.5 -15t-16.5 -18q18 -3 35.5 -7t34.5 -9q8 -2 19 -10.5t22 -20t20 -23t13 -19.5q1 -1 2.5 -6.5t-3.5 -3.5q-46 17 -96 22.5t-98 7.5
q-40 -61 -76.5 -133.5t-65.5 -149.5t-48.5 -155t-24.5 -150l-1 -11q0 -21 1 -42t6 -42q2 -2 2 -5t2 -6q11 -10 19 -22.5t10 -25.5q2 -14 -10 -17q-1 -1 -4 -1q-6 0 -13 3.5t-12 5.5q-32 20 -52 52.5t-28 68.5q-8 33 -8 67.5t4 68.5l4 32q-11 -16 -28 -36t-37 -38
t-41.5 -30.5t-41.5 -12.5q-21 0 -39.5 11t-33.5 28.5t-25 38t-12 38.5q-4 32 4.5 65t19.5 62q12 31 35.5 77t54.5 89t67.5 73.5t72.5 30.5q15 0 30.5 -6t29.5 -16.5t25 -23.5t16 -27q15 35 32 68.5t35 66.5q-38 -4 -71.5 -10t-57.5 -16q-7 0 -18 8t-22 19t-20.5 22t-13.5 17
q0 1 -4.5 8.5t-1.5 8.5q64 17 128.5 22t130.5 5zM62 419q-6 2 -10 4t-5 2h-1q-12 0 -27 -5q-36 -17 -72 -58t-64.5 -91t-48 -101.5t-22.5 -89.5q-1 -4 -1 -7q1 -4 1 -8t1 -7l2 -3q8 -5 16 -5q17 0 39.5 18t47.5 49t51.5 71t52.5 84q21 74 51 143q-6 1 -11 4z" />
    <glyph glyph-name="ntilde" unicode="&#xf1;" horiz-adv-x="663" 
d="M337 92q-5 22 -4.5 44.5t4.5 44.5q2 15 6 36.5t8.5 43.5t9.5 43t9 36q-22 -22 -48 -56t-53 -71t-53 -74.5t-49 -67.5t-41.5 -48.5t-28.5 -18.5q-6 0 -16.5 8t-21 19.5t-18.5 23t-9 17.5q-3 21 -2 41.5t4 40.5q4 31 14.5 73t25 85.5t32.5 82.5t37 64q4 2 6 2q9 0 20 -7.5
t21.5 -18t18.5 -21t11 -17.5q2 -4 4 -10t-1 -10q-23 -29 -40 -70t-28 -76q-1 -2 -3 -11t-5 -19.5t-5 -19.5t-3 -11q3 4 15 21t28.5 41.5t36.5 53.5t40 56.5t38.5 50.5t31.5 35q11 11 24 21.5t28 13.5h5q13 0 24.5 -8t20.5 -15q17 -15 31 -34.5t16 -42.5q2 -21 -3.5 -42.5
t-10.5 -41.5q-4 -15 -13 -49t-16.5 -70t-10.5 -63.5t4 -29.5q9 -2 22.5 12t29 37.5t32 53.5t32 60.5t29 59.5t23.5 49q2 5 13 5q6 0 12.5 -2t10.5 -6q2 -2 -5.5 -27t-22.5 -62t-35.5 -80t-44.5 -79.5t-50.5 -60.5t-52.5 -24q-15 0 -29 9.5t-25 23.5q-12 13 -19.5 28.5
t-10.5 27.5zM363 551q-12 6 -25 11.5t-30 9.5q-10 3 -22 3q-15 0 -30 -3.5t-26 -8.5q-13 -5 -25 -12q12 28 29 50q14 19 35.5 34.5t48.5 15.5q29 0 60 -21q19 -14 35.5 -19.5t31.5 -5.5q20 0 35.5 7.5t26.5 16.5q12 10 22 23q-3 -34 -14 -61q-9 -23 -27 -42.5t-50 -19.5
q-11 0 -23 3q-15 3 -27.5 8t-24.5 11z" />
    <glyph glyph-name="ograve" unicode="&#xf2;" horiz-adv-x="371" 
d="M188 378q-2 -1 -7 -1q-8 0 -19 7.5t-21 17.5t-18.5 20.5t-11.5 17.5q-1 1 -4.5 9.5t1.5 10.5q20 9 42.5 16.5t44.5 7.5q29 0 56 -15t47.5 -38.5t34 -52.5t15.5 -56q2 -29 -2.5 -57.5t-12.5 -55.5q-10 -32 -26.5 -69.5t-40.5 -70t-55.5 -54t-70.5 -21.5q-28 0 -53.5 13.5
t-46 35t-33.5 48t-16 52.5q-3 29 1.5 58t12.5 56q4 13 13 37.5t21.5 49t28.5 43t34 18.5q9 0 19 -5.5t19.5 -14t17 -17.5t12.5 -16q3 -4 7.5 -12t2.5 -14q0 -5 -2.5 -5.5t-6.5 -0.5h-2q-1 0 -1.5 -0.5t-1.5 -0.5q-10 -5 -17.5 -13.5t-12.5 -16.5q-13 -19 -25 -44t-20 -51.5
t-13 -53t-5 -49.5q0 -3 0.5 -5.5t0.5 -5.5q10 0 19.5 2t19.5 5q29 12 53.5 39.5t43.5 61t31.5 69.5t18.5 65q3 17 5 34t0 34v8q-20 -1 -39 -6q-20 -6 -38 -14zM212 573q-9 10 -12 15q-31 45 -47 97.5t-14 106.5q0 4 3 4q8 0 21 -10.5t26 -24t22 -26.5t9 -18q-1 -48 11 -96
q8 -28 21 -53q0 -1 2 -4t2 -4l12 -18q1 -2 4.5 -8.5t0.5 -9.5q0 -1 -3 -1q-7 0 -17.5 8.5t-21 19.5t-19.5 22z" />
    <glyph glyph-name="oacute" unicode="&#xf3;" horiz-adv-x="400" 
d="M242 257q12 36 18 65q3 17 5 34t0 34v8q-20 -1 -39.5 -6.5t-37.5 -13.5q-2 -1 -7 -1q-8 0 -19 7.5t-21 17.5t-18.5 20.5t-11.5 17.5q-1 1 -4.5 9.5t1.5 10.5q20 9 42.5 16.5t44.5 7.5q29 0 56 -15t47.5 -38.5t34 -52.5t15.5 -56q2 -29 -2.5 -57.5t-12.5 -55.5
q-10 -32 -26.5 -69.5t-40.5 -70t-55.5 -54t-70.5 -21.5q-28 0 -53.5 13.5t-46 35t-33.5 48t-16 52.5q-3 29 1.5 58t12.5 56q4 13 13 37.5t21.5 49t28.5 43t34 18.5q9 0 19 -5.5t19.5 -14t17 -17.5t12.5 -16q3 -4 7.5 -12t2.5 -14q0 -5 -2.5 -5.5t-6.5 -0.5h-2
q-1 0 -1.5 -0.5t-1.5 -0.5q-10 -5 -17.5 -13.5t-12.5 -16.5q-13 -20 -25 -44.5t-20 -51t-13 -53t-5 -49.5q0 -3 0.5 -5.5t0.5 -5.5q10 0 19.5 2t19.5 5q29 12 53.5 39.5t43.5 61t32 69.5zM206 565q2 3 3 4q52 58 70 135q2 7 14.5 16.5t28.5 18.5t30.5 15t19.5 6q6 0 5 -5
q-13 -53 -42 -99t-70 -81q-6 -5 -17 -13t-23 -15t-23.5 -12t-20.5 -5q-3 0 -5 2q-2 4 3.5 9t7.5 7q4 4 8 7t8 8q0 -1 3 2z" />
    <glyph glyph-name="ocircumflex" unicode="&#xf4;" horiz-adv-x="376" 
d="M76 129l-45 -76l45 74v2zM76 127q-3 -19 -3 -36q0 -4 1 -5v-6q10 0 19.5 2t19.5 5q33 14 59 45t45.5 69.5t31.5 79.5t16 75q2 17 0 34v8q-8 0 -15 -1t-14 -3zM269 458l-38 -65q2 0 2.5 0.5t2.5 0.5l36 61zM219 741q8 0 18.5 -7t20 -17t16 -21t6.5 -20q3 -32 14 -65
t28 -60q0 -1 1 -2l-20 -33q1 -1 2 -1.5t2 -1.5l19 32q3 -4 6 -7l5 -5q5 -5 8.5 -11.5t6.5 -12.5q3 -7 2 -12q-1 -7 -10 -7q-11 0 -20.5 7.5t-16.5 15.5l-35 -58q30 -23 51.5 -59t24.5 -74q1 -14 0.5 -28.5t-2.5 -28.5q-6 -37 -22 -84t-42 -88.5t-61.5 -70t-80.5 -28.5
q-32 0 -60.5 17t-48.5 42l-31 -53l31 53q-16 19 -26.5 42t-13.5 48q-3 31 1 58q3 17 12 50.5t23.5 68t33.5 60t41 25.5q11 0 22 -7t21.5 -16.5t19 -21t13.5 -20.5q4 -6 2 -14q0 -5 -2 -5q-2 -1 -7 -1h-2q-2 -1 -3 -1q-18 -9 -33 -32.5t-26.5 -52t-19.5 -57.5t-11 -48
l155 264q-21 -6 -43 -15q-1 -1 -7 -1q-7 0 -17.5 7t-21 17t-19.5 21t-12 18q-1 1 -4 10q-5 8 1 10q20 9 42 16.5t45 7.5q21 0 39 -7t35 -19l34 58q-35 37 -57 85q-4 -6 -13.5 -17.5t-20.5 -22.5t-22.5 -19t-20.5 -8q-7 0 -15.5 5.5t-17 13.5t-15 17t-9.5 16l-2 9q-2 8 2 9
q39 22 61.5 55t36.5 75q3 7 9 7z" />
    <glyph glyph-name="otilde" unicode="&#xf5;" horiz-adv-x="410" 
d="M242 257q12 36 18 65q3 17 5 34t0 34v8q-20 -1 -39.5 -6.5t-37.5 -13.5q-2 -1 -7 -1q-8 0 -19 7.5t-21 17.5t-18.5 20.5t-11.5 17.5q-1 1 -4.5 9.5t1.5 10.5q20 9 42.5 16.5t44.5 7.5q29 0 56 -15t47.5 -39t34 -52.5t15.5 -55.5q2 -29 -2.5 -57.5t-12.5 -55.5
q-10 -32 -26.5 -69.5t-40.5 -70t-55.5 -54t-70.5 -21.5q-28 0 -53.5 13.5t-46 35t-33.5 48t-16 52.5q-3 29 1.5 58t12.5 56q4 13 13 37.5t21.5 49t28.5 43t34 18.5q9 0 19 -5.5t19.5 -14t17 -17.5t12.5 -16q3 -4 7.5 -12t2.5 -14q0 -5 -2.5 -5.5t-6.5 -0.5h-2
q-1 0 -1.5 -0.5t-1.5 -0.5q-10 -5 -17.5 -13.5t-12.5 -16.5q-13 -20 -25 -44.5t-20 -51t-13 -53t-5 -49.5q0 -3 0.5 -5.5t0.5 -5.5q10 0 19.5 2t19.5 5q29 12 53.5 39.5t43.5 61t32 69.5zM236 630q19 -14 35.5 -19.5t31.5 -5.5q20 0 35.5 7.5t26.5 16.5q13 10 23 23
q-3 -34 -14 -61q-9 -23 -27.5 -42.5t-50.5 -19.5q-11 0 -23 3q-15 3 -27 8t-24 11t-25.5 11.5t-30.5 9.5q-10 3 -21 3q-16 0 -30.5 -3.5t-26.5 -8.5q-13 -5 -25 -12q13 28 30 50q14 19 35 34.5t48 15.5q29 0 60 -21z" />
    <glyph glyph-name="odieresis" unicode="&#xf6;" horiz-adv-x="392" 
d="M242 257q12 36 18 65q3 17 5 34t0 34v8q-20 -1 -39.5 -6.5t-37.5 -13.5q-2 -1 -7 -1q-8 0 -19 7.5t-21 17.5t-18.5 20.5t-11.5 17.5q-1 1 -4.5 9.5t1.5 10.5q20 9 42.5 16.5t44.5 7.5q29 0 56 -15t47.5 -38.5t34 -52.5t15.5 -56q2 -29 -2.5 -57.5t-12.5 -55.5
q-10 -32 -26.5 -69.5t-40.5 -70t-55.5 -54t-70.5 -21.5q-28 0 -53.5 13.5t-46 35t-33.5 48t-16 52.5q-3 29 1.5 58t12.5 56q4 13 13 37.5t21.5 49t28.5 43t34 18.5q9 0 19 -5.5t19.5 -14t17 -17.5t12.5 -16q3 -4 7.5 -12t2.5 -14q0 -5 -2.5 -5.5t-6.5 -0.5h-2
q-1 0 -1.5 -0.5t-1.5 -0.5q-10 -5 -17.5 -13.5t-12.5 -16.5q-13 -20 -25 -44.5t-20 -51t-13 -53t-5 -49.5q0 -3 0.5 -5.5t0.5 -5.5q10 0 19.5 2t19.5 5q29 12 53.5 39.5t43.5 61t32 69.5zM286 630q15 11 33 11q5 0 15 -2q21 -7 31 -28t2 -44q-6 -20 -21.5 -31t-32.5 -11
q-10 0 -15 2q-21 7 -31 28t-2 44q6 19 21 31zM181 611q9 -21 2 -44q-7 -20 -22 -31t-32 -11q-10 0 -15 2q-21 7 -31 28t-2 44q6 19 21 30.5t33 11.5q5 0 15 -2q21 -7 31 -28z" />
    <glyph glyph-name="divide" unicode="&#xf7;" horiz-adv-x="600" 
d="M557 318q-10 5 -20 8t-21 5l-2 1q-38 8 -76 11t-76 3q-64 0 -128.5 -6.5t-126.5 -22.5q-6 0 -14.5 5t-16.5 11.5t-15 14.5q-7 7 -11 12q-2 2 -7 8.5t-8.5 13.5t-4.5 13t6 7q61 16 124.5 22.5t126.5 6.5q54 0 108 -5.5t105 -24.5q18 -8 33 -23t26 -30q2 -4 7 -12t4 -13
q-1 -6 -6 -6q-2 0 -3.5 0.5t-3.5 0.5zM259 575q6 19 21.5 30.5t32.5 11.5q5 0 15 -2q21 -7 31 -28t2 -44q-6 -20 -21 -31t-33 -11q-10 0 -15 2q-21 7 -31 28t-2 44zM234 243q6 19 21.5 30.5t32.5 11.5q5 0 15 -2q21 -7 31 -28q10 -22 2 -45q-6 -19 -21.5 -30t-32.5 -11
q-10 0 -15 2q-21 7 -31 28t-2 44z" />
    <glyph glyph-name="oslash" unicode="&#xf8;" horiz-adv-x="383" 
d="M266 459l1 -1q21 33 36.5 57t23.5 35q1 1 4.5 -2.5t7.5 -9t7 -10t3 -5.5q7 -13 10 -22q1 -2 2 -5.5t-1 -5.5q-14 -17 -26.5 -34.5t-26.5 -35.5q17 -20 28 -45t13 -53q2 -29 -2.5 -57.5t-12.5 -55.5q-10 -32 -26.5 -69.5t-40.5 -70t-55.5 -54t-70.5 -21.5
q-29 0 -52.5 12.5t-43.5 32.5l-30 -51q-1 -2 -4.5 2t-3.5 5q-4 3 -6.5 7t-4.5 9q-1 1 7 15t22 38q-27 34 -33 79q-3 29 1.5 58t12.5 56q4 13 13 37.5t21.5 49t28.5 43t34 18.5q9 0 19 -5.5t19.5 -14t17 -17.5t12.5 -16q3 -4 7.5 -12t2.5 -14q0 -5 -2.5 -5.5t-6.5 -0.5h-2
q-1 0 -1.5 -0.5t-1.5 -0.5q-15 -7 -28.5 -27t-24.5 -44t-19 -47.5t-11 -37.5q32 54 69.5 114t71.5 115l-18 -6q-9 -3 -18 -8q-2 -1 -6 -1q-9 0 -19.5 7.5t-21 17.5t-19 20.5t-11.5 17.5q-1 1 -4.5 9.5t1.5 10.5q20 9 42.5 16.5t44.5 7.5q20 0 37.5 -7t33.5 -18zM265 364
q-51 -68 -98.5 -137t-92.5 -141v-6q10 0 19.5 2t19.5 5q32 13 59 45t47 72.5t32 83t14 76.5z" />
    <glyph glyph-name="ugrave" unicode="&#xf9;" horiz-adv-x="458" 
d="M324 436q16 32 20 42q2 6 10 6q9 0 22.5 -6.5t25.5 -17.5t20 -25t6 -29q-4 -44 -21.5 -83t-30.5 -81q-8 -27 -12.5 -52.5t-6 -45.5t-1.5 -33t1 -15q2 -2 3 -2q6 0 17.5 14t25.5 36.5t29.5 50t30 54t26 49t17.5 35.5q6 11 16 11q8 0 15.5 -4t12.5 -9q3 -2 -5.5 -27.5
t-24 -62t-37 -78.5t-45 -78t-47.5 -59.5t-44 -23.5q-14 0 -26.5 9t-22.5 21.5t-17.5 27t-10.5 25.5q-1 6 -3 16.5t-3.5 22t-3 22t-1.5 16.5q-1 -1 -7.5 -13.5t-17.5 -30t-24.5 -38t-29 -37.5t-31 -28t-30.5 -11q-7 0 -22.5 7.5t-33 20t-34 30.5t-25.5 39q-12 26 -13.5 53.5
t3.5 54.5t15 53.5t21 50.5t22.5 46.5t24.5 45.5q8 14 16.5 28t15.5 29q4 9 15 9q9 0 18.5 -5.5t18 -13.5t15.5 -17t11 -16q2 -5 5.5 -14.5t0.5 -15.5t-15.5 -27.5t-28 -51t-31.5 -63.5t-25.5 -64.5t-9.5 -54t15 -31.5q1 0 1.5 -0.5t1.5 -0.5q11 0 32 25.5t47 64.5t53 85.5
t50.5 89t40.5 75.5zM275 591q4 -14 9 -27t11 -26q1 -1 2.5 -4t2.5 -4q2 -5 5 -9t6 -9q2 -2 5.5 -8.5t0.5 -9.5q-1 -1 -3 -1q-7 0 -17.5 8t-21.5 19t-20 22t-12 16q-30 45 -46.5 97t-14.5 107q0 4 4 4q7 0 20 -10.5t26 -24t22 -26.5t9 -18q-1 -49 12 -96z" />
    <glyph glyph-name="uacute" unicode="&#xfa;" horiz-adv-x="458" 
d="M344 478q2 6 10 6q9 0 22.5 -6.5t25.5 -17.5t20 -25t6 -29q-4 -44 -21.5 -83t-30.5 -81q-8 -27 -12.5 -52.5t-6 -45.5t-1.5 -33t1 -15q2 -2 3 -2q6 0 17.5 14t25.5 36.5t29.5 50t30 54t26 49t17.5 35.5q6 11 16 11q8 0 15.5 -4t12.5 -9q3 -2 -5.5 -27.5t-24 -62
t-37 -78.5t-45 -78t-47.5 -59.5t-44 -23.5q-6 0 -9 1q-22 6 -37.5 24t-24.5 41.5t-13 48.5t-4 45q-1 -1 -7.5 -13.5t-17.5 -30t-24.5 -38t-29 -37.5t-31 -28t-30.5 -11q-7 0 -22.5 7.5t-33 20t-34 30.5t-25.5 39q-12 26 -13.5 53.5t3.5 54.5t15 53.5t21 50.5t22.5 46.5
t24.5 45.5q8 14 16.5 28t15.5 29q4 9 15 9q9 0 18.5 -5.5t18 -13.5t15.5 -17t11 -16q2 -5 5.5 -14.5t0.5 -15.5t-15.5 -27.5t-28 -51t-31.5 -63.5t-25.5 -64.5t-9.5 -54t15 -31.5q1 0 1.5 -0.5t1.5 -0.5q11 0 32 25.5t47 64.5t53 85.5t50.5 89t40 75t20.5 42.5zM283 575
q0 1 1 1q26 29 43.5 63.5t26.5 72.5q2 7 14.5 16.5t28.5 18t30.5 14.5t19.5 6q6 0 5 -4q-12 -54 -41 -100t-71 -81q-6 -5 -16.5 -13t-22.5 -15t-24 -12t-21 -5q-4 0 -4 2q-2 4 3 9l7 7q4 4 8 7.5t8 7.5q1 2 3 3z" />
    <glyph glyph-name="ucircumflex" unicode="&#xfb;" horiz-adv-x="458" 
d="M538 340q7 -4 12 -9q3 -2 -5.5 -27t-24 -61.5t-37 -79t-45 -78t-47.5 -59.5t-45 -24q-5 0 -8 1q-22 6 -37 24q-16 18 -25 41.5t-13 48.5t-4 45q-1 -1 -7.5 -13.5t-17.5 -30t-24.5 -38t-29 -37.5t-31 -28t-30.5 -11q-7 0 -22.5 7.5t-33 20t-34 30.5t-25.5 39
q-12 26 -13.5 53.5t3.5 54.5t15 53.5t21 50.5t22.5 46.5t24.5 45.5q8 14 16.5 28t15.5 29q4 9 15 9q9 0 18.5 -5.5t18 -13.5t15.5 -17t11 -16q2 -5 5.5 -14.5t0.5 -15.5t-15.5 -27.5t-28 -51t-31.5 -63.5t-25.5 -64.5t-9.5 -54t15 -31.5q1 0 1.5 -0.5t1.5 -0.5q11 0 32 25.5
t47 64.5t53 85.5t50.5 89t40 75t20.5 42.5q2 6 10 6q9 0 22.5 -6.5t25.5 -17.5t20 -25t6 -29q-4 -44 -21.5 -83t-30.5 -81q-8 -27 -12.5 -52.5t-6 -45.5t-1.5 -33t1 -15q2 -2 3 -2q6 0 17.5 14t25.5 36.5t29.5 50t30 54t26 49t17.5 35.5q6 11 16 11q8 0 16 -4zM353 664
q3 -15 8 -30q1 -1 1 -2t1 -3q2 -6 5 -13q5 -13 10 -25.5t13 -23.5l2 -3q-2 2 -2 3q-2 2 -1 0.5t2 -3.5q15 -14 22 -26q3 -5 6 -11t2 -12q-1 -7 -9 -7q-13 0 -28.5 13.5t-29.5 31.5t-25 36.5t-16 29.5q-4 -6 -13.5 -17.5t-20.5 -22.5t-22.5 -19t-19.5 -8q-11 0 -21.5 8.5
t-16.5 15.5q-5 5 -10.5 12t-8.5 15q-2 2 -3.5 9.5t2.5 9.5q39 22 62 55t36 75q2 6 9 6q9 0 19.5 -7t20.5 -17q9 -10 15 -21t6 -19q2 -16 5 -30z" />
    <glyph glyph-name="udieresis" unicode="&#xfc;" horiz-adv-x="458" 
d="M263 117q-4 25 -4 45q-1 -1 -7.5 -13.5t-17.5 -30t-24.5 -38t-29 -37.5t-31 -28t-30.5 -11q-7 0 -22.5 7.5t-33 20t-34 30.5t-25.5 39q-12 26 -13.5 53.5t3.5 54.5t15 53.5t21 50.5t22.5 46.5t24.5 45.5q8 14 16.5 28t15.5 29q4 9 15 9q9 0 18.5 -5.5t18 -13.5t15.5 -17
t11 -16q2 -5 5.5 -14.5t0.5 -15.5t-15.5 -27.5t-28 -51t-31.5 -63.5t-25.5 -64.5t-9.5 -54t15 -31.5q1 0 1.5 -0.5t1.5 -0.5q11 0 32 25.5t47 64.5t53 85.5t50.5 89t40 75t20.5 42.5q2 6 10 6q9 0 22.5 -6.5t25.5 -17.5t20 -25t6 -29q-4 -44 -21.5 -83t-30.5 -81
q-8 -27 -12.5 -52.5t-6 -45.5t-1.5 -33t1 -15q2 -2 3 -2q6 0 17.5 14t25.5 36.5t29.5 50t30 54t26 49t17.5 35.5q6 11 16 11q8 0 15.5 -4t12.5 -9q3 -2 -5.5 -27.5t-24 -62t-37 -78.5t-45 -78t-47.5 -59.5t-44 -23.5q-6 0 -9 1q-22 6 -37.5 24t-24.5 41.5t-13 48.5zM203 562
q-10 0 -15 2q-21 7 -31 28t-2 44q6 19 21.5 30.5t32.5 11.5q5 0 15 -2q21 -7 31 -28.5t2 -44.5q-6 -19 -21 -30t-33 -11zM361 667q15 11 32 11q5 0 15 -2q21 -7 31 -28.5t2 -44.5q-6 -19 -21 -30t-33 -11q-10 0 -15 2q-21 7 -30.5 28t-2.5 44q6 19 22 31z" />
    <glyph glyph-name="yacute" unicode="&#xfd;" horiz-adv-x="494" 
d="M324 354q27 46 43 82.5t13 50.5q0 2 3 3.5t5 3.5q2 1 7 1q4 1 8.5 -1.5t7.5 -4.5q12 -7 23.5 -17.5t21 -23t16.5 -26t8 -26.5q1 -23 0 -47q-3 -47 -14.5 -115t-31.5 -141.5t-48.5 -146t-65 -130.5t-81 -94t-96.5 -36q-21 0 -43.5 10t-41 26t-31.5 36.5t-16 40.5q-1 5 5 5
q12 0 26.5 -12.5t22.5 -20.5q48 -1 87.5 27t72.5 74.5t58.5 104.5t44.5 116.5t32 111.5t20 88q-8 -10 -14.5 -20t-14.5 -21q-38 -54 -78 -108t-88 -101q-8 -7 -18.5 -16.5t-22 -17t-23.5 -13t-24 -5.5q-15 0 -30.5 9t-30 22.5t-26 28.5t-17.5 27q-5 10 -5.5 18t1.5 19
t5.5 23t7.5 23q10 32 20.5 64.5t21.5 65.5q11 32 20.5 64.5t14.5 66.5q2 8 3 17t1 17q-2 3 -7 10t-8.5 13.5t-3.5 12t6 5.5q12 0 26.5 -9.5t28 -23t23.5 -27.5t14 -25q4 -12 4 -25t-2 -25q-4 -32 -12.5 -62.5t-18.5 -61.5q-10 -32 -20 -62.5t-20 -62.5q-6 -20 -4.5 -29.5
t7.5 -9.5q12 0 39 26.5t59.5 67.5t67 90.5t62.5 95.5zM274 563l2 2q0 1 1 1l8 10q45 54 62 126q2 6 13.5 15t27 18t30.5 15.5t22 6.5q6 0 5 -4q-12 -54 -41 -100t-71 -81q-6 -5 -16.5 -13t-22.5 -15t-24 -12t-21 -5q-4 0 -4 2q-2 4 3 9l7 7q4 4 8 7.5t8 7.5q1 2 3 3z" />
    <glyph glyph-name="thorn" unicode="&#xfe;" horiz-adv-x="646" 
d="M605 344q-29 -106 -87 -197q-15 -23 -37 -51.5t-49 -53t-57.5 -41t-60.5 -16.5q-27 0 -46 11t-30 26t-14 29.5t1 20.5q2 2 11.5 2t24.5 2.5t34 10t40 24.5q41 33 77 82t63.5 105.5t43.5 115.5t16 112q-43 -1 -88 -36t-89 -91.5t-86.5 -129.5t-80 -150.5t-69.5 -153.5
t-56.5 -139.5t-39.5 -108t-18 -58.5q-3 -9 -11 -9t-18 5.5t-19 13t-17 16.5t-12 15q-4 5 -7.5 13t-2.5 15q5 40 13 79t18 78q19 78 42 154.5t48 152.5t50.5 152t49.5 152q3 8 11 8t17.5 -5.5t18.5 -13t17 -16.5t12 -15q3 -4 7.5 -13t2.5 -14q-18 -57 -36.5 -113.5
t-37.5 -113.5q44 78 91 151.5t93.5 130.5t90.5 91.5t81 34.5q18 0 35.5 -10t32 -25.5t25 -34t14.5 -34.5q10 -38 4 -80t-16 -80z" />
    <glyph glyph-name="ydieresis" unicode="&#xff;" horiz-adv-x="494" 
d="M164 362q-4 -32 -12.5 -62.5t-18.5 -61.5q-10 -32 -20 -62.5t-20 -62.5q-6 -20 -4.5 -29.5t7.5 -9.5q12 0 39 26.5t59.5 67.5t67 90.5t62 95.5t43.5 82.5t13 50.5q0 2 3 3.5t5 3.5q2 1 7 1q4 1 8.5 -1.5t7.5 -4.5q12 -7 23.5 -17.5t21 -23t16.5 -26t8 -26.5q1 -23 0 -47
q-3 -47 -14.5 -115t-31.5 -141.5t-48.5 -146t-65 -130.5t-81 -94t-96.5 -36q-21 0 -43.5 10t-41 26t-31.5 36.5t-16 40.5q-1 5 5 5q12 0 26.5 -12.5t22.5 -20.5q48 -1 87.5 27t72.5 74.5t59 104.5q25 58 44 116.5t32 111.5t20 88q-8 -10 -14.5 -20t-14.5 -21
q-38 -54 -78 -108t-88 -101q-8 -7 -18.5 -16.5t-22 -17t-23.5 -13t-24 -5.5q-15 0 -30.5 9t-30 22.5t-26 28.5t-17.5 27q-5 10 -5.5 18t1.5 19t5.5 23t7.5 23q10 32 20.5 64.5t21.5 65.5q11 32 20.5 64.5t14.5 66.5q2 8 3 17t1 17q-2 3 -7 10t-8.5 13.5t-3.5 12t6 5.5
q12 0 26.5 -9.5t28 -23t23.5 -27.5t14 -25q4 -12 4 -25t-2 -25zM235 638q10 -22 2 -45q-6 -19 -21.5 -30t-32.5 -11q-10 0 -15 2q-21 7 -31 28t-2 44q6 19 21 30.5t33 11.5q5 0 15 -2q21 -7 31 -28zM319 626q6 19 21.5 30.5t32.5 11.5q5 0 15 -2q21 -7 31 -28.5t2 -44.5
q-6 -19 -21.5 -30t-32.5 -11q-10 0 -15 2q-21 7 -31 28t-2 44z" />
    <glyph glyph-name="dotlessi" unicode="&#x131;" horiz-adv-x="278" 
d="M202 769q9 -8 16.5 -16.5t11.5 -16.5q4 -6 6.5 -14t0.5 -15q-4 -19 -13 -79q-10 -61 -21.5 -144t-24 -178t-23.5 -183t-18.5 -158.5t-9.5 -104.5q-1 -7 -7.5 -8.5t-11.5 -1.5q-8 1 -16.5 6t-15.5 10q-14 11 -25.5 28t-10.5 36q1 14 5 52.5t10 93t14 121t17 136t18 138.5
t17.5 128.5t16 105.5t13.5 71q3 11 13 11q9 0 19 -5t19 -13z" />
    <glyph glyph-name="Lslash" unicode="&#x141;" horiz-adv-x="483" 
d="M460 726q5 -7 9.5 -14t6 -13t-4.5 -6q-14 -4 -30.5 -26.5t-31.5 -50.5t-27.5 -55t-17.5 -39q-18 -41 -34 -82t-32 -83q31 9 63.5 15t64.5 6q12 0 26.5 -4t29 -10t27 -14t20.5 -16q1 -1 4.5 -5.5t-2.5 -4.5q-70 0 -138 -19.5t-131 -47.5q-26 -77 -51 -160.5t-37 -164.5
q72 21 146 31t149 10q24 0 51.5 -1.5t54.5 -7t52 -15.5t43 -26q6 -5 13 -12t12.5 -15.5t9 -17.5t1.5 -18q-3 -10 -16 -10q-9 0 -18.5 5.5t-16.5 10.5q-3 2 -9 4q-3 0 -5 2q-32 8 -64 10t-64 2h-11q-8 0 -15 -0.5t-15 -1.5q-48 -3 -99 -10t-101 -20t-98 -30.5t-90 -41.5
q-7 -3 -13 -3q-10 0 -20.5 6t-20 15.5t-17 20t-10.5 19.5q-2 3 -3 12t4 12q26 14 51.5 26t52.5 22q-13 17 -16 29.5t-3 32.5q1 25 6 54t11.5 58t15 57t15.5 52q-16 -8 -34 -21q-4 -2 -6 -2q-7 0 -19.5 4.5t-25 11t-23.5 13t-17 10.5q-1 1 -7.5 6.5t-3.5 7.5q41 27 84.5 49.5
t88.5 41.5q32 97 69 194t85 187q9 16 18 31t20 29q6 8 14 15t19 7q5 0 13 -5.5t16.5 -13t15.5 -14.5t10 -11q1 -1 6 -7z" />
    <glyph glyph-name="lslash" unicode="&#x142;" horiz-adv-x="263" 
d="M436 777q8 -11 11 -18q1 -2 4.5 -10t-1.5 -11q-26 -14 -56 -52t-58.5 -83.5t-52 -89.5t-36.5 -70q28 7 54.5 11t51.5 4q9 0 22 -4.5t27 -11t26 -14.5t19 -15q1 0 4.5 -4.5t-2.5 -4.5q-17 0 -33 -1q-16 -2 -33 -4q-12 -2 -31.5 -8t-44 -15t-52.5 -20.5t-56 -23.5
q-29 -76 -51.5 -159t-22.5 -166q1 -8 1 -15.5t1 -15.5q0 1 0.5 -1t0.5 -3v-2q2 -8 3.5 -15.5t3.5 -15.5q15 -15 22 -30q2 -4 4.5 -10.5t-1.5 -10.5q-1 -2 -6 -2q-4 0 -8.5 1.5t-6.5 3.5q-34 20 -58 52.5t-32 71.5q-8 33 -7.5 67.5t5.5 68.5q5 32 11 63t15 63
q-23 -11 -36.5 -17t-15.5 -8q-4 -2 -6 -2q-7 0 -19.5 4.5t-25 11t-23.5 13t-17 10.5q-1 1 -7.5 6.5t-4.5 7.5q46 30 95 53.5t100 43.5q35 90 80 177t102 164q5 6 15.5 19.5t22.5 27t24.5 24t19.5 10.5q8 0 19 -7.5t21.5 -17.5t18.5 -20z" />
    <glyph glyph-name="OE" unicode="&#x152;" horiz-adv-x="1345" 
d="M940 246l-32 -8q-39 -24 -88.5 -59t-97 -77t-87 -87.5t-58.5 -89.5q-2 -7 -4.5 -14t-4.5 -14q-4 -13 -1 -29q10 -50 63 -50q32 0 72.5 15.5t84 40.5t88 57t85.5 65.5t76.5 66t60.5 57.5q54 55 104.5 115.5t85.5 129.5q2 2 3 2q5 0 11 -13q3 -7 5.5 -12.5t4.5 -9.5
q8 -12 3 -21q-38 -67 -95.5 -143.5t-125 -148.5t-142 -132t-147.5 -94q-59 -28 -112 -28q-31 0 -63 12t-59.5 32.5t-48.5 47.5t-32 57q-7 17 -5 42q2 35 23.5 72t52 72t65 66t61.5 54q-38 5 -65 19.5t-53 41.5l-1 -3q-11 -27 -29 -67.5t-42 -84.5t-52.5 -87.5t-61 -78.5
t-67 -56.5t-70.5 -21.5q-32 0 -62.5 14t-56.5 37t-45.5 52t-30.5 58q-15 40 -18 85q-2 23 -1.5 47t2.5 47q6 68 26 140t50 141t69.5 132t84.5 115q5 5 12.5 13.5t16.5 16.5t18.5 14t16.5 6q12 0 23.5 -7.5t19.5 -15.5q11 18 26 36t33 33t39 24.5t43 9.5q35 0 62 -19
t45.5 -47.5t29 -62.5t11.5 -64v-37q30 32 75 72t97 75t105.5 59t101.5 24q21 0 43 -8t41 -22t33.5 -32t21.5 -39q5 -17 2 -31q-6 -31 -26 -63.5t-48.5 -64t-63.5 -59.5t-72.5 -48.5t-75.5 -33t-71 -12.5q-37 0 -57.5 13t-41.5 41q-9 12 -11 18q-32 -38 -61 -85t-40 -96
q-6 -24 -4 -50q1 -1 2 -1q2 0 7 -1q24 -3 48 -3q43 0 84.5 5.5t83.5 13.5q8 5 20.5 11t21.5 8q11 0 24 -7.5t24.5 -18.5t20.5 -23.5t12 -23.5q0 -3 1 -4v-4q-2 -8 -5 -9q-5 -4 -11 -5zM139 262q-18 -71 -21 -134q-1 -1 -1 -5q0 -34 3.5 -69t21.5 -65q0 -3 2.5 -4.5t4.5 -3.5
q-1 0 -3 2q1 -1 2 -1.5t2 -1.5l1 -1q-1 1 -2 1q4 -1 5 -2l6 -2q1 -1 2 -1t2 -1q2 0 3 -1q5 -1 9 -1.5t9 -0.5q30 2 59 20t55.5 46.5t51.5 64t45.5 72t37.5 71.5t29 61q-48 23 -84 65t-52 93q-15 48 -13 104q0 38 6 74q-39 -46 -74 -109t-62.5 -132t-44.5 -139zM571 749
q-1 17 -3 34l-3 7q-29 -2 -54.5 -23t-45.5 -50.5t-33.5 -63t-19.5 -59.5q-5 -20 -7.5 -38.5t-3.5 -35.5v-3q-2 -8 0 -17q0 -8 1 -22.5t3.5 -30t6.5 -28.5t10 -19l9 -10l4 -2q1 -1 3 -2q1 -1 1.5 -1t1.5 -1q7 -2 13 -4t11 -4l24 -7q31 84 54.5 169t28.5 175v2q0 17 -1 34z
M1029 709q38 42 57 83q-46 -6 -96 -30.5t-98 -59t-91 -73.5t-75 -74q1 -1 6 -1h2q3 -1 10 -1h10q45 0 95 22t96 56.5t84 77.5z" />
    <glyph glyph-name="oe" unicode="&#x153;" horiz-adv-x="600" 
d="M480 138q36 30 72.5 65t66 65.5t49 51.5t21.5 23q11 10 21 10q7 0 12.5 -4.5t8.5 -10.5t3.5 -12.5t-1.5 -10.5q-3 -4 -23 -29.5t-51.5 -60t-70.5 -74t-79 -72.5t-78.5 -54.5t-69.5 -20.5q-40 1 -64 17t-38 39q-23 -29 -52 -47.5t-67 -18.5q-28 0 -53.5 13.5t-46 35
t-33.5 48t-16 52.5q-3 29 1.5 58t12.5 56q4 13 13 37.5t21.5 49t28.5 43t34 18.5q9 0 19 -5.5t19.5 -14t17 -17.5t12.5 -16q3 -4 7.5 -12t2.5 -14q0 -5 -2.5 -5.5t-6.5 -0.5h-2q-1 0 -1.5 -0.5t-1.5 -0.5q-10 -5 -17.5 -13.5t-12.5 -16.5q-13 -20 -25 -44.5t-20 -51t-13 -53
t-5 -49.5q0 -3 0.5 -5.5t0.5 -5.5q10 0 19.5 2t19.5 5q29 12 53.5 39.5t43.5 61t31.5 69.5t18.5 65q3 17 5 34t0 34v8q-20 -1 -39.5 -6.5t-37.5 -13.5q-2 -1 -7 -1q-8 0 -19 7.5t-21 17.5t-18.5 20.5t-11.5 17.5q-1 1 -4.5 9.5t1.5 10.5q20 9 42.5 16.5t44.5 7.5t43 -9
t39 -24t32.5 -34t23.5 -38q14 18 32 36.5t39 33t43.5 23.5t46.5 9q15 0 33.5 -8.5t36 -21.5t32 -28t20.5 -27q6 -14 5.5 -28t-4.5 -28q-7 -24 -22.5 -48.5t-35.5 -44t-45 -31.5t-52 -12q-25 0 -47 14.5t-41 28.5q-18 -35 -31.5 -72t-18.5 -76q-2 -14 8 -24q8 -7 22 -7
q23 0 56 20t70 50zM482 320q18 18 32 40.5t20 45.5q-48 -17 -84 -54q-37 -38 -62 -80h6q24 3 46.5 16t41.5 32z" />
    <glyph glyph-name="Scaron" unicode="&#x160;" horiz-adv-x="773" 
d="M142 280q-23 26 -38 55.5t-17 64.5q-3 41 11 80q15 41 41.5 75t58.5 63q35 32 89.5 68t114.5 66.5t120 50.5t105 20q19 0 39.5 -7t37 -19.5t27.5 -30t12 -37.5q1 -11 -2 -23.5t-5 -23.5q-14 -57 -40.5 -112t-59.5 -104q-6 -9 -14.5 -19.5t-18 -20t-20.5 -16t-23 -6.5
q-14 0 -27 7t-24.5 18t-20 24t-12.5 25q-2 6 -2.5 13t4.5 12q4 4 11 4q13 0 25 -7q20 15 40 44t37 62t30.5 65.5t20.5 55.5q-40 -8 -88 -26t-97.5 -43t-97 -57t-86 -68.5t-65 -76.5t-32.5 -82q0 -2 -0.5 -4t-0.5 -4v-13q0 -5 1 -10v-7q0 -1 1 -1q0 -3 1 -6l1 -2
q0 -2 0.5 -2.5t0.5 -2.5q2 -2 2 -3t1 -3q1 0 1 -0.5t1 -0.5q0 -1 2 -3t3 -2.5t3 -2.5q1 -1 1.5 -1t1.5 -1q32 -20 69.5 -32t74.5 -20q23 -5 47 -10.5t47 -10.5q28 -6 53.5 -13.5t47 -20t39 -32t29.5 -49.5q8 -20 8 -40.5t-5 -40.5q-10 -38 -35.5 -70.5t-59 -59.5t-71 -48
t-71.5 -36q-16 -7 -47.5 -19t-66 -23t-66.5 -19.5t-51 -8.5q-32 -1 -59.5 21t-41.5 50q-3 6 -5 13.5t-1.5 13.5t4.5 10t14 3q10 0 20.5 -7t18.5 -14q7 1 13 2t12 3q35 10 77 23t85.5 30.5t85.5 39.5t75.5 49.5t56.5 60.5t29 72q1 2 1 4q0 4 -1 6l-4 2q-3 0 -4 1q-3 0 -4 1
q-8 2 -13 3q-29 7 -58 13t-58 13q-32 8 -65 17t-64 22.5t-59 32t-51 43.5zM344 994q4 7 4 8q3 6 11 15.5t17.5 18.5t19.5 16q9 7 15 7q2 0 4 -1q25 -14 44 -33t33 -42q14 29 32.5 56t43.5 48q1 1 4.5 4t8.5 6.5t10 6.5t8 3t5 -5q0 -5 -4.5 -11.5t-6.5 -10.5l-10 -12
q-2 -2 -4 -5q-2 -1 -4 -3q-1 -2 -2 -3l-1 -1q-26 -43 -39 -96q-1 -1 -1 -3q0 -4 -2 -6l-4 -20q-2 -10 -2 -21q0 -7 -9 -19.5t-20.5 -24t-23 -20t-16.5 -8.5q-1 0 -3 2q-14 45 -40 83.5t-68 61.5q-4 2 0 9z" />
    <glyph glyph-name="scaron" unicode="&#x161;" horiz-adv-x="307" 
d="M181 197q4 -5 9 -10q5 -6 12 -15t14.5 -19t14 -19.5t8.5 -16.5q8 -21 0 -39q-10 -21 -34.5 -41t-54.5 -36t-61.5 -26t-55.5 -10q-12 0 -28.5 9.5t-31.5 23t-26.5 29t-12.5 28.5q0 4 3 4t4 -1t4 -1q15 2 45.5 7.5t62.5 13.5t59.5 18t37.5 22q7 8 -1 18t-24 20
q-8 5 -17.5 10.5t-19.5 12.5q-32 20 -57.5 49.5t-25.5 69.5q0 35 21.5 71t54 67.5t70 56t69.5 36.5q26 9 44 9q8 0 10 -1q18 -5 26 -20l16 -32q3 -8 6 -19q3 -13 -7 -32q-9 -18 -29 -39t-44.5 -41.5t-49.5 -38.5t-44 -29q-13 -7 -25 -19q1 -2 4 -5q1 -2 2 -3t2 -3l6 -9
q1 -1 1.5 -1t1.5 -1q0 -1 1 -2q4 -5 8 -9.5t9 -9.5q4 -5 8 -9.5t8 -9.5q3 -4 7 -8zM186 577q-1 -9 -7 -21t-14.5 -22.5t-18.5 -18t-21 -7.5q-8 0 -9 7q-14 42 -37 74.5t-61 55.5q-4 2 -3 9q2 8 3 9q3 7 9 16t14 17t17 13.5t17 5.5t19.5 -7.5t22.5 -18.5t21 -22.5t14 -19.5
q5 11 15.5 29.5t24.5 36.5t29 31.5t29 13.5q3 0 6 -1t3 -5q2 -7 -1 -12q-4 -8 -6 -11q-5 -7 -10 -13q-3 -4 -242 -716l235 708q-2 -3 -5 -5v-1l-3 -3q-1 -2 -1 -3q-2 -4 -3 -5l-2 -4q-14 -26 -23 -53.5t-12 -56.5z" />
    <glyph glyph-name="Ydieresis" unicode="&#x178;" horiz-adv-x="1041" 
d="M994 479q-8 -57 -26.5 -138t-48 -168.5t-68.5 -173.5t-87 -154t-104.5 -110.5t-121.5 -42.5q-25 0 -40.5 13t-31.5 31q-1 1 -5.5 8t-9 14.5t-5.5 13.5t5 6q4 -1 8 -1h8q51 0 96 27.5t84 72.5t71.5 102t58.5 115t45 112.5t31 94.5q-31 -39 -76 -87t-97.5 -89.5t-108 -69.5
t-107.5 -28q-44 0 -78.5 22t-56.5 60q-10 16 -7 34q5 22 14.5 43t19.5 41q15 30 30.5 59.5t30.5 59.5q36 67 70 135.5t58 140.5q8 26 13.5 51.5t7.5 51.5q2 23 -1 40q-1 1 -1 4q-1 2 -1.5 4t-1.5 4q0 4 -3 8q-7 3 -12.5 5t-11.5 4q-24 5 -47 6q-62 1 -123 -23.5t-113.5 -66
t-92 -95t-58.5 -110.5q-14 -44 -16.5 -89t5.5 -90q0 -5 -5 -5q-6 0 -8 1q-8 3 -15 9t-13 11q-15 14 -24 24.5t-14 22t-6.5 25.5t-2.5 33q-5 93 33.5 176t106.5 144q26 24 58 45.5t67.5 37t72.5 25t73 9.5q45 0 83.5 -16.5t70.5 -46.5q33 -32 58 -71t25 -87q0 -35 -11 -77
t-27.5 -84t-35 -81.5t-34.5 -71.5q-20 -40 -40.5 -78.5t-40.5 -77.5q-33 -65 -30 -93t30 -28t71 23.5t94 64t101.5 93.5t92.5 112t65.5 119.5t22.5 116.5q0 9 7 9q8 0 21 -9t18 -14q16 -14 30 -31.5t14 -40.5q0 -18 -3 -36zM667 960q-10 21 -2 44q6 19 21 30.5t33 11.5
q5 0 15 -2q21 -7 31 -28.5t2 -44.5q-7 -19 -22 -30t-32 -11q-10 0 -15 2q-21 7 -31 28zM987 941q-16 -11 -33 -11q-10 0 -15 2q-21 7 -31 28t-2 44q6 19 21 30.5t33 11.5q8 0 15 -3q21 -7 31 -28t2 -44q-6 -19 -21 -30z" />
    <glyph glyph-name="Zcaron" unicode="&#x17d;" horiz-adv-x="939" 
d="M864 177q5 17 6 16q6 -7 11.5 -15t9.5 -17q2 -3 4.5 -8.5t0.5 -9.5q-24 -53 -51.5 -101t-64.5 -84.5t-86 -58t-115 -21.5q-20 0 -40 3q-26 3 -50.5 8.5t-50.5 9.5q-51 8 -101 13t-101 5q-26 0 -51.5 -2t-50.5 -7q-12 -5 -24 -6q-5 -1 -10.5 4.5t-9.5 8.5q-12 12 -23 26
l-4 7q-5 7 -9.5 15t-8 15t-0.5 8q13 4 22 5q37 13 71.5 33.5t68.5 42.5q46 30 107.5 75.5t128 100t132.5 115.5t121 120.5t93.5 115.5t48.5 101q0 2 0.5 4.5t0.5 4.5q-2 2 -4 2t-4 1q-22 4 -48 6t-53 3t-53 1.5t-48 0.5q-46 0 -103 -3t-115.5 -13t-114.5 -28t-99.5 -47.5
t-70 -72.5t-27.5 -102q0 -4 -3 -4q-7 0 -18 10.5t-21.5 24t-18.5 27t-8 18.5q0 62 27.5 106.5t71.5 75.5t101 49t117 28t117.5 13t103.5 3q21 0 54.5 -0.5t68.5 -2.5t67.5 -7t51.5 -14q14 -6 28 -18.5t27 -27.5t23 -30.5t15 -29.5q6 -17 6 -32.5t-4 -32.5q-12 -46 -51 -102
t-93.5 -115t-119.5 -118t-129 -112t-122 -96t-98 -70q48 -5 92 -12q26 -5 52.5 -10.5t52.5 -7.5q10 -1 19.5 -1.5t18.5 -0.5q72 0 125 17t90.5 43t62 56t39 55.5t20.5 42.5zM577 891q-9 -13 -21 -24.5t-23.5 -20t-16.5 -8.5q-2 0 -2 2q-14 45 -40.5 83.5t-68.5 61.5
q-3 2 0.5 9t3.5 8q3 6 11 15.5t18 18.5t19.5 16t15.5 7q2 0 3 -1q25 -14 44 -33t33 -42q14 29 33 56t44 48q1 1 4.5 4t8.5 6.5t10 6.5t8 3q4 0 4 -5q1 -5 -3.5 -11.5t-7.5 -10.5l-20 -24q-14 -22 -23.5 -46t-16.5 -50q0 -2 -1 -3q0 -1 -0.5 -3t-0.5 -3l-4 -20q-2 -10 -2 -21
q0 -7 -9 -19z" />
    <glyph glyph-name="zcaron" unicode="&#x17e;" horiz-adv-x="468" 
d="M444 484q26 0 44 -19t30 -39q7 -15 0 -28q-14 -21 -39 -46t-53 -49.5t-56 -46t-48 -36.5q-14 -11 -27 -20.5t-26 -19.5q-22 -17 -43 -32q-19 -14 -38 -26q26 16 60 30q38 16 72 16h9q27 0 50.5 -20t30.5 -46q5 -19 3 -33q-3 -15 -5 -15q-7 2 -14 7q-12 5 -37 5
q-30 0 -63.5 -6.5t-67.5 -17.5t-66.5 -24t-60.5 -27q-8 -5 -14 -5q-10 0 -22 7.5t-23 18.5t-18.5 23.5t-8.5 22.5q-1 8 5 14q15 17 31 32.5t33 30.5q23 22 47.5 43t49.5 42l56 48q23 17 44.5 35.5t42.5 37.5q5 4 8 6.5t5 4.5q-6 -5 -24.5 -10t-40.5 -9t-43 -6.5t-32 -2.5
q-25 0 -48.5 9.5t-41.5 26t-28.5 39t-10.5 48.5q0 2 8 -1q30 -11 62 -15.5t64 -4.5q38 0 74.5 4.5t70.5 22.5q47 23 99 31zM360 721q-6 -9 -16 -17q0 -1 -1 -2q-2 -2 -2 -3q-1 -1 0 -1q0 1 1 2q0 1 2 3l-2 -3q-1 -1 -1 -2q-16 -26 -27 -57q-12 -32 -14 -64q-1 -9 -7 -20.5
t-15 -22.5t-19.5 -18.5t-20.5 -7.5q-6 0 -9 7q-13 42 -36.5 75t-61.5 55q-4 1 -2 9l2 9q3 6 9 15t14.5 17t17.5 14t16 6q8 0 19.5 -7.5t22.5 -18.5t21 -22.5t14 -19.5q5 11 15.5 29.5t24.5 36.5t29 31.5t29 13.5q9 0 10 -6q1 -5 -2 -12q-5 -11 -11 -19z" />
    <glyph glyph-name="circumflex" unicode="&#x2c6;" horiz-adv-x="356" 
d="M267 614q7 -18 14 -31l1 -2q2 -3 3.5 -6t4.5 -7v-1q2 -2 3 -2q12 -12 24 -29l7 -13q3 -7 2 -15t-11 -8q-16 0 -34.5 16t-35 38t-30 45t-19.5 36q-5 -7 -16.5 -21t-25 -27t-27.5 -23t-23 -10t-20 6.5t-21 16.5t-18 20.5t-11 18.5q-2 2 -4 11t3 11q47 26 75 66.5t44 90.5
q3 8 11 8q11 0 23.5 -8.5t23.5 -21t19 -26t8 -23.5q1 -15 5 -34t10.5 -38.5t14.5 -37.5z" />
    <glyph glyph-name="caron" unicode="&#x2c7;" horiz-adv-x="304" 
d="M237 737q15 13 28 13q8 0 9 -6q2 -6 -1 -12t-6 -11q-5 -7 -9.5 -13t-11.5 -12q0 -1 -1 -2l-3 -4q-15 -26 -26 -57q-12 -33 -15 -64q-1 -10 -6.5 -22t-14.5 -22.5t-19.5 -17.5t-20.5 -7q-8 0 -9 7q-14 42 -37 75t-61 54q-5 2 -3 9.5t3 9.5q3 7 9 15.5t14.5 16.5t17.5 13.5
t16 5.5q8 0 19.5 -8t23 -19t21 -22t13.5 -18q5 11 15.5 29.5t24.5 36.5t30 32z" />
    <glyph glyph-name="tilde" unicode="&#x2dc;" horiz-adv-x="452" 
d="M282 599q20 -7 38 -7q24 0 43 9t32 20q15 12 27 28q-4 -42 -16 -74q-11 -29 -33.5 -52t-61.5 -23q-12 0 -27 3q-18 4 -32.5 10t-29 13t-30.5 14t-37 12q-13 3 -26 3q-19 0 -36.5 -4.5t-31.5 -9.5q-17 -7 -31 -15q15 34 36 61q17 23 43 42q25 19 58 19q35 0 72 -27
q23 -16 43 -22z" />
    <glyph glyph-name="endash" unicode="&#x2013;" horiz-adv-x="802" 
d="M770 435q2 -5 2 -13t-5 -13q-4 -4 -11 -4q-4 0 -8 1t-9 3q-69 14 -137 19.5t-139 5.5q-23 0 -46.5 -0.5t-46.5 -1.5h-10q-64 -3 -127 -9t-126 -17q-2 -1 -6 -1q-10 0 -22 7t-22.5 18t-18 23.5t-8.5 23.5q0 5 2 11t9 7q91 16 183 22.5t184 6.5q77 0 153.5 -5.5
t151.5 -25.5q17 -5 34 -23.5t23 -34.5z" />
    <glyph glyph-name="emdash" unicode="&#x2014;" horiz-adv-x="1095" 
d="M1057 451q3 -6 6 -14.5t1 -16.5q-5 -10 -19 -10q-103 20 -209 24.5t-211 4.5q-130 0 -259 -6.5t-259 -22.5q-12 0 -25.5 6.5t-24.5 16.5t-18.5 23t-8.5 25q0 5 2 11.5t9 7.5q132 16 263.5 22.5t264.5 6.5q107 0 214 -4.5t213 -24.5q20 -4 35.5 -18t25.5 -31z" />
    <glyph glyph-name="quoteleft" unicode="&#x2018;" horiz-adv-x="171" 
d="M124 800q-8 -14 -10.5 -31t10.5 -36t13 -36t-6.5 -30t-18 -21t-21.5 -10q-5 -2 -9 -2h-10q-23 0 -32 12t-10 29t4 34.5t9 29.5q3 10 11.5 27t19.5 34q11 16 23.5 28t25.5 12q9 0 17 -6q4 -3 -2.5 -12t-13.5 -22z" />
    <glyph glyph-name="quoteright" unicode="&#x2019;" horiz-adv-x="171" 
d="M117 709q-8 -18 -19.5 -34.5t-24 -28.5t-25.5 -12q-9 0 -17 6q-4 3 3 12t14.5 22.5t10 31t-10.5 36.5t-13 35.5t6.5 29.5t18.5 22q11 8 21 10q5 1 10 1h8q23 0 32.5 -12t10 -28.5t-4 -34.5t-8.5 -29q-4 -10 -12 -27z" />
    <glyph glyph-name="quotesinglbase" unicode="&#x201a;" horiz-adv-x="171" 
d="M132 72q9 -12 9.5 -29t-4 -35t-8.5 -29q-4 -10 -12 -27.5t-19 -34t-24 -28.5t-25 -12q-5 0 -10 2t-8 4q-4 3 3 12t14.5 22.5t10 31t-10.5 36.5t-13 35.5t7 29.5q6 13 17.5 21.5t21.5 10.5q5 1 9.5 1.5t8.5 0.5q23 0 33 -12z" />
    <glyph glyph-name="quotedblleft" unicode="&#x201c;" horiz-adv-x="292" 
d="M98 828q12 12 25 12q9 0 17 -6q4 -3 -2.5 -12t-14 -22.5t-10 -30.5t10.5 -36t13 -36t-6.5 -30t-18 -21t-21.5 -10q-5 -2 -9 -2h-10q-23 0 -32 12t-10 29t4 34.5t9 29.5q3 10 11.5 27t19.5 33.5t24 28.5zM155 710q4 17 8 29q4 10 12 27t19 33.5t23.5 28.5t25.5 12
q9 0 17 -6q5 -3 -2 -12t-14.5 -22.5t-10 -30.5t10.5 -36t13 -36t-6.5 -30t-18 -21t-21.5 -10q-5 -2 -9 -2h-10q-23 0 -32 12t-9.5 29t4.5 35z" />
    <glyph glyph-name="quotedblright" unicode="&#x201d;" horiz-adv-x="292" 
d="M155 652q6 9 13.5 22.5t10 31t-10.5 36.5t-13 35.5t6.5 29.5t18 21.5t21.5 10.5q5 1 10 1h9q23 0 32 -12t9.5 -28.5t-4 -34.5t-8.5 -29q-4 -10 -12 -27.5t-19 -34t-23.5 -28.5t-25.5 -12q-9 0 -17 6q-4 3 3 12zM48 634q-9 0 -17 6q-4 3 3 12t14.5 22.5t10 31t-10.5 36.5
t-13 35.5t6.5 29.5t18 21.5t21.5 10.5q5 1 10 1h8q23 0 32.5 -12t10 -28.5t-4 -34.5t-8.5 -29q-4 -10 -12 -27.5t-19.5 -34t-24 -28.5t-25.5 -12z" />
    <glyph glyph-name="quotedblbase" unicode="&#x201e;" horiz-adv-x="292" 
d="M31 -117q-4 3 3 12t14.5 22.5t10 31t-10.5 36.5t-13 35.5t6.5 29.5t18 21.5t21.5 10.5q5 1 9.5 1.5t8.5 0.5q23 0 32.5 -12t10 -29t-4 -35t-8.5 -29q-4 -10 -12 -27.5t-19 -34t-24 -28.5t-25 -12q-5 0 -10 2t-8 4zM155 -105q6 9 13.5 22.5t10.5 30.5q2 18 -11 37
t-13 35.5t6.5 29.5t18 21.5t21.5 10.5q5 1 9.5 1.5t9.5 0.5q23 0 32 -12t9.5 -29t-4 -35t-8.5 -29q-4 -10 -12 -27.5t-19 -34t-23.5 -28.5t-25.5 -12q-5 0 -9.5 2t-7.5 4q-4 3 3 12z" />
    <glyph glyph-name="dagger" unicode="&#x2020;" horiz-adv-x="727" 
d="M664 721q1 -1 2 -6.5t-4 -3.5q-52 17 -114.5 23t-116.5 6q-9 0 -18.5 -0.5t-18.5 -0.5q-38 -198 -62 -395t-36 -398q0 -6 -5 -7.5t-10 -1.5q-10 0 -18.5 5.5t-16.5 10.5q-14 11 -25.5 27.5t-10.5 35.5q21 361 84 718q-38 -4 -75 -9t-74 -13l-4 -1q-8 0 -19.5 7.5t-22 18
t-19.5 21.5t-13 18q-1 0 -5 8.5t-1 9.5q62 14 124 20.5t125 8.5q11 55 22.5 109.5t24.5 109.5q1 10 12 10q9 0 19 -5t19 -13t16.5 -16.5t11.5 -16.5q4 -6 7 -14t1 -15q-9 -38 -17 -75t-16 -75q46 -2 91 -7.5t89 -19.5q9 -3 20 -11.5t22 -19t20 -22.5t12 -21z" />
    <glyph glyph-name="daggerdbl" unicode="&#x2021;" horiz-adv-x="815" 
d="M624 167q-56 14 -112.5 16t-113.5 2q-6 -60 -10.5 -118.5t-8.5 -118.5q0 -7 -6 -7q-8 0 -21 9t-25.5 21.5t-21.5 26t-9 23.5q5 80 12 159q-44 -3 -86.5 -8.5t-84.5 -15.5q-6 -1 -13 4.5t-12 8.5q-9 7 -16.5 15t-15.5 16q-2 2 -7 8t-8.5 13t-4.5 13t6 7q61 14 124 20
t126 8q23 234 63 465q-41 -3 -80.5 -8.5t-79.5 -14.5q-2 0 -3 -0.5t-3 -0.5q-11 0 -23.5 7.5t-23 18.5t-17.5 23.5t-8 22.5q0 5 2.5 10.5t8.5 7.5q60 14 121.5 20.5t123.5 8.5q11 54 22 108.5t24 108.5q1 7 7 7q7 0 16.5 -6.5t19 -15t17.5 -17.5t12 -15q2 -4 7.5 -12.5
t3.5 -13.5l-32 -144q51 -2 102 -8t100 -23q19 -6 34.5 -23t21.5 -35q2 -5 2.5 -12.5t-4.5 -12.5q-4 -5 -11 -5q-4 0 -8 1t-6 2q-60 20 -122.5 23t-125.5 3q-23 -118 -40 -234.5t-31 -235.5q48 -2 96.5 -8t94.5 -21q7 -3 15.5 -9t16.5 -14t15 -16t11 -14q2 -3 5 -8t5 -10
t1.5 -8.5t-5.5 -3.5q-4 0 -6 1q-10 4 -23 7l-3 1q-3 0 -5 1z" />
    <glyph glyph-name="bullet" unicode="&#x2022;" horiz-adv-x="367" 
d="M215 434q8 0 17.5 -6t19 -14.5t17 -17.5t11.5 -15q13 -20 20.5 -42t6.5 -47q-1 -24 -12.5 -53t-29.5 -54.5t-41 -42.5t-49 -17q-15 0 -31 9t-30.5 22.5t-26 29t-16.5 27.5q-16 33 -10 70t22 69q13 26 36 48.5t54 22.5q23 0 43 -17q-2 3 -4 8t-3 9.5t0 7.5t6 3z" />
    <glyph glyph-name="ellipsis" unicode="&#x2026;" 
d="M727 83q8 23 27.5 36.5t41.5 13.5q5 0 8.5 -0.5t8.5 -1.5q26 -8 36.5 -31.5t0.5 -49.5q-8 -23 -27.5 -36.5t-41.5 -13.5h-8q-4 0 -9 2q-26 7 -36.5 31t-0.5 50zM418 2q-26 7 -36.5 31t-0.5 50q8 23 27.5 36.5t41.5 13.5q5 0 8.5 -0.5t8.5 -1.5q25 -8 36 -31.5t1 -49.5
q-9 -23 -28.5 -36.5t-41.5 -13.5h-8q-4 0 -8 2zM35 83q8 23 27.5 36.5t41.5 13.5q5 0 8.5 -0.5t7.5 -1.5q26 -8 37 -31.5t1 -49.5q-9 -23 -28.5 -36.5t-41.5 -13.5h-8q-4 0 -8 2q-25 7 -36 31t-1 50z" />
    <glyph glyph-name="perthousand" unicode="&#x2030;" horiz-adv-x="944" 
d="M185 767q-3 7 -2.5 12.5t7.5 6.5q41 4 80 12.5t79 13.5q45 6 79 6q57 0 88 -13t44.5 -30.5t12.5 -36t-7 -29.5q-22 -38 -44.5 -75.5t-44.5 -75.5q-63 -110 -123 -221t-114 -226q33 33 73 72t75.5 72.5t62 56.5t32.5 24t13 -4t12 -9q11 -7 19 -16q35 29 75.5 45.5
t86.5 16.5q26 0 54 -5.5t54 -17.5t47.5 -30t34.5 -42q2 -3 4 -8.5t0 -9.5q-1 -4 -6 -4q-2 0 -3 1q1 -1 -2 -0.5t-5 0.5q-12 0 -23 -3q-3 -1 -5.5 -2t-5.5 -3q19 -10 33 -26t24 -33q14 -23 20.5 -50t2.5 -54q-3 -20 -13 -42t-25 -40t-34.5 -30t-42.5 -12q-19 0 -38.5 11.5
t-36.5 28.5t-29 37t-17 36q-4 16 -5 32.5t0 32.5q1 21 5.5 46t13 50t20.5 47t28 37q-16 9 -36 16t-43 7q-26 0 -54.5 -12.5t-57.5 -44.5q3 -5 6.5 -11t5.5 -12q17 -8 32.5 -21.5t27.5 -28.5q35 -42 34 -93q-1 -19 -8 -49t-20.5 -58.5t-33 -48.5t-45.5 -20q-13 0 -24 5
t-21 12q-37 25 -64 64t-31 84q-2 15 0 30.5t5 30.5q8 46 24 89q0 3 -1 3q-6 0 -33.5 -23t-64 -60t-76 -82t-70.5 -90q0 -1 -0.5 -1t-0.5 -1h-1q-2 0 -3 4q-8 5 -13 11.5t-10 13.5q-1 0 1 5q5 13 24.5 58t48.5 108.5t63.5 138t69 148t65.5 138t53 106.5q1 2 4.5 11.5t2 20.5
t-12 20t-37.5 9q-23 0 -59 -8.5t-91 -29.5q-13 -5 -13 -12.5t6.5 -17.5t16.5 -21.5t17 -23.5q9 -16 16 -32.5t10 -34.5q5 -26 3 -51t-9 -50q-14 -47 -41 -90.5t-66 -73.5q-14 -11 -32 -20t-38 -9q-16 0 -32 7t-30 18t-25.5 24t-20.5 26q-15 23 -22 49.5t-4 53.5
q3 30 16.5 67t35.5 69t51.5 54t62.5 22q36 0 65 -26q0 2 -0.5 3t-0.5 3q0 1 -1.5 4t-1.5 4q-20 7 -35 20q-15 12 -26 29q-1 2 -5 8t-7 13zM187 582q-23 -24 -39 -53.5t-25 -61t-9 -59.5q2 1 5 1.5t5 1.5q27 12 51.5 36t43 53.5t31 62t15.5 60.5h-5q-13 -1 -25 -6
q-26 -12 -48 -35zM513 43q10 10 18.5 22.5t15 26t10.5 25.5t9.5 29t6.5 34q1 16 -6.5 28.5t-28.5 14.5q-21 -36 -33.5 -84t-15.5 -89v-17q0 -3 1 -5q12 5 23 15zM755 49q23 11 40 32t27 44q11 26 9 54v10l-1 2q-1 5 -2 10.5t-3 10.5l-1 1q-2 4 -4 7.5t-4 7.5q-1 1 -1 2
q-15 -15 -26.5 -36.5t-18.5 -45.5t-11 -48t-4 -45v-6z" />
    <glyph glyph-name="guilsinglleft" unicode="&#x2039;" horiz-adv-x="469" 
d="M36 341q5 10 11.5 18.5t14.5 16.5q27 31 56 60l58 58q47 46 92 93t90 96q2 2 5 2q8 0 19 -7.5t21.5 -18t19 -21.5t11.5 -17q2 -4 4.5 -10t-1.5 -11q-63 -68 -127 -133t-130 -131l-44 -48q-5 -5 -8.5 -10t-7.5 -10q26 -18 65 -49.5t77.5 -66t70 -68t43.5 -56.5
q2 -3 4.5 -9.5t-1.5 -10.5q-2 -2 -5 -2q-11 0 -25.5 11.5t-21.5 19.5q-32 35 -65 67l-9 9q-14 14 -28.5 26t-29.5 25l-2 2q-10 8 -19.5 14.5t-19.5 14.5q-16 11 -33 22t-33 23.5t-29.5 27t-22.5 32.5q-11 21 0 41z" />
    <glyph glyph-name="guilsinglright" unicode="&#x203a;" horiz-adv-x="469" 
d="M433 391q11 -21 0 -41q-5 -10 -11.5 -19t-14.5 -17q-27 -31 -56 -59.5t-58 -57.5q-47 -47 -92 -93.5t-90 -95.5q-2 -2 -5 -2q-8 0 -19 7.5t-21.5 18t-19 21t-11.5 17.5q-2 3 -4.5 9.5t1.5 10.5q27 30 54.5 59.5t56.5 58.5q36 37 72.5 73t73.5 74q11 12 22 23.5t22 24.5
q5 5 8.5 10t7.5 10q-26 18 -65 49.5t-77.5 66t-70 68t-43.5 55.5q-2 4 -4.5 10.5t1.5 10.5q2 2 5 2q11 0 25.5 -12t21.5 -19q32 -36 67 -70l1 -1q2 -2 3.5 -3t2.5 -2q14 -14 28.5 -26t29.5 -25l2 -2q10 -8 19.5 -15t19.5 -14q16 -11 33 -22.5t33 -24t29.5 -26.5t22.5 -32z
" />
    <glyph glyph-name="fraction" unicode="&#x2044;" horiz-adv-x="1060" 
d="M1015 1077q4 -12 4 -14q4 -12 6.5 -25.5t3.5 -26.5q1 -5 1 -12.5t-4 -11.5q-253 -237 -498 -481.5t-469 -510.5q-1 -2 -3 0t-4.5 6t-4.5 7.5t-2 4.5q-5 9 -8.5 19t-6.5 21q-1 2 22 30.5t63.5 75.5t95 110t117 134.5t130.5 147.5t134.5 151t129 144t115 126t91.5 98.5
t59 59.5q3 3 8 -6.5t10.5 -22t9.5 -24.5z" />
    <glyph glyph-name="Euro" unicode="&#x20ac;" horiz-adv-x="1120" 
d="M234 253q0 10 1 21q-10 -4 -20 -7.5t-20 -8.5q-3 -2 -9 -2q-9 0 -20 6.5t-20.5 16.5t-17.5 20.5t-11 18.5q-2 2 -4.5 11t2.5 11q35 17 71 28t74 19q4 13 8 25.5t9 24.5q-40 -9 -86.5 -24.5t-80.5 -38.5q-1 -1 -2 -1q-6 0 -16.5 9t-21.5 20t-20.5 22t-12.5 15q0 1 -4.5 8
t-1.5 9q27 19 65 33t79 24.5t82 17t72 9.5q27 44 69 91.5t92.5 88t105.5 66.5t109 26q9 0 18 -1t18 -3q18 -4 38.5 -17.5t39.5 -31t34 -37t22 -34.5q14 -32 6.5 -63.5t-24.5 -59.5q-2 -3 -9 2t-15 11.5t-15 13.5l-8 8q-7 7 -14 15t-12 16q-1 1 -5 7t-2 9q10 16 17 32.5
t9 34.5q1 3 1 7v6q-6 1 -12 1h-12q-41 0 -85 -17.5t-85 -44.5t-76.5 -59.5t-61.5 -62.5q39 -2 75 -7t68.5 -16.5t61.5 -31.5t54 -51q2 -2 8.5 -10t5.5 -13q0 -4 -3 -4q-2 0 -3 1t-3 2q-24 14 -52.5 23.5t-59 15t-61 7.5t-57.5 2q-25 0 -49.5 -1.5t-48.5 -3.5
q-8 -13 -15 -25.5t-14 -26.5q14 2 28 2h27q29 0 64.5 -3.5t68.5 -14t61 -29.5t42 -49q2 -4 4 -11t-3 -11q-1 -2 -7 -2q-7 0 -15 4q-5 3 -10.5 5.5t-10.5 4.5q-39 14 -76 17q-1 0 -4.5 0.5t-4.5 0.5q-11 1 -21 1.5t-21 0.5q-42 0 -82.5 -5.5t-80.5 -13.5q-16 -47 -22 -102
q-2 -16 -2.5 -31t1.5 -31q3 -34 18 -62l2 -4l5 -4q1 -1 3 -2l2 -2q11 -8 23.5 -16t26.5 -13q31 -14 65.5 -21t68.5 -7q51 0 104 14t103 37.5t95.5 54.5t82.5 65q12 11 28 27t30 34t25 37t13 36v9q-1 2 -1 5q-4 8 1 8q8 -3 13 -8l9 -7q6 -4 13.5 -11.5t15 -16t14 -16.5
t9.5 -14q2 -5 4 -9.5t2 -9.5q1 -25 -13.5 -48t-28.5 -41q-37 -47 -89.5 -88.5t-112 -72.5t-122.5 -49t-122 -18q-49 0 -91.5 12.5t-80.5 34.5t-72 52t-64 65q-29 34 -43.5 66t-16.5 77v21z" />
    <glyph glyph-name="trademark" unicode="&#x2122;" horiz-adv-x="839" 
d="M378 451q9 62 22 125t26.5 114.5t25 84t17.5 31.5q18 -6 25 -22.5t4 -35.5q-2 -12 -8 -33.5t-12 -43.5t-9.5 -38t-2.5 -16t4 6q14 27 26.5 55t26.5 55q2 4 10.5 20t18.5 33.5t18 32t10 15.5q2 2 5 0q7 -2 15 -11t10 -16q2 -3 2 -10q0 -3 -1 -6.5t-2 -6.5
q-3 -14 -6.5 -27.5t-6.5 -27.5q-5 -19 -9.5 -37.5t-8.5 -37.5q-6 -27 -11 -54q-5 -26 -6 -53q5 8 10 15t10 15q14 21 26.5 42.5t25.5 43.5l57 99q13 20 26 40.5t27 40.5q9 13 20 26q4 3 8 6.5t9 4.5q2 0 5 -2t5 -4q7 -5 13 -13t6 -16q0 -2 -1 -3q-25 -60 -47 -122.5
t-32 -126.5q-8 -52 -4 -81.5t11.5 -43.5t15 -18t7.5 -5q0 -3 -3 -3q-2 0 -3 1h-1q-1 -1 -5 -1q-7 0 -19 2.5t-24 12t-21 29t-9.5 53.5t10.5 86t39 126q-30 -32 -56 -75.5t-45.5 -83t-31 -68t-13.5 -29.5q-4 -2 -8 -2q-22 0 -39.5 14.5t-21.5 35.5q-1 9 3.5 36.5t11 57.5
t12.5 56.5t8 34.5q-35 -58 -54.5 -114t-31.5 -100t-21 -71.5t-22 -27.5q-2 0 -2.5 0.5t-2.5 0.5q-8 4 -20.5 14t-10.5 21zM134 747h-1q-2 1 -2.5 1t-2.5 1t-3.5 1t-3.5 1q-8 2 -14 2q-11 0 -22.5 -3.5t-20.5 -8.5q-2 -2 -4 -0.5t-4 2.5q-7 4 -13.5 11.5t-10.5 14.5
q-1 2 -1 4q-2 4 0 4q26 17 57 30t64 23.5t66 18t63 13.5h2q35 6 69 10t69 4q14 0 26.5 -1t25.5 -4q20 -5 41.5 -20.5t24.5 -37.5q0 -2 -2 -2q-6 0 -13.5 7.5t-10.5 12.5l-5 1q-1 0 -1 1h-3q-14 3 -28 4t-28 1q-29 0 -58.5 -2.5t-58.5 -7.5q-1 -3 -10.5 -25.5t-23 -58
t-29 -80.5t-29.5 -92q-15 -48 -26 -95.5t-15 -86.5q0 -2 -3 -2q-11 0 -21.5 9t-15.5 17q-1 2 -3 5.5t-2 5.5q1 14 3 27.5t4 27.5q4 35 6 69t0 69q-1 27 -4.5 54.5t-13.5 53.5q-1 1 -1 2v1l-1 2q-1 2 -1.5 3.5t-2.5 3.5l-3 5v1q-2 0 -4 2q-1 0 -1 1zM175 711q16 -37 21 -77
q14 46 28.5 91t33.5 89q-34 -8 -67 -18t-65 -23q33 -25 49 -62z" />
    <glyph glyph-name="minus" unicode="&#x2212;" horiz-adv-x="695" 
d="M480 603q65 -6 127 -26q19 -6 34.5 -23.5t21.5 -34.5q2 -6 2.5 -13.5t-4.5 -12.5q-4 -4 -12 -4t-14 3l-12 3q-4 3 -10 3q-49 14 -104.5 17t-106.5 3q-75 0 -147.5 -6.5t-147.5 -21.5q-1 -1 -5 -1q-11 0 -23.5 7.5t-23 18t-17.5 23t-8 22.5q0 6 2 12q2 5 9 7
q76 16 153.5 22.5t155.5 6.5q65 0 130 -5z" />
    <glyph glyph-name="uniE905" unicode="&#xe905;" horiz-adv-x="2914" 
d="M1368 -80q-210 -19 -395.5 -51.5t-339.5 -77t-263 -95t-166 -104.5t-49 -107q-4 -6 -14 -6q-22 0 -41 13t-33 27q-8 8 -16.5 19t-14 23t-6.5 24.5t6 23.5q20 34 57 63.5t80 54t87.5 44t80.5 33.5q146 55 314 92.5t342.5 60t347 32.5t326.5 10q306 0 607.5 -37t594.5 -125
q7 -2 9 -7.5t1 -11.5t-5.5 -10.5t-10.5 -4.5q-2 0 -4 1q-255 72 -525.5 103.5t-538.5 31.5q-221 0 -431 -19z" />
    <glyph glyph-name="uniF004" unicode="&#xf004;" horiz-adv-x="724" 
d="M217 218q-26 0 -48.5 14.5t-39.5 31.5q-41 -74 -59 -157q-5 -19 -7.5 -38.5t0.5 -38.5q2 -8 4 -15.5t4 -15.5q0 -1 1 -2q0 -3 2 -7q11 -3 22 -5t23 -2q9 0 18 1t18 3q51 10 105 38.5t107 69t101 91t86.5 105t64.5 110t35 106.5q6 35 3 70q-2 11 -4 20t-5 20q0 2 -1 3
q-3 9 -10 22l-1 2q-32 24 -70.5 37.5t-80 19.5t-83.5 7.5t-80 1.5q-94 -2 -185 -17t-184 -26q-26 -3 -52 -5.5t-52 -2.5q-48 0 -91 11.5t-81 44.5q-14 12 -28.5 27t-22.5 32q-2 3 -2.5 6.5t4.5 3.5t11.5 -4.5t10.5 -8.5q5 -4 6 -4q3 -2 7 -4q3 -2 6.5 -3t6.5 -3
q26 -6 49.5 -10t49.5 -4q18 0 36.5 1t36.5 3q51 5 100 12.5t100 15.5q57 8 114.5 13.5t116.5 5.5q35 0 72 -3t74 -10t72.5 -18.5t65.5 -29.5q26 -15 52 -36t48.5 -46.5t40 -53.5t26.5 -57q6 -19 8 -38.5t1 -39.5q-3 -57 -30.5 -120.5t-70.5 -126t-98 -119.5t-114.5 -100.5
t-120 -69.5t-113.5 -26q-19 0 -37.5 4t-35.5 14q-24 13 -48 35t-44 49t-32.5 56.5t-13.5 58.5q-1 18 2 36.5t7 35.5q10 45 31.5 99t53.5 100t74.5 77t94.5 31q17 0 34 -8.5t32.5 -21t28 -27.5t20.5 -29q6 -10 10 -21t3 -23q-1 -27 -15.5 -53.5t-36.5 -47.5t-49 -34t-54 -13z
M283 408q-44 -12 -75.5 -41t-55.5 -65q21 2 41 11.5t37.5 24t31.5 33.5q13 18 21 37z" />
    <glyph glyph-name="uniF00B" unicode="&#xf00b;" horiz-adv-x="792" 
d="M447 533q19 0 34 -1.5t26 -6.5q20 -8 28 -27.5t8 -45t-5.5 -54t-13.5 -55.5t-16 -48.5t-12 -33.5q-14 -41 -25 -83.5t-13 -85.5q11 10 21.5 21t19.5 22q42 51 77.5 105t72.5 108q17 24 34 47.5t37 44.5q13 14 28.5 26.5t35.5 14.5q6 1 12.5 -4t11.5 -8q9 -6 17 -13.5
t15 -15.5q2 -2 6.5 -8t8.5 -13t5 -12.5t-5 -5.5q-2 -1 -5 -1q-20 -7 -36.5 -24t-29.5 -32q-17 -20 -32.5 -41.5t-30.5 -43.5q-32 -48 -63.5 -95.5t-67.5 -92.5q-7 -8 -18.5 -21.5t-24.5 -26t-27 -21.5t-25 -9q-16 0 -31 10t-26 19q-29 25 -45 51t-18 64q-1 27 3 54.5
t11 53.5q7 32 17.5 62.5t21.5 61.5q3 8 8.5 26t2.5 37t-20.5 33t-61.5 14q-20 0 -45 -3t-57 -11q37 -23 63 -61t30 -82q3 -29 -1.5 -57.5t-12.5 -55.5q-10 -33 -26.5 -70.5t-40.5 -69.5t-55.5 -53.5t-70.5 -21.5q-27 0 -53 14t-46 35.5t-33.5 48t-16.5 51.5q-3 29 1.5 57.5
t12.5 55.5q3 12 12 36.5t22 49.5t28 44t31 19q10 0 22.5 -8t24.5 -19.5t21 -24t12 -21.5q1 -2 1.5 -8t-5.5 -4h-7q-16 -7 -31 -30.5t-27 -51.5t-20 -55.5t-11 -42.5q-6 -31 -5 -58q41 1 73.5 28t56.5 66t39 82.5t20 77.5q2 15 3.5 30.5t-0.5 31.5q-21 0 -39.5 -5.5
t-38.5 -14.5q-1 -1 -5 -1q-8 0 -18.5 7.5t-21 18t-19 21.5t-11.5 17q-1 1 -5 9t1 10q18 9 36 15l4 1q29 11 67.5 21t79 18t80 13t71.5 5z" />
    <glyph glyph-name="uni0000" horiz-adv-x="0" 
 />
    <glyph glyph-name="uni000D" horiz-adv-x="250" 
 />
    <glyph glyph-name="uni0000.1" horiz-adv-x="0" 
 />
    </font>
</defs>
</svg>
