<?xml version="1.0" standalone="no"?>
<!DOCTYPE svg PUBLIC "-//W3C//DTD SVG 1.1//EN" "http://www.w3.org/Graphics/SVG/1.1/DTD/svg11.dtd" >
<svg xmlns="http://www.w3.org/2000/svg" xmlns:xlink="http://www.w3.org/1999/xlink" version="1.1">
<metadata>
Created by FontForge 20170731 at Mon Jan 25 15:49:24 2021
 By Aleksey,,,
Wild Love (c) (MJB Letters). 2019. All Rights Reserved
</metadata>
<defs>
<font id="WildLove" horiz-adv-x="368" >
  <font-face 
    font-family="Wild Love"
    font-weight="400"
    font-style="italic"
    font-stretch="normal"
    units-per-em="1000"
    panose-1="2 0 5 0 0 0 0 9 0 0"
    ascent="800"
    descent="-200"
    x-height="423"
    cap-height="733"
    bbox="-5860 -387 1394 998"
    underline-thickness="50"
    underline-position="-150"
    slope="-12"
    unicode-range="U+001D-E093"
  />
<missing-glyph horiz-adv-x="60" 
 />
    <glyph glyph-name="e_e" unicode="ee" horiz-adv-x="430" 
d="M289 111q-88 0 -88 129l1 29q-19 -48 -49 -92.5t-76 -50.5q-83 0 -83 119q0 59 21 107q34 65 81 65q2 0 26.5 -0.5t24.5 -74.5q-1 -24 -15.5 -43t-41.5 -19q-21 0 -36 13q-8 -34 -8 -71q0 -21 5 -45q5 -33 37 -33q56 0 112 147q5 13 9 21v1q6 25 14 43q34 70 87 70
q56 0 56 -74q0 -30 -16.5 -52.5t-45.5 -22.5q-22 0 -39 15q-9 -41 -9 -82q0 -20 5 -46q7 -34 39 -34q48 0 92 89q22 45 40 93q2 2 5 2q6 0 6 -5v-2q-6 -13 -12 -29q-21 -54 -54.5 -107t-87.5 -60zM307 289q23 2 35 18.5t12 41.5q0 57 -28 57q-24 0 -47 -59q-9 -29 -11 -41
q14 -17 35 -17h4zM93 291q21 2 32 17t11 38q0 54 -25 54q-31 0 -55 -94q15 -15 33 -15h4z" />
    <glyph glyph-name="f_f" unicode="ff" horiz-adv-x="355" 
d="M62 -294q-32 0 -52 43q-30 69 -30 229q0 83 4 138v9h-16q-9 0 -9 6q0 9 26 9q1 25 7 91q14 172 53 280q34 78 75 78q28 0 28 -57q0 -35 -20 -97q-30 -93 -76 -163q-5 -59 -9 -128q59 16 91.5 62.5t52.5 102.5q0 1 1 1q12 93 38 166q31 71 68 71q24 0 24 -52
q0 -34 -18 -88q-26 -84 -68 -147q-5 -54 -8 -116q53 15 82.5 57t48.5 108q1 4 4 4q6 0 6 -4l-1 -4q-20 -70 -51.5 -113.5t-89.5 -58.5v-7q24 -13 43 -37q64 -75 64 -188q0 -128 -78 -152l-11 -1q-29 0 -46 39q-28 62 -28 203q0 70 3 129v8h-14q-8 0 -8 5q0 9 23 9
q1 33 11 126q-47 -113 -139 -135l-1 -8q66 -38 100 -133q19 -52 19 -115q0 -143 -86 -169zM234 283q34 58 56 127q19 58 19 96q0 23 -9 23q-3 0 -10 -6q-15 -16 -27 -55q-25 -101 -29 -185zM54 297q38 64 62 141q21 63 21 107q0 25 -9 25q-5 0 -12 -8q-17 -18 -29 -60
q-22 -86 -33 -205zM86 -268q21 0 39 38q23 49 23 119q0 50 -17 98q-32 86 -89 124q-3 -56 -3 -141q0 -238 47 -238zM263 -228q19 0 35 35q20 44 20 110q0 97 -60 165q-16 20 -35 32q-2 -34 -2 -128q0 -199 39 -214h3z" />
    <glyph glyph-name="g_g" unicode="gg" horiz-adv-x="566" 
d="M-15 -376q-11 0 -51.5 9t-69.5 84q-10 27 -10 57q0 53 33 117q31 53 81 94q79 65 174 65h22q8 99 8 182q0 30 -1 58q-8 -37 -22 -78.5t-33.5 -71.5t-43.5 -30q-37 0 -56 33q-23 39 -23 99q0 37 10 78.5t32.5 73t54.5 32.5q58 -4 77 -81q0 -5 -1 -6t-2 -1q-7 0 -8 4
q-4 14 -13 30q-15 26 -32 26q-35 0 -50 -87q-7 -41 -7 -81q0 -16 2 -50.5t24 -43.5q22 0 41 40q33 74 49 161l-3 65q0 11 12.5 17t23.5 6q3 0 11.5 -1t10.5 -19q4 -41 5 -145q0 -122 -9 -228l5 -4q29 -19 42 -56q76 76 185 76l9 -1q8 92 8 169q0 23 -1 45q-39 -160 -89 -160
q-33 0 -49 29q-20 33 -20 85q0 86 37 138q20 28 48 29q28 -2 45 -24q24 -32 24 -50q0 -4 -3 -4q-6 0 -7 3q-4 13 -12 28q-13 22 -28 22q-30 0 -45 -77q-6 -36 -6 -70q0 -15 2 -46.5t21 -40.5q20 0 36 36q26 56 45 144l-3 58q0 9 10.5 15t20.5 6q3 0 11 -1.5t10 -17.5
q3 -36 4 -128q0 -111 -8 -204l5 -3q44 -29 44 -99q-1 -8 -6 -8t-5 15q0 57 -39 83q-5 -54 -31.5 -139.5t-74.5 -150.5q-52 -61 -104 -61q-10 0 -45.5 8t-61.5 75q-9 24 -9 50q0 83 73 162v1q-11 36 -39 54l-1 1q-4 -62 -34 -158t-84 -169q-58 -68 -116 -68zM-32 -342
q48 0 96 62q47 72 70.5 167.5t28.5 150.5l-21 1q-90 0 -167 -63q-48 -40 -78 -91q-27 -60 -27 -107q0 -26 15.5 -68.5t69.5 -50.5q6 -1 13 -1zM287 -302q43 0 86 55q42 64 63 149.5t25 134.5h-19q-30 0 -61 -9q-66 -20 -109 -67q4 -20 4 -44q-1 -9 -6 -9q-6 0 -6 9
q0 18 -2 34q-62 -68 -62 -147q0 -23 14 -60.5t62 -44.5z" />
    <glyph glyph-name="l_l" unicode="ll" horiz-adv-x="374" 
d="M65 105h-3q-34 0 -51 47q-13 49 -13 113q0 76 13 208q-114 30 -114 208q0 26 2 54q0 5 6 5q5 0 5 -6q-2 -26 -2 -49q0 -170 104 -201q3 41 16.5 124.5t39 172.5t66.5 147q35 49 82 49q76 0 84 -131q43 84 95 84q74 0 77 -129q0 -43 -13 -99q-21 -83 -62 -136
q-60 -77 -131 -88l-3 -33q-12 -140 -12 -199l1 -39q1 -40 20 -40q17 0 39 29t37.5 59.5t24.5 52.5l3 6t4 2q5 -2 5 -5l-7 -20q-10 -26 -41 -79q-35 -59 -76 -59q-55 0 -58 129q-66 -169 -138 -177zM70 482q45 8 83 39q-40 46 -40 143q0 53 5 53l2 1q5 0 5 -5q-2 -25 -2 -47
q0 -95 38 -139q40 33 71 88q18 106 56 205l1 13q-3 123 -57 127q-74 -4 -120 -206q-30 -133 -42 -272zM77 121q36 0 90 111q28 59 35 79h1q2 69 8 134l3 35q-30 8 -53 32q-43 -33 -92 -42l-3 -38q-14 -144 -14 -226l1 -42q1 -43 24 -43zM215 491q3 31 12 93q-26 -39 -58 -66
q20 -20 46 -27zM267 489q67 12 122 83q39 52 60 132q12 55 13 97q-3 110 -51 112q-66 -2 -107 -183q-28 -126 -37 -241z" />
    <glyph glyph-name="t_t" unicode="tt" horiz-adv-x="407" 
d="M75 105q-74 0 -74 193q0 82 15 212q-42 2 -66 13q-39 21 -39 55q0 12 6 23q12 22 33 22q8 0 8 -4q-1 -5 -11 -8t-15.5 -13t-5.5 -21q0 -6 2 -13q13 -40 89 -42q8 68 15 115.5t8 67.5q3 15 25 15q32 0 34 -19l-24 -174q44 7 106 27q20 7 53 16l15 116q1 14 24 14
q30 0 30 -17q-1 -17 -9 -67l-4 -34q17 3 41 3q22 0 48 -7t38 -38l1 -5q-1 -6 -7 -6t-9 8q-15 36 -76 36q-18 0 -38 -3q-29 -206 -29 -325q0 -14 1 -57t25 -49h2q22 0 43.5 27.5t40 65.5t29.5 62l7 18q2 2 5 2q5 -2 5 -5v-2l-7 -17q-67 -166 -130 -166q-65 0 -67 159
q-15 -35 -37 -78q-52 -100 -101 -100zM83 121q39 0 88 99q28 56 41 91q4 128 20 246q-28 -8 -45 -14q-66 -22 -113 -28q-23 -186 -23 -278q0 -26 2 -69q3 -47 30 -47z" />
    <glyph glyph-name="o_o" unicode="oo" horiz-adv-x="436" 
d="M54 96q-39 4 -55 38.5t-16 66.5q0 35 7 67l-1 2q-12 25 -12 53q0 50 39 81q23 19 48 19q11 0 36 -8t39 -80q5 -15 5 -58q0 -27 -4 -54q50 14 78 56q-8 20 -8 41q0 46 34 74q21 16 43 16q10 0 31.5 -7t34.5 -70q4 -12 4 -52q0 -24 -3 -48q60 18 83 77q1 3 4 3q2 0 4 -1
t2 -3v-2q-28 -68 -95 -85q-16 -99 -74 -101q-35 4 -49 34t-14 58q0 25 3 47q-30 -37 -81 -50q-5 -36 -24 -74t-59 -40zM77 124q28 0 48 84q-12 -2 -24 -2q-33 0 -59 13q-1 -7 -1 -15q2 -80 36 -80zM103 218q12 0 24 2q5 28 5 57q0 49 -4 53v4q-16 77 -64 77q-22 0 -46 -21
q-29 -25 -29 -70q0 -17 5 -33q16 61 39 61q16 0 28 -13q6 -7 6 -15q0 -6 -4 -14q-17 -33 -20 -74q26 -14 60 -14zM298 146q25 0 43 74l-20 -1q-28 0 -54 11l-1 -13q2 -71 32 -71zM320 229q11 0 23 2q4 24 4 50q0 42 -4 50q-13 69 -57 69q-19 0 -40 -18q-26 -23 -26 -62
q0 -15 5 -30q6 23 15 43q7 11 19 11q14 0 25 -12q5 -5 5 -12q0 -6 -4 -13q-14 -30 -17 -66q24 -12 52 -12z" />
    <glyph glyph-name="s_s" unicode="ss" horiz-adv-x="393" 
d="M10 -32q-38 0 -62 25q-17 17 -17 41q0 27 21 64q44 64 121 105q-19 28 -41 52q-30 37 -45 83q-9 27 -9 51q0 65 51 90q21 10 40 10q12 0 33 -7t22 -46q0 -7 -5 -7q-7 0 -7 9q-3 39 -41 39q-15 0 -35 -11t-25 -42v-3q0 -53 66 -128q26 -29 49 -62q58 29 81 75
q-20 39 -20 75q0 60 46 81q19 9 36 9q11 0 29.5 -6t19.5 -42q0 -6 -4 -6q-5 0 -7 8q-1 36 -36 36q-14 0 -32 -10q-22 -13 -22 -43q0 -46 58 -113q24 -26 44 -56q56 28 75 72q1 1 3 1q7 0 7 -5q-21 -48 -79 -76q20 -37 20 -77q0 -32 -13 -65q-42 -86 -118 -86q-33 0 -54 22
q-15 15 -15 37q0 24 19 57q37 56 108 96q-16 23 -36 45v1q-13 15 -22 32q-26 -44 -82 -72q22 -40 22 -84q0 -35 -15 -73q-46 -96 -129 -96zM9 -20q15 0 47.5 10t48.5 76q2 15 2 29q0 53 -27 99q-28 -15 -62 -42q-74 -59 -74 -117q0 -23 16 -37q21 -18 49 -18zM214 13
q14 0 43.5 9t43.5 69q2 13 2 25q0 49 -25 90q-24 -13 -55 -38q-67 -53 -67 -106q0 -20 14 -32q19 -17 44 -17z" />
    <glyph glyph-name=".notdef" horiz-adv-x="60" 
 />
    <glyph glyph-name="uni0000" horiz-adv-x="60" 
 />
    <glyph glyph-name="uni0000" horiz-adv-x="60" 
 />
    <glyph glyph-name="nonmarkingreturn" horiz-adv-x="333" 
 />
    <glyph glyph-name="space" unicode=" " horiz-adv-x="320" 
 />
    <glyph glyph-name="space" unicode="&#xa0;" horiz-adv-x="320" 
 />
    <glyph glyph-name="exclam" unicode="!" horiz-adv-x="121" 
d="M46 134q-12 0 -12 9l9 663q0 11 7.5 16t16.5 5t16.5 -5t7.5 -14l-34 -666q0 -8 -11 -8zM46 19q-7 0 -11.5 6.5t-4.5 16.5q0 9 4.5 15.5t11.5 6.5t12 -6.5t5 -15.5q0 -10 -5 -16.5t-12 -6.5z" />
    <glyph glyph-name="quotedbl" unicode="&#x22;" horiz-adv-x="159" 
d="M39 721q-9 0 -9 8l10 81q4 19 20 19q7 0 12.5 -4.5t5.5 -11.5q0 -4 -25 -83q-4 -9 -14 -9zM90 721q-9 0 -9 8l10 81q4 19 20 19q7 0 12.5 -4.5t5.5 -11.5q0 -4 -25 -83q-4 -9 -14 -9z" />
    <glyph glyph-name="numbersign" unicode="#" horiz-adv-x="534" 
d="M271 143q-5 0 -9 2.5t-4 7.5l37 176l-106 -3l-45 -176q-2 -7 -10 -7q-5 0 -9 2.5t-4 7.5l36 173l-105 -3q-11 0 -16.5 8t-5.5 17t5 16t14 8l117 -5l27 133l-116 -3q-11 0 -16.5 8t-5.5 17t5 16t14 8l128 -5l30 145q4 17 22 17q10 0 18.5 -5.5t8.5 -15.5l-37 -142l94 -4
l31 150q4 17 22 17q9 0 17.5 -6t8.5 -15q0 -4 -37 -148l115 -4q9 0 9 -12q0 -11 -8 -11l-124 -3l-37 -143l135 -5q9 0 9 -12q0 -11 -8 -11l-144 -3l-47 -180q-1 -7 -9 -7zM302 362l29 141l-97 -2l-34 -135z" />
    <glyph glyph-name="dollar" unicode="$" horiz-adv-x="309" 
d="M137 49q-11 0 -11 8v33q-60 24 -60 74q0 23 18 46q2 2 4 2q3 0 5 -3.5t2 -8.5t-2 -9q-8 -15 -8 -29q0 -32 33 -52q3 -3 8 -4l3 254q-34 42 -62 93q-33 59 -37 142q0 65 30.5 105t73.5 53v22q1 11 8 16.5t16 5.5t17 -5.5t8 -15.5l-1 -17q33 -3 59 -24q38 -33 38 -103
q0 -46 -18 -106q-5 -10 -11 -10q-8 0 -8 10l1 6q18 58 18 101q0 19 -3 35q-18 72 -77 74l-16 -337q43 -64 65 -102q27 -49 27 -100q0 -21 -6 -42q-12 -39 -40.5 -56.5t-57.5 -17.5h-3l-2 -29q0 -9 -11 -9zM151 102q24 1 44.5 16.5t27.5 47.5l2 21q0 42 -23 78q-17 27 -41 56
zM130 457l3 276q-26 -13 -44.5 -41t-18.5 -69q0 -14 3 -30q14 -70 57 -136z" />
    <glyph glyph-name="percent" unicode="%" horiz-adv-x="370" 
d="M44 78q-5 0 -9.5 3t-4.5 8l262 670q8 14 21 14q10 0 18.5 -6.5t8.5 -15.5q-2 -8 -288 -668q-3 -5 -8 -5zM77 542q-28 0 -28 44q0 26 11 56t30 52t44 22l10 -1q27 -6 27 -44q0 -35 -23.5 -75t-60.5 -53zM83 566l7 1q27 9 44.5 37.5t17.5 52.5q0 29 -28 32
q-27 0 -44.5 -32.5t-17.5 -59.5q0 -31 21 -31zM227 136q-28 0 -28 44q0 25 11 55.5t30 52.5t44 22l10 -1q27 -7 27 -44q0 -35 -23.5 -75.5t-60.5 -52.5zM232 160l8 1q27 8 44.5 36.5t17.5 53.5q0 29 -27 32q-28 0 -45.5 -32.5t-17.5 -59.5q0 -31 20 -31z" />
    <glyph glyph-name="ampersand" unicode="&#x26;" horiz-adv-x="537" 
d="M274 51q-63 1 -118 29.5t-90.5 80.5t-35.5 122q0 20 3 41q20 105 82 146.5t130 43.5q-100 70 -100 153q0 56 42 95t94 39q90 0 112 -103v-5q0 -14 -10 -14q-8 0 -13 15q-18 83 -82 83q-36 0 -68.5 -33.5t-32.5 -82.5q0 -75 89 -139q10 -8 10 -15q0 -12 -14 -13
q-66 -7 -113 -56q-63 -66 -63 -163q0 -60 25 -104t66 -69.5t98 -28.5q57 0 108.5 37.5t79.5 117.5q11 34 11 66q0 57 -29.5 100t-80.5 43q-29 0 -64 -17q-27 -16 -54 -88q-5 -7 -10 -7q-4 0 -6.5 2t-2.5 8q15 76 55 115.5t82 62.5q29 17 49.5 34.5t20.5 44.5l-2 19
q0 12 10 12q4 0 8.5 -4t4.5 -31q0 -25 -23.5 -56.5t-99.5 -78.5q18 3 34 3q44 0 73.5 -22.5t43.5 -59t14 -77.5q0 -38 -12 -76q-31 -89 -91.5 -129.5t-129.5 -40.5z" />
    <glyph glyph-name="quotesingle" unicode="'" horiz-adv-x="108" 
d="M39 721q-9 0 -9 8l10 81q4 19 20 19q7 0 12.5 -4.5t5.5 -11.5q0 -4 -25 -83q-4 -9 -14 -9z" />
    <glyph glyph-name="parenleft" unicode="(" horiz-adv-x="188" 
d="M148 35q-7 0 -14 8q-104 177 -104 374q0 123 32.5 224.5t71.5 166.5q6 9 14 9t10 -12q0 -5 -3 -12q-72 -183 -72 -386q0 -206 72 -351q3 -7 3 -12q0 -9 -10 -9z" />
    <glyph glyph-name="parenright" unicode=")" horiz-adv-x="187" 
d="M39 35q-9 0 -9 9q0 5 3 12q71 145 71 350q0 204 -71 387q-3 7 -3 13q0 11 10 11q7 0 14 -9q39 -64 71 -165.5t32 -224.5q0 -198 -104 -375q-6 -8 -14 -8z" />
    <glyph glyph-name="asterisk" unicode="*" horiz-adv-x="199" 
d="M149 692q-4 0 -8 3l-42 43l-44 -39q-5 -4 -10 -4q-6 0 -9.5 5t-3.5 10q0 7 6 12l46 26l-47 25q-7 6 -7 12q0 5 4.5 9.5t10.5 4.5q3 0 7 -2l39 -31l-2 49q1 14 13 14q5 0 10 -4t5 -10l-7 -48l37 29q5 3 9 3q6 0 9.5 -4.5t3.5 -10.5q0 -7 -6 -12l-48 -24l44 -30q6 -6 6 -11
q0 -6 -5 -10.5t-11 -4.5z" />
    <glyph glyph-name="plus" unicode="+" horiz-adv-x="287" 
d="M144 312q-12 0 -12 9v93h-94q-8 0 -8 12q0 11 7 11h95v95q0 8 12 8q11 0 11 -8v-95h93q9 0 9 -12q0 -11 -9 -11h-93v-93q0 -9 -11 -9z" />
    <glyph glyph-name="comma" unicode="," horiz-adv-x="118" 
d="M47 12l-3 2l-1 4q0 4 3 12q12 31 14 40q0 10 -12 10l-9 -1q-7 0 -9 9q5 28 39 28q19 0 19 -17q0 -25 -20 -61q-14 -26 -21 -26z" />
    <glyph glyph-name="hyphen" unicode="-" horiz-adv-x="288" 
d="M249 414h-211q-8 0 -8 11q0 12 8 12h211q9 0 9 -11q0 -12 -9 -12z" />
    <glyph glyph-name="hyphen" unicode="&#xad;" horiz-adv-x="288" 
d="M249 414h-211q-8 0 -8 11q0 12 8 12h211q9 0 9 -11q0 -12 -9 -12z" />
    <glyph glyph-name="period" unicode="." horiz-adv-x="122" 
d="M61 12q-12 0 -21.5 9t-9.5 22t9.5 22t21.5 9q13 0 22 -9t9 -22t-9 -22t-22 -9z" />
    <glyph glyph-name="slash" unicode="/" horiz-adv-x="412" 
d="M45 20q-5 0 -10 3.5t-5 7.5l304 786q8 14 21 14q10 0 18.5 -6.5t8.5 -15.5q-2 -8 -329 -784q-3 -5 -8 -5z" />
    <glyph glyph-name="zero" unicode="0" horiz-adv-x="495" 
d="M232 19q-52 0 -98 41.5t-75 123t-29 200.5q1 119 29 220q27 97 78 160t124 63h9q78 -3 139 -106q47 -87 54 -212l2 -50q0 -95 -23 -193q-33 -125 -90.5 -186t-119.5 -61zM231 42q54 0 106 57.5t82 171.5q22 89 22 187l-1 49q-7 120 -52 202q-45 78 -98 78q-11 0 -22 -3
q-67 -25 -113.5 -136.5t-61.5 -249.5q-5 -48 -5 -89q0 -90 20 -149.5t52.5 -88.5t70.5 -29z" />
    <glyph glyph-name="one" unicode="1" horiz-adv-x="231" 
d="M161 16q-13 0 -24 8.5t-11 24.5l4 700l-77 -125q-6 -8 -12 -8q-4 0 -7.5 3.5t-3.5 7.5t3 9l98 158q0 21 10 30.5t23 9.5q14 0 25.5 -9t11.5 -23l-5 -750q-1 -18 -11.5 -27t-23.5 -9z" />
    <glyph glyph-name="two" unicode="2" horiz-adv-x="425" 
d="M46 19q-13 0 -14 12q0 5 5 13q30 44 94 164.5t125 257.5q57 131 57 217q0 50 -17.5 75.5t-45.5 25.5q-33 0 -72 -36t-73 -108.5t-52 -182.5q-6 -21 -14 -21t-9 15v6q20 130 60 212.5t88.5 121.5t92.5 39q45 0 76 -38.5t31 -110.5q0 -100 -65 -230q-88 -170 -220 -365
l-18 -27q65 31 159 31q78 0 153 -30q8 -4 8 -10q0 -5 -3.5 -8t-8.5 -3l-6 1q-55 21 -113 21q-104 0 -206 -40q-7 -2 -12 -2z" />
    <glyph glyph-name="three" unicode="3" horiz-adv-x="441" 
d="M175 26q-39 0 -72 20t-53 63t-20 113q0 9 3.5 13t7.5 4q8 0 12 -17q9 -85 43 -124t78 -39q47 0 93 41t69 114q16 52 16 101q0 65 -33.5 112t-112.5 50q-21 0 -21 12q0 11 21 21q49 23 82 82t33 112q0 34 -17 57.5t-57 23.5q-76 -3 -131 -64q-50 -57 -50 -131q0 -9 -4 -14
t-9 -5q-8 0 -11 14l-1 15q0 80 61 148t140 72q53 0 90.5 -34.5t37.5 -91.5q0 -92 -105 -192q50 -13 82 -47t48 -76.5t16 -87.5q0 -47 -16 -93q-29 -78 -92.5 -125t-127.5 -47z" />
    <glyph glyph-name="four" unicode="4" horiz-adv-x="474" 
d="M348 12q-13 0 -24 8t-11 24v281h-258q-25 0 -25 18q0 8 2 13t242 454q4 8 14 12.5t20 4.5q21 0 21 -17q0 -7 -5 -18l-234 -443q111 -1 223 -1v154q0 16 11 23.5t24 7.5t24 -7.5t11 -21.5v-156h48q6 0 9.5 -4t3.5 -8q0 -12 -12 -12h-49v-278q0 -17 -11 -25.5t-24 -8.5z
" />
    <glyph glyph-name="five" unicode="5" horiz-adv-x="459" 
d="M183 20h-3q-78 0 -142 79q-8 12 -8 19q0 8 7 9q7 0 20 -15q56 -70 115 -70l10 1q85 15 132.5 114.5t47.5 207.5q0 78 -27.5 139.5t-87.5 78.5q-10 2 -20 2q-62 0 -126 -88v-1q0 -20 -10.5 -28.5t-23.5 -8.5t-24 7.5t-12 18.5l3 344l298 1q8 0 8 -10q0 -11 -7 -11l-229 -3
l-4 -272q79 89 146 93l14 1q56 0 93.5 -37t56.5 -96.5t19 -127.5q0 -81 -27 -159.5t-81.5 -130.5t-137.5 -57z" />
    <glyph glyph-name="six" unicode="6" horiz-adv-x="430" 
d="M205 20q-69 0 -107 42.5t-53 106t-15 126.5q0 52 7 95q42 248 221 432q6 5 11 5q11 0 11 -11q0 -6 -6 -13q-137 -167 -171 -446q31 33 70.5 51t78.5 18q75 -4 111.5 -58t36.5 -123q0 -53 -20.5 -103t-61.5 -83q-50 -39 -113 -39zM206 43q76 0 110 77q25 57 25 120
t-22.5 112.5t-65.5 49.5h-7q-32 0 -64 -15q-51 -24 -84 -73q-3 -34 -3 -76q0 -45 8 -90t32 -75t71 -30z" />
    <glyph glyph-name="seven" unicode="7" horiz-adv-x="407" 
d="M64 25q-13 0 -22.5 7.5t-9.5 22.5q0 8 3 18l258 725l-252 -1q-11 0 -11 11q0 12 12 12l335 2l-276 -774q-4 -11 -15 -17t-22 -6z" />
    <glyph glyph-name="eight" unicode="8" horiz-adv-x="455" 
d="M195 17q-44 0 -81.5 12.5t-60.5 38.5t-23 64q0 29 15 64q49 100 143 223l4 6q-53 38 -92.5 105t-39.5 136q0 103 102 151q34 14 68 14h7q75 0 114 -53q21 -28 21 -70q-1 -46 -38 -113q-34 -61 -83 -129l34 -30q140 -128 140 -243q0 -58 -35 -97.5t-88 -59t-107 -19.5z
M233 482q47 65 80 123q34 61 35 104q0 34 -16.5 56t-44 32.5t-57.5 10.5t-59 -13q-65 -29 -65 -90q0 -39 21.5 -81.5t50.5 -79.5t55 -62zM194 39q43 0 84 14.5t67.5 43t26.5 70.5q0 24 -11 53q-34 82 -123 163l-29 26q-2 -4 -14 -21q-85 -112 -129 -201q-12 -28 -12 -51
q0 -49 42.5 -73t97.5 -24z" />
    <glyph glyph-name="nine" unicode="9" horiz-adv-x="430" 
d="M162 20q-5 0 -8 3t-3 8t6 13q137 167 171 446q-67 -69 -150 -69q-74 4 -111 58t-37 123q0 53 20.5 103t61.5 83q51 38 113 38q69 0 107 -42t53 -105.5t15 -126.5q0 -52 -7 -95q-41 -248 -221 -432q-5 -5 -10 -5zM184 445q32 0 65 15q50 23 83 73q3 35 3 78q0 45 -8 89.5
t-32 74t-70 29.5q-77 0 -111 -77q-25 -57 -25 -120t22.5 -112.5t65.5 -49.5h7z" />
    <glyph glyph-name="colon" unicode=":" horiz-adv-x="122" 
d="M61 506q-13 0 -22 9t-9 22t9 22t22 9q12 0 21.5 -9t9.5 -22t-9.5 -22t-21.5 -9zM61 279q-13 0 -22 9t-9 22t9 22t22 9q12 0 21.5 -9t9.5 -22t-9.5 -22t-21.5 -9z" />
    <glyph glyph-name="semicolon" unicode=";" horiz-adv-x="131" 
d="M70 506q-13 0 -22 9t-9 22t9 22t22 9t22 -9t9 -22t-9 -22t-22 -9zM47 231l-3 2q-1 2 -1 5q0 9 10 31q5 12 7 20q0 10 -13 10l-9 -1q-7 0 -8 10q0 14 13 21t24 7q21 0 21 -18q0 -27 -20 -61q-16 -26 -21 -26z" />
    <glyph glyph-name="semicolon" unicode="&#x37e;" horiz-adv-x="131" 
d="M70 506q-13 0 -22 9t-9 22t9 22t22 9t22 -9t9 -22t-9 -22t-22 -9zM47 231l-3 2q-1 2 -1 5q0 9 10 31q5 12 7 20q0 10 -13 10l-9 -1q-7 0 -8 10q0 14 13 21t24 7q21 0 21 -18q0 -27 -20 -61q-16 -26 -21 -26z" />
    <glyph glyph-name="less" unicode="&#x3c;" horiz-adv-x="437" 
d="M362 265q-3 0 -296 149l-6 -1q-13 0 -21.5 12t-8.5 27q0 24 24 32q313 98 319 98q15 0 24.5 -11.5t9.5 -24.5q0 -25 -25 -33l-284 -89l265 -135q9 -6 9 -13q0 -5 -3 -8t-7 -3z" />
    <glyph glyph-name="equal" unicode="=" horiz-adv-x="378" 
d="M335 478h-295q-10 0 -10 12t10 12h295q6 0 9.5 -3.5t3.5 -8.5q0 -4 -3.5 -8t-9.5 -4zM335 345h-295q-10 0 -10 12t10 12h295q6 0 9.5 -3.5t3.5 -8.5q0 -4 -3.5 -8t-9.5 -4z" />
    <glyph glyph-name="greater" unicode="&#x3e;" horiz-adv-x="437" 
d="M75 265q-4 0 -7 3t-3 8q0 7 9 13l265 135l-284 89q-25 8 -25 33q0 13 9.5 24.5t24.5 11.5q6 0 319 -98q24 -8 24 -32q0 -15 -8.5 -27t-21.5 -12l-6 1q-293 -149 -296 -149z" />
    <glyph glyph-name="question" unicode="?" horiz-adv-x="317" 
d="M84 19q-12 0 -21 9t-9 21q0 13 9 22t21 9q13 0 22 -9t9 -22q0 -12 -9 -21t-22 -9zM75 124q-6 0 -10 4q-9 9 -9 42q0 55 27 124.5t62 142.5q31 66 56 128q26 68 30 128q0 60 -49 84q-12 6 -27 6q-23 0 -46.5 -13.5t-39 -40t-15.5 -64.5q0 -22 6 -48q0 -6 -3.5 -9t-7.5 -3
q-10 0 -12 9q-7 32 -7 59q0 65 34 104q45 50 109 50q37 0 66 -22.5t42 -66.5q6 -24 6 -49q0 -62 -31 -128t-71 -133.5t-71.5 -134.5t-31.5 -130l1 -24q0 -15 -8 -15z" />
    <glyph glyph-name="at" unicode="@" horiz-adv-x="505" 
d="M238 149q-69 0 -115.5 37t-69.5 95t-23 123q0 88 42 166q34 57 82.5 84.5t100.5 27.5q57 0 109 -32t81.5 -94t29.5 -130q0 -54 -18.5 -104t-57.5 -87q-37 -33 -61 -33q-28 0 -42.5 32t-19.5 79.5t-5 93.5v10q-32 -115 -80 -115l-8 1q-18 2 -28 26t-10 56q0 29 9 57t28 47
t49 19h3q20 -1 20 -21q0 -11 -7 -22.5t-15 -11.5h-5q-23 0 -38 -35.5t-15 -64.5q0 -31 18 -33q23 0 39 38q23 53 38 128q2 12 4 22t9 16t14 6q18 0 18 -24l-2 -28q-8 -63 -8 -132q0 -121 40 -121q17 0 43 23q35 34 52.5 80.5t17.5 96.5q0 65 -27.5 120.5t-69.5 83.5t-89 28
q-44 0 -86.5 -26t-73.5 -79q-41 -79 -41 -166q0 -56 18.5 -106t57 -81t97.5 -31q33 0 73 12l5 1q10 0 10 -9q0 -6 -11 -10q-45 -13 -82 -13z" />
    <glyph glyph-name="A" unicode="A" horiz-adv-x="565" 
d="M520 -16q-24 0 -56 22t-47.5 109t-18.5 196l-28 1q-56 0 -102 -7l-3 -13q-31 -134 -83 -223q-54 -77 -98 -77q-8 0 -16 3q-38 14 -38 73q0 18 4 42q28 132 173 191l11 44q49 191 66 320q4 19 26 19q29 0 29 -30q0 -59 -64 -323l-3 -14q39 6 85 6h41l-1 40
q-2 109 -13 199.5t-49 129.5q-30 26 -68 26q-34 0 -67 -18q-51 -28 -79 -83q-14 -31 -14 -60q0 -24 10 -43q18 -34 70 -39q11 0 11 -5q0 -6 -10 -6q-26 1 -44 10q-49 24 -49 83q0 32 16 65q29 59 84 88q35 20 72 20q42 0 76 -29q47 -48 62 -149t19 -217l1 -14q81 -6 81 -18
q0 -4 -5 -4h-3q-30 7 -73 10q4 -103 18 -185t53 -113q16 -12 37 -12q34 0 84 30q2 2 4 2q6 0 6 -6q0 -3 -4 -6q-61 -35 -103 -35zM65 20q34 0 71 72q23 48 40 102q23 77 27 93q-85 -38 -123.5 -99t-38.5 -126q1 -42 24 -42z" />
    <glyph glyph-name="B" unicode="B" horiz-adv-x="575" 
d="M224 -1q-118 8 -164 82q-30 47 -30 97q0 27 17 80t113 77q-2 52 -2 101q0 37 1.5 96.5t23.5 98.5q9 11 18 11q20 0 32 -30q2 -6 2 -11q0 -11 -9 -19q-28 -25 -28 -224l-1 -20q44 -1 79 -20q45 -24 53 -70q0 -6 -5 -6q-4 0 -5 4q-8 41 -48 63q-33 18 -74 19
q0 -195 -34 -223q-5 -3 -9 -3q-9 0 -9 13q0 6 4 10q14 18 14 100q0 45 -2 100q-114 -27 -114 -132q0 -20 10.5 -59.5t59.5 -77.5q41 -32 102 -32l23 1q118 19 170 92q50 69 50 149q0 4 -2 49.5t-51 101.5q-39 44 -102 44q-17 0 -35 -3q-6 -2 -10 -2q-5 0 -9 2.5t-4 7.5
q0 9 6 13q81 44 81 117q0 37 -26.5 73.5t-82.5 37.5q-69 -5 -107 -47q-42 -47 -42 -95q0 -41 37 -56q5 -2 5 -6t-4 -4h-2q-51 16 -51 71q0 47 36 95.5t111 68.5q26 5 49 5q53 0 83 -29q38 -36 38 -90q0 -7 -3.5 -42.5t-59.5 -84.5q110 -2 159 -76q40 -60 40 -135
q0 -18 -7 -76.5t-80 -132t-205 -74.5z" />
    <glyph glyph-name="C" unicode="C" horiz-adv-x="654" 
d="M382 -15q-19 0 -40 4q-104 30 -133 125q-18 60 -18 125q0 39 11.5 113.5t44.5 147.5q-33 -13 -82.5 -51t-85.5 -98.5t-36 -139.5v-9q0 -7 -5 -7q-8 0 -8 27q0 75 38.5 137t93 102.5t92.5 54.5q50 106 139 169q57 34 103 34q12 0 45 -6.5t33 -47.5q0 -42 -91 -90
q-51 -22 -109 -35l-45 -12q-37 -61 -66 -168q-20 -76 -20 -147q0 -30 7.5 -94.5t92.5 -103.5q27 -9 52 -9q49 0 101 42t95.5 121.5t62.5 139.5q1 3 5 4q3 0 4.5 -1.5t1.5 -4.5v-2q-60 -190 -173 -280q-49 -40 -110 -40zM338 543q18 5 37 9q53 12 100 33q85 44 85 83
q0 31 -44 31q-41 0 -97 -50q-27 -29 -48 -58q-33 -46 -33 -48z" />
    <glyph glyph-name="D" unicode="D" horiz-adv-x="586" 
d="M224 -1q-118 5 -164 79q-30 47 -30 98q0 27 17 81t113 78q-2 52 -2 102q0 37 1.5 96.5t23.5 97.5q9 11 18 11q21 0 32 -29q2 -6 2 -11q0 -11 -9 -19q-28 -25 -28 -225q0 -10 -1 -19q44 -1 79 -21q45 -24 53 -70q0 -5 -4 -5h-3t-3 4q-8 40 -48 62q-33 19 -74 19
q0 -80 -6 -143q-9 -83 -37 -83q-9 0 -9 11q0 8 4 12q13 16 14 71q0 74 -2 129q-114 -27 -114 -132q0 -20 10.5 -59.5t59.5 -77.5q40 -31 99 -31l26 1q100 16 156 95q77 109 77 270q0 187 -97 281q-43 41 -102 41q-23 0 -49 -6q-67 -20 -105 -61q-43 -46 -43 -89
q0 -34 36 -47l5 -6q0 -5 -6 -5q-47 15 -50 64q0 54 35.5 102.5t110.5 68.5q38 8 71 8q80 0 146 -55t93 -167q14 -60 14 -122q0 -54 -17.5 -141.5t-92.5 -170t-200 -87.5z" />
    <glyph glyph-name="E" unicode="E" horiz-adv-x="495" 
d="M192 1l-15 1q-93 14 -124 96q-14 35 -14 74q0 50 33 125t158 132q-56 52 -56 124q0 12 2 25q-30 0 -51 -5q-59 -10 -83 -76q-2 -5 -7 -5t-5 7q27 75 92 86q23 4 57 4q18 63 77 104q40 28 78 28q19 0 38 -7q40 -21 40 -65q0 -27 -20 -51q-28 -34 -92 -34q-24 0 -54 5
l-18 4q-5 -22 -5 -43q0 -72 49 -82q17 -3 17 -20q0 -18 -20 -18q-50 -15 -94 -73t-67 -130q-13 -44 -13 -82q0 -24 9.5 -63t74.5 -49q87 0 160 71q93 89 157 226q1 2 4 2q6 0 6 -7q-64 -140 -159 -229q-79 -75 -155 -75zM301 577q60 0 82 29q16 20 16 42q0 39 -32 55
q-14 6 -26 6q-19 0 -41 -16.5t-41 -50t-27 -58.5l16 -3q29 -4 53 -4z" />
    <glyph glyph-name="F" unicode="F" horiz-adv-x="435" 
d="M65 0h-9.5t-7 2.5t-1.5 3.5q0 6 9 6h9q70 0 98 44t28 120q0 75 -10 162l-5 55q-35 0 -51 -19q-6 -6 -9 -6t-3 4l1 7q19 34 60 38q-4 38 -4 73q0 69 16 125q0 2 2 5l-32 1q-45 0 -77 -11q-37 -13 -37 -58l1 -11q0 -5 -2 -7t-4 -2q-7 0 -7 30q0 94 130 94q61 0 141 -10
q67 -10 121 -10q23 0 43 2q62 7 62 65v11q0 7 6 7q5 0 5 -16q0 -57 -36.5 -79t-96.5 -22h-35q-43 0 -133 12q3 -5 3 -13q0 -7 -2 -15q-13 -49 -13 -121l1 -50q27 -2 54 -6q41 -6 75 -6h27q21 0 37 26q2 2 5 3q3 0 4.5 -1.5t1.5 -4.5v-2q-20 -44 -71 -47l-25 -1
q-37 0 -107 11l1 -16q3 -46 3 -91t-4 -110t-42 -120q-35 -52 -120 -52z" />
    <glyph glyph-name="G" unicode="G" horiz-adv-x="573" 
d="M178 -295q-85 0 -128 76q-18 33 -18 72q0 76 52.5 121t143.5 45q87 0 162 -40q21 63 36 131q40 199 40 356v8q-67 -192 -123 -277q-60 -89 -123 -89q-80 0 -113 111q-16 52 -16 113q0 71 21 153q-39 -25 -69 -68q-5 -7 -9 -7t-4 5q0 3 4 9q35 51 83 78q26 83 83.5 147.5
t131.5 70.5h3q65 0 92 -41q19 -30 19 -69q0 -54 -30.5 -99t-63.5 -45t-74 21q-52 25 -85 25l-15 -1q-29 -103 -29 -189q0 -35 10.5 -107.5t68.5 -82.5h1q41 0 81 54q74 97 132 275q21 66 22 88q5 27 32 27q24 0 26 -26t2 -57q0 -201 -40 -395q-17 -79 -44 -150
q34 -26 59 -62q6 -7 6 -11q-1 -5 -4 -5q-4 0 -11 10q-24 32 -54 56q-21 -55 -65.5 -114t-106.5 -95q-45 -22 -86 -22zM350 479q30 0 57.5 40t27.5 89q0 35 -17 64.5t-58 29.5q-62 0 -118 -71q-43 -55 -60 -108h4q49 0 92 -23q38 -21 72 -21zM169 -275q39 0 84 30
q52 41 83 100.5t50 112.5q-74 40 -160 40q-83 0 -132.5 -42.5t-49.5 -108.5q0 -35 22 -74.5t74 -53.5q14 -4 29 -4z" />
    <glyph glyph-name="H" unicode="H" horiz-adv-x="594" 
d="M563 -47q-38 0 -68 52t-43 155q-10 76 -10 158l1 59l-43 10q-36 9 -64 13q0 -179 -45 -312q-39 -98 -83 -98q-3 0 -28 4t-41 101q-4 29 -4 60q0 83 28 157q32 86 100 98v28q0 124 -19 196q-19 67 -65 67q-28 0 -61 -27t-56 -74q-21 -39 -21 -75l1 -15q0 -6 -5 -6
q-7 0 -7 21q0 61 49 124t116 71q53 0 84 -54t44 -126.5t13 -127.5l107 -23q6 122 30 214q30 116 80 116q20 0 20 -14q0 -8 -9 -14q-22 -16 -37 -104t-20 -206h6q51 0 69 46q1 2 6 2q2 0 3.5 -1t1.5 -3v-1q-17 -55 -81 -55h-5q-2 -42 -2 -83q0 -188 29 -274q15 -46 39 -46
q5 0 11 2h2q5 0 7 -6q0 -3 -4 -4q-14 -5 -26 -5zM189 12q24 0 44 81q27 123 30 305q-62 -13 -91 -92q-25 -69 -25 -154q0 -29 3 -56q15 -84 39 -84z" />
    <glyph glyph-name="I" unicode="I" horiz-adv-x="281" 
d="M79 -2q-26 0 -47 18q-2 2 -2 5q0 6 6 6q2 0 4 -2q17 -15 35 -15q32 0 54 57q41 107 41 349q0 115 -9 202.5t-28 87.5q-15 0 -31.5 -32t-29.5 -89q-18 -74 -18 -136q0 -61 18 -79q4 -5 5 -9q0 -4 -1.5 -4.5t-2.5 -0.5q-2 0 -5 2q-26 18 -26 94q0 25 5.5 80t33.5 124t69 77
h1q45 0 67 -77t22 -192q-1 -116 -22 -228.5t-61 -181.5q-33 -56 -78 -56z" />
    <glyph glyph-name="J" unicode="J" horiz-adv-x="670" 
d="M180 -254q-89 0 -131 94q-19 40 -19 84q0 23 9.5 69.5t74.5 99.5q51 36 117.5 46.5t137.5 12.5q34 1 68 4q25 132 25 266q0 116 -14 203q-12 68 -47 68q-29 0 -65 -70q-9 -20 -17 -42q-26 -85 -26 -145l1 -18q0 -7 -5 -7h-2q-6 0 -6 31q0 57 27 143q7 21 17 41
q46 96 104 96q46 0 71 -87q21 -84 21 -208q0 -133 -23 -264q63 9 109 41.5t65 104.5q1 3 6 3t5 -4v-2q-20 -78 -70 -112.5t-117 -43.5q-56 -278 -227 -379q-48 -25 -89 -25zM159 -217q38 0 84 31q61 46 109 120t67 144q9 32 16 66q-33 -3 -66 -4q-69 -2 -134 -12t-114 -45
q-74 -60 -74 -151q0 -39 18 -82.5t66 -61.5q14 -5 28 -5z" />
    <glyph glyph-name="K" unicode="K" horiz-adv-x="594" 
d="M78 -2q-25 0 -46 18q-2 2 -2 5q0 6 6 6q2 0 4 -2q17 -15 35 -15q32 0 54 57q41 107 41 349q0 115 -9 202.5t-28 87.5q-15 0 -31.5 -32t-29.5 -89q-18 -74 -18 -136q0 -61 18 -79q4 -5 5 -9q0 -4 -1.5 -4.5t-2.5 -0.5q-2 0 -5 2q-26 18 -26 94q0 25 5.5 80t33.5 124t69 77
q53 0 74 -103q16 -73 16 -165q0 -37 -3 -78q39 18 58 61.5t32 95.5q16 77 52 131q28 42 89 42q20 0 42 -4q8 -1 8 -7q0 -5 -4 -5l-4 1q-17 5 -31 5q-33 0 -52 -32t-32 -95q-12 -57 -36 -112.5t-78 -87.5q117 -19 124 -132l1 -36q0 -29 -2.5 -55.5t-2.5 -46.5q0 -7 0.5 -22.5
t10.5 -27.5q5 -5 12 -5q29 0 88 97q49 80 85 157q1 3 5 3q6 0 6 -5q0 -9 -51 -104q-91 -169 -158 -176q-50 2 -61 49q-9 39 -9 89l1 43q0 55 -13.5 104t-80.5 51h-1q-8 -101 -31 -189t-60 -137q-29 -39 -66 -39z" />
    <glyph glyph-name="L" unicode="L" horiz-adv-x="629" 
d="M87 -3q-5 0 -23 3t-30 31q-4 9 -4 19q0 23 18 52q33 55 116 69q16 112 16 248q0 104 -8 188q-9 99 -29 99q-15 0 -31.5 -32t-29.5 -89q-18 -79 -18 -136q0 -61 18 -79q5 -5 5 -9q0 -5 -4 -5q-2 0 -5 2q-26 18 -26 96q0 24 6 78.5t33.5 123.5t68.5 77h1q49 0 71 -92
q18 -76 18 -177q0 -23 -3 -100.5t-33 -192.5q74 -11 172 -79q88 -58 127 -58q21 0 47.5 17.5t48.5 102.5q1 5 6 5t5 -5v-2q-26 -103 -64 -133q-25 -20 -53 -20q-46 0 -136 55q-104 59 -168 70q-43 -127 -112 -127zM84 8q48 0 72 119q-67 -2 -98 -35q-16 -20 -16 -38
q0 -36 36 -45z" />
    <glyph glyph-name="M" unicode="M" horiz-adv-x="926" 
d="M918 -124q-112 0 -128 246q-6 105 -6 215l1 89q0 84 -6 159.5t-36 93.5q-5 3 -11 3q-65 0 -112 -291q-36 -241 -36 -356v-4q-4 -30 -28 -30q-29 0 -31 37l1 53q0 324 -22 480q-14 92 -35 92q-42 0 -90 -252q-39 -204 -53 -341q-2 -26 -5 -50t-25 -24q-11 0 -22.5 6.5
t-11.5 17.5q19 170 19 358q0 144 -23 228q-35 95 -84 95q-1 0 -27 -1.5t-65 -63.5t-41 -142q0 -38 10 -70q17 -61 63 -69q9 -1 9 -7q0 -5 -10 -5q-54 9 -73 78q-10 34 -10 73q3 97 55 168.5t118 71.5q61 0 100 -103q35 -112 35 -308l-1 -76q35 238 80 359q29 80 63 80
q41 0 64.5 -68t32 -176.5t8.5 -215.5q9 77 23 167q36 221 96 292q30 36 60 36h3q39 -7 55 -65q21 -77 21 -261l-2 -145q0 -79 4 -166.5t28 -146.5q19 -47 58 -47q9 0 20 3h3q3 0 5 -2t2 -5q-1 -3 -6 -5q-20 -5 -37 -5z" />
    <glyph glyph-name="N" unicode="N" horiz-adv-x="654" 
d="M656 -124q-113 0 -127 246q-6 96 -6 196v84q0 98 -6 178.5t-36 98.5q-5 3 -11 3q-37 0 -70 -102q-41 -139 -64 -346q-5 -120 -15 -215q-3 -23 -26 -23q-10 0 -21.5 6.5t-11.5 17.5q18 161 18 358q0 144 -23 228q-35 95 -83 95q-2 0 -27.5 -1.5t-64.5 -63.5t-41 -142
q0 -38 10 -70q17 -61 63 -69q9 -2 9 -6q0 -6 -10 -6q-54 9 -74 78q-9 33 -9 73q2 97 54.5 168.5t118.5 71.5q61 0 99 -103q36 -119 36 -282v-9l8 53q36 221 96 292q30 36 61 36h3q38 -7 54 -65q21 -77 21 -261l-1 -125q0 -90 3.5 -182t27.5 -151q19 -47 58 -47q10 0 21 3h3
q2 0 4 -2t2 -5q-1 -3 -6 -5q-20 -5 -37 -5z" />
    <glyph glyph-name="O" unicode="O" horiz-adv-x="518" 
d="M280 0h-1q-38 6 -62.5 48t-37 92.5t-13.5 81.5q-80 26 -112 95q-24 51 -24 109q0 20 7.5 71.5t58.5 118.5q88 104 200 104h6q91 -8 129.5 -82t38.5 -178v-58q0 -55 -28.5 -160t-71.5 -173.5t-90 -68.5zM294 17q32 0 68.5 60t64.5 162q30 114 30 222q0 95 -33 164
q-36 73 -124 73q-96 0 -171 -102q-63 -92 -63 -196q0 -43 17.5 -93t81.5 -72q-1 17 -1 54q0 113 22 221q4 17 26 17q11 0 21 -6t10 -19l-1 -6q-20 -104 -20 -213q0 -29 2 -57q38 0 86 14h3q6 0 6 -5q0 -4 -6 -7q-49 -13 -88 -13q0 -23 7 -79q11 -100 53 -118q4 -1 9 -1z" />
    <glyph glyph-name="P" unicode="P" horiz-adv-x="623" 
d="M296 -4q-11 0 -22.5 6.5t-11.5 17.5q19 168 19 351q0 149 -23 235q-35 95 -84 95q-1 0 -27 -1.5t-65 -63.5t-41 -142q0 -38 10 -70q17 -61 63 -69q9 -1 9 -7q0 -5 -10 -5q-54 9 -74 78q-9 33 -9 73q3 97 55 168.5t118 71.5q61 0 100 -103q29 -95 34 -223q16 108 62 203
q62 110 136 110q56 0 79 -58q18 -46 18 -104q0 -24 -7.5 -82.5t-54.5 -130.5t-129 -81h-9q-35 0 -52 21q-7 10 -7 23q0 22 18 53q21 34 61 59.5t91 27.5q7 0 7 -5q0 -6 -7 -6q-48 -3 -85 -27t-57 -55q-16 -27 -16 -45q0 -11 6 -18q12 -15 34 -15q56 0 98 72q34 57 49 130
q9 44 9 83q0 25 -7.5 66.5t-49.5 56.5q-8 2 -16 2q-56 0 -98 -82q-52 -111 -72 -272q-2 -176 -17 -315q-3 -23 -25 -23z" />
    <glyph glyph-name="Q" unicode="Q" horiz-adv-x="515" 
d="M439 -9q-35 0 -66 82q-45 -73 -94 -73h-1q-38 6 -62 48t-36.5 92.5t-14.5 81.5q-79 26 -111 95q-24 50 -24 107q0 21 7.5 73t58.5 119q87 104 200 104h6q86 -8 126 -76q41 -73 41 -191q0 -89 -22 -185.5t-62 -171.5l8 -17q27 -74 54 -74q12 0 27 13q3 2 5 2q6 0 6 -4
q0 -3 -3 -5q-24 -20 -43 -20zM293 17q36 0 74 69q-27 71 -54 71q-9 0 -19 -6q-3 -2 -5 -2q-5 0 -5 5q0 4 3 6q17 10 32 10q34 0 60 -61q35 72 57 170q21 94 21 185q0 4 -1 53.5t-37 113.5q-38 67 -119 67q-96 0 -172 -102q-62 -93 -62 -197q0 -130 98 -164v55q0 112 21 220
q5 17 27 17q30 0 30 -26v-5q-20 -101 -20 -206q0 -40 1 -64q39 0 87 14h3q2 0 3.5 -1.5t1.5 -3.5q0 -5 -6 -7q-48 -13 -88 -13q1 -6 1 -13q3 -87 23 -139q16 -46 45 -46z" />
    <glyph glyph-name="R" unicode="R" horiz-adv-x="646" 
d="M296 -4q-11 0 -22 6.5t-11 17.5q12 118 17 303l1 55q0 144 -23 228q-35 95 -83 95q-2 0 -28 -1.5t-64.5 -63.5t-40.5 -142q0 -38 9 -70q17 -61 63 -69q9 -1 9 -7q0 -5 -10 -5q-54 9 -73 78q-10 33 -10 73q3 97 54.5 167.5t114.5 72.5q65 0 104 -103q35 -115 35 -281
q30 177 71 277q45 99 103 99q19 0 34 -16q19 -20 19 -69q0 -91 -57 -198q-44 -82 -98 -123q44 -4 62 -36q23 -42 23 -130l-1 -54v-18q0 -22 7 -22q16 0 74 105q43 82 73 145q2 3 5 3q6 0 6 -9l-52 -103q-77 -152 -119 -159q-35 0 -45 43.5t-12 98.5q-1 48 -8.5 82.5
t-31.5 35.5q-10 0 -14 6.5t-4 12.5q0 15 14 26q45 36 76 115q51 130 51 197q0 44 -26 44q-30 0 -68 -81q-36 -89 -58 -203q-22 -120 -26 -195q-5 -114 -15 -205q-3 -23 -25 -23z" />
    <glyph glyph-name="S" unicode="S" horiz-adv-x="448" 
d="M201 0q-23 0 -49 4q-98 21 -116 90q-6 23 -6 46q0 45 30 99.5t95 65.5h8q49 0 76.5 -35t27.5 -85q0 -10 -5 -10q-6 0 -6 6v3q0 45 -26 80q-20 28 -53 28q-56 0 -85 -79q-15 -40 -15 -80q0 -20 7.5 -60.5t66.5 -57.5q19 -3 36 -3q58 0 98 40q49 49 49 124q0 5 -1.5 48
t-81.5 117q-24 20 -49 38q-48 31 -92 80q-33 42 -33 95v6q7 83 68 124q53 36 113 36q9 0 48 -4t71 -63q12 -23 12 -53q0 -51 -33 -124q-5 -10 -10 -10q-2 0 -3 4q0 4 3 11q31 70 31 117q0 29 -21 67q-24 44 -98 44q-55 0 -98 -34q-39 -31 -39 -84q0 -57 44 -105
q43 -43 111 -90q119 -97 119 -214q0 -77 -54 -131q-51 -51 -140 -51z" />
    <glyph glyph-name="T" unicode="T" horiz-adv-x="314" 
d="M201 -1q-9 0 -20 5.5t-13 15.5v44q0 310 39 613q1 4 5 7q-125 -7 -154 -43q-4 -4 -9 -4q-9 0 -14 3.5t-5 7.5v1q24 68 300 70q107 0 174 -6q13 -3 13 -13q0 -20 -19 -20q-82 7 -177 7l-76 -1q8 -5 8 -17v-5q-20 -158 -24 -318q-3 -107 -3 -214l1 -107q-1 -26 -26 -26z
" />
    <glyph glyph-name="U" unicode="U" horiz-adv-x="729" 
d="M695 -188q-38 0 -56 77q-25 102 -25 323q0 168 13 372q-83 -309 -160 -464q-56 -114 -114 -114q-36 0 -54 39q-22 46 -22 170q0 53 3 112q2 51 2 98q0 56 -4.5 128t-45.5 105q-17 10 -34 10q-23 0 -57.5 -24t-65.5 -92q-33 -73 -33 -142q0 -109 77 -132q7 -2 7 -7t-7 -5
h-2q-87 25 -87 141q0 22 4 46q21 140 114 213q42 31 82 31q68 0 93 -90q22 -80 22 -209q0 -79 -3 -156q-3 -56 -3 -100q0 -36 2 -64q3 -59 25 -59h4q48 19 97 127q87 190 163 497l7 109q3 17 31 17q27 0 28 -22q-3 -58 -13 -179q-28 -362 -28 -520q0 -46 3.5 -129.5
t36.5 -94.5q5 -1 5 -6t-5 -6z" />
    <glyph glyph-name="V" unicode="V" horiz-adv-x="674" 
d="M497 -1h-5q-38 0 -53 75q-12 93 -12 172q-3 94 -13.5 190t-42.5 166q-42 90 -140 90q-54 0 -112.5 -37.5t-70.5 -141.5l-1 -24q0 -50 23.5 -96t83.5 -62q15 -4 33 -4q51 0 123 33q4 2 6 2t4 -1t2 -4q-1 -4 -5 -6q-75 -35 -130 -35q-18 0 -59.5 10t-71.5 65
q-26 47 -26 104l1 19q11 105 77 162q62 53 140 53h11q186 -18 212 -273q10 -93 10 -184v-71q0 -73 5 -124q8 -51 28 -51q2 0 13 1.5t29 48.5q13 43 33 166q47 271 87 403q59 195 135 195q8 0 17 -3t9 -7t-5 -5q-3 0 -8.5 2t-12.5 2q-71 0 -128 -198q-44 -150 -85 -399
q-19 -118 -31 -158q-28 -70 -70 -75z" />
    <glyph glyph-name="W" unicode="W" horiz-adv-x="922" 
d="M764 -4q-48 1 -76 80t-40.5 184t-13.5 185l-9 -62q-24 -203 -59 -309q-29 -75 -74 -75q-38 0 -53 75q-9 63 -11 154l-1 4q0 81 -13 204q-11 96 -43 166q-42 90 -140 90q-54 0 -112.5 -37.5t-71.5 -141.5l-1 -20q0 -52 24 -99t84 -63q15 -4 33 -4q51 0 123 33q4 2 6 2
t4 -1t2 -4q-1 -4 -5 -6q-75 -35 -130 -35q-18 0 -59.5 10t-71.5 65q-26 47 -26 104l1 19q11 105 77 162q62 53 140 53h11q186 -18 212 -273q10 -100 10 -196v-72q0 -162 32 -162q2 0 13.5 1.5t29.5 48.5q33 98 62 332q10 80 17 107q2 14 23 14q11 0 22.5 -5.5t12.5 -17.5
q-1 -13 -1 -35q0 -172 28 -331q21 -117 54 -117q21 0 29 30q9 45 19 158q23 270 60 413q47 178 130 178q19 0 41 -9q5 -3 5 -7q0 -5 -5 -5l-4 1q-19 8 -36 8q-77 0 -121 -175q-37 -146 -59 -404q-10 -115 -20 -160q-16 -53 -49 -55z" />
    <glyph glyph-name="X" unicode="X" horiz-adv-x="681" 
d="M62 -50q-32 0 -32 10q0 5 6 5h2q13 -3 25 -3q45 0 90 42.5t91 128t91 184.5l-14 74q-19 111 -42.5 197.5t-60.5 111.5q-15 7 -31 7q-35 0 -75.5 -45t-53.5 -126q-1 -6 -4 -6q-6 0 -6 11q8 78 65 143q46 53 99 53q73 0 113 -116q32 -92 52 -211q55 122 115.5 211.5
t131.5 103.5q7 0 7 -6q0 -5 -5 -6q-71 -14 -130.5 -106t-114.5 -217l8 -44q20 -121 45.5 -212t71.5 -109l7 -1q36 0 71 55q51 80 100 231q1 2 6 2t5 -5q0 -10 -41 -114q-75 -187 -154 -196q-65 2 -101.5 89.5t-59.5 210.5q-44 -98 -90 -181q-93 -166 -187 -166z" />
    <glyph glyph-name="Y" unicode="Y" horiz-adv-x="691" 
d="M281 -295q-85 0 -129 76q-18 33 -18 72q0 75 55 123q51 43 142 43q67 0 137 -28q12 -5 24 -12q22 63 37 131q30 140 30 348l3 127q-68 -255 -140 -398q-50 -97 -99 -97q-33 0 -50 36q-20 42 -20 153q0 49 3 103q2 46 2 88q0 51 -4 116t-42 95q-15 10 -31 10
q-62 0 -111 -106q-30 -66 -30 -128q0 -100 71 -120q5 -3 5 -6q0 -5 -5 -5h-3q-78 24 -78 128q0 68 31 136q28 62 76 98q37 29 74 29q62 0 84 -81q20 -74 20 -191q0 -71 -3 -141q-2 -51 -2 -93q0 -31 1 -56q3 -53 22 -53h4q42 16 84 105q72 152 144 428v4q5 27 32 27
q24 0 27 -25q1 -31 1 -72q0 -72 -5 -203q-11 -237 -77 -418q33 -26 59 -62q5 -6 5 -10q0 -6 -4 -6t-11 10q-23 32 -54 56q-21 -55 -65 -114t-106 -95q-45 -22 -86 -22zM272 -275q39 0 84 30q81 64 132 213q-12 7 -25 12q-68 28 -134 28q-83 0 -132.5 -42t-49.5 -109
q0 -35 22 -74.5t74 -53.5q14 -4 29 -4z" />
    <glyph glyph-name="Z" unicode="Z" horiz-adv-x="606" 
d="M563 -51h-24q-23 0 -83.5 31.5t-116 67t-87.5 49.5l-1 -2q-45 -64 -95 -94q-37 -19 -65 -19q-61 0 -61 53q0 36 51 74q35 23 77 23q21 0 43 -6q47 66 89 150.5t81 169.5q43 96 83 171l-32 4q-79 12 -155 12q-66 0 -118 -25.5t-54 -103.5q0 -7 -6 -7q-4 0 -6 6
q1 85 58 115q53 27 127 27q77 0 158 -13l34 -4q47 98 120 98q23 0 38 -14q20 -19 20 -42q0 -9 -7.5 -32.5t-68.5 -28.5q-21 0 -45 2q-43 -78 -93 -189q-96 -213 -165 -315q30 -14 83 -48t111 -64q63 -34 104 -34q39 0 47 45q2 5 7 5t5 -7q-10 -55 -53 -55zM562 621
q62 3 62 40q0 23 -21 31q-4 2 -9 2q-34 0 -70 -72zM70 3q24 0 63 36q38 40 60 77q-18 4 -35 4q-38 0 -70 -20q-46 -36 -46 -68q0 -29 28 -29z" />
    <glyph glyph-name="bracketleft" unicode="[" horiz-adv-x="181" 
d="M30 17l7 796l104 -1q5 0 7.5 -4t2.5 -9q0 -10 -8 -10h-42l-5 -320q-4 -214 -6 -428l46 2q8 0 11.5 -4t3.5 -8q0 -11 -14 -11z" />
    <glyph glyph-name="backslash" unicode="\" horiz-adv-x="411" 
d="M367 20q-5 0 -8 5q-329 779 -329 783q0 10 8 16.5t18 6.5q13 0 21 -14l304 -786q0 -5 -4.5 -8t-9.5 -3z" />
    <glyph glyph-name="bracketright" unicode="]" horiz-adv-x="198" 
d="M151 17l-107 3q-14 0 -14 10q0 5 4 9t12 4l46 -2q4 187 6 374t6 374h-42q-8 0 -8 10q0 4 3 8.5t8 4.5l103 1z" />
    <glyph glyph-name="asciicircum" unicode="^" horiz-adv-x="306" 
d="M248 527q-15 0 -24 17l-86 215q-45 -106 -89 -214q-4 -7 -10 -7q-9 0 -9 8q1 4 98 237l-1 6q0 10 9.5 17t21.5 7q14 0 24 -16q45 -117 92 -232q2 -6 2 -11q0 -12 -9 -19.5t-19 -7.5z" />
    <glyph glyph-name="underscore" unicode="_" horiz-adv-x="596" 
d="M551 17h-511q-10 0 -10 14q0 7 3.5 13.5t9.5 6.5h511q12 0 12 -15q0 -7 -4 -13t-11 -6z" />
    <glyph glyph-name="grave" unicode="`" horiz-adv-x="108" 
d="M69 721q-10 0 -14 9q-25 79 -25 82q0 8 5.5 12.5t12.5 4.5q16 0 21 -19l9 -81q0 -8 -9 -8z" />
    <glyph glyph-name="a" unicode="a" 
d="M230 105h-1q-64 0 -64 143l1 24q-9 -36 -23 -73t-32 -63t-40 -26q-38 0 -56 33q-23 38 -23 99q0 37 10 79t32.5 73.5t53.5 31.5q31 -2 50.5 -27t27.5 -54v-2q0 -5 -5 -5t-6 4q-5 15 -14 31q-14 25 -31 25q-35 0 -50 -86q-8 -43 -8 -83q0 -15 2.5 -49.5t23.5 -43.5h3
q19 0 38 40q32 68 50 161q3 57 5.5 72t24.5 15q34 0 34 -18l-3 -33q-13 -103 -13 -178l1 -36q1 -38 23 -38q37 0 92 111q33 68 37 79q1 2 4 2q7 -2 7 -6v-1q-39 -87 -67 -135q-36 -61 -84 -66z" />
    <glyph glyph-name="b" unicode="b" horiz-adv-x="322" 
d="M114 47q-17 0 -29.5 14.5t-12.5 35.5q0 14 9.5 42t39.5 62t62 42l2 8q12 48 12 86v25q0 21 -16 34q-7 4 -14 4q-15 0 -32 -23q-36 -45 -67 -153q-14 -51 -14 -77v-17q-1 -20 -28 -20q-26 0 -28 17v47q0 143 15 299q-114 30 -114 209q0 25 2 54q0 4 6 4q5 0 5 -6
q-2 -26 -2 -49q0 -173 104 -200q3 41 16.5 124t39 172t66.5 147q35 50 83 50q80 0 83 -145q0 -48 -14 -111q-24 -93 -70 -153q-65 -85 -147 -99q-10 -122 -16 -242q17 70 51.5 134t87.5 66q36 -2 52 -47q8 -22 8 -54q0 -33 -9 -78q56 2 78 61q1 2 4 3q3 0 5 -1.5t2 -3.5v-2
q-15 -42 -39 -55t-53 -14q-19 -69 -49 -127q-39 -63 -79 -63zM98 76q14 0 45 61q24 55 36 93q-29 -10 -53 -44q-39 -54 -39 -90q0 -20 11 -20zM72 482q75 14 137 94q44 58 67 149q14 61 15 108q-3 124 -57 127q-75 -3 -120 -206q-32 -141 -42 -272z" />
    <glyph glyph-name="c" unicode="c" horiz-adv-x="220" 
d="M83 109q-52 1 -73 52q-16 38 -16 85q0 16 4.5 56.5t34.5 86.5q25 36 61 36q37 0 51 -30q10 -20 10 -44q0 -12 -8 -12q-4 0 -4 6v5q0 22 -7 39.5t-21 18.5q-22 -4 -39 -45q-29 -68 -29 -146q0 -24 5 -55q6 -37 37 -37q26 0 49 27.5t42.5 67t32.5 70.5q5 13 9 21q1 2 4 2
q6 -2 6 -6l-10 -25q-21 -53 -55.5 -110t-83.5 -63z" />
    <glyph glyph-name="d" unicode="d" horiz-adv-x="371" 
d="M234 105h-1q-65 0 -65 154v17q-9 -37 -23 -74.5t-32 -64.5t-41 -27q-37 0 -56 33q-23 38 -23 99q0 37 10 79t32.5 73.5t53.5 31.5q31 -2 50.5 -27t27.5 -54v-2q0 -5 -5 -5t-6 4q-4 15 -13 31q-16 25 -32 25q-35 0 -50 -86q-8 -45 -8 -87q0 -13 2.5 -46.5t24.5 -42.5h3
q18 0 37 40q34 71 50 161q4 73 11 136q-115 30 -115 212q0 24 2 51q1 4 7 4q5 0 5 -6q-2 -27 -2 -51q0 -171 104 -198q3 41 16 124t39 172t67 147q35 50 83 50q80 0 83 -145q0 -48 -15 -111q-23 -93 -69 -153q-65 -84 -147 -99l-3 -37q-14 -147 -14 -227l1 -42q1 -43 23 -43
q37 0 91 112q31 65 35 78q1 2 4 2q7 -2 7 -6l-9 -22q-21 -54 -56.5 -114.5t-83.5 -65.5zM240 482q75 14 137 94q44 58 67 149q14 61 15 108q-3 124 -57 127q-75 -3 -120 -206q-32 -141 -42 -272z" />
    <glyph glyph-name="e" unicode="e" horiz-adv-x="224" 
d="M82 110h-2q-87 0 -87 124q0 71 22 120q34 70 88 70q16 0 31 -10q24 -17 24 -64q0 -30 -16 -52t-46 -22q-20 0 -39 14q-9 -41 -9 -82q0 -20 5 -45q7 -34 41 -34q59 0 121 159l10 23q1 2 4 2q6 -2 6 -6l-12 -30q-21 -54 -54.5 -107t-86.5 -60zM99 287q23 3 35 19.5t12 40.5
q0 58 -27 58q-25 0 -48 -59q-9 -29 -11 -42q15 -17 39 -17z" />
    <glyph glyph-name="f" unicode="f" horiz-adv-x="186" 
d="M63 -294q-32 0 -52 43q-30 69 -30 229v58q2 79 4 89h-16q-9 0 -9 6q0 9 25 9q1 25 7 91q16 177 54 280q34 79 75 79q28 0 28 -58q0 -31 -21 -97q-29 -92 -75 -163q-5 -59 -9 -128q59 16 91.5 63t51.5 102q2 4 7 4t5 -5l-1 -4q-21 -59 -56 -107.5t-99 -64.5v-8
q63 -37 100 -132q18 -51 18 -121q0 -138 -85 -164zM55 297q38 64 62 141q21 63 21 105q0 27 -10 27q-11 0 -26 -32q-22 -45 -37 -156q-9 -62 -10 -85zM87 -268q21 0 39 38q22 47 22 121q0 49 -16 97q-33 87 -90 123q-2 -37 -2 -140q0 -239 47 -239z" />
    <glyph glyph-name="g" unicode="g" horiz-adv-x="280" 
d="M-16 -375q-11 0 -51.5 8.5t-69.5 83.5q-10 27 -10 57q0 54 34 117q31 53 80 94q82 66 176 66l20 -1q9 106 9 194l-1 46q-8 -37 -22 -78t-33.5 -71.5t-43.5 -30.5q-38 0 -56 33q-23 38 -23 99q0 37 10 79t32.5 73.5t53.5 31.5q31 -2 50.5 -27t27.5 -54v-2q0 -5 -5 -5t-6 4
q-4 15 -13 31q-16 25 -32 25q-35 0 -50 -86q-8 -43 -8 -83q0 -15 2.5 -49.5t23.5 -43.5h3q19 0 38 40t32.5 90t17.5 71q-2 44 -4 65q1 11 12.5 17.5t21.5 6.5q4 0 13.5 -1.5t11.5 -19.5q5 -69 5 -161q0 -97 -10 -212l6 -3q49 -33 49 -104v-9t-2 -6.5t-4 -1.5q-5 0 -5 10
q0 72 -45 101q-5 -62 -34.5 -157.5t-83.5 -168.5q-59 -68 -117 -68zM-34 -342q50 0 97 62q47 72 71 167.5t28 150.5q-5 1 -20 1q-92 0 -167 -63q-48 -39 -78 -91q-28 -60 -28 -108q0 -105 86 -118z" />
    <glyph glyph-name="h" unicode="h" horiz-adv-x="378" 
d="M233 107h-6q-37 9 -42 63q-2 21 -2 44q0 34 4 72q3 33 3 60q0 14 -1 38t-22 24q-72 -26 -103 -188q-11 -52 -12 -90q-1 -20 -27 -20t-29 17q0 180 15 341v5q-114 30 -114 212q0 54 6 54l3 1q5 0 5 -6q-2 -27 -2 -51q0 -170 103 -198q4 41 17 124t39 172t67 147
q35 50 83 50q80 0 83 -145q0 -48 -15 -111q-23 -93 -69 -153q-65 -84 -147 -99q-10 -119 -16 -237q37 162 111 186l13 1q67 0 67 -104q0 -56 -4 -95q-3 -34 -3 -63q0 -31 18 -31q12 0 31 16q41 39 79 142q11 28 15 28q7 -2 7 -6l-9 -22q-14 -33 -35 -76q-52 -102 -111 -102z
M71 482q75 14 137 94q44 58 67 149q14 61 15 108q-3 124 -57 127q-75 -3 -120 -206q-32 -141 -42 -272z" />
    <glyph glyph-name="i" unicode="i" horiz-adv-x="204" 
d="M64 105h-1q-35 0 -52 47q-12 44 -12 101q0 66 9 139l1 17q2 15 25 15q32 0 34 -18l-4 -33q-13 -126 -13 -169l1 -43q1 -40 24 -40q19 0 43.5 32t48 79t34.5 72q1 4 2.5 6.5t4.5 2.5q6 -2 6 -6l-9 -22q-67 -172 -142 -180zM52 472q-33 0 -35 45q1 37 20 51q10 8 20 8
q34 0 35 -51q-7 -53 -40 -53z" />
    <glyph glyph-name="j" unicode="j" horiz-adv-x="107" 
d="M-189 -375q-11 0 -51.5 8.5t-69.5 83.5q-10 27 -10 57q0 54 34 117q31 53 80 94q82 66 176 66l20 -1q9 108 9 198t-5 154q0 11 14 18q9 6 20 6q4 0 13 -1.5t11 -19.5q5 -54 5 -174q0 -92 -10 -199l6 -3q50 -34 50 -112q-1 -9 -7 -9q-5 0 -5 10q0 72 -45 101
q-4 -62 -34 -157.5t-84 -168.5q-58 -68 -117 -68zM-207 -342q50 0 97 62q47 72 71 167.5t28 150.5q-5 1 -20 1q-90 0 -167 -63q-48 -39 -78 -91q-28 -60 -28 -108q0 -106 86 -118zM17 471q-39 0 -39 54q0 27 12 39t25 12q6 0 18.5 -5t18.5 -40v-4q0 -56 -35 -56z" />
    <glyph glyph-name="k" unicode="k" horiz-adv-x="254" 
d="M24 110q-26 0 -28 17v47q0 143 15 299q-114 30 -114 209q0 25 2 54q0 4 6 4q5 0 5 -6q-2 -26 -2 -49q0 -173 104 -200q10 139 56 296q58 197 149 197q80 0 84 -145q-1 -48 -15 -111q-24 -93 -70 -153q-65 -85 -147 -99q-8 -96 -13 -194q9 40 27 80q36 69 61 75q7 2 13 2
q34 0 34 -52q0 -94 -95 -143q22 -105 56 -105q38 0 102 176q2 3 5 4q3 0 5 -1.5t2 -4.5v-1q-72 -195 -122 -195q-34 0 -58 43q-23 39 -32 70l-1 -1l-1 -64v-29q-1 -20 -28 -20zM70 482q75 14 137 94q45 58 67 149q14 61 15 108q-3 124 -57 127q-75 -3 -120 -206
q-32 -141 -42 -272zM62 249q48 29 75 74q31 50 31 83q0 16 -11 16q-26 0 -64 -71q-22 -47 -31 -102z" />
    <glyph glyph-name="l" unicode="l" horiz-adv-x="201" 
d="M66 105h-1q-35 0 -53 47q-13 49 -13 114q0 81 13 207q-114 30 -114 209q0 25 2 54q0 4 6 4q5 0 5 -6q-2 -27 -2 -51q0 -171 104 -198q3 41 16.5 124t39 172t66.5 147q35 50 83 50q80 0 83 -145q0 -48 -14 -111q-24 -93 -70 -153q-65 -85 -147 -99l-3 -36
q-14 -147 -14 -227l1 -42q1 -44 23 -44q37 0 91 111q30 63 35 79q2 2 5 2q6 -2 6 -6l-9 -21q-64 -173 -139 -181zM71 482q75 14 137 94q44 58 67 149q14 61 15 108q-3 124 -57 127q-75 -3 -120 -206q-32 -141 -42 -272z" />
    <glyph glyph-name="m" unicode="m" horiz-adv-x="567" 
d="M26 105q-28 0 -30 25l8 278q3 18 28 18q29 0 31 -20q-3 -78 -5 -172q33 160 110 185l10 1q75 0 75 -141q35 119 99 140l13 1q67 0 67 -104q0 -56 -4 -95q-3 -34 -3 -63q0 -31 18 -31q12 0 31 16q41 39 79 142q11 28 15 28q7 -2 7 -6l-9 -22q-45 -106 -84 -148
q-28 -30 -68 -30q-37 9 -42 63q-2 21 -2 44q0 34 4 72q3 33 3 60q0 14 -1 38t-22 24q-69 -24 -103 -184l-6 -67l-3 -27q-3 -23 -25 -23q-25 0 -25 22l8 141q0 62 -5 100t-25 38q-72 -26 -103 -188q-11 -52 -12 -90l-1 -2q-1 -23 -28 -23z" />
    <glyph glyph-name="n" unicode="n" horiz-adv-x="377" 
d="M24 105q-28 0 -30 25l8 278q3 18 28 18q30 0 30 -20l-5 -172q37 161 111 185l12 1q36 0 52 -28.5t16 -91.5q0 -40 -4 -79q-3 -33 -3 -57q0 -37 18 -37q12 0 30 16q42 38 80 142q6 16 11 26q1 2 4 2q7 -2 7 -7l-9 -21q-14 -33 -35.5 -76t-49 -72.5t-61.5 -29.5h-6
q-37 9 -42 63q-2 21 -2 44q0 34 4 72q3 33 3 60q0 14 -1 38t-22 24q-45 -16 -74 -87q-38 -98 -41 -191l-1 -2q-1 -23 -28 -23z" />
    <glyph glyph-name="o" unicode="o" horiz-adv-x="232" 
d="M53 96q-39 5 -55 39t-16 66q0 35 7 68q0 1 -1 1q-11 24 -11 49q0 54 38 86q24 19 49 19q12 0 36 -8.5t39 -79.5l1 -6q3 -25 3 -53q0 -27 -4 -54q67 18 94 87q1 3 4 3t5 -1t2 -3v-2q-31 -79 -107 -96q-19 -112 -84 -115zM76 125q28 0 48 83q-11 -2 -22 -2q-34 0 -61 14
l-1 -15q3 -80 36 -80zM103 218q12 0 24 2q4 29 4 68q0 33 -4 46q-16 78 -64 78q-22 0 -46 -21q-29 -24 -29 -69q0 -17 6 -34q14 60 39 60q16 0 27 -13q6 -6 6 -14q0 -6 -4 -14q-16 -34 -20 -75q25 -14 61 -14z" />
    <glyph glyph-name="p" unicode="p" horiz-adv-x="344" 
d="M26 -387h-2q-34 0 -34 249q0 182 8 385q4 94 5 150q2 27 32 27q25 0 26 -25q-3 -95 -12 -231q13 74 34 141q28 78 70 112q25 20 47 20q16 0 40 -16.5t27 -111.5q0 -43 -11 -90q57 17 89 86q2 6 7 6q5 -1 5 -5l-1 -5q-31 -74 -103 -96q-15 -55 -58 -105q-40 -47 -90 -47
q-35 0 -35 39q0 35 27 66.5t94 41.5q17 52 17 106q-4 98 -37 98q-2 0 -22 -4t-55 -99q-26 -86 -39 -178q-21 -141 -21 -354q0 -96 11 -130l1 -9q0 -7 -5 -14t-15 -7zM101 69q18 0 35 22t30.5 51.5t20.5 48.5q-106 -18 -106 -95q0 -27 20 -27z" />
    <glyph glyph-name="q" unicode="q" horiz-adv-x="356" 
d="M231 -294q-82 0 -82 285l1 49q2 77 4 85h-16q-9 0 -9 6q0 9 25 9l8 118q-9 -34 -22.5 -68t-30.5 -57t-38 -23q-38 0 -56 33q-23 38 -23 99q0 37 10 79t32.5 73.5t53.5 31.5q31 -2 50.5 -27t27.5 -54v-2q0 -5 -5 -5t-6 4q-4 15 -13 31q-16 25 -32 25q-35 0 -50 -86
q-8 -43 -8 -83q0 -15 2.5 -49.5t23.5 -43.5h3q19 0 37.5 40t32 89.5t18.5 71.5q4 48 7 74q2 10 17 14q7 2 13 2q28 0 28 -25v-2q-10 -78 -21 -256q59 16 91.5 63t51.5 102q2 4 6 4q5 0 5 -6v-3q-21 -59 -56 -107.5t-99 -64.5v-8q63 -37 100 -132q18 -50 18 -117
q0 -142 -86 -168zM255 -268q22 0 40 38q22 49 22 121q0 49 -16 97q-33 87 -90 123q-2 -37 -2 -140q0 -78 8 -153q10 -86 38 -86z" />
    <glyph glyph-name="r" unicode="r" horiz-adv-x="295" 
d="M117 29h-5q-45 10 -51 53q-2 15 -2 32q0 59 38 174q23 73 23 94q0 9 -4 13q-18 13 -58 33l-47 -125l-10 5l47 127q-34 28 -34 65q0 42 29 83q23 33 44 37q16 0 16 -29q0 -27 -23 -100l-10 -29q14 -8 29 -15q26 -11 43 -24q34 -31 34 -81q0 -67 -42 -171l-5 -14
q-28 -71 -28 -96q0 -20 15 -20q61 0 179 269q1 2 4 3q3 0 5 -1.5t2 -2.5l-1 -4q-120 -276 -188 -276zM60 468q31 87 31 124q0 16 -3 16q-7 -2 -18 -19q-28 -42 -28 -85v-14q0 -12 18 -22z" />
    <glyph glyph-name="s" unicode="s" horiz-adv-x="209" 
d="M11 -32q-38 0 -62 25q-17 17 -17 41q0 27 21 64q45 65 121 106q-19 27 -41 52q-30 36 -45 82q-9 27 -9 51q0 65 52 91q20 10 39 10q12 0 33 -7t22 -47q0 -7 -6 -7q-4 0 -6 9q-3 40 -40 40q-16 0 -36 -11.5t-25 -41.5v-3q0 -56 66 -128q26 -30 49 -62q62 30 83 79q0 2 3 2
q8 0 8 -6q-23 -54 -88 -85q22 -40 22 -84q0 -36 -15 -74q-46 -96 -129 -96zM10 -20q15 0 47.5 10t48.5 77q2 14 2 28q0 53 -27 99q-28 -14 -62 -42q-74 -60 -74 -117q0 -23 16 -37q21 -18 49 -18z" />
    <glyph glyph-name="t" unicode="t" horiz-adv-x="208" 
d="M70 105q-47 0 -62 75q-9 50 -9 115q0 98 16 229q-47 -13 -79 -13t-49 13q-31 20 -31 54q0 13 5 24q9 21 26 21q5 0 5 -4t-7 -8q-17 -6 -17 -33q0 -28 25 -44q15 -12 44 -12q31 0 79 14q7 59 13.5 104.5t7.5 64.5q2 15 25 15q10 0 21.5 -4.5t12.5 -13.5l-19 -142
q55 26 97 26q19 0 39 -7t29 -39l1 -5q0 -3 -1.5 -4.5t-4.5 -1.5t-6 8q-11 37 -55 37q-33 0 -101 -27q-27 -202 -27 -306q0 -24 2 -69t27 -51h2q40 0 89 100q29 59 41 90q1 2 4 2q7 -2 7 -6l-8 -19q-75 -183 -142 -183z" />
    <glyph glyph-name="u" unicode="u" horiz-adv-x="384" 
d="M244 105h-1q-34 0 -51 47q-11 39 -11 105q0 34 2 67q-50 -199 -112 -214h-3q-47 0 -61 57q-9 43 -9 92q0 74 12 144q5 20 30 20q27 0 27 -18v-2q-3 -17 -7 -59q-7 -71 -7 -123q0 -88 21 -94q26 0 50 53q35 81 64 212l1 4l1 13q2 15 24 15q34 0 34 -18l-3 -33
q-13 -106 -13 -178l1 -36q1 -38 23 -38q37 0 92 111q33 68 37 79q1 2 4 2q7 -2 7 -6v-1q-39 -87 -67 -135q-36 -61 -85 -66z" />
    <glyph glyph-name="v" unicode="v" horiz-adv-x="317" 
d="M92 110q-43 1 -63.5 57.5t-27 126t-6.5 107.5q2 22 30 22q27 0 28 -23q4 -126 18 -211q10 -62 28 -62q17 0 33 31t27 70t15 56q-14 28 -23 61q-16 59 -16 107q0 85 40 85q32 0 32 -87q0 -72 -21 -165q28 -52 55 -52q7 0 27 9t50 68q1 3 5 3q6 0 6 -5l-1 -3
q-29 -60 -67 -79q-9 -5 -19 -5q-30 0 -60 48q-1 -2 -1 -5q-7 -26 -18 -61t-28.5 -62.5t-42.5 -30.5zM178 303q18 81 18 153q0 69 -21 69q-28 0 -28 -72q0 -77 31 -150z" />
    <glyph glyph-name="w" unicode="w" horiz-adv-x="481" 
d="M69 109q-69 10 -69 226q0 26 1 46v7q1 21 28 21q28 0 30 -26l1 -91q1 -153 16 -165h1q23 0 61 151q21 83 21 123q2 22 30 22q27 0 28 -23q4 -126 18 -211q10 -62 28 -62q17 0 32.5 31t27 70t15.5 56q-14 28 -23 61q-16 59 -16 107q0 85 40 85q32 0 32 -87q0 -72 -21 -165
q28 -52 55 -52q7 0 27 9t50 68q1 3 5 3q6 0 6 -5l-1 -3q-29 -60 -68 -79q-9 -5 -18 -5q-30 0 -60 48l-2 -5q-6 -26 -17 -61.5t-28.5 -62.5t-42.5 -30q-47 1 -68 68.5t-25 141.5q-9 -45 -23.5 -94t-32.5 -83t-38 -34zM342 303q18 81 18 153q0 69 -21 69q-28 0 -28 -72
q0 -77 31 -150z" />
    <glyph glyph-name="x" unicode="x" horiz-adv-x="260" 
d="M-15 85h-3q-7 0 -7 25q0 68 47 123q-21 66 -40 167q0 10 13 16.5t27 6.5q14 -1 18 -15q5 -47 22 -129q27 28 46.5 60.5t21.5 76.5q0 6 7 6q4 0 4 -6q-1 -50 -23.5 -85t-52.5 -66q29 -132 75 -139q40 2 89 109q25 54 31 72q4 8 8 8q5 0 5 -6q0 -7 -35 -84
q-55 -116 -103 -116q-66 2 -109 111q-39 -46 -39 -125q0 -8 -2 -10z" />
    <glyph glyph-name="y" unicode="y" horiz-adv-x="300" 
d="M5 -375q-11 0 -51.5 8.5t-69.5 83.5q-10 27 -10 57q0 54 34 117q31 53 80 94q82 66 176 66l20 -1q9 120 9 210q0 51 -3 93q-30 -130 -66 -195q-27 -48 -56 -48q-47 0 -60 57q-10 42 -10 89q0 74 13 147q5 20 29 20q27 0 27 -18v-2q-13 -112 -13 -170q0 -100 20 -106
q27 0 50.5 53t40.5 117t23 95q0 6 -1 10q1 11 12.5 17.5t21.5 6.5q4 0 13.5 -1.5t11.5 -19.5q5 -69 5 -161q0 -97 -10 -212l6 -3q49 -33 49 -104v-9t-2 -6.5t-4 -1.5q-5 0 -5 10q0 72 -45 101q-5 -62 -34.5 -157.5t-83.5 -168.5q-59 -68 -117 -68zM-13 -342q50 0 97 62
q47 72 71 167.5t28 150.5q-5 1 -20 1q-92 0 -167 -63q-48 -39 -78 -91q-28 -60 -28 -108q0 -105 86 -118z" />
    <glyph glyph-name="z" unicode="z" horiz-adv-x="385" 
d="M52 -373q-32 0 -56 21q-34 30 -34 88q0 12 5 56t92 138q49 49 107 95q1 0 1 1q21 16 40 33q-19 80 -95 106q-25 9 -25 23q0 15 38 42.5t80 89.5q20 30 20 53q0 9 -3 17q-7 19 -48 19q-18 0 -43 -4q-95 -29 -95 -85q0 -33 29 -61q2 -3 2 -6q0 -5 -4 -12q-10 -16 -24 -16
q-6 0 -10 4q-31 37 -31 69q0 8 6 30t43 49q64 47 130 47q20 0 36 -6q37 -16 37 -47q0 -8 -7 -34.5t-42.5 -71.5t-59.5 -67q81 -19 114 -97q35 35 76.5 99.5t54.5 106.5q3 5 7 5q5 0 5 -4l-1 -4q-14 -46 -57.5 -112t-80.5 -103q15 -42 15 -103q0 -102 -51 -212
q-77 -147 -171 -147zM48 -353q24 0 65 22.5t79 131.5q27 91 27 166q0 40 -8 76l-1 3q-110 -92 -141 -122q-95 -103 -95 -186q0 -52 32 -77q19 -14 42 -14z" />
    <glyph glyph-name="braceleft" unicode="{" horiz-adv-x="249" 
d="M204 16q-48 0 -70 24t-28 63t-6 83v75q0 53 -10.5 95.5t-48.5 55.5q-11 5 -11 13q0 9 14 14q43 7 54 46.5t11 93.5v55q0 43 6 82q12 88 93 99h2q9 0 9 -11q0 -10 -12 -14q-35 -10 -43 -52.5t-8 -100.5v-10q0 -63 -12 -121t-66 -83q44 -24 58 -67t14 -92q0 -37 -3 -71.5
t-3 -63.5q0 -39 12 -64t48 -26q7 0 10.5 -4t3.5 -8q0 -11 -14 -11z" />
    <glyph glyph-name="bar" unicode="|" horiz-adv-x="83" 
d="M42 23q-5 0 -8.5 3t-3.5 8v759q0 7 3.5 10.5t8.5 3.5q4 0 7.5 -3.5t3.5 -10.5v-759q0 -11 -11 -11z" />
    <glyph glyph-name="braceright" unicode="}" horiz-adv-x="249" 
d="M45 16q-14 0 -14 11q0 4 3.5 8t10.5 4q36 1 48 26t12 64q0 29 -3 63.5t-3 71.5q0 49 14 92t58 67q-54 25 -67 86q-11 55 -11 118v10q0 58 -8 100.5t-43 52.5q-12 4 -12 14q0 11 11 11q81 -11 94 -99q5 -39 5 -82v-55q0 -54 11 -93.5t54 -46.5q14 -5 14 -14q0 -8 -11 -13
q-38 -13 -48.5 -55.5t-10.5 -95.5v-75q0 -44 -6 -83t-28 -63t-70 -24z" />
    <glyph glyph-name="asciitilde" unicode="~" horiz-adv-x="534" 
d="M379 358q-37 0 -72 12.5t-68 27.5q-30 14 -57.5 24t-52.5 10q-45 0 -77 -40q-6 -6 -11 -6t-8 3t-3 7q0 5 4 11q51 66 116 66q32 0 65 -12t65 -26.5t63.5 -26t61.5 -11.5q40 0 78 31q5 4 9 4q5 0 8.5 -3t3.5 -8q0 -6 -6 -12q-56 -51 -119 -51z" />
    <glyph glyph-name="exclamdown" unicode="&#xa1;" horiz-adv-x="122" 
d="M54 19q-9 0 -16.5 5t-7.5 14l34 666q1 8 11 8q12 0 12 -9l-8 -663q-1 -11 -8.5 -16t-16.5 -5zM75 782q-7 0 -12 6.5t-5 15.5q0 10 5 16.5t12 6.5t12 -6.5t5 -16.5q0 -9 -5 -15.5t-12 -6.5z" />
    <glyph glyph-name="cent" unicode="&#xa2;" horiz-adv-x="397" 
d="M118 97q-5 0 -9 2.5t-4 7.5l14 97q-44 20 -66.5 79t-22.5 129q0 86 36.5 158t111.5 77l11 81q4 19 23 19q10 0 18 -6t8 -16q0 -3 -16 -91q37 -29 37 -106q-3 -19 -10 -19q-4 0 -7.5 5t-3.5 16q0 21 -5.5 40t-15.5 34l-66 -371h2q7 -3 13 -3q45 0 106 115q43 81 71 161
q5 9 12 9q4 0 8 -3t4 -8l-1 -3q-33 -98 -82 -183q-69 -119 -137 -119h-2l-17 -95q-1 -7 -10 -7zM126 256l49 365q-40 -12 -61.5 -77.5t-21.5 -139.5q0 -99 34 -148z" />
    <glyph glyph-name="sterling" unicode="&#xa3;" horiz-adv-x="528" 
d="M63 13q-13 0 -23 13.5t-10 27.5q0 12 8 21q29 24 67 96q46 85 46 234h-99q-6 0 -6 14q0 7 2 13t5 6h98v50q0 145 25 227q36 115 135 115q50 -1 84.5 -38.5t34.5 -94.5q0 -44 -26 -97q-4 -7 -10 -7q-5 0 -9 4t-4 9l2 7q22 44 22 81q0 46 -25.5 75.5t-57.5 29.5
q-45 -1 -68 -42q-38 -63 -38 -215q1 -55 3 -104h91q6 0 6 -15q0 -18 -8 -18h-88l1 -37q-7 -173 -86 -284q42 12 76 12q40 0 70.5 -10.5t56.5 -23.5q20 -9 39.5 -16t40.5 -7q29 0 63 18q2 1 5 1q4 0 8 -3t4 -8q0 -6 -9 -12q-39 -20 -71 -20q-23 0 -45 7.5t-45.5 18.5
t-52 20.5t-64.5 9.5q-43 0 -101 -20q-15 -18 -26 -28t-21 -10z" />
    <glyph glyph-name="currency" unicode="&#xa4;" horiz-adv-x="312" 
d="M43 265q-2 0 -5 2.5t-5.5 5.5t-2.5 6l1 2l30 35q-31 47 -31 105t34 105q-26 40 -26 41q0 2 2.5 4.5t5.5 4t6 1.5q2 0 27 -37q28 24 72 24q56 -1 86 -29l30 36l3 1q3 0 7.5 -4.5t4.5 -8.5l-1 -3l-31 -36q21 -33 21 -74q0 -60 -38 -114l34 -51q0 -3 -5 -6.5t-9 -3.5
q-3 0 -4 2l-29 43q-35 -39 -86 -39q-34 0 -60 24l-29 -35zM151 296q40 0 69 47.5t29 99.5q0 39 -22 69t-73 34h-2q-33 0 -54 -45t-21 -95q0 -38 14.5 -69t47.5 -40z" />
    <glyph glyph-name="yen" unicode="&#xa5;" horiz-adv-x="410" 
d="M187 17q-14 0 -25.5 5.5t-11.5 15.5l8 243h-87q-5 0 -5 13q0 7 2 13.5t5 6.5h83l-19 77h-68q-5 0 -5 13q0 7 2 13.5t5 6.5h57q-67 270 -97 363l-1 9q0 14 12 20.5t25 6.5q25 0 30 -15q31 -102 102 -384h44q25 82 48 168q63 233 78 233q11 0 11 -12l-2 -9
q-36 -109 -69 -231q-21 -76 -43 -149h61q7 0 7 -15q0 -6 -2 -12t-6 -6h-70q-12 -40 -25 -77h98q7 0 7 -15q0 -6 -2 -12t-6 -6h-100l-8 -244q-1 -10 -11 -15t-22 -5zM219 349l14 42h-25z" />
    <glyph glyph-name="brokenbar" unicode="&#xa6;" horiz-adv-x="84" 
d="M54 512h-24v281q0 7 4 10.5t8 3.5q5 0 8.5 -3.5t3.5 -10.5v-281zM42 23q-4 0 -8 3t-4 8v285h24v-285q0 -11 -12 -11z" />
    <glyph glyph-name="section" unicode="&#xa7;" horiz-adv-x="312" 
d="M154 106q-38 0 -71.5 28.5t-51.5 96.5l-1 7q0 11 10 11q8 0 13 -13q17 -58 46.5 -83t59.5 -25q17 0 32 7q42 20 42 63q0 14 -6 30q-23 47 -72 83q-25 21 -47 44.5t-32 53.5q-3 11 -3 22q0 31 33 65q-25 18 -43 42q-20 27 -23 73q0 66 65 102q25 12 52 12q37 0 71 -29
t53 -97l1 -5q0 -6 -3.5 -9.5t-7.5 -3.5q-8 0 -13 13q-16 58 -45.5 83t-59.5 25q-17 0 -33 -7q-42 -20 -42 -63q0 -14 6 -29q23 -48 72 -84q26 -21 47.5 -44t31.5 -53q3 -11 3 -23q0 -32 -33 -65q53 -32 66 -100l1 -14q0 -67 -66 -102q-25 -12 -52 -12zM185 349q25 26 25 47
q-6 41 -67 75l-17 11q-24 -25 -24 -46q0 -25 27 -48q19 -15 42 -30z" />
    <glyph glyph-name="dieresis" unicode="&#xa8;" horiz-adv-x="217" 
d="M61 763q-13 0 -22 9.5t-9 21.5q0 13 9 22t22 9q12 0 21.5 -9t9.5 -22q0 -12 -9.5 -21.5t-21.5 -9.5zM156 763q-13 0 -22 9.5t-9 21.5q0 13 9 22t22 9t22 -9t9 -22q0 -12 -9 -21.5t-22 -9.5z" />
    <glyph glyph-name="copyright" unicode="&#xa9;" horiz-adv-x="494" 
d="M231 165q-51 0 -97 26.5t-75 78t-29 128.5q0 74 29 141q27 62 77.5 102.5t124.5 40.5h9q77 -2 138 -68q56 -66 56 -168q0 -66 -23 -123q-32 -80 -90 -119t-120 -39zM231 179q53 0 105.5 37t82.5 109q22 61 22 120l-2 32q-6 77 -51 129q-48 50 -98 50q-11 0 -22 -2
q-67 -15 -113.5 -86.5t-61.5 -160.5q-5 -31 -5 -57q0 -86 43 -128.5t100 -42.5zM238 255h-5q-33 5 -50 43.5t-17 86.5q0 36 10 69.5t30.5 55t51.5 21.5q23 0 36 -19t13 -52q0 -14 -5 -14q-3 0 -5.5 3.5t-2.5 10.5q0 18 -8 36t-23 20q-29 0 -44 -43t-15 -92q0 -37 9 -66
q11 -36 37 -42q21 0 44 35t40.5 75t24.5 61q3 6 7 6q7 0 7 -7q0 -10 -29 -73q-53 -115 -106 -115z" />
    <glyph glyph-name="ordfeminine" unicode="&#xaa;" horiz-adv-x="148" 
d="M105 679q-11 0 -11 8v11q-16 -15 -35 -16q-17 0 -25 14q-3 6 -4 22q2 25 14 41q9 12 23 15q16 0 26 -6q-2 27 -12 34q-3 3 -6 3q-5 0 -8 -1q-8 -6 -12 -13t-11 -7q-5 0 -8.5 2.5t-3.5 6.5v2q13 34 45 34q39 -7 39 -63l2 -78q0 -9 -13 -9zM61 705q4 0 9 3q16 10 16 32
q-2 5 -4 6q-4 5 -9 5q-7 0 -12 -8q-8 -13 -8 -28q0 -10 6 -10h2z" />
    <glyph glyph-name="guillemotleft" unicode="&#xab;" horiz-adv-x="245" 
d="M129 282q-5 0 -9 5q-15 24 -36 53.5t-38 51.5l-16 22l18 22q19 22 43 51t42 54q6 7 12 7q4 0 7 -3t3 -8q0 -4 -4 -10l-78 -114q68 -116 68 -120q0 -5 -3.5 -8t-8.5 -3zM189 282q-6 0 -10 5q-15 24 -35.5 53.5t-37.5 51.5l-16 22l18 22q19 22 42.5 51t41.5 54q6 7 12 7
q4 0 7.5 -3t3.5 -8q0 -4 -4 -10l-78 -114q68 -116 68 -120q0 -5 -4 -8t-8 -3z" />
    <glyph glyph-name="logicalnot" unicode="&#xac;" horiz-adv-x="466" 
d="M424 363q-15 0 -15 4v74h-371q-8 0 -8 11q0 5 2.5 10t7.5 5q388 0 392 -0.5t4 -7.5v-93q0 -3 -12 -3z" />
    <glyph glyph-name="registered" unicode="&#xae;" horiz-adv-x="494" 
d="M232 144q-52 0 -98 26.5t-75 78.5t-29 129q1 72 27.5 136.5t77.5 106t127 41.5q90 -3 146 -67.5t56 -168.5q0 -60 -23 -124q-32 -80 -89.5 -119t-119.5 -39zM231 158q53 0 105.5 37t82.5 110q22 60 22 120q-2 51 -13 90t-40 71q-45 50 -99 50q-59 0 -104.5 -50.5
t-71 -121.5t-25.5 -134q0 -87 43 -129.5t100 -42.5zM213 245q-5 0 -9.5 3.5t-4.5 9.5v264q21 5 38 5q45 0 68 -24.5t23 -55.5q0 -27 -19 -51.5t-58 -35.5q1 -14 16.5 -33t37.5 -34t40 -15t26 21q-14 -45 -44 -45q-28 0 -56.5 31t-44.5 69v-96q0 -13 -13 -13zM226 367
q32 3 50 29.5t18 55.5q0 24 -14 42.5t-45 18.5h-10z" />
    <glyph glyph-name="macron" unicode="&#xaf;" horiz-adv-x="595" 
d="M551 775h-511q-10 0 -10 15q0 7 3 13t9 6h512q11 0 11 -15q0 -7 -3.5 -13t-10.5 -6z" />
    <glyph glyph-name="degree" unicode="&#xb0;" horiz-adv-x="193" 
d="M95 661h-2q-61 5 -63 72q0 15 5 29q13 39 56 47h5q24 0 39 -11q28 -20 28 -54v-6q0 -41 -29 -64q-16 -13 -39 -13zM94 684q27 0 39 30q4 12 5 24q0 48 -44 48q-26 -6 -34 -31q-4 -11 -4 -22q1 -18 6 -29q9 -17 32 -20z" />
    <glyph glyph-name="plusminus" unicode="&#xb1;" horiz-adv-x="287" 
d="M144 304q-12 0 -12 9v93h-95q-7 0 -7 12t7 12h95v94q0 8 12 8q11 0 11 -8v-94h93q9 0 9 -12t-9 -12h-93v-93q0 -9 -11 -9zM248 274h-211q-7 0 -7 12t7 12h211q9 0 9 -12t-9 -12z" />
    <glyph glyph-name="uni00B2" unicode="&#xb2;" horiz-adv-x="155" 
d="M117 661h-80q-7 0 -7 11q0 10 6 13q18 9 38 36q24 29 24 51q0 14 -13 14t-27 -24q-5 -7 -11 -7q-4 0 -8 2.5t-4 6.5l1 3q8 22 21 32t27 10t24.5 -10t10.5 -28q0 -10 -5 -23q-15 -38 -45 -65h47q10 0 10 -11t-9 -11z" />
    <glyph glyph-name="uni00B3" unicode="&#xb3;" horiz-adv-x="142" 
d="M63 663q-16 0 -30 16q-3 4 -3 7q0 5 4 7.5t8 2.5q6 0 11 -5q1 -2 3.5 -4t12.5 -2l11 5q9 8 9 17q0 7 -5 13t-14 7t-9 12t10 11q14 3 16 18q-3 18 -16 18q-1 0 -4 -1t-7 -6l-2 -2q-4 -16 -15 -16q-10 0 -10 10q2 10 7 17.5t13 13.5t19 6q10 0 20 -6q13 -9 16 -25l1 -9
l-2 -12q-3 -10 -10 -17q15 -11 15 -29q0 -21 -19 -38q-14 -9 -30 -9z" />
    <glyph glyph-name="acute" unicode="&#xb4;" horiz-adv-x="108" 
d="M38 701q-8 0 -8 8l9 81q5 19 22 19q6 0 11.5 -4.5t5.5 -11.5q0 -4 -25 -83q-4 -9 -15 -9z" />
    <glyph glyph-name="mu" unicode="&#xb5;" horiz-adv-x="303" 
d="M54 140q-9 0 -16.5 5t-7.5 16v486q0 10 7.5 15t16.5 5q8 0 15.5 -5t7.5 -15v-185q11 -37 28.5 -53.5t37.5 -16.5q24 0 47 21.5t37 59.5v171q0 12 7 17.5t16 5.5q8 0 15.5 -6t7.5 -18v-344q0 -13 -7 -19t-16 -6t-16 6t-7 19v122q-39 -53 -85 -53q-35 0 -65 39v-247
q0 -10 -7.5 -15t-15.5 -5z" />
    <glyph glyph-name="paragraph" unicode="&#xb6;" horiz-adv-x="353" 
d="M289 139q-9 0 -16.5 5t-7.5 16v483l-33 1v-485q0 -10 -7.5 -15t-15.5 -5q-9 0 -16.5 5t-7.5 16v273q-52 0 -86 15.5t-51.5 41t-17.5 53.5q0 29 18 57.5t56.5 48t93.5 19.5l125 -3l-1 -23h-10v-483q0 -10 -7.5 -15t-15.5 -5z" />
    <glyph glyph-name="periodcentered" unicode="&#xb7;" horiz-adv-x="122" 
d="M61 368q-12 0 -21.5 9t-9.5 22t9.5 22t21.5 9q13 0 22 -9t9 -22t-9 -22t-22 -9z" />
    <glyph glyph-name="periodcentered" unicode="&#x2219;" horiz-adv-x="122" 
d="M61 368q-12 0 -21.5 9t-9.5 22t9.5 22t21.5 9q13 0 22 -9t9 -22t-9 -22t-22 -9z" />
    <glyph glyph-name="cedilla" unicode="&#xb8;" horiz-adv-x="120" 
d="M43 -7h-3q-6 0 -6 5t6 6q12 2 21.5 16t9.5 28q0 10 -5 14.5t-10 4.5t-9.5 -1.5t-8.5 -1.5q-3 0 -5 2t-3 45h18v-25h2q22 0 31 -9.5t9 -23.5q0 -17 -13 -35t-34 -25z" />
    <glyph glyph-name="uni00B9" unicode="&#xb9;" horiz-adv-x="117" 
d="M75 662q-11 0 -11 10v99l-14 -15q-4 -4 -8 -4q-5 0 -8.5 4t-3.5 9q0 4 3 7l31 34q2 2 6 2q6 0 11.5 -3.5t5.5 -10.5v-121q0 -11 -12 -11z" />
    <glyph glyph-name="ordmasculine" unicode="&#xba;" horiz-adv-x="165" 
d="M82 661h-2q-25 2 -37.5 23t-12.5 48q0 25 12 47.5t36 28.5h3q28 0 41 -21t13 -48q0 -28 -14 -53t-39 -25zM81 684q16 0 25 17.5t9 37.5q0 18 -8 32t-26 14q-15 -4 -23 -20t-8 -34t7.5 -32t23.5 -15z" />
    <glyph glyph-name="guillemotright" unicode="&#xbb;" horiz-adv-x="245" 
d="M116 262q-5 0 -8.5 3t-3.5 8q0 4 68 119l-79 115q-4 6 -4 10q0 5 3.5 8t7.5 3q6 0 12 -7q18 -25 42 -54.5t43 -51.5l18 -22l-16 -22q-17 -22 -38 -51t-36 -53q-4 -5 -9 -5zM56 262q-5 0 -8.5 3t-3.5 8q0 4 68 119l-78 115q-4 6 -4 10q0 5 3 8t7 3q6 0 12 -7
q18 -25 42 -54.5t43 -51.5l18 -22l-16 -22q-17 -22 -38 -51t-36 -53q-4 -5 -9 -5z" />
    <glyph glyph-name="onequarter" unicode="&#xbc;" horiz-adv-x="363" 
d="M41 137q-4 0 -7.5 3t-3.5 7q1 4 268 495q8 11 17 11q7 0 12.5 -5t5.5 -13q0 -4 -2 -9l-283 -485q-3 -4 -7 -4zM92 419q-12 0 -12 8l1 166l-16 -22q-4 -4 -9 -4q-8 0 -8 6q0 3 3 8l28 39q5 7 16 7q9 0 9 -8v-191q0 -9 -12 -9zM281 163q-4 0 -8 2t-4 6l1 65h-69
q-15 0 -15 7q0 2 2 4l1 2l79 115q5 7 16 7q9 0 9 -8v-110h22v-17h-22v-64q0 -9 -12 -9zM270 253v84l-55 -84h55z" />
    <glyph glyph-name="onehalf" unicode="&#xbd;" 
d="M42 137q-4 0 -8 3.5t-4 7.5q1 3 268 494q8 11 17 11q7 0 12.5 -5t5.5 -13q0 -4 -2 -9l-283 -485q-2 -4 -6 -4zM93 419q-12 0 -12 8v166l-16 -22q-4 -4 -9 -4q-8 0 -8 6q0 3 3 8q15 20 28 39q6 7 16 7q9 0 9 -8v-191q0 -9 -11 -9zM330 162h-112q2 30 14.5 49.5t30.5 38
t34 44.5q10 19 10 32q0 14 -8 21t-18 7t-19 -7t-12 -23t-13 -16q-4 0 -7.5 3.5t-3.5 8.5q3 25 19.5 37.5t33.5 12.5q19 0 34 -13t15 -37q0 -43 -55 -92q-30 -27 -38 -50h94q9 0 9 -9q0 -7 -8 -7z" />
    <glyph glyph-name="threequarters" unicode="&#xbe;" horiz-adv-x="382" 
d="M60 137q-4 0 -8 3.5t-4 7.5q1 3 269 494q8 11 17 11q7 0 12.5 -5t5.5 -12q0 -5 -3 -10l-283 -485q-2 -4 -6 -4zM300 163q-12 0 -12 8v65h-69q-15 0 -15 7l3 6l80 115q5 7 16 7q9 0 9 -8v-110h21v-17h-21l-1 -64q0 -9 -11 -9zM288 253l1 84l-55 -84h54zM79 419
q-18 0 -33 13t-16 34q0 13 11 13t13 -11q4 -34 27 -34q15 0 29 14.5t14 35.5q0 11 -6 23.5t-30 16.5q-15 4 -15 12t16 13t23.5 18t7.5 24q0 14 -9 22t-20 8q-20 0 -28 -24q-7 -14 -16 -14q-8 0 -9 11q2 23 16.5 34t30.5 11q21 0 39.5 -14.5t18.5 -38.5q0 -15 -10 -32
q-6 -9 -15 -16q14 -8 21 -20q9 -16 9 -32q0 -27 -22 -47t-47 -20z" />
    <glyph glyph-name="questiondown" unicode="&#xbf;" horiz-adv-x="317" 
d="M232 745q-12 0 -21 9t-9 22t9 22t21 9q13 0 22 -9t9 -22t-9 -22t-22 -9zM145 -2q-38 0 -67 22.5t-42 66.5q-6 24 -6 49q0 62 30.5 128t70.5 133.5t71.5 134t31.5 129.5l-1 24q0 17 9 17q6 0 10 -4q9 -9 9 -42q0 -55 -27 -125t-62 -143q-31 -66 -55 -127q-27 -68 -31 -128
q0 -60 48 -84q13 -6 27 -6q23 0 47 13.5t39.5 39.5t15.5 64q0 22 -6 48q0 13 11 13q10 0 12 -10q7 -31 7 -58q0 -65 -34 -103.5t-82 -48.5q-13 -3 -26 -3z" />
    <glyph glyph-name="Agrave" unicode="&#xc0;" horiz-adv-x="565" 
d="M520 -16q-24 0 -56 22t-47.5 109t-18.5 196l-28 1q-56 0 -102 -7l-3 -13q-31 -134 -83 -223q-54 -77 -98 -77q-8 0 -16 3q-38 14 -38 73q0 18 4 42q28 132 173 191l11 44q49 191 66 320q4 19 26 19q29 0 29 -30q0 -59 -64 -323l-3 -14q39 6 85 6h41l-1 40
q-2 109 -13 199.5t-49 129.5q-30 26 -68 26q-34 0 -67 -18q-51 -28 -79 -83q-14 -31 -14 -60q0 -24 10 -43q18 -34 70 -39q11 0 11 -5q0 -6 -10 -6q-26 1 -44 10q-49 24 -49 83q0 32 16 65q29 59 84 88q35 20 72 20q42 0 76 -29q47 -48 62 -149t19 -217l1 -14q81 -6 81 -18
q0 -4 -5 -4h-3q-30 7 -73 10q4 -103 18 -185t53 -113q16 -12 37 -12q34 0 84 30q2 2 4 2q6 0 6 -6q0 -3 -4 -6q-61 -35 -103 -35zM65 20q34 0 71 72q23 48 40 102q23 77 27 93q-85 -38 -123.5 -99t-38.5 -126q1 -42 24 -42zM356 825l-3 1q-52 14 -117 41q-9 5 -9 16v8
q0 7 10 14q5 4 11 4t14 -4l61 -37q43 -25 43 -30q0 -7 -3.5 -10t-6.5 -3z" />
    <glyph glyph-name="Aacute" unicode="&#xc1;" horiz-adv-x="565" 
d="M520 -16q-24 0 -56 22t-47.5 109t-18.5 196l-28 1q-56 0 -102 -7l-3 -13q-31 -134 -83 -223q-54 -77 -98 -77q-8 0 -16 3q-38 14 -38 73q0 18 4 42q28 132 173 191l11 44q49 191 66 320q4 19 26 19q29 0 29 -30q0 -59 -64 -323l-3 -14q39 6 85 6h41l-1 40
q-2 109 -13 199.5t-49 129.5q-30 26 -68 26q-34 0 -67 -18q-51 -28 -79 -83q-14 -31 -14 -60q0 -24 10 -43q18 -34 70 -39q11 0 11 -5q0 -6 -10 -6q-26 1 -44 10q-49 24 -49 83q0 32 16 65q29 59 84 88q35 20 72 20q42 0 76 -29q47 -48 62 -149t19 -217l1 -14q81 -6 81 -18
q0 -4 -5 -4h-3q-30 7 -73 10q4 -103 18 -185t53 -113q16 -12 37 -12q34 0 84 30q2 2 4 2q6 0 6 -6q0 -3 -4 -6q-61 -35 -103 -35zM65 20q34 0 71 72q23 48 40 102q23 77 27 93q-85 -38 -123.5 -99t-38.5 -126q1 -42 24 -42zM286 825q-10 0 -10 11q0 7 43 32q31 18 61 37
q8 4 15 4q20 0 21 -23q0 -13 -9 -19q-47 -19 -95 -34q-23 -8 -26 -8z" />
    <glyph glyph-name="Acircumflex" unicode="&#xc2;" horiz-adv-x="565" 
d="M520 -16q-24 0 -56 22t-47.5 109t-18.5 196l-28 1q-56 0 -102 -7l-3 -13q-31 -134 -83 -223q-54 -77 -98 -77q-8 0 -16 3q-38 14 -38 73q0 18 4 42q28 132 173 191l11 44q49 191 66 320q4 19 26 19q29 0 29 -30q0 -59 -64 -323l-3 -14q39 6 85 6h41l-1 40
q-2 109 -13 199.5t-49 129.5q-30 26 -68 26q-34 0 -67 -18q-51 -28 -79 -83q-14 -31 -14 -60q0 -24 10 -43q18 -34 70 -39q11 0 11 -5q0 -6 -10 -6q-26 1 -44 10q-49 24 -49 83q0 32 16 65q29 59 84 88q35 20 72 20q42 0 76 -29q47 -48 62 -149t19 -217l1 -14q81 -6 81 -18
q0 -4 -5 -4h-3q-30 7 -73 10q4 -103 18 -185t53 -113q16 -12 37 -12q34 0 84 30q2 2 4 2q6 0 6 -6q0 -3 -4 -6q-61 -35 -103 -35zM65 20q34 0 71 72q23 48 40 102q23 77 27 93q-85 -38 -123.5 -99t-38.5 -126q1 -42 24 -42zM425 825l-3 1q-52 20 -85 36q-34 -16 -67 -29
l-21 -8q-8 0 -8 11q0 6 4 9l80 60q7 4 12 4q7 0 92 -64q4 -3 4 -9q0 -11 -8 -11z" />
    <glyph glyph-name="Atilde" unicode="&#xc3;" horiz-adv-x="565" 
d="M520 -16q-24 0 -56 22t-47.5 109t-18.5 196l-28 1q-56 0 -102 -7l-3 -13q-31 -134 -83 -223q-54 -77 -98 -77q-8 0 -16 3q-38 14 -38 73q0 18 4 42q28 132 173 191l11 44q49 191 66 320q4 19 26 19q29 0 29 -30q0 -59 -64 -323l-3 -14q39 6 85 6h41l-1 40
q-2 109 -13 199.5t-49 129.5q-30 26 -68 26q-34 0 -67 -18q-51 -28 -79 -83q-14 -31 -14 -60q0 -24 10 -43q18 -34 70 -39q11 0 11 -5q0 -6 -10 -6q-26 1 -44 10q-49 24 -49 83q0 32 16 65q29 59 84 88q35 20 72 20q42 0 76 -29q47 -48 62 -149t19 -217l1 -14q81 -6 81 -18
q0 -4 -5 -4h-3q-30 7 -73 10q4 -103 18 -185t53 -113q16 -12 37 -12q34 0 84 30q2 2 4 2q6 0 6 -6q0 -3 -4 -6q-61 -35 -103 -35zM65 20q34 0 71 72q23 48 40 102q23 77 27 93q-85 -38 -123.5 -99t-38.5 -126q1 -42 24 -42zM326 839h-1q-26 0 -43 39l-1 3q0 2 2 3.5t6 1.5
q3 -1 6 -4q6 -11 16 -11t29 10q24 14 47 14q21 0 43 -26q3 -3 3 -5q0 -1 -2 -3.5t-7 -2.5l-4 1q-4 5 -11 5q-9 0 -31 -11q-26 -13 -52 -14z" />
    <glyph glyph-name="Adieresis" unicode="&#xc4;" horiz-adv-x="565" 
d="M520 -16q-24 0 -56 22t-47.5 109t-18.5 196l-28 1q-56 0 -102 -7l-3 -13q-31 -134 -83 -223q-54 -77 -98 -77q-8 0 -16 3q-38 14 -38 73q0 18 4 42q28 132 173 191l11 44q49 191 66 320q4 19 26 19q29 0 29 -30q0 -59 -64 -323l-3 -14q39 6 85 6h41l-1 40
q-2 109 -13 199.5t-49 129.5q-30 26 -68 26q-34 0 -67 -18q-51 -28 -79 -83q-14 -31 -14 -60q0 -24 10 -43q18 -34 70 -39q11 0 11 -5q0 -6 -10 -6q-26 1 -44 10q-49 24 -49 83q0 32 16 65q29 59 84 88q35 20 72 20q42 0 76 -29q47 -48 62 -149t19 -217l1 -14q81 -6 81 -18
q0 -4 -5 -4h-3q-30 7 -73 10q4 -103 18 -185t53 -113q16 -12 37 -12q34 0 84 30q2 2 4 2q6 0 6 -6q0 -3 -4 -6q-61 -35 -103 -35zM65 20q34 0 71 72q23 48 40 102q23 77 27 93q-85 -38 -123.5 -99t-38.5 -126q1 -42 24 -42zM302 840q-11 0 -19.5 8t-8.5 19t8.5 19t19.5 8
t19 -8t8 -19t-8 -19t-19 -8zM373 840q-12 0 -20 8t-8 19t8 19t20 8q11 0 19 -8t8 -19t-8 -19t-19 -8z" />
    <glyph glyph-name="Aring" unicode="&#xc5;" horiz-adv-x="565" 
d="M520 -16q-24 0 -56 22t-47.5 109t-18.5 196l-28 1q-56 0 -102 -7l-3 -13q-31 -134 -83 -223q-54 -77 -98 -77q-8 0 -16 3q-38 14 -38 73q0 18 4 42q28 132 173 191l11 44q49 191 66 320q4 19 26 19q29 0 29 -30q0 -59 -64 -323l-3 -14q39 6 85 6h41l-1 40
q-2 109 -13 199.5t-49 129.5q-30 26 -68 26q-34 0 -67 -18q-51 -28 -79 -83q-14 -31 -14 -60q0 -24 10 -43q18 -34 70 -39q11 0 11 -5q0 -6 -10 -6q-26 1 -44 10q-49 24 -49 83q0 32 16 65q29 59 84 88q35 20 72 20q42 0 76 -29q47 -48 62 -149t19 -217l1 -14q81 -6 81 -18
q0 -4 -5 -4h-3q-30 7 -73 10q4 -103 18 -185t53 -113q16 -12 37 -12q34 0 84 30q2 2 4 2q6 0 6 -6q0 -3 -4 -6q-61 -35 -103 -35zM65 20q34 0 71 72q23 48 40 102q23 77 27 93q-85 -38 -123.5 -99t-38.5 -126q1 -42 24 -42zM342 822q-19 0 -32 13t-13 32t13 32t32 13
q18 0 31.5 -13t13.5 -32t-13.5 -32t-31.5 -13zM342 850q7 0 12 5t5 12t-5 12t-12 5t-12 -5t-5 -12t5 -12t12 -5z" />
    <glyph glyph-name="AE" unicode="&#xc6;" horiz-adv-x="842" 
d="M65 20q34 0 71 72q38 80 67 195q-85 -38 -123.5 -99t-38.5 -126q1 -42 24 -42zM648 577q60 0 82 29q16 20 16 42q0 39 -32 55q-14 6 -26 6q-19 0 -41 -16.5t-41 -50t-27 -58.5q37 -7 69 -7zM84 -8q-8 0 -16 3q-38 14 -38 73q0 18 4 42q28 132 173 191q61 246 77 364
q4 19 26 19q29 0 29 -30q0 -59 -64 -323l-3 -14q39 6 126 6q-3 125 -8 177q0 -8 -8 -8q-5 0 -5 7q5 14 11 25l-4 39q-19 155 -117 155q-34 0 -67 -18q-51 -28 -79 -83q-14 -31 -14 -60q0 -74 80 -82q11 0 11 -5q0 -6 -10 -6q-26 1 -44 10q-49 24 -49 83q0 32 16 65
q29 59 84 88q35 20 72 20q42 0 76 -29q47 -48 62 -149v-2q26 28 64 35q23 4 57 4q18 63 77 104q40 28 78 28q19 0 38 -7q40 -21 40 -65q0 -27 -20 -51q-28 -34 -92 -34q-31 0 -72 9q-5 -22 -5 -43q0 -72 49 -82q17 -3 17 -20q0 -18 -20 -18q-64 -19 -114 -102q4 -2 4 -5
q0 -4 -9 -4q-53 -87 -44.5 -181.5t73.5 -104.5q87 0 160 71q93 89 157 226q1 2 4 2q6 0 6 -7q-64 -140 -159 -229q-79 -75 -155 -75q-58 4 -95 34h-1q-4 0 -9 9q-22 21 -35 55t-13 73q0 33 15 78q-2 30 -3 61l-28 1q-56 0 -102 -7q-34 -147 -86 -236q-54 -77 -98 -77z
M432 320q40 61 145 109q-56 52 -56 124q0 12 2 25q-30 0 -51 -5q-40 -7 -64 -40q12 -93 16 -198l1 -14z" />
    <glyph glyph-name="Ccedilla" unicode="&#xc7;" horiz-adv-x="654" 
d="M338 543q18 5 37 9q53 12 100 33q85 44 85 83q0 31 -44 31q-41 0 -97 -50q-27 -29 -48 -58q-33 -46 -33 -48zM344 -11h-2q-104 30 -133 125q-18 60 -18 125q0 39 11.5 113.5t44.5 147.5q-33 -13 -82.5 -51t-85.5 -98.5t-36 -139.5v-9q0 -7 -5 -7q-8 0 -8 27
q0 75 38.5 137t93 102.5t92.5 54.5q50 106 139 169q57 34 103 34q12 0 45 -6.5t33 -47.5q0 -42 -91 -90q-51 -22 -109 -35l-45 -12q-37 -61 -66 -168q-20 -76 -20 -147q0 -30 7.5 -94.5t92.5 -103.5q27 -9 52 -9q49 0 101 42t95.5 121.5t62.5 139.5q1 3 5 4q3 0 4.5 -1.5
t1.5 -4.5v-2q-60 -190 -173 -280q-49 -40 -110 -40q-10 0 -20 1v-12h2q22 0 31 -9.5t9 -23.5q0 -17 -13 -35t-34 -25h-3q-3 0 -4.5 1.5t-1.5 3.5t1.5 4t4.5 2q12 2 21.5 16t9.5 28q0 10 -6 16q-4 3 -9 3t-10 -2q-4 -1 -8 -1q-3 0 -5 2.5t-2 9.5z" />
    <glyph glyph-name="Egrave" unicode="&#xc8;" horiz-adv-x="495" 
d="M192 1l-15 1q-93 14 -124 96q-14 35 -14 74q0 50 33 125t158 132q-56 52 -56 124q0 12 2 25q-30 0 -51 -5q-59 -10 -83 -76q-2 -5 -7 -5t-5 7q27 75 92 86q23 4 57 4q18 63 77 104q40 28 78 28q19 0 38 -7q40 -21 40 -65q0 -27 -20 -51q-28 -34 -92 -34q-24 0 -54 5
l-18 4q-5 -22 -5 -43q0 -72 49 -82q17 -3 17 -20q0 -18 -20 -18q-50 -15 -94 -73t-67 -130q-13 -44 -13 -82q0 -24 9.5 -63t74.5 -49q87 0 160 71q93 89 157 226q1 2 4 2q6 0 6 -7q-64 -140 -159 -229q-79 -75 -155 -75zM301 577q60 0 82 29q16 20 16 42q0 39 -32 55
q-14 6 -26 6q-19 0 -41 -16.5t-41 -50t-27 -58.5l16 -3q29 -4 53 -4zM392 825l-3 1q-52 14 -117 41q-9 5 -9 16v8q0 7 10 14q5 4 11 4t14 -4l61 -37q43 -25 43 -30q0 -7 -3.5 -10t-6.5 -3z" />
    <glyph glyph-name="Eacute" unicode="&#xc9;" horiz-adv-x="495" 
d="M192 1l-15 1q-93 14 -124 96q-14 35 -14 74q0 50 33 125t158 132q-56 52 -56 124q0 12 2 25q-30 0 -51 -5q-59 -10 -83 -76q-2 -5 -7 -5t-5 7q27 75 92 86q23 4 57 4q18 63 77 104q40 28 78 28q19 0 38 -7q40 -21 40 -65q0 -27 -20 -51q-28 -34 -92 -34q-24 0 -54 5
l-18 4q-5 -22 -5 -43q0 -72 49 -82q17 -3 17 -20q0 -18 -20 -18q-50 -15 -94 -73t-67 -130q-13 -44 -13 -82q0 -24 9.5 -63t74.5 -49q87 0 160 71q93 89 157 226q1 2 4 2q6 0 6 -7q-64 -140 -159 -229q-79 -75 -155 -75zM301 577q60 0 82 29q16 20 16 42q0 39 -32 55
q-14 6 -26 6q-19 0 -41 -16.5t-41 -50t-27 -58.5l16 -3q29 -4 53 -4zM262 825q-10 0 -10 11q0 7 43 32q31 18 61 37q8 4 15 4q20 0 21 -23q0 -13 -9 -19q-47 -19 -95 -34q-23 -8 -26 -8z" />
    <glyph glyph-name="Ecircumflex" unicode="&#xca;" horiz-adv-x="495" 
d="M192 1l-15 1q-93 14 -124 96q-14 35 -14 74q0 50 33 125t158 132q-56 52 -56 124q0 12 2 25q-30 0 -51 -5q-59 -10 -83 -76q-2 -5 -7 -5t-5 7q27 75 92 86q23 4 57 4q18 63 77 104q40 28 78 28q19 0 38 -7q40 -21 40 -65q0 -27 -20 -51q-28 -34 -92 -34q-24 0 -54 5
l-18 4q-5 -22 -5 -43q0 -72 49 -82q17 -3 17 -20q0 -18 -20 -18q-50 -15 -94 -73t-67 -130q-13 -44 -13 -82q0 -24 9.5 -63t74.5 -49q87 0 160 71q93 89 157 226q1 2 4 2q6 0 6 -7q-64 -140 -159 -229q-79 -75 -155 -75zM301 577q60 0 82 29q16 20 16 42q0 39 -32 55
q-14 6 -26 6q-19 0 -41 -16.5t-41 -50t-27 -58.5l16 -3q29 -4 53 -4zM389 825l-3 1q-52 20 -85 36q-34 -16 -67 -29l-21 -8q-8 0 -8 11q0 6 4 9l80 60q7 4 12 4q7 0 92 -64q4 -3 4 -9q0 -11 -8 -11z" />
    <glyph glyph-name="Edieresis" unicode="&#xcb;" horiz-adv-x="495" 
d="M192 1l-15 1q-93 14 -124 96q-14 35 -14 74q0 50 33 125t158 132q-56 52 -56 124q0 12 2 25q-30 0 -51 -5q-59 -10 -83 -76q-2 -5 -7 -5t-5 7q27 75 92 86q23 4 57 4q18 63 77 104q40 28 78 28q19 0 38 -7q40 -21 40 -65q0 -27 -20 -51q-28 -34 -92 -34q-24 0 -54 5
l-18 4q-5 -22 -5 -43q0 -72 49 -82q17 -3 17 -20q0 -18 -20 -18q-50 -15 -94 -73t-67 -130q-13 -44 -13 -82q0 -24 9.5 -63t74.5 -49q87 0 160 71q93 89 157 226q1 2 4 2q6 0 6 -7q-64 -140 -159 -229q-79 -75 -155 -75zM301 577q60 0 82 29q16 20 16 42q0 39 -32 55
q-14 6 -26 6q-19 0 -41 -16.5t-41 -50t-27 -58.5l16 -3q29 -4 53 -4zM343 840q-12 0 -20 8t-8 19t8 19t20 8q11 0 19 -8t8 -19t-8 -19t-19 -8zM272 840q-11 0 -19.5 8t-8.5 19t8.5 19t19.5 8t19 -8t8 -19t-8 -19t-19 -8z" />
    <glyph glyph-name="Igrave" unicode="&#xcc;" horiz-adv-x="281" 
d="M79 -2q-26 0 -47 18q-2 2 -2 5q0 6 6 6q2 0 4 -2q17 -15 35 -15q32 0 54 57q41 107 41 349q0 115 -9 202.5t-28 87.5q-15 0 -31.5 -32t-29.5 -89q-18 -74 -18 -136q0 -61 18 -79q4 -5 5 -9q0 -4 -1.5 -4.5t-2.5 -0.5q-2 0 -5 2q-26 18 -26 94q0 25 5.5 80t33.5 124t69 77
h1q45 0 67 -77t22 -192q-1 -116 -22 -228.5t-61 -181.5q-33 -56 -78 -56zM223 825l-3 1q-52 14 -117 41q-9 5 -9 16v8q0 7 10 14q5 4 11 4t14 -4l61 -37q43 -25 43 -30q0 -7 -3.5 -10t-6.5 -3z" />
    <glyph glyph-name="Iacute" unicode="&#xcd;" horiz-adv-x="281" 
d="M79 -2q-26 0 -47 18q-2 2 -2 5q0 6 6 6q2 0 4 -2q17 -15 35 -15q32 0 54 57q41 107 41 349q0 115 -9 202.5t-28 87.5q-15 0 -31.5 -32t-29.5 -89q-18 -74 -18 -136q0 -61 18 -79q4 -5 5 -9q0 -4 -1.5 -4.5t-2.5 -0.5q-2 0 -5 2q-26 18 -26 94q0 25 5.5 80t33.5 124t69 77
h1q45 0 67 -77t22 -192q-1 -116 -22 -228.5t-61 -181.5q-33 -56 -78 -56zM108 825q-10 0 -10 11q0 7 43 32q31 18 61 37q8 4 15 4q20 0 21 -23q0 -13 -9 -19q-47 -19 -95 -34q-23 -8 -26 -8z" />
    <glyph glyph-name="Icircumflex" unicode="&#xce;" horiz-adv-x="281" 
d="M79 -2q-26 0 -47 18q-2 2 -2 5q0 6 6 6q2 0 4 -2q17 -15 35 -15q32 0 54 57q41 107 41 349q0 115 -9 202.5t-28 87.5q-15 0 -31.5 -32t-29.5 -89q-18 -74 -18 -136q0 -61 18 -79q4 -5 5 -9q0 -4 -1.5 -4.5t-2.5 -0.5q-2 0 -5 2q-26 18 -26 94q0 25 5.5 80t33.5 124t69 77
h1q45 0 67 -77t22 -192q-1 -116 -22 -228.5t-61 -181.5q-33 -56 -78 -56zM245 825l-3 1q-52 20 -85 36q-34 -16 -67 -29l-21 -8q-8 0 -8 11q0 6 4 9l80 60q7 4 12 4q7 0 92 -64q4 -3 4 -9q0 -11 -8 -11z" />
    <glyph glyph-name="Idieresis" unicode="&#xcf;" horiz-adv-x="281" 
d="M79 -2q-26 0 -47 18q-2 2 -2 5q0 6 6 6q2 0 4 -2q17 -15 35 -15q32 0 54 57q41 107 41 349q0 115 -9 202.5t-28 87.5q-15 0 -31.5 -32t-29.5 -89q-18 -74 -18 -136q0 -61 18 -79q4 -5 5 -9q0 -4 -1.5 -4.5t-2.5 -0.5q-2 0 -5 2q-26 18 -26 94q0 25 5.5 80t33.5 124t69 77
h1q45 0 67 -77t22 -192q-1 -116 -22 -228.5t-61 -181.5q-33 -56 -78 -56zM129 840q-11 0 -19.5 8t-8.5 19t8.5 19t19.5 8t19 -8t8 -19t-8 -19t-19 -8zM200 840q-12 0 -20 8t-8 19t8 19t20 8q11 0 19 -8t8 -19t-8 -19t-19 -8z" />
    <glyph glyph-name="Eth" unicode="&#xd0;" horiz-adv-x="586" 
d="M198 353q0 -7 -1 -14q44 -1 79 -21q45 -24 53 -70q0 -5 -4 -5h-3t-3 4q-8 40 -48 62q-33 19 -74 19q0 -80 -6 -143q-9 -83 -37 -83q-9 0 -9 11q0 8 4 12q13 16 14 71q0 74 -2 129q-114 -27 -114 -132q0 -20 10.5 -59.5t59.5 -77.5q40 -31 99 -31l26 1q100 16 156 95
q77 109 77 270q0 187 -97 281q-43 41 -102 41q-23 0 -49 -6q-67 -20 -105 -61q-43 -46 -43 -89q0 -34 36 -47l5 -6q0 -5 -6 -5q-47 15 -50 64q0 54 35.5 102.5t110.5 68.5q38 8 71 8q80 0 146 -55t93 -167q14 -60 14 -122q0 -54 -17.5 -141.5t-92.5 -170t-200 -87.5
q-118 5 -164 79q-30 47 -30 98q0 27 17 81t113 78q0 9 -1 18h-143q-3 0 -4.5 3.5t-1.5 7.5q0 5 2 10t6 5h141q-1 29 -1 58q0 37 1.5 96.5t23.5 97.5q9 11 18 11q21 0 32 -29q2 -6 2 -11q0 -11 -9 -19q-26 -24 -28 -204h115q4 0 5.5 -3.5t1.5 -8.5t-2 -9.5t-7 -4.5h-113z" />
    <glyph glyph-name="Ntilde" unicode="&#xd1;" horiz-adv-x="654" 
d="M656 -124q-113 0 -127 246q-6 96 -6 196v84q0 98 -6 178.5t-36 98.5q-5 3 -11 3q-37 0 -70 -102q-41 -139 -64 -346q-5 -120 -15 -215q-3 -23 -26 -23q-10 0 -21.5 6.5t-11.5 17.5q18 161 18 358q0 144 -23 228q-35 95 -83 95q-2 0 -27.5 -1.5t-64.5 -63.5t-41 -142
q0 -38 10 -70q17 -61 63 -69q9 -2 9 -6q0 -6 -10 -6q-54 9 -74 78q-9 33 -9 73q2 97 54.5 168.5t118.5 71.5q61 0 99 -103q36 -119 36 -282v-9l8 53q36 221 96 292q30 36 61 36h3q38 -7 54 -65q21 -77 21 -261l-1 -125q0 -90 3.5 -182t27.5 -151q19 -47 58 -47q10 0 21 3h3
q2 0 4 -2t2 -5q-1 -3 -6 -5q-20 -5 -37 -5zM452 839h-1q-26 0 -43 39l-1 3q0 2 2 3.5t6 1.5q3 -1 6 -4q6 -11 16 -11t29 10q24 14 47 14q21 0 43 -26q3 -3 3 -5q0 -1 -2 -3.5t-7 -2.5l-4 1q-4 5 -11 5q-9 0 -31 -11q-26 -13 -52 -14z" />
    <glyph glyph-name="Ograve" unicode="&#xd2;" horiz-adv-x="518" 
d="M280 0h-1q-38 6 -62.5 48t-37 92.5t-13.5 81.5q-80 26 -112 95q-24 51 -24 109q0 20 7.5 71.5t58.5 118.5q88 104 200 104h6q91 -8 129.5 -82t38.5 -178v-58q0 -55 -28.5 -160t-71.5 -173.5t-90 -68.5zM294 17q32 0 68.5 60t64.5 162q30 114 30 222q0 95 -33 164
q-36 73 -124 73q-96 0 -171 -102q-63 -92 -63 -196q0 -43 17.5 -93t81.5 -72q-1 17 -1 54q0 113 22 221q4 17 26 17q11 0 21 -6t10 -19l-1 -6q-20 -104 -20 -213q0 -29 2 -57q38 0 86 14h3q6 0 6 -5q0 -4 -6 -7q-49 -13 -88 -13q0 -23 7 -79q11 -100 53 -118q4 -1 9 -1z
M376 825l-3 1q-52 14 -117 41q-9 5 -9 16v8q0 7 10 14q5 4 11 4t14 -4l61 -37q43 -25 43 -30q0 -7 -3.5 -10t-6.5 -3z" />
    <glyph glyph-name="Oacute" unicode="&#xd3;" horiz-adv-x="518" 
d="M280 0h-1q-38 6 -62.5 48t-37 92.5t-13.5 81.5q-80 26 -112 95q-24 51 -24 109q0 20 7.5 71.5t58.5 118.5q88 104 200 104h6q91 -8 129.5 -82t38.5 -178v-58q0 -55 -28.5 -160t-71.5 -173.5t-90 -68.5zM294 17q32 0 68.5 60t64.5 162q30 114 30 222q0 95 -33 164
q-36 73 -124 73q-96 0 -171 -102q-63 -92 -63 -196q0 -43 17.5 -93t81.5 -72q-1 17 -1 54q0 113 22 221q4 17 26 17q11 0 21 -6t10 -19l-1 -6q-20 -104 -20 -213q0 -29 2 -57q38 0 86 14h3q6 0 6 -5q0 -4 -6 -7q-49 -13 -88 -13q0 -23 7 -79q11 -100 53 -118q4 -1 9 -1z
M251 825q-10 0 -10 11q0 7 43 32q31 18 61 37q8 4 15 4q20 0 21 -23q0 -13 -9 -19q-47 -19 -95 -34q-23 -8 -26 -8z" />
    <glyph glyph-name="Ocircumflex" unicode="&#xd4;" horiz-adv-x="518" 
d="M280 0h-1q-38 6 -62.5 48t-37 92.5t-13.5 81.5q-80 26 -112 95q-24 51 -24 109q0 20 7.5 71.5t58.5 118.5q88 104 200 104h6q91 -8 129.5 -82t38.5 -178v-58q0 -55 -28.5 -160t-71.5 -173.5t-90 -68.5zM294 17q32 0 68.5 60t64.5 162q30 114 30 222q0 95 -33 164
q-36 73 -124 73q-96 0 -171 -102q-63 -92 -63 -196q0 -43 17.5 -93t81.5 -72q-1 17 -1 54q0 113 22 221q4 17 26 17q11 0 21 -6t10 -19l-1 -6q-20 -104 -20 -213q0 -29 2 -57q38 0 86 14h3q6 0 6 -5q0 -4 -6 -7q-49 -13 -88 -13q0 -23 7 -79q11 -100 53 -118q4 -1 9 -1z
M396 825l-3 1q-52 20 -85 36q-34 -16 -67 -29l-21 -8q-8 0 -8 11q0 6 4 9l80 60q7 4 12 4q7 0 92 -64q4 -3 4 -9q0 -11 -8 -11z" />
    <glyph glyph-name="Otilde" unicode="&#xd5;" horiz-adv-x="518" 
d="M280 0h-1q-38 6 -62.5 48t-37 92.5t-13.5 81.5q-80 26 -112 95q-24 51 -24 109q0 20 7.5 71.5t58.5 118.5q88 104 200 104h6q91 -8 129.5 -82t38.5 -178v-58q0 -55 -28.5 -160t-71.5 -173.5t-90 -68.5zM294 17q32 0 68.5 60t64.5 162q30 114 30 222q0 95 -33 164
q-36 73 -124 73q-96 0 -171 -102q-63 -92 -63 -196q0 -43 17.5 -93t81.5 -72q-1 17 -1 54q0 113 22 221q4 17 26 17q11 0 21 -6t10 -19l-1 -6q-20 -104 -20 -213q0 -29 2 -57q38 0 86 14h3q6 0 6 -5q0 -4 -6 -7q-49 -13 -88 -13q0 -23 7 -79q11 -100 53 -118q4 -1 9 -1z
M263 839h-1q-26 0 -43 39l-1 3q0 2 2 3.5t6 1.5q3 -1 6 -4q6 -11 16 -11t29 10q24 14 47 14q21 0 43 -26q3 -3 3 -5q0 -1 -2 -3.5t-7 -2.5l-4 1q-4 5 -11 5q-9 0 -31 -11q-26 -13 -52 -14z" />
    <glyph glyph-name="Odieresis" unicode="&#xd6;" horiz-adv-x="518" 
d="M280 0h-1q-38 6 -62.5 48t-37 92.5t-13.5 81.5q-80 26 -112 95q-24 51 -24 109q0 20 7.5 71.5t58.5 118.5q88 104 200 104h6q91 -8 129.5 -82t38.5 -178v-58q0 -55 -28.5 -160t-71.5 -173.5t-90 -68.5zM294 17q32 0 68.5 60t64.5 162q30 114 30 222q0 95 -33 164
q-36 73 -124 73q-96 0 -171 -102q-63 -92 -63 -196q0 -43 17.5 -93t81.5 -72q-1 17 -1 54q0 113 22 221q4 17 26 17q11 0 21 -6t10 -19l-1 -6q-20 -104 -20 -213q0 -29 2 -57q38 0 86 14h3q6 0 6 -5q0 -4 -6 -7q-49 -13 -88 -13q0 -23 7 -79q11 -100 53 -118q4 -1 9 -1z
M273 840q-11 0 -19.5 8t-8.5 19t8.5 19t19.5 8t19 -8t8 -19t-8 -19t-19 -8zM344 840q-12 0 -20 8t-8 19t8 19t20 8q11 0 19 -8t8 -19t-8 -19t-19 -8z" />
    <glyph glyph-name="multiply" unicode="&#xd7;" horiz-adv-x="230" 
d="M187 310q-3 0 -6 3l-66 65l-66 -66q-2 -2 -5 -2q-5 0 -9.5 4t-4.5 9q0 3 3 6l66 66q-69 66 -69 72q0 4 4.5 8.5t8.5 4.5q6 0 72 -69q22 23 45 45l22 22q2 2 5 2q4 0 8.5 -4.5t4.5 -8.5q0 -3 -68 -72l65 -66q3 -3 3 -6q0 -4 -4 -8.5t-9 -4.5z" />
    <glyph glyph-name="Oslash" unicode="&#xd8;" horiz-adv-x="518" 
d="M384 693q29 -20 48 -55q38 -74 38 -178v-58q0 -55 -28.5 -160t-71.5 -173.5t-90 -68.5h-1q-38 6 -62 48q-6 9 -10 18l-21 -75q-1 -5 -5 -7t-8 0q-5 1 -7.5 4.5t-1.5 8.5l29 101q-8 21 -13 43q-13 50 -14 81q-80 26 -112 95q-24 51 -24 109q0 20 7.5 71.5t58.5 118.5
q88 104 200 104h6q34 -3 61 -16l7 24q2 7 6 9.5t9 1.5q4 -2 6.5 -6t0.5 -11zM230 149q1 -6 2 -13q11 -100 53 -118q4 -1 9 -1q32 0 68.5 60t64.5 162q30 114 30 222q0 95 -33 164q-17 34 -45 52l-126 -449q26 3 57 12h3q6 0 6 -5q0 -4 -6 -7q-34 -9 -64 -12zM229 226
l130 462q-26 10 -59 10q-96 0 -171 -102q-63 -92 -63 -196q0 -43 17.5 -93t81.5 -72q-1 17 -1 54q0 113 22 221q4 17 26 17q11 0 21 -6t10 -19l-1 -6q-20 -104 -20 -213q0 -29 2 -57h5z" />
    <glyph glyph-name="Ugrave" unicode="&#xd9;" horiz-adv-x="729" 
d="M695 -188q-38 0 -56 77q-25 102 -25 323q0 168 13 372q-83 -309 -160 -464q-56 -114 -114 -114q-36 0 -54 39q-22 46 -22 170q0 53 3 112q2 51 2 98q0 56 -4.5 128t-45.5 105q-17 10 -34 10q-23 0 -57.5 -24t-65.5 -92q-33 -73 -33 -142q0 -109 77 -132q7 -2 7 -7t-7 -5
h-2q-87 25 -87 141q0 22 4 46q21 140 114 213q42 31 82 31q68 0 93 -90q22 -80 22 -209q0 -79 -3 -156q-3 -56 -3 -100q0 -36 2 -64q3 -59 25 -59h4q48 19 97 127q87 190 163 497l7 109q3 17 31 17q27 0 28 -22q-3 -58 -13 -179q-28 -362 -28 -520q0 -46 3.5 -129.5
t36.5 -94.5q5 -1 5 -6t-5 -6zM527 825l-3 1q-52 14 -117 41q-9 5 -9 16v8q0 7 10 14q5 4 11 4t14 -4l61 -37q43 -25 43 -30q0 -7 -3.5 -10t-6.5 -3z" />
    <glyph glyph-name="Uacute" unicode="&#xda;" horiz-adv-x="729" 
d="M695 -188q-38 0 -56 77q-25 102 -25 323q0 168 13 372q-83 -309 -160 -464q-56 -114 -114 -114q-36 0 -54 39q-22 46 -22 170q0 53 3 112q2 51 2 98q0 56 -4.5 128t-45.5 105q-17 10 -34 10q-23 0 -57.5 -24t-65.5 -92q-33 -73 -33 -142q0 -109 77 -132q7 -2 7 -7t-7 -5
h-2q-87 25 -87 141q0 22 4 46q21 140 114 213q42 31 82 31q68 0 93 -90q22 -80 22 -209q0 -79 -3 -156q-3 -56 -3 -100q0 -36 2 -64q3 -59 25 -59h4q48 19 97 127q87 190 163 497l7 109q3 17 31 17q27 0 28 -22q-3 -58 -13 -179q-28 -362 -28 -520q0 -46 3.5 -129.5
t36.5 -94.5q5 -1 5 -6t-5 -6zM433 825q-10 0 -10 11q0 7 43 32q31 18 61 37q8 4 15 4q20 0 21 -23q0 -13 -9 -19q-47 -19 -95 -34q-23 -8 -26 -8z" />
    <glyph glyph-name="Ucircumflex" unicode="&#xdb;" horiz-adv-x="729" 
d="M695 -188q-38 0 -56 77q-25 102 -25 323q0 168 13 372q-83 -309 -160 -464q-56 -114 -114 -114q-36 0 -54 39q-22 46 -22 170q0 53 3 112q2 51 2 98q0 56 -4.5 128t-45.5 105q-17 10 -34 10q-23 0 -57.5 -24t-65.5 -92q-33 -73 -33 -142q0 -109 77 -132q7 -2 7 -7t-7 -5
h-2q-87 25 -87 141q0 22 4 46q21 140 114 213q42 31 82 31q68 0 93 -90q22 -80 22 -209q0 -79 -3 -156q-3 -56 -3 -100q0 -36 2 -64q3 -59 25 -59h4q48 19 97 127q87 190 163 497l7 109q3 17 31 17q27 0 28 -22q-3 -58 -13 -179q-28 -362 -28 -520q0 -46 3.5 -129.5
t36.5 -94.5q5 -1 5 -6t-5 -6zM564 825l-3 1q-52 20 -85 36q-34 -16 -67 -29l-21 -8q-8 0 -8 11q0 6 4 9l80 60q7 4 12 4q7 0 92 -64q4 -3 4 -9q0 -11 -8 -11z" />
    <glyph glyph-name="Udieresis" unicode="&#xdc;" horiz-adv-x="729" 
d="M695 -188q-38 0 -56 77q-25 102 -25 323q0 168 13 372q-83 -309 -160 -464q-56 -114 -114 -114q-36 0 -54 39q-22 46 -22 170q0 53 3 112q2 51 2 98q0 56 -4.5 128t-45.5 105q-17 10 -34 10q-23 0 -57.5 -24t-65.5 -92q-33 -73 -33 -142q0 -109 77 -132q7 -2 7 -7t-7 -5
h-2q-87 25 -87 141q0 22 4 46q21 140 114 213q42 31 82 31q68 0 93 -90q22 -80 22 -209q0 -79 -3 -156q-3 -56 -3 -100q0 -36 2 -64q3 -59 25 -59h4q48 19 97 127q87 190 163 497l7 109q3 17 31 17q27 0 28 -22q-3 -58 -13 -179q-28 -362 -28 -520q0 -46 3.5 -129.5
t36.5 -94.5q5 -1 5 -6t-5 -6zM459 840q-11 0 -19.5 8t-8.5 19t8.5 19t19.5 8t19 -8t8 -19t-8 -19t-19 -8zM530 840q-12 0 -20 8t-8 19t8 19t20 8q11 0 19 -8t8 -19t-8 -19t-19 -8z" />
    <glyph glyph-name="Yacute" unicode="&#xdd;" horiz-adv-x="691" 
d="M281 -295q-85 0 -129 76q-18 33 -18 72q0 75 55 123q51 43 142 43q67 0 137 -28q12 -5 24 -12q22 63 37 131q30 140 30 348l3 127q-68 -255 -140 -398q-50 -97 -99 -97q-33 0 -50 36q-20 42 -20 153q0 49 3 103q2 46 2 88q0 51 -4 116t-42 95q-15 10 -31 10
q-62 0 -111 -106q-30 -66 -30 -128q0 -100 71 -120q5 -3 5 -6q0 -5 -5 -5h-3q-78 24 -78 128q0 68 31 136q28 62 76 98q37 29 74 29q62 0 84 -81q20 -74 20 -191q0 -71 -3 -141q-2 -51 -2 -93q0 -31 1 -56q3 -53 22 -53h4q42 16 84 105q72 152 144 428v4q5 27 32 27
q24 0 27 -25q1 -31 1 -72q0 -72 -5 -203q-11 -237 -77 -418q33 -26 59 -62q5 -6 5 -10q0 -6 -4 -6t-11 10q-23 32 -54 56q-21 -55 -65 -114t-106 -95q-45 -22 -86 -22zM272 -275q39 0 84 30q81 64 132 213q-12 7 -25 12q-68 28 -134 28q-83 0 -132.5 -42t-49.5 -109
q0 -35 22 -74.5t74 -53.5q14 -4 29 -4zM415 840q-11 0 -19.5 8t-8.5 19t8.5 19t19.5 8t19 -8t8 -19t-8 -19t-19 -8zM486 840q-12 0 -20 8t-8 19t8 19t20 8q11 0 19 -8t8 -19t-8 -19t-19 -8z" />
    <glyph glyph-name="Thorn" unicode="&#xde;" horiz-adv-x="333" 
d="M-5840 136q-8 0 -14 6.5t-6 20.5v488q0 9 6 14t14 5q7 0 13 -5t6 -15v-153q24 3 45 3q69 0 103.5 -28t34.5 -63q0 -38 -41 -70.5t-125 -32.5h-17v-145q0 -12 -6 -18.5t-13 -6.5zM-5798 341q72 0 107 21t35 46q0 22 -28.5 39.5t-84.5 17.5q-24 0 -52 -4v-119z" />
    <glyph glyph-name="germandbls" unicode="&#xdf;" horiz-adv-x="325" 
d="M46 143q-6 0 -11 5.5t-5 15.5v493q24 5 52 5q67 0 108 -27.5t41 -72.5q0 -46 -52 -104q63 -14 89.5 -44.5t26.5 -65.5q0 -47 -37 -87t-84 -40q-32 0 -64 25q-10 7 -10 11t5.5 7.5t10.5 8.5q17 -22 44 -22q37 0 69 36t32 75q0 29 -25 51.5t-84 25.5q-10 2 -10 9q0 3 0.5 4
l3.5 7q50 60 50 106q0 34 -23.5 55t-69.5 21q-18 0 -40 -4v-472q0 -11 -5 -16.5t-12 -5.5z" />
    <glyph glyph-name="agrave" unicode="&#xe0;" 
d="M230 105h-1q-64 0 -64 143l1 24q-9 -36 -23 -73t-32 -63t-40 -26q-38 0 -56 33q-23 38 -23 99q0 37 10 79t32.5 73.5t53.5 31.5q31 -2 50.5 -27t27.5 -54v-2q0 -5 -5 -5t-6 4q-5 15 -14 31q-14 25 -31 25q-35 0 -50 -86q-8 -43 -8 -83q0 -15 2.5 -49.5t23.5 -43.5h3
q19 0 38 40q32 68 50 161q3 57 5.5 72t24.5 15q34 0 34 -18l-3 -33q-13 -103 -13 -178l1 -36q1 -38 23 -38q37 0 92 111q33 68 37 79q1 2 4 2q7 -2 7 -6v-1q-39 -87 -67 -135q-36 -61 -84 -66zM178 497l-3 1q-52 14 -117 41q-9 5 -9 16v8q0 7 10 14q5 4 11 4t14 -4l61 -37
q43 -25 43 -30q0 -7 -3.5 -10t-6.5 -3z" />
    <glyph glyph-name="aacute" unicode="&#xe1;" 
d="M230 105h-1q-64 0 -64 143l1 24q-9 -36 -23 -73t-32 -63t-40 -26q-38 0 -56 33q-23 38 -23 99q0 37 10 79t32.5 73.5t53.5 31.5q31 -2 50.5 -27t27.5 -54v-2q0 -5 -5 -5t-6 4q-5 15 -14 31q-14 25 -31 25q-35 0 -50 -86q-8 -43 -8 -83q0 -15 2.5 -49.5t23.5 -43.5h3
q19 0 38 40q32 68 50 161q3 57 5.5 72t24.5 15q34 0 34 -18l-3 -33q-13 -103 -13 -178l1 -36q1 -38 23 -38q37 0 92 111q33 68 37 79q1 2 4 2q7 -2 7 -6v-1q-39 -87 -67 -135q-36 -61 -84 -66zM65 497q-10 0 -10 11q0 7 43 32q31 18 61 37q8 4 15 4q20 0 21 -23
q0 -13 -9 -19q-47 -19 -95 -34q-23 -8 -26 -8z" />
    <glyph glyph-name="acircumflex" unicode="&#xe2;" 
d="M230 105h-1q-64 0 -64 143l1 24q-9 -36 -23 -73t-32 -63t-40 -26q-38 0 -56 33q-23 38 -23 99q0 37 10 79t32.5 73.5t53.5 31.5q31 -2 50.5 -27t27.5 -54v-2q0 -5 -5 -5t-6 4q-5 15 -14 31q-14 25 -31 25q-35 0 -50 -86q-8 -43 -8 -83q0 -15 2.5 -49.5t23.5 -43.5h3
q19 0 38 40q32 68 50 161q3 57 5.5 72t24.5 15q34 0 34 -18l-3 -33q-13 -103 -13 -178l1 -36q1 -38 23 -38q37 0 92 111q33 68 37 79q1 2 4 2q7 -2 7 -6v-1q-39 -87 -67 -135q-36 -61 -84 -66zM215 497l-3 1q-52 20 -85 36q-34 -16 -67 -29l-21 -8q-8 0 -8 11q0 6 4 9l80 60
q7 4 12 4q7 0 92 -64q4 -3 4 -9q0 -11 -8 -11z" />
    <glyph glyph-name="atilde" unicode="&#xe3;" 
d="M230 105h-1q-64 0 -64 143l1 24q-9 -36 -23 -73t-32 -63t-40 -26q-38 0 -56 33q-23 38 -23 99q0 37 10 79t32.5 73.5t53.5 31.5q31 -2 50.5 -27t27.5 -54v-2q0 -5 -5 -5t-6 4q-5 15 -14 31q-14 25 -31 25q-35 0 -50 -86q-8 -43 -8 -83q0 -15 2.5 -49.5t23.5 -43.5h3
q19 0 38 40q32 68 50 161q3 57 5.5 72t24.5 15q34 0 34 -18l-3 -33q-13 -103 -13 -178l1 -36q1 -38 23 -38q37 0 92 111q33 68 37 79q1 2 4 2q7 -2 7 -6v-1q-39 -87 -67 -135q-36 -61 -84 -66zM90 511h-1q-26 0 -43 39l-1 3q0 2 2 3.5t6 1.5q3 -1 6 -4q6 -11 16 -11t29 10
q24 14 47 14q21 0 43 -26q3 -3 3 -5q0 -1 -2 -3.5t-7 -2.5l-4 1q-4 5 -11 5q-9 0 -31 -11q-26 -13 -52 -14z" />
    <glyph glyph-name="adieresis" unicode="&#xe4;" 
d="M230 105h-1q-64 0 -64 143l1 24q-9 -36 -23 -73t-32 -63t-40 -26q-38 0 -56 33q-23 38 -23 99q0 37 10 79t32.5 73.5t53.5 31.5q31 -2 50.5 -27t27.5 -54v-2q0 -5 -5 -5t-6 4q-5 15 -14 31q-14 25 -31 25q-35 0 -50 -86q-8 -43 -8 -83q0 -15 2.5 -49.5t23.5 -43.5h3
q19 0 38 40q32 68 50 161q3 57 5.5 72t24.5 15q34 0 34 -18l-3 -33q-13 -103 -13 -178l1 -36q1 -38 23 -38q37 0 92 111q33 68 37 79q1 2 4 2q7 -2 7 -6v-1q-39 -87 -67 -135q-36 -61 -84 -66zM91 512q-11 0 -19.5 8t-8.5 19t8.5 19t19.5 8t19 -8t8 -19t-8 -19t-19 -8z
M162 512q-12 0 -20 8t-8 19t8 19t20 8q11 0 19 -8t8 -19t-8 -19t-19 -8z" />
    <glyph glyph-name="aring" unicode="&#xe5;" 
d="M230 105h-1q-64 0 -64 143l1 24q-9 -36 -23 -73t-32 -63t-40 -26q-38 0 -56 33q-23 38 -23 99q0 37 10 79t32.5 73.5t53.5 31.5q31 -2 50.5 -27t27.5 -54v-2q0 -5 -5 -5t-6 4q-5 15 -14 31q-14 25 -31 25q-35 0 -50 -86q-8 -43 -8 -83q0 -15 2.5 -49.5t23.5 -43.5h3
q19 0 38 40q32 68 50 161q3 57 5.5 72t24.5 15q34 0 34 -18l-3 -33q-13 -103 -13 -178l1 -36q1 -38 23 -38q37 0 92 111q33 68 37 79q1 2 4 2q7 -2 7 -6v-1q-39 -87 -67 -135q-36 -61 -84 -66zM133 494q-19 0 -32 13t-13 32t13 32t32 13q18 0 31.5 -13t13.5 -32t-13.5 -32
t-31.5 -13zM133 522q7 0 12 5t5 12t-5 12t-12 5t-12 -5t-5 -12t5 -12t12 -5z" />
    <glyph glyph-name="ae" unicode="&#xe6;" horiz-adv-x="395" 
d="M272 287q23 3 35 19.5t12 40.5q0 58 -27 58q-25 0 -48 -59q-9 -29 -11 -42q15 -17 39 -17zM166 242q0 3 -1 6l1 24q-9 -36 -23 -73t-32 -63t-40 -26q-38 0 -56 33q-23 38 -23 99q0 37 10 79t32.5 73.5t53.5 31.5q31 -2 50.5 -27t27.5 -54v-2q0 -5 -5 -5t-6 4
q-5 15 -14 31q-14 25 -31 25q-35 0 -50 -86q-8 -43 -8 -83q0 -15 2.5 -49.5t23.5 -43.5h3q19 0 38 40q32 68 50 161q3 57 5.5 72t24.5 15q29 0 33 -14q20 14 44 14q16 0 31 -10q24 -17 24 -64q0 -30 -16 -52t-46 -22q-20 0 -39 14q-9 -41 -9 -82q0 -20 5 -45q7 -34 41 -34
q59 0 121 159l10 23q1 2 4 2q6 -2 6 -6l-12 -30q-21 -54 -54.5 -107t-86.5 -60h-2q-87 0 -87 124v8z" />
    <glyph glyph-name="ccedilla" unicode="&#xe7;" horiz-adv-x="220" 
d="M69 110q-41 7 -59 51q-16 38 -16 85q0 16 4.5 56.5t34.5 86.5q25 36 61 36q37 0 51 -30q10 -20 10 -44q0 -12 -8 -12q-4 0 -4 6v5q0 22 -7 39.5t-21 18.5q-22 -4 -39 -45q-29 -68 -29 -146q0 -24 5 -55q6 -37 37 -37q26 0 49 27.5t42.5 67t32.5 70.5q5 13 9 21q1 2 4 2
q6 -2 6 -6l-10 -25q-21 -53 -55 -110q-34 -55 -80 -62v-17h2q22 0 31 -9.5t9 -23.5q0 -17 -13 -35t-34 -25h-3q-3 0 -4.5 1.5t-1.5 3.5t1.5 4t4.5 2q12 2 21.5 16t9.5 28q0 10 -6 16q-4 3 -9 3t-10 -2q-4 -1 -8 -1q-3 0 -5 2.5t-2 9.5z" />
    <glyph glyph-name="egrave" unicode="&#xe8;" horiz-adv-x="224" 
d="M82 110h-2q-87 0 -87 124q0 71 22 120q34 70 88 70q16 0 31 -10q24 -17 24 -64q0 -30 -16 -52t-46 -22q-20 0 -39 14q-9 -41 -9 -82q0 -20 5 -45q7 -34 41 -34q59 0 121 159l10 23q1 2 4 2q6 -2 6 -6l-12 -30q-21 -54 -54.5 -107t-86.5 -60zM99 287q23 3 35 19.5t12 40.5
q0 58 -27 58q-25 0 -48 -59q-9 -29 -11 -42q15 -17 39 -17zM166 497l-3 1q-52 14 -117 41q-9 5 -9 16v8q0 7 10 14q5 4 11 4t14 -4l61 -37q43 -25 43 -30q0 -7 -3.5 -10t-6.5 -3z" />
    <glyph glyph-name="eacute" unicode="&#xe9;" horiz-adv-x="224" 
d="M82 110h-2q-87 0 -87 124q0 71 22 120q34 70 88 70q16 0 31 -10q24 -17 24 -64q0 -30 -16 -52t-46 -22q-20 0 -39 14q-9 -41 -9 -82q0 -20 5 -45q7 -34 41 -34q59 0 121 159l10 23q1 2 4 2q6 -2 6 -6l-12 -30q-21 -54 -54.5 -107t-86.5 -60zM99 287q23 3 35 19.5t12 40.5
q0 58 -27 58q-25 0 -48 -59q-9 -29 -11 -42q15 -17 39 -17zM45 497q-10 0 -10 11q0 7 43 32q31 18 61 37q8 4 15 4q20 0 21 -23q0 -13 -9 -19q-47 -19 -95 -34q-23 -8 -26 -8z" />
    <glyph glyph-name="ecircumflex" unicode="&#xea;" horiz-adv-x="224" 
d="M82 110h-2q-87 0 -87 124q0 71 22 120q34 70 88 70q16 0 31 -10q24 -17 24 -64q0 -30 -16 -52t-46 -22q-20 0 -39 14q-9 -41 -9 -82q0 -20 5 -45q7 -34 41 -34q59 0 121 159l10 23q1 2 4 2q6 -2 6 -6l-12 -30q-21 -54 -54.5 -107t-86.5 -60zM99 287q23 3 35 19.5t12 40.5
q0 58 -27 58q-25 0 -48 -59q-9 -29 -11 -42q15 -17 39 -17zM188 497l-3 1q-52 20 -85 36q-34 -16 -67 -29l-21 -8q-8 0 -8 11q0 6 4 9l80 60q7 4 12 4q7 0 92 -64q4 -3 4 -9q0 -11 -8 -11z" />
    <glyph glyph-name="edieresis" unicode="&#xeb;" horiz-adv-x="224" 
d="M82 110h-2q-87 0 -87 124q0 71 22 120q34 70 88 70q16 0 31 -10q24 -17 24 -64q0 -30 -16 -52t-46 -22q-20 0 -39 14q-9 -41 -9 -82q0 -20 5 -45q7 -34 41 -34q59 0 121 159l10 23q1 2 4 2q6 -2 6 -6l-12 -30q-21 -54 -54.5 -107t-86.5 -60zM99 287q23 3 35 19.5t12 40.5
q0 58 -27 58q-25 0 -48 -59q-9 -29 -11 -42q15 -17 39 -17zM58 512q-11 0 -19.5 8t-8.5 19t8.5 19t19.5 8t19 -8t8 -19t-8 -19t-19 -8zM129 512q-12 0 -20 8t-8 19t8 19t20 8q11 0 19 -8t8 -19t-8 -19t-19 -8z" />
    <glyph glyph-name="igrave" unicode="&#xec;" horiz-adv-x="204" 
d="M64 105h-1q-35 0 -52 47q-12 44 -12 101q0 66 9 139l1 17q2 15 25 15q32 0 34 -18l-4 -33q-13 -126 -13 -169l1 -43q1 -40 24 -40q19 0 43.5 32t48 79t34.5 72q1 4 2.5 6.5t4.5 2.5q6 -2 6 -6l-9 -22q-67 -172 -142 -180zM104 497l-3 1q-52 14 -117 41q-9 5 -9 16v8
q0 7 10 14q5 4 11 4t14 -4l61 -37q43 -25 43 -30q0 -7 -3.5 -10t-6.5 -3z" />
    <glyph glyph-name="iacute" unicode="&#xed;" horiz-adv-x="204" 
d="M64 105h-1q-35 0 -52 47q-12 44 -12 101q0 66 9 139l1 17q2 15 25 15q32 0 34 -18l-4 -33q-13 -126 -13 -169l1 -43q1 -40 24 -40q19 0 43.5 32t48 79t34.5 72q1 4 2.5 6.5t4.5 2.5q6 -2 6 -6l-9 -22q-67 -172 -142 -180zM-28 497q-10 0 -10 11q0 7 43 32q31 18 61 37
q8 4 15 4q20 0 21 -23q0 -13 -9 -19q-47 -19 -95 -34q-23 -8 -26 -8z" />
    <glyph glyph-name="icircumflex" unicode="&#xee;" horiz-adv-x="204" 
d="M64 105h-1q-35 0 -52 47q-12 44 -12 101q0 66 9 139l1 17q2 15 25 15q32 0 34 -18l-4 -33q-13 -126 -13 -169l1 -43q1 -40 24 -40q19 0 43.5 32t48 79t34.5 72q1 4 2.5 6.5t4.5 2.5q6 -2 6 -6l-9 -22q-67 -172 -142 -180zM132 497l-3 1q-52 20 -85 36q-34 -16 -67 -29
l-21 -8q-8 0 -8 11q0 6 4 9l80 60q7 4 12 4q7 0 92 -64q4 -3 4 -9q0 -11 -8 -11z" />
    <glyph glyph-name="idieresis" unicode="&#xef;" horiz-adv-x="204" 
d="M64 105h-1q-35 0 -52 47q-12 44 -12 101q0 66 9 139l1 17q2 15 25 15q32 0 34 -18l-4 -33q-13 -126 -13 -169l1 -43q1 -40 24 -40q19 0 43.5 32t48 79t34.5 72q1 4 2.5 6.5t4.5 2.5q6 -2 6 -6l-9 -22q-67 -172 -142 -180zM83 512q-12 0 -20 8t-8 19t8 19t20 8q11 0 19 -8
t8 -19t-8 -19t-19 -8zM12 512q-11 0 -19.5 8t-8.5 19t8.5 19t19.5 8t19 -8t8 -19t-8 -19t-19 -8z" />
    <glyph glyph-name="eth" unicode="&#xf0;" horiz-adv-x="298" 
d="M156 11q-40 0 -73 25q-26 21 -39.5 53t-13.5 66q0 45 23.5 79.5t71.5 36.5q26 0 51.5 -11.5t44.5 -32.5q-14 119 -67 222l-39 -39l-4 -2q-4 0 -7 3t-3 7l2 4l43 42q-16 26 -35 49q-3 5 -3 8q0 7 6 7q4 0 7 -3q22 -21 40 -45q49 48 51 48q3 0 6.5 -3t3.5 -6l-2 -4l-49 -48
q73 -100 92 -219q5 -28 5 -61q0 -40 -10 -81t-34.5 -68t-67.5 -27zM155 25q71 0 71 126q0 26 -2 48q-21 32 -54 47q-23 10 -45 10q-28 0 -42.5 -32t-14.5 -73q0 -40 16 -77q21 -49 71 -49z" />
    <glyph glyph-name="ntilde" unicode="&#xf1;" horiz-adv-x="377" 
d="M24 105q-28 0 -30 25l8 278q3 18 28 18q30 0 30 -20l-5 -172q37 161 111 185l12 1q36 0 52 -28.5t16 -91.5q0 -40 -4 -79q-3 -33 -3 -57q0 -37 18 -37q12 0 30 16q42 38 80 142q6 16 11 26q1 2 4 2q7 -2 7 -7l-9 -21q-14 -33 -35.5 -76t-49 -72.5t-61.5 -29.5h-6
q-37 9 -42 63q-2 21 -2 44q0 34 4 72q3 33 3 60q0 14 -1 38t-22 24q-45 -16 -74 -87q-38 -98 -41 -191l-1 -2q-1 -23 -28 -23zM122 511h-1q-26 0 -43 39l-1 3q0 2 2 3.5t6 1.5q3 -1 6 -4q6 -11 16 -11t29 10q24 14 47 14q21 0 43 -26q3 -3 3 -5q0 -1 -2 -3.5t-7 -2.5l-4 1
q-4 5 -11 5q-9 0 -31 -11q-26 -13 -52 -14z" />
    <glyph glyph-name="ograve" unicode="&#xf2;" horiz-adv-x="232" 
d="M53 96q-39 5 -55 39t-16 66q0 35 7 68q0 1 -1 1q-11 24 -11 49q0 54 38 86q24 19 49 19q12 0 36 -8.5t39 -79.5l1 -6q3 -25 3 -53q0 -27 -4 -54q67 18 94 87q1 3 4 3t5 -1t2 -3v-2q-31 -79 -107 -96q-19 -112 -84 -115zM76 125q28 0 48 83q-11 -2 -22 -2q-34 0 -61 14
l-1 -15q3 -80 36 -80zM103 218q12 0 24 2q4 29 4 68q0 33 -4 46q-16 78 -64 78q-22 0 -46 -21q-29 -24 -29 -69q0 -17 6 -34q14 60 39 60q16 0 27 -13q6 -6 6 -14q0 -6 -4 -14q-16 -34 -20 -75q25 -14 61 -14zM139 497l-3 1q-52 14 -117 41q-9 5 -9 16v8q0 7 10 14q5 4 11 4
t14 -4l61 -37q43 -25 43 -30q0 -7 -3.5 -10t-6.5 -3z" />
    <glyph glyph-name="oacute" unicode="&#xf3;" horiz-adv-x="232" 
d="M53 96q-39 5 -55 39t-16 66q0 35 7 68q0 1 -1 1q-11 24 -11 49q0 54 38 86q24 19 49 19q12 0 36 -8.5t39 -79.5l1 -6q3 -25 3 -53q0 -27 -4 -54q67 18 94 87q1 3 4 3t5 -1t2 -3v-2q-31 -79 -107 -96q-19 -112 -84 -115zM76 125q28 0 48 83q-11 -2 -22 -2q-34 0 -61 14
l-1 -15q3 -80 36 -80zM103 218q12 0 24 2q4 29 4 68q0 33 -4 46q-16 78 -64 78q-22 0 -46 -21q-29 -24 -29 -69q0 -17 6 -34q14 60 39 60q16 0 27 -13q6 -6 6 -14q0 -6 -4 -14q-16 -34 -20 -75q25 -14 61 -14zM18 497q-10 0 -10 11q0 7 43 32q31 18 61 37q8 4 15 4
q20 0 21 -23q0 -13 -9 -19q-47 -19 -95 -34q-23 -8 -26 -8z" />
    <glyph glyph-name="ocircumflex" unicode="&#xf4;" horiz-adv-x="232" 
d="M53 96q-39 5 -55 39t-16 66q0 35 7 68q0 1 -1 1q-11 24 -11 49q0 54 38 86q24 19 49 19q12 0 36 -8.5t39 -79.5l1 -6q3 -25 3 -53q0 -27 -4 -54q67 18 94 87q1 3 4 3t5 -1t2 -3v-2q-31 -79 -107 -96q-19 -112 -84 -115zM76 125q28 0 48 83q-11 -2 -22 -2q-34 0 -61 14
l-1 -15q3 -80 36 -80zM103 218q12 0 24 2q4 29 4 68q0 33 -4 46q-16 78 -64 78q-22 0 -46 -21q-29 -24 -29 -69q0 -17 6 -34q14 60 39 60q16 0 27 -13q6 -6 6 -14q0 -6 -4 -14q-16 -34 -20 -75q25 -14 61 -14zM166 497l-3 1q-52 20 -85 36q-34 -16 -67 -29l-21 -8
q-8 0 -8 11q0 6 4 9l80 60q7 4 12 4q7 0 92 -64q4 -3 4 -9q0 -11 -8 -11z" />
    <glyph glyph-name="otilde" unicode="&#xf5;" horiz-adv-x="232" 
d="M53 96q-39 5 -55 39t-16 66q0 35 7 68q0 1 -1 1q-11 24 -11 49q0 54 38 86q24 19 49 19q12 0 36 -8.5t39 -79.5l1 -6q3 -25 3 -53q0 -27 -4 -54q67 18 94 87q1 3 4 3t5 -1t2 -3v-2q-31 -79 -107 -96q-19 -112 -84 -115zM76 125q28 0 48 83q-11 -2 -22 -2q-34 0 -61 14
l-1 -15q3 -80 36 -80zM103 218q12 0 24 2q4 29 4 68q0 33 -4 46q-16 78 -64 78q-22 0 -46 -21q-29 -24 -29 -69q0 -17 6 -34q14 60 39 60q16 0 27 -13q6 -6 6 -14q0 -6 -4 -14q-16 -34 -20 -75q25 -14 61 -14zM31 511h-1q-26 0 -43 39l-1 3q0 2 2 3.5t6 1.5q3 -1 6 -4
q6 -11 16 -11t29 10q24 14 47 14q21 0 43 -26q3 -3 3 -5q0 -1 -2 -3.5t-7 -2.5l-4 1q-4 5 -11 5q-9 0 -31 -11q-26 -13 -52 -14z" />
    <glyph glyph-name="odieresis" unicode="&#xf6;" horiz-adv-x="232" 
d="M53 96q-39 5 -55 39t-16 66q0 35 7 68q0 1 -1 1q-11 24 -11 49q0 54 38 86q24 19 49 19q12 0 36 -8.5t39 -79.5l1 -6q3 -25 3 -53q0 -27 -4 -54q67 18 94 87q1 3 4 3t5 -1t2 -3v-2q-31 -79 -107 -96q-19 -112 -84 -115zM76 125q28 0 48 83q-11 -2 -22 -2q-34 0 -61 14
l-1 -15q3 -80 36 -80zM103 218q12 0 24 2q4 29 4 68q0 33 -4 46q-16 78 -64 78q-22 0 -46 -21q-29 -24 -29 -69q0 -17 6 -34q14 60 39 60q16 0 27 -13q6 -6 6 -14q0 -6 -4 -14q-16 -34 -20 -75q25 -14 61 -14zM95 512q-12 0 -20 8t-8 19t8 19t20 8q11 0 19 -8t8 -19t-8 -19
t-19 -8zM24 512q-11 0 -19.5 8t-8.5 19t8.5 19t19.5 8t19 -8t8 -19t-8 -19t-19 -8z" />
    <glyph glyph-name="divide" unicode="&#xf7;" horiz-adv-x="288" 
d="M250 391h-211q-9 0 -9 12t9 12h211q8 0 8 -12t-8 -12zM144 462q-13 0 -22 9t-9 22t9 22t22 9t22 -9t9 -22t-9 -22t-22 -9zM144 282q-13 0 -22 9t-9 22t9 22t22 9t22 -9t9 -22t-9 -22t-22 -9z" />
    <glyph glyph-name="oslash" unicode="&#xf8;" horiz-adv-x="232" 
d="M43 173l13 41q-8 2 -15 6l-1 -15q1 -18 3 -32zM59 225l49 160q-17 27 -45 27q-22 0 -46 -21q-29 -24 -29 -69q0 -17 6 -34q14 60 39 60q16 0 27 -13q6 -6 6 -14q0 -6 -4 -14q-16 -34 -20 -75q8 -4 17 -7zM18 25h-3q-2 0 -5.5 1t-6 3.5t-2.5 4.5l22 72q-16 10 -25 29
q-16 34 -16 66q0 35 7 68q0 1 -1 1q-11 24 -11 49q0 54 38 86q24 19 49 19q34 0 50 -20l24 78q1 6 9 6q2 0 5.5 -1.5t5.5 -4t2 -4.5t-31 -104q14 -45 14 -97q0 -27 -4 -54q67 18 94 87q1 3 4 3q7 0 7 -6q-31 -79 -107 -96q-19 -112 -84 -115l-9 2q-22 -72 -26 -73zM76 125
q28 0 48 83q-11 -2 -22 -2q-12 0 -24 2l-22 -72q8 -11 20 -11zM103 218q12 0 24 2q4 29 4 68q0 35 -9 65l-41 -134z" />
    <glyph glyph-name="ugrave" unicode="&#xf9;" horiz-adv-x="384" 
d="M244 105h-1q-34 0 -51 47q-11 39 -11 105q0 34 2 67q-50 -199 -112 -214h-3q-47 0 -61 57q-9 43 -9 92q0 74 12 144q5 20 30 20q27 0 27 -18v-2q-3 -17 -7 -59q-7 -71 -7 -123q0 -88 21 -94q26 0 50 53q35 81 64 212l1 4l1 13q2 15 24 15q34 0 34 -18l-3 -33
q-13 -106 -13 -178l1 -36q1 -38 23 -38q37 0 92 111q33 68 37 79q1 2 4 2q7 -2 7 -6v-1q-39 -87 -67 -135q-36 -61 -85 -66zM194 497l-3 1q-52 14 -117 41q-9 5 -9 16v8q0 7 10 14q5 4 11 4t14 -4l61 -37q43 -25 43 -30q0 -7 -3.5 -10t-6.5 -3z" />
    <glyph glyph-name="uacute" unicode="&#xfa;" horiz-adv-x="384" 
d="M244 105h-1q-34 0 -51 47q-11 39 -11 105q0 34 2 67q-50 -199 -112 -214h-3q-47 0 -61 57q-9 43 -9 92q0 74 12 144q5 20 30 20q27 0 27 -18v-2q-3 -17 -7 -59q-7 -71 -7 -123q0 -88 21 -94q26 0 50 53q35 81 64 212l1 4l1 13q2 15 24 15q34 0 34 -18l-3 -33
q-13 -106 -13 -178l1 -36q1 -38 23 -38q37 0 92 111q33 68 37 79q1 2 4 2q7 -2 7 -6v-1q-39 -87 -67 -135q-36 -61 -85 -66zM67 497q-10 0 -10 11q0 7 43 32q31 18 61 37q8 4 15 4q20 0 21 -23q0 -13 -9 -19q-47 -19 -95 -34q-23 -8 -26 -8z" />
    <glyph glyph-name="ucircumflex" unicode="&#xfb;" horiz-adv-x="384" 
d="M244 105h-1q-34 0 -51 47q-11 39 -11 105q0 34 2 67q-50 -199 -112 -214h-3q-47 0 -61 57q-9 43 -9 92q0 74 12 144q5 20 30 20q27 0 27 -18v-2q-3 -17 -7 -59q-7 -71 -7 -123q0 -88 21 -94q26 0 50 53q35 81 64 212l1 4l1 13q2 15 24 15q34 0 34 -18l-3 -33
q-13 -106 -13 -178l1 -36q1 -38 23 -38q37 0 92 111q33 68 37 79q1 2 4 2q7 -2 7 -6v-1q-39 -87 -67 -135q-36 -61 -85 -66zM223 497l-3 1q-52 20 -85 36q-34 -16 -67 -29l-21 -8q-8 0 -8 11q0 6 4 9l80 60q7 4 12 4q7 0 92 -64q4 -3 4 -9q0 -11 -8 -11z" />
    <glyph glyph-name="udieresis" unicode="&#xfc;" horiz-adv-x="384" 
d="M244 105h-1q-34 0 -51 47q-11 39 -11 105q0 34 2 67q-50 -199 -112 -214h-3q-47 0 -61 57q-9 43 -9 92q0 74 12 144q5 20 30 20q27 0 27 -18v-2q-3 -17 -7 -59q-7 -71 -7 -123q0 -88 21 -94q26 0 50 53q35 81 64 212l1 4l1 13q2 15 24 15q34 0 34 -18l-3 -33
q-13 -106 -13 -178l1 -36q1 -38 23 -38q37 0 92 111q33 68 37 79q1 2 4 2q7 -2 7 -6v-1q-39 -87 -67 -135q-36 -61 -85 -66zM168 512q-12 0 -20 8t-8 19t8 19t20 8q11 0 19 -8t8 -19t-8 -19t-19 -8zM97 512q-11 0 -19.5 8t-8.5 19t8.5 19t19.5 8t19 -8t8 -19t-8 -19t-19 -8z
" />
    <glyph glyph-name="yacute" unicode="&#xfd;" horiz-adv-x="300" 
d="M5 -375q-11 0 -51.5 8.5t-69.5 83.5q-10 27 -10 57q0 54 34 117q31 53 80 94q82 66 176 66l20 -1q9 120 9 210q0 51 -3 93q-30 -130 -66 -195q-27 -48 -56 -48q-47 0 -60 57q-10 42 -10 89q0 74 13 147q5 20 29 20q27 0 27 -18v-2q-13 -112 -13 -170q0 -100 20 -106
q27 0 50.5 53t40.5 117t23 95q0 6 -1 10q1 11 12.5 17.5t21.5 6.5q4 0 13.5 -1.5t11.5 -19.5q5 -69 5 -161q0 -97 -10 -212l6 -3q49 -33 49 -104v-9t-2 -6.5t-4 -1.5q-5 0 -5 10q0 72 -45 101q-5 -62 -34.5 -157.5t-83.5 -168.5q-59 -68 -117 -68zM-13 -342q50 0 97 62
q47 72 71 167.5t28 150.5q-5 1 -20 1q-92 0 -167 -63q-48 -39 -78 -91q-28 -60 -28 -108q0 -105 86 -118zM84 497q-10 0 -10 11q0 7 43 32q31 18 61 37q8 4 15 4q20 0 21 -23q0 -13 -9 -19q-47 -19 -95 -34q-23 -8 -26 -8z" />
    <glyph glyph-name="thorn" unicode="&#xfe;" horiz-adv-x="282" 
d="M50 135q-8 0 -14 7t-6 21v487q0 10 6 15t14 5q7 0 13 -5t6 -15v-153q40 38 77 38q43 0 74.5 -37.5t31.5 -88.5q-1 -35 -14.5 -64t-37 -48t-55.5 -19q-34 0 -76 28v-145q0 -13 -6 -19.5t-13 -6.5zM143 319q39 0 59.5 25.5t21.5 65.5q0 31 -18 57t-53 26q-34 0 -84 -33
v-119q43 -22 74 -22z" />
    <glyph glyph-name="ydieresis" unicode="&#xff;" horiz-adv-x="300" 
d="M5 -375q-11 0 -51.5 8.5t-69.5 83.5q-10 27 -10 57q0 54 34 117q31 53 80 94q82 66 176 66l20 -1q9 120 9 210q0 51 -3 93q-30 -130 -66 -195q-27 -48 -56 -48q-47 0 -60 57q-10 42 -10 89q0 74 13 147q5 20 29 20q27 0 27 -18v-2q-13 -112 -13 -170q0 -100 20 -106
q27 0 50.5 53t40.5 117t23 95q0 6 -1 10q1 11 12.5 17.5t21.5 6.5q4 0 13.5 -1.5t11.5 -19.5q5 -69 5 -161q0 -97 -10 -212l6 -3q49 -33 49 -104v-9t-2 -6.5t-4 -1.5q-5 0 -5 10q0 72 -45 101q-5 -62 -34.5 -157.5t-83.5 -168.5q-59 -68 -117 -68zM-13 -342q50 0 97 62
q47 72 71 167.5t28 150.5q-5 1 -20 1q-92 0 -167 -63q-48 -39 -78 -91q-28 -60 -28 -108q0 -105 86 -118zM160 512q-12 0 -20 8t-8 19t8 19t20 8q11 0 19 -8t8 -19t-8 -19t-19 -8zM89 512q-11 0 -19.5 8t-8.5 19t8.5 19t19.5 8t19 -8t8 -19t-8 -19t-19 -8z" />
    <glyph glyph-name="dotlessi" unicode="&#x131;" horiz-adv-x="94" 
d="M49 135q-7 0 -13 3.5t-6 10.5v511q0 10 15 10q7 0 13 -3t6 -9v-512q0 -11 -15 -11z" />
    <glyph glyph-name="OE" unicode="&#x152;" horiz-adv-x="848" 
d="M658 577q60 0 82 29q16 20 16 42q0 39 -32 55q-14 6 -26 6q-19 0 -41 -16.5t-41 -50t-27 -58.5l16 -3q29 -4 53 -4zM443 573q-7 27 -19 52q-36 73 -124 73q-96 0 -171 -102q-63 -92 -63 -196q0 -43 17.5 -93t81.5 -72q-1 17 -1 54q0 113 22 221q4 17 26 17q11 0 21 -6
t10 -19l-1 -6q-20 -104 -20 -213q0 -29 2 -57q38 0 86 14h3q6 0 6 -5q0 -4 -6 -7q-49 -13 -88 -13q0 -23 7 -79q11 -100 53 -118q4 -1 9 -1q32 0 69 60q18 30 34 72q-1 11 -1 23q0 50 33 125q7 15 17 29q11 69 11 135q0 54 -11 99q-31 -19 -47 -63q-2 -5 -7 -5t-5 7
q19 52 56 74zM458 566q12 -48 12 -106v-58q0 -22 -5 -53q43 44 122 80q-56 52 -56 124q0 12 2 25q-30 0 -51 -5q-13 -2 -24 -7zM401 127q-14 -32 -31 -58q-43 -69 -90 -69h-1q-38 6 -62.5 48t-37 92.5t-13.5 81.5q-80 26 -112 95q-24 51 -24 109q0 20 7.5 71.5t58.5 118.5
q88 104 200 104h6q91 -8 130 -82q14 -28 23 -60q11 5 24 7q23 4 57 4q18 63 77 104q40 28 78 28q19 0 38 -7q40 -21 40 -65q0 -27 -20 -51q-28 -34 -92 -34q-24 0 -54 5l-18 4q-5 -22 -5 -43q0 -72 49 -82q17 -3 17 -20q0 -18 -20 -18q-50 -15 -94 -73t-67 -130
q-13 -44 -13 -82q0 -24 9.5 -63t74.5 -49q87 0 160 71q93 89 157 226q1 2 4 2q6 0 6 -7q-64 -140 -159 -229q-79 -75 -155 -75l-15 1q-93 14 -124 96q-6 14 -9 29z" />
    <glyph glyph-name="oe" unicode="&#x153;" horiz-adv-x="348" 
d="M225 287q23 3 35 19.5t12 40.5q0 58 -27 58q-25 0 -48 -59q-9 -29 -11 -42q15 -17 39 -17zM120 207q-9 -1 -18 -1q-34 0 -61 14l-1 -15q3 -80 36 -80q26 0 45 72q0 5 -1 10zM127 169q-22 -71 -74 -73q-39 5 -55 39t-16 66q0 35 7 68q0 1 -1 1q-11 24 -11 49q0 54 38 86
q24 19 49 19q12 0 36 -8q22 -8 37 -71q2 4 4 9q34 70 88 70q16 0 31 -10q24 -17 24 -64q0 -30 -16 -52t-46 -22q-20 0 -39 14q-9 -41 -9 -82q0 -20 5 -45q7 -34 41 -34q59 0 121 159l10 23q1 2 4 2q6 -2 6 -6l-12 -30q-21 -54 -54.5 -107t-86.5 -60h-2q-60 0 -79 59z
M129 321q0 8 -2 13q-16 78 -64 78q-22 0 -46 -21q-29 -24 -29 -69q0 -17 6 -34q14 60 39 60q16 0 27 -13q6 -6 6 -14q0 -6 -4 -14q-16 -34 -20 -75q25 -14 61 -14q8 0 16 1v15q0 49 10 87z" />
    <glyph glyph-name="Scaron" unicode="&#x160;" horiz-adv-x="448" 
d="M201 0q-23 0 -49 4q-98 21 -116 90q-6 23 -6 46q0 45 30 99.5t95 65.5h8q49 0 76.5 -35t27.5 -85q0 -10 -5 -10q-6 0 -6 6v3q0 45 -26 80q-20 28 -53 28q-56 0 -85 -79q-15 -40 -15 -80q0 -20 7.5 -60.5t66.5 -57.5q19 -3 36 -3q58 0 98 40q49 49 49 124q0 5 -1.5 48
t-81.5 117q-24 20 -49 38q-48 31 -92 80q-33 42 -33 95v6q7 83 68 124q53 36 113 36q9 0 48 -4t71 -63q12 -23 12 -53q0 -51 -33 -124q-5 -10 -10 -10q-2 0 -3 4q0 4 3 11q31 70 31 117q0 29 -21 67q-24 44 -98 44q-55 0 -98 -34q-39 -31 -39 -84q0 -57 44 -105
q43 -43 111 -90q119 -97 119 -214q0 -77 -54 -131q-51 -51 -140 -51zM322 899q8 0 8 -11q0 -6 -4 -9q-85 -64 -92 -64q-5 0 -12 4l-80 60q-4 3 -4 9q0 11 8 11l21 -8q33 -13 67 -29q33 17 85 36z" />
    <glyph glyph-name="scaron" unicode="&#x161;" horiz-adv-x="209" 
d="M11 -32q-38 0 -62 25q-17 17 -17 41q0 27 21 64q45 65 121 106q-19 27 -41 52q-30 36 -45 82q-9 27 -9 51q0 65 52 91q20 10 39 10q12 0 33 -7t22 -47q0 -7 -6 -7q-4 0 -6 9q-3 40 -40 40q-16 0 -36 -11.5t-25 -41.5v-3q0 -56 66 -128q26 -30 49 -62q62 30 83 79q0 2 3 2
q8 0 8 -6q-23 -54 -88 -85q22 -40 22 -84q0 -36 -15 -74q-46 -96 -129 -96zM10 -20q15 0 47.5 10t48.5 77q2 14 2 28q0 53 -27 99q-28 -14 -62 -42q-74 -60 -74 -117q0 -23 16 -37q21 -18 49 -18zM157 606q8 0 8 -11q0 -6 -4 -9q-85 -64 -92 -64q-5 0 -12 4l-80 60
q-4 3 -4 9q0 11 8 11l21 -8q33 -13 67 -29q33 17 85 36z" />
    <glyph glyph-name="Ydieresis" unicode="&#x178;" horiz-adv-x="691" 
d="M281 -295q-85 0 -129 76q-18 33 -18 72q0 75 55 123q51 43 142 43q67 0 137 -28q12 -5 24 -12q22 63 37 131q30 140 30 348l3 127q-68 -255 -140 -398q-50 -97 -99 -97q-33 0 -50 36q-20 42 -20 153q0 49 3 103q2 46 2 88q0 51 -4 116t-42 95q-15 10 -31 10
q-62 0 -111 -106q-30 -66 -30 -128q0 -100 71 -120q5 -3 5 -6q0 -5 -5 -5h-3q-78 24 -78 128q0 68 31 136q28 62 76 98q37 29 74 29q62 0 84 -81q20 -74 20 -191q0 -71 -3 -141q-2 -51 -2 -93q0 -31 1 -56q3 -53 22 -53h4q42 16 84 105q72 152 144 428v4q5 27 32 27
q24 0 27 -25q1 -31 1 -72q0 -72 -5 -203q-11 -237 -77 -418q33 -26 59 -62q5 -6 5 -10q0 -6 -4 -6t-11 10q-23 32 -54 56q-21 -55 -65 -114t-106 -95q-45 -22 -86 -22zM272 -275q39 0 84 30q81 64 132 213q-12 7 -25 12q-68 28 -134 28q-83 0 -132.5 -42t-49.5 -109
q0 -35 22 -74.5t74 -53.5q14 -4 29 -4zM406 825q-10 0 -10 11q0 7 43 32q31 18 61 37q8 4 15 4q20 0 21 -23q0 -13 -9 -19q-47 -19 -95 -34q-23 -8 -26 -8z" />
    <glyph glyph-name="zcaron" unicode="&#x17e;" horiz-adv-x="385" 
d="M52 -373q-32 0 -56 21q-34 30 -34 88q0 12 5 56t92 138q49 49 107 95q1 0 1 1q21 16 40 33q-19 80 -95 106q-25 9 -25 23q0 15 38 42.5t80 89.5q20 30 20 53q0 9 -3 17q-7 19 -48 19q-18 0 -43 -4q-95 -29 -95 -85q0 -33 29 -61q2 -3 2 -6q0 -5 -4 -12q-10 -16 -24 -16
q-6 0 -10 4q-31 37 -31 69q0 8 6 30t43 49q64 47 130 47q20 0 36 -6q37 -16 37 -47q0 -8 -7 -34.5t-42.5 -71.5t-59.5 -67q81 -19 114 -97q35 35 76.5 99.5t54.5 106.5q3 5 7 5q5 0 5 -4l-1 -4q-14 -46 -57.5 -112t-80.5 -103q15 -42 15 -103q0 -102 -51 -212
q-77 -147 -171 -147zM48 -353q24 0 65 22.5t79 131.5q27 91 27 166q0 40 -8 76l-1 3q-110 -92 -141 -122q-95 -103 -95 -186q0 -52 32 -77q19 -14 42 -14zM269 581q8 0 8 -11q0 -6 -4 -9q-85 -64 -92 -64q-5 0 -12 4l-80 60q-4 3 -4 9q0 11 8 11l21 -8q33 -13 67 -29
q33 17 85 36z" />
    <glyph glyph-name="circumflex" unicode="&#x2c6;" horiz-adv-x="238" 
d="M190 710q-4 0 -7 3q-19 23 -42 42l-21 21l-72 -55q-3 -2 -6 -2q-5 0 -8.5 2.5t-3.5 7.5q0 6 8 13q45 33 89 68l76 -75q5 -6 5 -11q0 -6 -6 -10t-12 -4z" />
    <glyph glyph-name="caron" unicode="&#x2c7;" horiz-adv-x="239" 
d="M112 710l-76 75q-6 6 -6 11q0 6 6 10t12 4q5 0 8 -3q19 -23 42 -42l21 -21l72 55q3 2 6 2q5 0 8.5 -2.5t3.5 -7.5q0 -6 -8 -13q-45 -33 -89 -68z" />
    <glyph glyph-name="uni02C9" unicode="&#x2c9;" horiz-adv-x="221" 
d="M186 748h-150q-6 0 -6 13q0 11 6 11h150q5 0 5 -12t-5 -12z" />
    <glyph glyph-name="breve" unicode="&#x2d8;" horiz-adv-x="259" 
d="M131 732q-45 0 -89 31q-12 10 -12 17t10 8q5 0 12 -4q39 -29 79 -29q38 0 77 29q7 4 12 4q8 0 9 -8q0 -7 -9 -15q-44 -33 -89 -33z" />
    <glyph glyph-name="dotaccent" unicode="&#x2d9;" horiz-adv-x="121" 
d="M60 729q-12 0 -21 9t-9 22t9 22t21 9q13 0 22 -9t9 -22t-9 -22t-22 -9z" />
    <glyph glyph-name="ring" unicode="&#x2da;" horiz-adv-x="161" 
d="M80 709q-21 0 -35.5 15t-14.5 36t14.5 36t35.5 15t36 -15t15 -36t-15 -36t-36 -15zM80 732q12 0 20 8t8 20t-8 20t-20 8q-11 0 -19.5 -8t-8.5 -20t8.5 -20t19.5 -8z" />
    <glyph glyph-name="ogonek" unicode="&#x2db;" horiz-adv-x="158" 
d="M111 -10q-81 10 -81 77q0 32 14 63.5t28 47.5q7 8 16 8q6 0 7 -7q0 -4 -3 -11q-19 -44 -19 -85q0 -54 44 -68q11 -5 11 -12q0 -5 -4 -9t-13 -4z" />
    <glyph glyph-name="tilde" unicode="&#x2dc;" horiz-adv-x="279" 
d="M190 720q-16 0 -30.5 7.5t-27.5 16.5t-25 15.5t-24 6.5q-15 0 -31 -14q-6 -6 -12 -6q-4 0 -7 3t-3 8t4 10q32 32 58 32q16 0 30 -7t27 -16t25.5 -15.5t24.5 -6.5q13 0 27 10q7 5 12 5q11 0 11 -10q0 -5 -5 -11q-30 -28 -54 -28z" />
    <glyph glyph-name="hungarumlaut" unicode="&#x2dd;" horiz-adv-x="160" 
d="M38 701q-8 0 -8 7l9 82q4 19 21 19q7 0 12 -4.5t5 -11.5q0 -4 -25 -83q-3 -9 -14 -9zM90 701q-8 0 -8 8l9 81q5 19 22 19q6 0 11.5 -4.5t5.5 -11.5q0 -4 -25 -83q-4 -9 -15 -9z" />
    <glyph glyph-name="endash" unicode="&#x2013;" horiz-adv-x="395" 
d="M354 391h-311q-7 0 -10 3.5t-3 8.5q0 4 3 7.5t10 3.5h310q12 0 12 -12q0 -11 -11 -11z" />
    <glyph glyph-name="emdash" unicode="&#x2014;" horiz-adv-x="541" 
d="M500 391h-457q-7 0 -10 3.5t-3 8.5q0 4 3 7.5t10 3.5h457q11 0 11 -11q0 -12 -11 -12z" />
    <glyph glyph-name="quoteleft" unicode="&#x2018;" horiz-adv-x="108" 
d="M48 708q-7 0 -12.5 4.5t-5.5 12.5q0 4 25 83q4 8 15 8q8 0 8 -8l-10 -80q-4 -20 -20 -20z" />
    <glyph glyph-name="quoteright" unicode="&#x2019;" horiz-adv-x="108" 
d="M39 721q-9 0 -9 8l10 81q4 19 20 19q7 0 12.5 -4.5t5.5 -11.5q0 -4 -25 -83q-4 -9 -14 -9z" />
    <glyph glyph-name="quotesinglbase" unicode="&#x201a;" horiz-adv-x="108" 
d="M39 2q-9 0 -9 8l10 81q4 19 20 19q7 0 12.5 -4.5t5.5 -11.5q0 -4 -25 -83q-4 -9 -14 -9z" />
    <glyph glyph-name="quotedblleft" unicode="&#x201c;" horiz-adv-x="159" 
d="M99 721q-7 0 -12.5 4.5t-5.5 12.5q0 4 25 83q4 8 15 8q8 0 8 -8l-10 -80q-4 -20 -20 -20zM48 721q-7 0 -12.5 4.5t-5.5 12.5q0 4 25 83q4 8 15 8q8 0 8 -8l-10 -80q-4 -20 -20 -20z" />
    <glyph glyph-name="quotedblright" unicode="&#x201d;" horiz-adv-x="159" 
d="M39 721q-9 0 -9 8l10 81q4 19 20 19q7 0 12.5 -4.5t5.5 -11.5q0 -4 -25 -83q-4 -9 -14 -9zM90 721q-9 0 -9 8l10 81q4 19 20 19q7 0 12.5 -4.5t5.5 -11.5q0 -4 -25 -83q-4 -9 -14 -9z" />
    <glyph glyph-name="quotedblbase" unicode="&#x201e;" horiz-adv-x="159" 
d="M39 2q-9 0 -9 8l10 81q4 19 20 19q7 0 12.5 -4.5t5.5 -11.5q0 -4 -25 -83q-4 -9 -14 -9zM90 2q-9 0 -9 8l10 81q4 19 20 19q7 0 12.5 -4.5t5.5 -11.5q0 -4 -25 -83q-4 -9 -14 -9z" />
    <glyph glyph-name="dagger" unicode="&#x2020;" horiz-adv-x="287" 
d="M144 168q-5 0 -8.5 5t-3.5 14v324h-94q-8 0 -8 12t7 12h95v86q0 8 3.5 12t8.5 4q4 0 7.5 -4t3.5 -12v-86h93q9 0 9 -12t-9 -12h-93v-324q0 -9 -3.5 -14t-7.5 -5z" />
    <glyph glyph-name="daggerdbl" unicode="&#x2021;" horiz-adv-x="288" 
d="M144 168q-5 0 -8.5 5t-3.5 14v129h-94q-8 0 -8 12t8 12h94v138h-94q-8 0 -8 12q0 11 8 11h94v120q0 8 3.5 12t8.5 4q4 0 7.5 -4t3.5 -12v-120h94q9 0 9 -11q0 -12 -10 -12h-93v-138h94q9 0 9 -12t-10 -12h-93v-129q0 -9 -3.5 -14t-7.5 -5z" />
    <glyph glyph-name="bullet" unicode="&#x2022;" horiz-adv-x="140" 
d="M70 363q-16 0 -28 11.5t-12 27.5q0 17 12 28.5t28 11.5q17 0 28.5 -11.5t11.5 -28.5q0 -16 -11.5 -27.5t-28.5 -11.5z" />
    <glyph glyph-name="ellipsis" unicode="&#x2026;" horiz-adv-x="330" 
d="M61 -10q-13 0 -22 9t-9 22t9 22t22 9q12 0 21.5 -9t9.5 -22t-9.5 -22t-21.5 -9zM165 -10q-13 0 -22 9t-9 22t9 22t22 9t22 -9t9 -22t-9 -22t-22 -9zM269 -10q-13 0 -22 9t-9 22t9 22t22 9t22 -9t9 -22t-9 -22t-22 -9z" />
    <glyph glyph-name="guilsinglleft" unicode="&#x2039;" horiz-adv-x="185" 
d="M128 262q-5 0 -9 5q-15 24 -36 53t-37 51l-16 22l18 22q19 22 42.5 51.5t41.5 54.5q6 7 12 7q4 0 7.5 -3t3.5 -8q0 -4 -4 -10l-79 -115q68 -115 68 -119q0 -5 -3.5 -8t-8.5 -3z" />
    <glyph glyph-name="guilsinglright" unicode="&#x203a;" horiz-adv-x="185" 
d="M57 262q-5 0 -8.5 3t-3.5 8q0 4 2 8l65 111l-78 115q-4 6 -4 10q0 5 3.5 8t7.5 3q6 0 12 -7q18 -25 41.5 -54.5t42.5 -51.5l18 -22l-16 -22q-17 -22 -37.5 -51t-35.5 -53q-4 -5 -9 -5z" />
    <glyph glyph-name="fraction" unicode="&#x2044;" horiz-adv-x="411" 
d="M44 0q-4 0 -9 3.5t-5 7.5l304 786q8 14 21 14q10 0 18 -6.5t8 -16.5q0 -4 -329 -783q-3 -5 -8 -5z" />
    <glyph glyph-name="fraction" unicode="&#x2215;" horiz-adv-x="411" 
d="M44 0q-4 0 -9 3.5t-5 7.5l304 786q8 14 21 14q10 0 18 -6.5t8 -16.5q0 -4 -329 -783q-3 -5 -8 -5z" />
    <glyph glyph-name="franc" unicode="&#x20a3;" horiz-adv-x="681" 
d="M254 -8q-6 0 -12.5 6.5t-9.5 18.5q-14 68 -18 166h-171q-6 0 -9.5 4t-3.5 8q0 12 14 12h169q-2 48 -2 98q0 69 3 139q-56 -12 -83 -58q-2 -3 -6 -3q-5 0 -10.5 3.5t-5.5 7.5l1 3q34 57 105 71q7 171 19 305h-13q-97 0 -139 -75q-7 -10 -14 -10q-8 0 -9 10q0 4 3 11
q48 88 157 88l22 -1q13 13 36 13q27 0 27 -19v-2q53 -11 106 -27q85 -26 145 -28q65 0 73 66q2 12 13 12q4 0 7 -3t3 -10q-5 -50 -30.5 -69.5t-66.5 -19.5q-54 1 -138 27q-57 16 -114 28q-10 -87 -25 -290q69 0 126 -24q13 -8 13 -15q0 -8 -12 -9q-4 0 -10 2q-53 23 -119 23
q-8 -126 -11 -244h90q11 0 11 -12t-11 -12h-90v-32q0 -55 6 -135q0 -24 -16 -24z" />
    <glyph glyph-name="lira" unicode="&#x20a4;" horiz-adv-x="529" 
d="M64 -7q-14 0 -24 13.5t-10 27.5q0 12 8 20q30 25 68.5 96.5t44.5 198.5q1 17 1 35h-100q-5 0 -5 14q0 7 2 13.5t5 6.5h97v50q0 145 25 227q36 115 136 115q50 -1 84.5 -38.5t34.5 -94.5q0 -44 -26 -97q-5 -7 -11 -7q-4 0 -8 3.5t-4 8.5q0 4 2 7q22 44 22 82
q0 46 -25 75.5t-58 29.5q-45 -1 -68 -42q-38 -63 -38 -215q1 -55 3 -104h90q7 0 7 -15q0 -7 -2 -13t-6 -6h-88l1 -19l-1 -17q-6 -175 -85 -284q42 11 76 11q39 0 70 -10t57 -23q20 -10 39 -17t40 -7q29 0 63 19l5 1q5 0 9 -3t4 -8q0 -6 -9 -12q-39 -21 -71 -21
q-23 0 -44.5 7.5t-43.5 17.5q-42 18 -54 22q-28 10 -64 10q-43 0 -102 -21q-15 -17 -26 -27t-21 -10z" />
    <glyph glyph-name="Euro" unicode="&#x20ac;" horiz-adv-x="628" 
d="M327 -10h-7q-89 8 -138 101t-56 225h-90q-6 0 -6 14q0 7 2 13t5 6h89q0 61 7 107h-97q-6 0 -6 15q0 7 2 13t5 6h101q23 133 93.5 226.5t188.5 99.5q73 0 107 -38.5t41 -93.5v-6q0 -14 -9 -14q-6 0 -11 5t-7 14q-8 45 -35.5 76.5t-78.5 31.5h-8q-85 -8 -138.5 -94
t-75.5 -207h89q6 0 6 -15q0 -19 -8 -19h-92q-7 -53 -9 -107h103q6 0 6 -15q0 -6 -2 -12t-6 -6h-102q1 -120 34 -204q36 -93 106 -93q54 0 101 38.5t84 100.5t60 137q5 11 12 11q4 0 7.5 -3t3.5 -8l-1 -6q-43 -141 -118.5 -220t-151.5 -79z" />
    <glyph glyph-name="trademark" unicode="&#x2122;" horiz-adv-x="348" 
d="M100 662h-23v125h-47v23h117v-23h-47v-125zM318 662h-24v113l-56 -67l-48 60v-106h-23v146l21 1l51 -64l54 63h25v-146z" />
    <glyph glyph-name="minus" unicode="&#x2212;" horiz-adv-x="395" 
d="M354 391h-311q-6 0 -9.5 3.5t-3.5 8.5q0 11 14 11h310q11 0 11 -11q0 -12 -11 -12z" />
    <glyph glyph-name="approxequal" unicode="&#x2248;" horiz-adv-x="534" 
d="M378 399q-36 0 -71 12.5t-68 28.5q-29 13 -56.5 23.5t-52.5 10.5q-45 0 -77 -41q-6 -6 -12 -6q-4 0 -7.5 3t-3.5 8q0 4 4 10q51 66 117 66q32 0 64.5 -12t65 -26.5t63.5 -26t61 -11.5q41 0 79 31q4 4 9 4q4 0 7.5 -3t3.5 -8t-6 -11q-56 -52 -120 -52zM379 291
q-37 0 -72 12.5t-68 27.5q-29 14 -56.5 24t-53.5 10q-44 0 -76 -40q-6 -6 -12 -6q-4 0 -7.5 3t-3.5 8q0 4 4 10q51 66 116 66q33 0 65.5 -12t64.5 -27t63.5 -26t61.5 -11q41 0 79 31q4 3 9 3q4 0 7.5 -3t3.5 -7q0 -6 -6 -12q-56 -51 -119 -51z" />
    <glyph glyph-name="lessequal" unicode="&#x2264;" horiz-adv-x="437" 
d="M362 276q-3 0 -296 148l-6 -1q-12 0 -21 12t-9 27q0 24 25 32q305 99 318 99q15 0 24.5 -11.5t9.5 -24.5q0 -25 -25 -33l-284 -90q83 -41 166 -84l100 -51q8 -5 8 -12q0 -4 -3 -7.5t-7 -3.5zM355 212h-311q-7 0 -10 3.5t-3 8.5q0 4 3 7.5t10 3.5h310q12 0 12 -12
q0 -11 -11 -11z" />
    <glyph glyph-name="greaterequal" unicode="&#x2265;" horiz-adv-x="436" 
d="M75 276q-4 0 -7 3.5t-3 7.5q0 7 8 12l100 51q83 43 166 84l-284 90q-25 8 -25 33q0 13 9.5 24.5t24.5 11.5q13 0 318 -99q24 -8 24 -32q0 -14 -8.5 -26.5t-20.5 -12.5l-6 1q-293 -148 -296 -148zM393 212h-311q-11 0 -11 11q0 12 12 12h310q7 0 10.5 -3.5t3.5 -7.5
q0 -5 -3.5 -8.5t-10.5 -3.5z" />
    <glyph glyph-name="a.titl" unicode="&#xe001;" horiz-adv-x="1131" 
d="M992 105h-3q-62 0 -62 143l1 24q-9 -36 -23 -73t-32 -63t-40 -26q-42 0 -60 38.5t-18 89.5q0 59 17 107.5t47 70.5q-65 -1 -170 -13q-169 -21 -284 -21q-104 0 -180 27q-17 -11 -42 -23q-39 -17 -72 -40q-29 -21 -29 -53q0 -4 -1.5 -5.5t-6.5 -1.5q-4 0 -4 15q0 30 30 52
t71 40q23 11 41 21q-45 21 -65 61q-11 27 -11 47q0 18 9 29q14 19 34 19q38 0 50 -47q31 44 68 44q7 0 13 -3q18 -7 18 -28q0 -22 -28 -59t-63 -60q71 -23 167 -23q116 0 283 20q105 13 169 13l34 -1q56 -4 78 -81q0 -7 -4 -7q-6 0 -7 4q-4 14 -13 30q-16 26 -32 26
q-35 0 -50 -87q-8 -43 -8 -83q0 -15 2.5 -49t23.5 -43q22 0 41 40q34 71 50 161l4 55q2 10 2 17q3 15 24 15q10 0 22 -4.5t12 -14.5t-3 -33q-13 -104 -13 -177l1 -37q1 -37 24 -37q37 0 91 111q32 64 37 79q1 1 5 1q6 0 6 -5l-9 -22q-22 -54 -58 -114.5t-84 -65.5zM184 422
q37 23 68 63q24 33 24 51t-21 19q-34 0 -61 -47q-4 -8 -9 -8t-7 10q-5 48 -38 48q-16 0 -25 -13q-7 -9 -7 -24q0 -17 10 -41q19 -39 66 -58z" />
    <glyph glyph-name="b.titl" unicode="&#xe002;" horiz-adv-x="1182" 
d="M973 46q-16 0 -28 14.5t-12 36.5q0 13 9 41t39.5 62t61.5 43l2 7q13 53 13 93q-1 56 -31 56q-32 0 -67.5 -87.5t-45.5 -147.5v-34q-1 -21 -27 -21q-27 0 -29 18l-1 49q0 109 11 233q-15 7 -49 7q-53 0 -170 -13q-167 -21 -283 -21q-105 0 -180 27q-17 -11 -43 -23
q-101 -44 -101 -88v-7q0 -5 -5 -5h-4t-3 15q0 30 30.5 52t70.5 40q24 11 42 21q-46 21 -65 61q-11 27 -11 47q0 18 9 29q13 19 33 19q39 0 50 -47q30 44 69 44q7 0 13 -3q17 -7 17 -28t-26 -58q-30 -38 -65 -61q71 -23 167 -23q116 0 284 20q120 14 166 14q36 0 55 -6l4 51
q-114 29 -114 211q0 55 7 55t7 -5q-2 -27 -2 -52q0 -167 103 -198q10 140 56 297q57 196 148 196q81 0 85 -144q-1 -49 -15 -111q-24 -94 -70 -154q-64 -83 -146 -98q-11 -122 -16 -242q16 69 51 133.5t88 65.5q35 -1 51 -47q8 -22 8 -53q0 -34 -9 -78q25 1 45.5 13t32.5 48
q1 2 6 2t5 -4v-2q-15 -42 -39 -55t-53 -14q-14 -65 -50 -128t-79 -63zM959 76q13 0 44 61q28 61 37 93q-30 -11 -54 -44q-38 -54 -38 -91q0 -19 11 -19zM933 482q75 13 136 94q45 58 68 149q14 61 14 108q-3 123 -57 127q-74 -3 -120 -207q-31 -141 -41 -271zM184 422
q38 23 68 63q24 33 24 51t-20 19q-34 0 -61 -47q-5 -8 -9 -8q-6 0 -7 11q-6 47 -38 47q-16 0 -24.5 -11t-8.5 -26q0 -17 10 -41q19 -39 66 -58z" />
    <glyph glyph-name="c.titl" unicode="&#xe003;" horiz-adv-x="995" 
d="M858 109q-89 3 -89 139q0 133 76 173q-12 1 -27 1q-62 0 -169 -14q-171 -20 -283 -20q-104 0 -180 27q-17 -11 -43 -23q-39 -17 -69.5 -39t-30.5 -54q0 -7 -6 -7q-7 0 -7 13q0 31 30.5 53.5t71.5 40.5q23 11 41 21q-46 21 -65 61q-11 27 -11 47q0 18 9 29q13 18 36 18
q37 0 47 -47q31 44 68 44q31 0 31 -30q0 -21 -26 -59q-29 -37 -64 -61q72 -23 171 -23q104 0 279 21q128 14 166 14q41 0 60 -9q7 0 14 -2q41 -14 41 -72q0 -9 -2.5 -11t-7.5 -2q-2 1 -2 7q0 26 -7 44t-20 18q-23 -3 -40 -44q-29 -68 -29 -146q0 -24 5.5 -56t32.5 -37
q29 0 53 28q32 37 75 137l9 22q1 1 5 1q6 0 6 -6l-11 -25q-21 -53 -55 -109.5t-83 -62.5zM185 427q37 24 68 63q24 34 24 51q0 20 -21 20q-34 0 -60 -45q-6 -11 -10 -11q-5 0 -7 13q-7 46 -39 46q-14 0 -24 -14q-7 -9 -7 -23q0 -17 10 -41q19 -39 66 -59z" />
    <glyph glyph-name="d.titl" unicode="&#xe004;" horiz-adv-x="1134" 
d="M998 105q-37 0 -54 47q-13 46 -13 123q-9 -36 -23 -74t-32 -64.5t-41 -26.5q-42 0 -60 39.5t-18 90.5v32q1 29 18.5 77.5t48.5 68.5q-65 -1 -175 -14q-173 -20 -283 -20q-105 0 -180 27q-17 -11 -43 -23q-100 -44 -100 -87q0 -11 -2 -12t-7 -1q-4 0 -4 15q0 30 30.5 52
t70.5 40q24 11 42 21q-46 21 -65 61q-11 27 -11 47q0 18 9 29q13 18 35 18q38 0 48 -47q30 44 68 44q31 0 31 -30q0 -21 -26 -59q-30 -37 -64 -61q70 -22 165 -22q118 0 285 20q128 14 168 14t58 -8q22 -11 36 -32q20 -31 20 -48q0 -4 -4 -4q-6 0 -7 4q-4 14 -13 30
q-16 26 -32 26q-35 0 -50 -87q-8 -45 -8 -87q0 -13 2.5 -46t24.5 -42q22 0 41 40q33 74 49 161q5 73 11 136q-114 29 -114 208q0 58 7 58q6 0 6 -5q-2 -27 -2 -51q0 -168 104 -199q3 41 16.5 124.5t39 172.5t66.5 147q35 49 82 49q81 0 84 -144q0 -49 -14 -111
q-24 -94 -70 -154q-66 -84 -147 -98l-3 -38q-14 -143 -14 -226q0 -10 1 -42t15 -42q4 -1 9 -1q36 0 90 111q29 60 35 79q1 1 5 1q6 0 6 -5l-9 -22q-64 -172 -139 -180zM1003 482q75 13 137 94q44 58 67 149q14 61 15 108q-3 123 -57 127q-75 -3 -120 -207q-32 -141 -42 -271
zM184 424q38 23 68 62q24 34 24 51q0 20 -20 20q-34 0 -61 -46q-6 -10 -9 -10q-5 0 -7 13q-7 46 -39 46q-14 0 -24 -14q-8 -9 -8 -24q0 -16 10 -40q19 -39 66 -58z" />
    <glyph glyph-name="e.titl" unicode="&#xe005;" horiz-adv-x="983" 
d="M840 110h-2q-87 0 -87 125q0 68 23.5 119t61.5 65h-8q-66 0 -179 -14q-170 -20 -283 -20q-105 0 -180 27q-17 -11 -43 -23q-101 -44 -101 -88v-7q0 -5 -5 -5h-4t-3 15q0 30 30.5 52t70.5 40q24 11 42 21q-46 21 -65 61q-12 27 -12 47q0 18 10 29q13 18 35 18q36 0 48 -47
q30 45 69 45q7 0 13 -3q17 -7 17 -28t-26 -59q-30 -37 -65 -61q70 -22 166 -22q117 0 285 20q123 14 168 14q39 0 57 -8q43 -9 43 -77q0 -26 -16 -48.5t-46 -22.5q-22 0 -39 15q-8 -38 -8 -77q0 -23 5 -49q7 -35 41 -35q23 0 46 24q35 37 75 135q9 24 11 24q9 0 9 -5
l-13 -30q-20 -54 -53.5 -107t-87.5 -60zM858 287q23 2 34.5 19t11.5 41q0 58 -27 58q-24 0 -47 -59q-10 -30 -12 -42q14 -17 36 -17h4zM184 425q37 23 68 63q24 33 24 51t-20 19q-34 0 -61 -45q-5 -10 -11 -10q-4 0 -5 11q-7 47 -38 47l-7 -1q-26 -5 -26 -35q0 -17 10 -42
q19 -39 66 -58z" />
    <glyph glyph-name="f.titl" unicode="&#xe006;" horiz-adv-x="1044" 
d="M919 -294q-32 0 -51 43q-31 71 -31 241l1 49q2 78 4 86h-16q-9 0 -9 6q0 9 25 9q1 37 12 138q-17 2 -41 2q-60 0 -164 -13q-165 -20 -278 -20q-108 0 -186 26q-17 -10 -42 -22q-39 -18 -70 -39.5t-31 -47.5v-8q0 -6 -5 -6q-7 0 -7 16q0 30 30 52t71 40q23 10 41 21
q-45 21 -65 60q-11 27 -11 47q0 18 9 30q13 18 35 18q37 0 49 -47q31 44 66 44q32 0 33 -30q0 -22 -28 -59.5t-63 -60.5q73 -23 171 -23q117 0 279 21q103 13 166 13q25 0 43 -2q13 121 47 221q34 78 75 78q27 0 27 -57q0 -34 -20 -98q-29 -92 -75 -162q-5 -59 -9 -128
q59 16 91.5 62.5t51.5 102.5q2 3 5 4q3 0 4.5 -2t1.5 -4v-3q-21 -59 -56 -107.5t-99 -65.5v-7q64 -37 100 -133q18 -49 18 -117q0 -141 -86 -167zM912 297q38 64 62 141q21 63 21 105q0 27 -10 27q-11 0 -27 -33q-21 -42 -36 -155q-9 -63 -10 -85zM943 -268q22 0 40 38
q22 49 22 120q0 49 -16 97q-33 87 -90 124q-2 -38 -2 -141q0 -78 8 -153q10 -85 38 -85zM184 286q37 24 68 63q24 34 24 51q0 19 -19 20q-35 0 -62 -45q-6 -11 -11 -11q-4 0 -6 13q-6 46 -39 46q-15 0 -24 -14q-7 -9 -7 -23q0 -17 10 -42q19 -38 66 -58z" />
    <glyph glyph-name="g.titl" unicode="&#xe007;" horiz-adv-x="1048" 
d="M747 -376q-12 0 -52.5 9t-69.5 84q-10 27 -10 56q0 54 34 118q31 53 80 94q80 65 174 65q17 0 22 -1q9 107 9 195q0 24 -1 46q-44 -180 -100 -180q-42 0 -60 39t-18 91v31q1 29 18.5 77.5t48.5 69.5q-65 -1 -173 -14q-121 -15 -249 -20q-137 0 -215 26q-17 -10 -42 -22
q-39 -18 -72 -40q-29 -21 -29 -47q0 -11 -2 -12.5t-7 -1.5q-3 2 -3 16q0 30 30 52t71 40q23 11 41 21q-46 21 -65 60q-11 27 -11 47q0 18 9 30q13 18 35 18q37 0 48 -47q31 44 68 44q31 0 31 -30q0 -21 -26 -59q-29 -38 -64 -61q72 -23 171 -23q104 0 279 21q128 14 166 14
q41 0 61 -9.5t34 -31.5q21 -33 21 -46q0 -5 -4 -5q-6 0 -8 4q-4 14 -13 30q-15 26 -31 26q-36 0 -51 -87q-7 -41 -7 -81q0 -16 2.5 -50.5t23.5 -43.5q45 0 91 201q-2 44 -4 65q1 11 13 17t23 6q3 0 11.5 -1.5t11.5 -18.5q3 -41 5 -145q0 -113 -10 -228q37 -25 49 -65
q6 -19 6 -50q0 -9 -6 -9t-6 17q0 64 -44 94q-5 -62 -34.5 -158t-83.5 -169q-58 -68 -116 -68zM730 -342q48 0 95 62q47 72 70.5 167.5t28.5 150.5l-19 1q-35 0 -71 -11q-111 -33 -175 -143q-28 -61 -28 -108q0 -105 86 -118q6 -1 13 -1zM184 423q37 24 68 63q24 34 24 51
q0 19 -19 20q-35 0 -63 -46q-5 -10 -10 -10q-4 0 -6 12q-6 47 -39 47q-15 0 -24 -14q-7 -9 -7 -23q0 -17 10 -42q19 -38 66 -58z" />
    <glyph glyph-name="h.titl" unicode="&#xe008;" horiz-adv-x="1233" 
d="M1090 107h-6q-37 9 -41 62q-2 25 -2 51q0 32 3 65.5t3 60.5q0 14 -1 37.5t-22 23.5q-71 -24 -103 -187q-11 -53 -11 -90q-1 -21 -28 -21q-26 0 -28 18l-1 59q0 105 11 225q-16 5 -47 5q-41 0 -168 -13q-167 -21 -284 -21q-104 0 -180 27q-17 -11 -42 -23
q-101 -44 -101 -87v-8q0 -5 -5 -5h-4t-3 15q0 48 101 92q23 11 41 21q-46 21 -65 61q-11 27 -11 47q0 18 9 29q13 19 34 19q38 0 49 -47q32 44 69 44q7 0 13 -3q17 -7 17 -28t-27.5 -58.5t-62.5 -60.5q71 -23 167 -23q115 0 283 20q99 13 160 13q35 0 58 -4l4 50
q-114 30 -114 208q0 58 7 58q6 0 6 -5q-2 -27 -2 -51q0 -168 104 -199q3 41 16.5 124.5t39 172.5t66.5 147q35 49 82 49q81 0 84 -144q0 -49 -14 -111q-24 -94 -70 -154q-65 -84 -147 -98q-10 -119 -16 -237q37 160 111 186l12 1q67 0 69 -104q0 -48 -5 -95q-3 -34 -3 -57
q0 -37 18 -37q13 0 31 16q44 43 90 168q1 1 3 1q8 0 8 -5l-9 -22q-42 -101 -83 -149q-29 -29 -63 -29zM928 482q75 13 137 94q44 58 67 149q14 61 15 108q-3 123 -57 127q-75 -3 -120 -207q-32 -141 -42 -271zM184 422q37 23 68 63q24 33 24 51t-21 19q-33 0 -60 -44
q-6 -11 -10 -11q-5 0 -7 13q-7 45 -38 45q-16 0 -25 -13q-7 -9 -7 -24q0 -17 10 -41q19 -39 66 -58z" />
    <glyph glyph-name="i.titl" unicode="&#xe009;" horiz-adv-x="1019" 
d="M869 471q-34 0 -36 45q3 59 41 59q34 0 34 -50q-6 -54 -39 -54zM881 105h-3q-62 0 -62 147q0 60 8 139q2 11 2 18q0 3 2 6q-65 0 -179 -14q-169 -20 -283 -20q-104 0 -180 27q-17 -11 -43 -23q-100 -44 -100 -87v-6q0 -7 -6 -7h-4t-3 13q0 31 30.5 53.5t70.5 40.5
q24 11 42 21q-46 21 -65 61q-11 27 -11 47q0 18 9 29q13 18 36 18q37 0 47 -47q31 44 68 44q8 0 14 -2q17 -7 17 -28t-26 -59q-29 -37 -64 -61q70 -22 165 -22q117 0 285 20q125 14 168 14q68 0 68 -22q0 -10 -3 -32q-13 -106 -13 -178l1 -36q1 -38 24 -38q36 0 92 111
q30 61 36 79l2 1q9 0 9 -5l-9 -22q-22 -54 -58 -114.5t-84 -65.5zM184 421q38 23 69 62q24 34 24 51q0 4 -1 7q-5 13 -20 13q-32 0 -59 -42q-8 -14 -12 -14t-6 16q-7 43 -39 43q-14 0 -24 -14q-7 -9 -7 -23q0 -17 10 -41q19 -39 65 -58z" />
    <glyph glyph-name="j.titl" unicode="&#xe00a;" horiz-adv-x="941" 
d="M847 471q-38 0 -38 54q0 26 12 38.5t24 12.5q6 0 19 -5.5t19 -39.5q0 -60 -36 -60zM642 -376q-11 0 -51.5 9t-69.5 84q-10 27 -10 57q0 53 33 117q31 53 81 94q79 65 174 65q16 0 22 -1q8 99 8 184q0 100 -5 169q0 9 10 16h-9q-64 0 -176 -13q-167 -21 -283 -21
q-105 0 -180 27q-18 -11 -43 -22q-39 -18 -72 -41q-29 -21 -29 -48v-7q0 -5 -5 -5q-7 0 -7 15q0 50 101 92q24 11 42 22q-46 20 -65 60q-12 27 -12 47q0 18 10 29q13 19 33 19q38 0 50 -47q31 44 66 44q9 0 16 -3q17 -7 17 -27q0 -22 -28 -59.5t-63 -60.5q71 -23 167 -23
q115 0 284 20q101 13 161 13q53 0 64 -7q8 -5 9 -17q5 -54 5 -177q0 -90 -9 -196l5 -4q50 -32 50 -111q-1 -9 -6 -9q-6 0 -6 9v8q0 64 -44 93l-1 1q-4 -62 -34 -158t-84 -169q-58 -68 -116 -68zM625 -342q48 0 96 62q47 72 70.5 167.5t28.5 150.5l-20 1q-34 0 -70 -11
q-112 -34 -176 -143q-27 -60 -27 -107q0 -26 15.5 -68.5t69.5 -50.5q6 -1 13 -1zM184 424q37 23 68 63q24 33 24 51q0 19 -20 19q-33 0 -59 -42q-8 -13 -13 -13q-4 0 -6 15q-7 43 -37 43l-7 -1q-26 -5 -26 -35q0 -17 10 -42q19 -39 66 -58z" />
    <glyph glyph-name="k.titl" unicode="&#xe00b;" horiz-adv-x="1114" 
d="M885 109q-26 0 -29 18l-1 47q0 110 12 238q-16 6 -49 6q-53 0 -169 -13q-167 -21 -283 -21q-105 0 -180 27q-18 -11 -43 -22q-39 -18 -72 -41q-29 -21 -29 -48v-7q0 -5 -5 -5q-7 0 -7 15q0 50 101 92q24 11 41 22q-45 20 -65 60q-11 27 -11 46q0 18 10 30q13 19 33 19
q38 0 50 -47q31 44 66 44q9 0 16 -3q17 -7 17 -27q0 -22 -28 -59.5t-63 -60.5q71 -23 167 -23q115 0 284 20q122 14 168 14q33 0 52 -6l3 46l1 3q-115 30 -115 211q0 24 2 51q1 4 6 4q6 0 6 -5q-2 -27 -2 -51q0 -168 104 -199q3 41 16 124.5t39 172.5t67 147q34 49 81 49
q82 0 85 -144q0 -49 -15 -111q-23 -94 -69 -154q-65 -83 -147 -98q-8 -96 -14 -194q9 40 28 80q40 76 73 76q34 0 34 -53q0 -92 -94 -142q5 -29 18 -61q17 -44 38 -44q38 0 102 177q1 3 6 3t5 -4v-2q-71 -196 -122 -196q-32 0 -57 44q-23 39 -32 69h-1q-2 -51 -2 -93
q0 -21 -27 -21zM922 248q48 29 76 74q31 50 31 84q0 16 -11 16q-27 0 -64 -72q-19 -39 -32 -102zM931 482q75 13 137 94q44 58 67 149q14 61 15 108q-3 123 -57 127q-75 -3 -120 -207q-32 -141 -42 -271zM184 424q37 23 68 63q24 33 24 51q0 19 -20 19q-33 0 -61 -44
q-6 -11 -11 -11q-4 0 -5 12q-7 46 -38 46l-7 -1q-26 -5 -26 -35q0 -17 10 -42q19 -39 66 -58z" />
    <glyph glyph-name="l.titl" unicode="&#xe00c;" horiz-adv-x="1060" 
d="M925 105h-3q-34 0 -51 47q-13 48 -13 112q0 70 8 148q-16 6 -49 6q-53 0 -168 -13q-167 -21 -283 -21q-105 0 -180 27q-18 -11 -43 -22q-39 -18 -72 -41q-29 -21 -29 -48v-7q0 -5 -5 -5q-7 0 -7 15q0 50 101 92q24 11 41 22q-45 20 -65 60q-11 27 -11 46q0 18 10 30
q13 19 33 19q38 0 50 -47q31 44 66 44q9 0 16 -3q16 -7 17 -28q0 -22 -28 -59t-63 -60q71 -23 167 -23q115 0 284 20q121 14 169 14q32 0 50 -5q0 8 4 48q-114 29 -114 211q0 55 7 55q6 0 6 -4v-1q-2 -26 -2 -49q0 -170 104 -201q10 140 56 297q57 196 148 196q81 0 85 -144
q-1 -49 -15 -111q-24 -94 -70 -154q-64 -84 -147 -98l-3 -37q-14 -144 -14 -227l1 -42q1 -43 24 -43q19 0 43 32q37 49 80 151q2 8 5 8q8 0 8 -5l-8 -22q-21 -54 -56.5 -114.5t-83.5 -65.5zM930 482q76 13 137 94q45 58 67 149q15 61 15 108q-3 123 -57 127
q-74 -3 -120 -207q-32 -141 -42 -271zM184 424q37 23 68 63q24 33 24 51q0 19 -20 19q-34 0 -61 -45q-5 -10 -11 -10q-4 0 -5 12q-7 46 -38 46q-17 0 -26 -13q-7 -9 -7 -24q0 -17 10 -41q19 -39 66 -58z" />
    <glyph glyph-name="m.titl" unicode="&#xe00d;" horiz-adv-x="1383" 
d="M847 104q-31 0 -31 25l4 157q4 127 8 131q-66 0 -179 -13q-167 -21 -283 -21q-105 0 -180 27q-18 -11 -43 -23q-101 -44 -101 -88v-7q0 -5 -5 -5h-4t-3 15q0 48 101 92q24 11 41 21q-45 21 -65 61q-11 27 -11 46q0 18 10 30q13 19 33 19q38 0 50 -47q30 44 68 44
q7 0 14 -3q16 -7 17 -28q0 -22 -28 -59t-63 -60q71 -23 167 -23q115 0 284 20q100 13 161 13q50 0 64 -7q9 -5 9 -15l-5 -172q37 159 110 185l10 1q76 0 76 -136v-6q33 118 98 141l12 1q69 0 69 -105q0 -47 -4 -94q-4 -34 -4 -57q0 -37 19 -37q46 0 110 157q11 28 13 28
q8 0 8 -5l-9 -22q-14 -34 -35 -76q-50 -102 -110 -102h-6q-37 9 -42 62q-2 25 -2 51q0 32 3 66q3 40 3 71q0 8 -1 29t-21 21q-71 -23 -103 -183l-6 -67l-3 -27q-3 -24 -26 -24t-25 23l3 38q6 86 6 129q0 39 -5 75t-25 36q-45 -15 -74 -87q-38 -95 -41 -190l-1 -2
q-1 -24 -27 -24zM184 423q37 23 68 63q24 33 24 51q0 19 -21 19q-34 0 -61 -46q-5 -9 -10 -9q-4 0 -5 11q-7 47 -38 47l-7 -1q-26 -5 -26 -36q0 -17 10 -41q19 -39 66 -58z" />
    <glyph glyph-name="n.titl" unicode="&#xe00e;" horiz-adv-x="1202" 
d="M849 105q-29 0 -31 25l2 48q5 235 12 241h-9q-65 0 -174 -13q-167 -21 -283 -21q-105 0 -180 27q-18 -10 -43 -22q-39 -18 -72 -41q-29 -20 -29 -48v-7q0 -5 -5 -5q-7 0 -7 15q0 50 101 92q24 11 41 22q-45 20 -65 60q-11 27 -11 46t10 31q14 18 33 18q38 0 50 -47
q31 44 66 44q9 0 16 -3q16 -7 17 -27q0 -22 -28 -59.5t-63 -60.5q73 -23 172 -23q112 0 279 20q114 14 170 14q67 0 67 -24l-5 -172q34 159 110 184l14 1q67 0 67 -104q0 -48 -4 -94q-4 -33 -4 -57q0 -37 19 -37q45 0 110 157q11 28 15 28q6 0 6 -5v-2l-9 -20
q-42 -101 -83 -149q-29 -29 -62 -29q-42 0 -48 62q-2 25 -2 51q0 32 3 66q3 39 3 70q0 8 -1 29.5t-21 21.5q-46 -16 -74 -87q-38 -90 -41 -191q-1 0 -1 -1q-3 -24 -28 -24zM184 425q37 24 68 63q24 33 24 51q0 19 -20 19q-34 0 -61 -46q-6 -9 -10 -9q-5 0 -6 11
q-7 47 -38 47q-17 0 -26 -13q-7 -9 -7 -24q0 -17 10 -41q19 -39 66 -58z" />
    <glyph glyph-name="o.titl" unicode="&#xe00f;" horiz-adv-x="1054" 
d="M875 97q-40 4 -56 39t-16 69q1 32 7 64v2q-12 24 -12 50q0 12 1 18q-61 -4 -150 -14q-173 -20 -284 -20q-104 0 -179 26q-17 -10 -43 -22q-101 -44 -101 -88v-8q0 -4 -4 -4h-4.5t-3.5 14q0 31 30.5 53t70.5 40q24 11 42 21q-46 21 -65 61q-11 27 -11 47q0 18 9 29
q13 18 35 18q36 0 48 -47q30 44 68 44q31 0 31 -30q0 -21 -26 -59q-30 -37 -65 -61q73 -23 172 -23q104 0 279 21q90 10 154 13q12 42 45 63q19 11 37 11q15 0 39 -11t37 -77q4 -12 4 -47q0 -39 -4 -66q67 18 94 87q2 3 5 4q7 0 7 -6v-1q-33 -80 -108 -96q-5 -36 -24 -74.5
t-59 -39.5zM184 344q38 24 68 63q24 34 24 51q0 20 -20 20q-33 0 -60 -44q-6 -12 -10 -12q-5 0 -7 14q-7 45 -39 45q-14 0 -24 -14q-8 -9 -8 -24q0 -16 10 -40q19 -39 66 -59zM897 125q28 0 49 84q-12 -2 -24 -2q-31 0 -60 13q0 -95 35 -95zM921 219q13 0 27 2q5 28 5 57
q0 41 -5 56q-15 78 -64 78q-15 0 -36.5 -13t-33.5 -49h11q62 0 62 -29q0 -6 -4 -14q-16 -34 -20 -74q28 -14 58 -14zM815 288q6 26 17 48l2 3h-23q-1 -9 -1 -21q0 -15 5 -30z" />
    <glyph glyph-name="p.titl" unicode="&#xe010;" horiz-adv-x="1167" 
d="M850 -386h-2q-34 0 -34 234q0 198 8 400q3 93 4 149q1 13 10 19q-80 0 -187 -13q-121 -15 -248 -20q-138 0 -215 26q-17 -10 -43 -22q-39 -18 -70 -39.5t-31 -48.5v-8q0 -4 -8 -4q-4 0 -4 14q0 31 30.5 53t70.5 40q24 11 42 21q-46 21 -65 61q-12 27 -12 47q0 18 10 29
q13 18 34 18q37 0 49 -47q30 44 68 44q31 0 31 -30q0 -21 -26 -59q-30 -38 -65 -61q73 -23 172 -23q104 0 279 21q125 13 169 13q32 0 49.5 -4.5t18.5 -24.5q-6 -139 -12 -231q13 74 34 141q27 78 70 112q33 26 71.5 6.5t41.5 -113.5q0 -48 -10 -91q56 18 89 89q3 5 7 5
q5 0 5 -5l-1 -5q-33 -74 -104 -98q-15 -55 -56.5 -103.5t-99.5 -48.5q-27 6 -27 40q0 9 2 19q15 60 77 79l43 10q17 55 17 108q-4 95 -42 91t-72 -99q-61 -192 -61 -532q0 -95 11 -130q2 -5 2 -10q0 -6 -5.5 -12.5t-14.5 -6.5zM924 69q41 0 86 123l-35 -9q-29 -8 -46 -28
q-25 -28 -25 -57t20 -29zM184 422q38 24 68 63q24 34 24 51q0 20 -20 20q-34 0 -61 -46q-5 -10 -10 -10t-6 12q-7 47 -39 47q-32 -3 -32 -37q0 -17 10 -42q19 -38 66 -58z" />
    <glyph glyph-name="q.titl" unicode="&#xe011;" horiz-adv-x="1127" 
d="M1004 -294q-33 0 -52 43q-31 72 -31 240l1 50q2 79 4 87h-16q-9 0 -9 6q0 9 25 9l8 118q-9 -35 -22.5 -68.5t-30.5 -56.5t-38 -23q-43 0 -61 40.5t-18 92.5q0 3 1 32.5t20 78t51 66.5h-16q-63 0 -171 -13q-167 -21 -284 -21q-104 0 -180 27q-17 -10 -42 -22
q-39 -18 -72 -41q-29 -20 -29 -46v-7q0 -7 -5 -7q-7 0 -7 15q0 49 101 93q23 10 41 21q-45 21 -65 60q-11 27 -11 47q0 18 9 30q14 18 35 18q37 0 48 -47q32 44 67 44q8 0 15 -3q18 -7 18 -27q0 -22 -28 -59.5t-63 -60.5q73 -23 171 -23q117 0 279 21q119 13 171 13
q37 0 55 -8q47 -13 65 -80v-2q0 -5 -5 -5t-6 5q-4 14 -13 30q-16 26 -33 26q-34 0 -49 -87q-8 -43 -8 -83q0 -15 2.5 -49t23.5 -44h2q20 0 39 40q34 72 50 162q4 48 7 73q3 17 30 17q28 0 28 -25v-2q-10 -79 -21 -257q59 17 91.5 63.5t51.5 101.5q2 4 5 5q3 0 4.5 -2t1.5 -5
v-2q-21 -60 -56 -108t-99 -65v-7q64 -37 100 -133q18 -50 18 -117q0 -140 -86 -168zM184 427q37 24 68 63q24 34 24 51q0 19 -19 20q-34 0 -62 -45q-5 -11 -11 -11q-4 0 -5 12q-6 47 -40 47q-15 0 -24 -14q-7 -9 -7 -24q0 -17 10 -41q19 -38 66 -58zM1026 -268q23 0 40 39
q23 49 23 120q0 49 -16 97q-33 90 -90 123q-2 -37 -2 -140q0 -221 43 -239h2z" />
    <glyph glyph-name="r.titl" unicode="&#xe012;" horiz-adv-x="1140" 
d="M963 30h-6q-44 9 -51 52q-2 14 -2 29q0 55 38 178q23 67 23 92q0 18 -45 39l-16 9q-4 -13 -9 -25q-28 -77 -38 -100l-11 4q9 17 33 86q-67 -52 -210 -71q-114 -16 -228 -16q-28 0 -112.5 2.5t-143.5 23.5q-17 -10 -42 -22q-101 -44 -101 -88v-7q0 -5 -4 -5h-4.5t-3.5 14
q0 31 30 53t71 40q24 11 41 21q-45 21 -65 61q-11 27 -11 47q0 18 9 29q14 18 36 18q36 0 48 -47q30 44 67 44q32 0 32 -30q0 -22 -28 -59t-63 -61q66 -22 235 -22q66 0 161.5 6.5t187.5 33.5t113 76q-34 29 -34 66q0 4 2.5 27t26 55.5t44.5 36.5h1q15 0 15 -28t-23 -101
l-10 -29q14 -8 29 -15q26 -11 43 -23q34 -32 34 -82q0 -66 -42 -171l-5 -14q-28 -71 -28 -97q0 -19 15 -19q61 0 179 269q1 3 4 3q7 0 7 -4l-1 -4q-119 -275 -188 -275zM184 346q37 24 68 63q24 34 24 51q0 20 -21 20q-34 0 -61 -48q-4 -7 -8 -7q-6 0 -7 9q-7 49 -40 49
l-6 -1q-25 -7 -25 -36q0 -17 10 -41q19 -39 66 -59zM906 468q31 93 31 124q0 16 -3 16q-7 -1 -18 -19q-28 -43 -28 -85v-14q0 -12 18 -22z" />
    <glyph glyph-name="s.titl" unicode="&#xe013;" horiz-adv-x="981" 
d="M785 -31q-38 0 -62 25q-16 16 -16 40q0 27 21 64q43 66 121 106q-19 27 -41 52q-31 37 -46 83q-9 26 -9 50q0 67 52 91q-63 -3 -156 -13q-167 -21 -283 -21q-105 0 -181 27q-17 -11 -42 -23q-101 -44 -101 -88v-7q0 -5 -5 -5q-7 0 -7 15q0 50 101 92q24 11 41 22
q-45 20 -65 60q-11 27 -11 46q0 18 10 30q13 19 33 19q38 0 50 -47q30 44 68 44q7 0 13 -3q18 -7 18 -28q0 -22 -28 -59t-63 -60q71 -23 167 -23q115 0 284 20q101 13 164 13q41 0 57 -5q1 -1 3 -1v-1h1q25 -12 26 -48q0 -6 -5 -6t-7 8q-1 40 -39 40q-19 0 -39 -13
q-23 -16 -23 -43q0 -53 66 -128q26 -30 49 -62q62 30 83 79q1 2 4 2q7 0 7 -6q-23 -54 -88 -85q22 -40 22 -84q0 -35 -15 -73q-46 -96 -129 -96zM184 486q37 23 68 63q24 33 24 51q0 19 -20 19q-34 0 -61 -45q-6 -10 -10 -10q-5 0 -7 13q-7 45 -38 45q-16 0 -25 -13
q-7 -9 -7 -24q0 -17 10 -41q19 -39 66 -58zM784 -20q15 0 48 10t48 77q2 14 2 28q0 53 -27 99q-79 -41 -119 -105q-17 -31 -17 -54t16 -37q21 -18 49 -18z" />
    <glyph glyph-name="t.titl" unicode="&#xe014;" horiz-adv-x="1065" 
d="M929 106q-42 0 -58 55q-14 49 -14 141q0 65 6 134q-21 5 -56 5q-59 0 -158 -13q-169 -21 -283 -21q-105 0 -180 27q-18 -11 -43 -23q-39 -17 -72 -40q-29 -21 -29 -53q0 -4 -1.5 -5.5t-6.5 -1.5q-4 0 -4 15q0 30 30 52t71 40q24 11 42 21q-46 21 -65 61q-12 27 -12 47
q0 18 10 29q14 19 33 19q38 0 50 -47q31 44 69 44q7 0 13 -3q17 -7 17 -27q0 -22 -28 -59.5t-63 -60.5q71 -23 167 -23q117 0 284 20q99 13 160 13q34 0 56 -4l8 76q-46 -13 -78 -13t-50 13q-30 20 -30 54q0 13 5 24q7 18 23 22q8 0 8 -4q0 -6 -8 -8q-16 -8 -16 -34l1 -13
q12 -42 66 -42q32 0 81 14l21 168q3 15 27 15q31 0 31 -18q0 -7 -18 -141q57 25 98 25q18 0 38 -7t29 -39q0 -11 -4 -11q-5 0 -8 8q-10 37 -54 37q-43 0 -101 -27q-28 -208 -28 -315q0 -19 2.5 -62t26.5 -49q25 0 48 29q32 40 77 143q7 20 12 20q6 0 6 -7q-24 -55 -45 -97
q-53 -103 -103 -103zM184 447q37 23 68 63q24 33 24 51t-21 19q-33 0 -60 -46q-5 -9 -10 -9t-6 11q-7 47 -38 47l-7 -1q-26 -5 -26 -35q0 -17 10 -42q19 -39 66 -58z" />
    <glyph glyph-name="u.titl" unicode="&#xe015;" horiz-adv-x="1198" 
d="M1059 105h-1q-35 0 -52 47q-11 45 -11 105q0 35 2 67q-47 -199 -111 -214h-3q-47 0 -61 58q-9 43 -9 91q0 19 3 65q6 84 16 91h-9q-65 0 -174 -13q-166 -21 -283 -21q-104 0 -180 27q-17 -10 -43 -22q-100 -46 -100 -87v-7q0 -7 -6 -7q-7 0 -7 14q0 50 101 93
q24 11 42 22q-46 20 -65 60q-11 27 -11 47q0 18 9 30q14 18 34 18q38 0 49 -47q31 44 67 44q8 0 15 -3q17 -7 17 -27q0 -22 -26 -59q-30 -38 -64 -61q72 -23 171 -23q114 0 279 20q122 14 168 14q41 0 57 -8h1q8 -4 8 -13v-2q-3 -18 -7 -60q-7 -71 -7 -123q0 -30 3.5 -61.5
t18.5 -31.5q45 0 89 168q24 94 24 101l2 12q3 15 27 15q31 0 31 -18l-3 -32q-14 -109 -14 -170l1 -43q1 -40 24 -40q19 0 44 32q37 49 82 151q4 9 7 9q6 0 6 -5l-9 -22q-67 -172 -142 -181zM184 421q38 24 68 63q25 34 25 52l-1 6q-5 12 -19 12q-36 0 -63 -47q-4 -8 -8 -8
q-6 0 -7 10q-5 48 -38 48q-16 0 -24.5 -11t-8.5 -26q0 -17 10 -41q19 -39 66 -58z" />
    <glyph glyph-name="v.titl" unicode="&#xe016;" horiz-adv-x="1152" 
d="M927 110q-43 1 -63.5 58t-27 126t-6.5 108q0 9 8 15h-16q-64 0 -173 -13q-167 -21 -283 -21q-105 0 -180 27q-17 -11 -43 -23q-101 -44 -101 -88v-7q0 -5 -5 -5h-4t-3 15q0 30 30.5 52t70.5 40q24 11 42 21q-46 21 -65 61q-12 27 -12 47q0 18 10 29q13 18 35 18
q36 0 48 -47q30 45 69 45q7 0 13 -3q17 -7 17 -28t-26 -58q-30 -38 -65 -61q71 -23 167 -23q116 0 284 20q128 14 171 14q37 0 54 -8q14 -5 15 -20q4 -129 19 -212q10 -62 26 -62q18 0 34 31.5t27 70t15 56.5q-14 27 -23 61q-16 58 -16 106q0 85 40 85q33 0 33 -79
q0 -78 -22 -172q29 -53 65.5 -44t66.5 68q2 3 5 3q6 0 6 -4l-1 -4q-29 -59 -72.5 -71.5t-73.5 35.5q-1 -2 -1 -5q-34 -147 -89 -154zM184 423q38 23 68 63q24 33 24 51t-20 19q-34 0 -61 -46q-5 -9 -10 -9t-6 11q-6 47 -38 47l-7 -1q-26 -5 -26 -35q0 -17 10 -42
q19 -39 66 -58zM1013 303q18 81 18 154q0 68 -21 68q-28 0 -28 -72q0 -74 31 -150z" />
    <glyph glyph-name="w.titl" unicode="&#xe017;" horiz-adv-x="1308" 
d="M896 109q-69 12 -69 226q0 26 1 47q0 14 5 19h-9q-65 0 -175 -13q-166 -21 -283 -21q-104 0 -180 27q-17 -10 -42 -22q-101 -46 -101 -87v-7q0 -7 -6 -7q-7 0 -7 14q0 50 101 93q24 11 42 22q-46 20 -65 60q-11 27 -11 47q0 18 9 30q14 18 34 18q38 0 49 -47q32 44 67 44
q8 0 15 -3q17 -7 17 -27q0 -22 -27.5 -59.5t-62.5 -60.5q72 -23 171 -23q114 0 279 20q101 13 162 13q51 0 63 -7h1q12 -6 12 -22l1 -91q1 -152 16 -164h1q13 0 29 45q36 98 53 200v29q2 21 30 21q27 0 28 -22q4 -127 18 -212q10 -62 27 -62q18 0 33.5 30.5t26.5 69.5t15 57
l1 1q-14 27 -23 61q-16 58 -16 106q0 85 40 85q32 0 32 -87q0 -73 -21 -164q29 -53 65.5 -44t66.5 68q1 3 5 3q6 0 6 -4l-1 -4q-29 -59 -72.5 -71.5t-73.5 35.5l-2 -5q-6 -26 -17 -61t-28.5 -62.5t-42.5 -30.5q-47 2 -68 69t-25 141q-9 -45 -23.5 -94t-32.5 -83t-38 -34z
M184 407q38 23 69 63q24 33 24 51q0 4 -1 7q-5 12 -19 12q-36 0 -63 -47q-4 -8 -8 -8q-6 0 -7 10q-5 48 -38 48q-16 0 -25 -13q-7 -9 -7 -24q0 -17 10 -41q19 -39 65 -58zM1169 303q18 81 18 154q0 68 -21 68q-28 0 -28 -72q0 -74 31 -150z" />
    <glyph glyph-name="x.titl" unicode="&#xe018;" horiz-adv-x="1103" 
d="M824 85q-4 0 -6 4l-1 18q0 68 47 127q-26 85 -35 146l-4 20q0 10 13 17h-16q-64 0 -173 -13q-167 -21 -284 -21q-104 0 -180 27q-17 -10 -42 -22q-101 -46 -101 -87v-7q0 -7 -6 -7q-1 0 -3.5 0.5t-2.5 14.5q0 50 101 92q23 11 41 22q-46 21 -65 60q-11 27 -11 47
q0 18 9 30q14 18 35 18q37 0 48 -47q32 44 67 44q8 0 15 -3q17 -7 17 -27q0 -21 -26 -59q-29 -38 -64 -61q72 -23 171 -23q114 0 279 20q115 14 171 14q60 0 64 -20q0 -19 23 -130q27 28 46.5 60.5t20.5 76.5q2 6 6 7q6 0 6 -6q-1 -50 -23.5 -85.5t-52.5 -65.5
q29 -133 74 -140q24 1 48 35q36 52 71 142q2 10 7 11q3 0 5 -2t2 -4l-3 -9q-72 -190 -135 -190q-69 4 -108 112q-39 -45 -39 -119v-11q0 -6 -6 -6zM184 423q37 24 68 63q24 34 24 51q0 19 -19 20q-37 0 -64 -49q-4 -7 -8 -7q-6 0 -7 10q-5 48 -38 48q-16 0 -25 -13
q-7 -9 -7 -24q0 -17 10 -41q19 -39 66 -58z" />
    <glyph glyph-name="y.titl" unicode="&#xe019;" horiz-adv-x="1119" 
d="M819 -375q-11 0 -51.5 9t-69.5 84q-10 26 -10 55q0 55 34 119q31 53 80 93q80 66 176 66q15 0 20 -1q9 120 9 210q0 51 -3 93q-26 -121 -66 -194q-27 -49 -56 -49q-47 0 -60 58q-9 43 -9 91q0 19 3 65q6 84 16 91h-9q-65 0 -174 -13q-167 -21 -283 -21q-105 0 -180 27
q-17 -11 -43 -22q-101 -47 -101 -89v-7q0 -5 -5 -5q-7 0 -7 15q0 49 101 92q24 11 42 22q-46 20 -65 60q-11 27 -11 47q0 18 9 29q13 19 34 19q38 0 49 -47q31 44 67 44q8 0 15 -3q17 -7 17 -27q0 -22 -26 -59q-30 -38 -64 -61q70 -23 166 -23q116 0 284 20q100 13 161 13
q50 0 65 -7q8 -4 8 -13v-2q-3 -18 -7 -60q-7 -71 -7 -123q0 -93 21 -93q45 0 90 170q23 85 23 105q0 11 14 18q10 5 21 5q4 0 12.5 -1.5t10.5 -18.5q5 -54 5 -175q0 -91 -10 -199l6 -3q50 -32 50 -111q-1 -7 -3 -8t-3 -1q-6 0 -6 9q0 72 -45 102q-4 -62 -34 -158t-84 -169
q-58 -68 -117 -68zM184 421q38 23 68 63q24 33 24 51q0 19 -20 19q-35 0 -62 -48q-4 -7 -8 -7q-6 0 -7 9q-5 49 -38 49q-16 0 -24.5 -11t-8.5 -26q0 -17 10 -41q19 -39 66 -58zM801 -342q50 0 97 62q47 72 71 168t28 151h-20q-90 0 -167 -63q-48 -39 -78 -90
q-28 -61 -28 -109q0 -104 86 -118z" />
    <glyph glyph-name="z.titl" unicode="&#xe01a;" horiz-adv-x="1219" 
d="M885 -372q-32 0 -56 21q-35 30 -35 86q0 12 5.5 56.5t91.5 138.5q50 50 108 95l41 34q-19 80 -95 107q-26 9 -26 20q0 17 40 46q36 25 78 88q21 32 21 55q0 8 -3 15q-7 19 -48 19q-18 0 -43 -4q-95 -29 -95 -85q0 -35 29 -60q2 -3 2 -6q0 -4 -3 -10.5t-11.5 -12
t-15.5 -5.5h-2l-4 1q-16 5 -47 5q-55 0 -168 -13q-167 -21 -284 -21q-104 0 -180 27q-17 -10 -42 -22q-39 -18 -70 -39.5t-31 -48.5v-7q0 -6 -5 -6q-7 0 -7 15q0 49 101 93q24 10 41 21q-45 21 -65 60q-11 27 -11 46t10 31q13 18 34 18q37 0 49 -47q31 44 66 44q9 0 16 -3
q16 -7 17 -27q0 -22 -28 -59.5t-63 -60.5q73 -23 171 -23q117 0 280 21q101 13 164 13q22 0 39 -2q-20 31 -20 58q0 28 32 63t97 53q29 8 52 8q19 0 34 -5q37 -16 37 -48q0 -8 -7.5 -34.5t-43 -71t-58.5 -67.5q81 -19 113 -97q35 35 76.5 99.5t55.5 107.5q1 4 4 5
q3 0 5 -1.5t2 -4.5v-2q-14 -46 -57.5 -112.5t-80.5 -103.5q15 -47 15 -102q0 -102 -51 -213q-78 -146 -171 -146zM184 238q37 24 68 63q24 34 24 51q0 19 -19 20q-37 0 -64 -49q-4 -7 -8 -7q-5 0 -6 9q-5 50 -40 50q-15 0 -24 -14q-7 -9 -7 -23q0 -17 10 -42q19 -38 66 -58z
M882 -353q23 0 64 23t79 131q26 92 26 167q0 40 -7 75l-1 4q-18 -16 -37 -31q-56 -44 -105 -92q-95 -103 -95 -183q0 -54 33 -79q20 -15 43 -15z" />
    <glyph glyph-name="a.swsh" unicode="&#xe01b;" horiz-adv-x="1182" 
d="M1138 103q-4 0 -4 6q0 2 3 6.5t3 16.5q0 30 -70 67q-27 13 -48 30q-80 -30 -164 -30q-93 0 -197 16q-84 14 -159 14q-23 0 -81.5 -3t-121.5 -77q-33 -44 -69 -44q-35 0 -52 47q-11 45 -11 103v18q-40 -162 -95 -162q-37 0 -56 32q-23 38 -23 99q0 37 10 79t32.5 73.5
t53.5 32.5q31 -2 50.5 -27.5t27.5 -54.5v-2q0 -5 -5 -5t-6 5q-4 14 -13 30q-16 25 -32 25q-35 0 -50 -86q-8 -45 -8 -87q0 -13 2.5 -46t24.5 -43h3q19 0 38 40q33 74 49 162q2 33 5 54l1 17q3 15 27 15q30 0 32 -18l-4 -32q-13 -101 -13 -170l1 -43q1 -41 24 -41q20 0 47 38
q62 78 157 84q22 1 45 1q76 0 163 -15q116 -18 197 -18q82 0 160 27q-27 23 -42 46q-23 33 -23 60q0 17 10.5 29.5t33.5 12.5q17 0 31 -13t21 -29q30 46 62 46q13 0 23.5 -9t10.5 -32q0 -34 -52 -81q-23 -20 -52 -33q18 -13 40 -25q77 -41 77 -77q0 -15 -7 -24q-3 -5 -7 -5z
M1024 242q31 13 56 34q48 44 48 73t-22 29q-27 0 -55 -45q-4 -7 -8 -7q-5 0 -9 8q-15 39 -44 39q-6 0 -13.5 -2.5t-12.5 -8.5t-5 -18q0 -25 21 -54q16 -25 44 -48z" />
    <glyph glyph-name="b.swsh" unicode="&#xe01c;" horiz-adv-x="1155" 
d="M111 47q-17 0 -29 14.5t-12 36.5q0 49 49 103q30 34 61 42l2 8q13 52 13 93q-1 56 -31 56q-32 0 -67.5 -88t-45.5 -148v-34q-1 -20 -27 -20t-29 18v35q0 147 15 310q-114 29 -114 212q0 24 2 51q1 4 6 4q6 0 6 -6q-2 -27 -2 -51q0 -167 103 -198q3 41 16.5 124
t39.5 172.5t67 147.5q34 49 81 49q81 0 85 -145q0 -48 -15 -110q-23 -94 -69 -154q-67 -87 -147 -98q-11 -122 -16 -242q17 69 51.5 133t87.5 66q35 -2 52 -47q8 -21 8 -51q0 -34 -10 -80q72 6 102 25q30 16 75 16q41 0 122 -10q154 -22 268 -22q98 0 176 27q-26 23 -42 46
q-23 33 -23 60q0 17 7.5 26t17.5 12.5t19 3.5q17 0 31.5 -13t20.5 -29q30 46 62 46q13 0 23.5 -9t10.5 -32q0 -34 -52 -81q-23 -20 -52 -33q18 -14 40 -25q77 -40 77 -77q0 -1 -0.5 -9t-5 -14t-6.5 -6q-6 0 -6 6q0 2 3 6.5t3 16.5q0 29 -70 67q-27 13 -48 30
q-83 -31 -188 -31q-114 0 -268 23q-70 9 -107 9q-55 0 -89 -17q-39 -19 -104 -24q-13 -63 -49 -128q-37 -63 -79 -63zM997 291q31 13 56 34q48 44 48 73q0 16 -9 23q-5 5 -13 5q-27 0 -55 -44q-4 -7 -8 -7q-5 0 -8.5 8t-10.5 19q-14 20 -34 20q-6 0 -13.5 -2.5t-12.5 -8.5
t-5 -18q0 -49 65 -102zM70 483q75 13 136 93q45 58 68 149q14 62 14 108q-3 124 -56 127q-75 -3 -121 -206q-31 -141 -41 -271zM96 77q13 0 44 60q24 50 37 93q-29 -10 -53 -43q-39 -53 -39 -90q0 -20 11 -20z" />
    <glyph glyph-name="c.swsh" unicode="&#xe01d;" horiz-adv-x="1034" 
d="M991 103q-5 0 -5 6q0 2 3 6.5t3 16.5q0 30 -70 67q-27 13 -48 30q-83 -31 -188 -31l-83 3q-79 3 -268 32q-46 8 -70 8q-24 -1 -44 -17q-27 -22 -77 -81q-27 -31 -61 -34q-53 1 -74 52q-15 38 -15 84q0 16 4.5 57.5t34.5 86.5q25 37 62 37q9 0 18 -2q41 -14 41 -72v-5
q0 -8 -7 -8q-5 0 -5 7v9q0 19 -7 36t-20 17q-23 -4 -40 -45q-29 -67 -29 -146q0 -24 6 -55q6 -37 35 -37q27 0 50 28l17 18q37 44 59 62t49 19q27 0 80 -8q217 -34 346 -34q98 0 176 27q-26 23 -42 46q-23 33 -23 60q0 17 10.5 29.5t33.5 12.5q17 0 31.5 -13t20.5 -29
q30 46 62 46q13 0 23.5 -9t10.5 -32q0 -34 -52 -81q-23 -20 -52 -33q18 -13 40 -25q77 -40 77 -77q0 -15 -7 -24q-3 -5 -6 -5zM876 242q31 13 56 34q48 44 48 73t-22 29q-27 0 -55 -45q-4 -7 -8 -7q-5 0 -9 8q-15 39 -44 39q-6 0 -13.5 -2.5t-12.5 -8.5t-5 -18q0 -25 21 -54
q16 -25 44 -48z" />
    <glyph glyph-name="d.swsh" unicode="&#xe01e;" horiz-adv-x="1185" 
d="M1141 103q-4 0 -4 6l1 5q5 6 5 18q0 30 -70 67q-27 13 -48 30q-84 -31 -188 -31q-154 0 -330 33q-37 8 -67 8q-22 0 -40 -4q-23 -7 -42.5 -26t-39 -42.5t-41 -42.5t-44.5 -19q-35 0 -53 47q-13 49 -13 114v10q-41 -165 -96 -165q-37 0 -56 32q-22 38 -22 95q0 39 9.5 82
t32 74.5t54.5 32.5q31 -2 50.5 -27.5t26.5 -54.5v-2q0 -5 -5 -5t-6 5q-4 14 -13 30q-14 25 -32 25q-35 0 -50 -86q-7 -41 -7 -81q0 -16 2 -50.5t24 -44.5h3q19 0 38 40q33 74 49 162q4 73 11 135q-114 29 -114 212q0 55 7 55q6 0 6 -4v-2q-2 -26 -2 -49q0 -169 104 -200
q10 139 56 297q57 196 148 196q81 0 85 -145q-1 -48 -15 -110q-24 -94 -70 -154q-66 -87 -147 -98l-3 -38q-14 -147 -14 -226l1 -42q1 -44 20 -44t69 55q54 59 84 70q14 5 34 5q31 0 104 -12l37 -6q162 -23 269 -23q97 0 176 27q-27 23 -42 46q-23 33 -23 60q0 17 10.5 29.5
t33.5 12.5q17 0 31 -13t21 -29q30 46 61 46q13 0 24 -9t11 -31q0 -34 -52 -82q-24 -20 -53 -33q19 -13 41 -25q77 -41 77 -77q0 -1 -0.5 -8.5t-5.5 -14t-8 -6.5zM1027 242q31 13 55 34q48 44 48 73t-21 29q-29 0 -55 -45q-5 -7 -9 -7t-7.5 8t-10.5 19q-14 20 -34 20
q-6 0 -13.5 -2.5t-12.5 -8.5t-5 -17q0 -51 65 -103zM239 483q76 13 137 93q45 58 67 149q15 62 15 108q-3 124 -57 127q-74 -3 -120 -206q-32 -141 -42 -271z" />
    <glyph glyph-name="e.swsh" unicode="&#xe01f;" horiz-adv-x="1039" 
d="M995 103q-4 0 -4 6l1 5q5 6 5 18q-2 32 -71 67q-26 13 -47 30q-84 -31 -188 -31q-145 0 -365 37q-44 8 -66 8t-37 -12.5t-65 -75.5q-35 -45 -78 -45q-87 0 -87 128q0 66 23 117q34 70 87 70q17 0 31 -10q24 -16 24 -61q0 -34 -16 -56t-46 -22q-22 0 -39 15q-8 -51 -8 -78
q0 -22 5 -49q7 -35 39 -35q31 0 55 32l16 19q33 40 52 57t43 18q24 0 72 -9q36 -6 93 -13q161 -23 269 -23q97 0 175 27q-64 57 -64 107q0 41 44 41q17 0 31 -13t20 -29q31 46 62 46q13 0 22 -8q13 -10 13 -32q0 -34 -52 -82q-24 -20 -53 -33q18 -13 41 -25q45 -24 61 -44
t16 -34q-1 -15 -6 -21.5t-8 -6.5zM881 242q31 13 55 34q48 44 48 73t-21 29q-28 0 -56 -45q-4 -7 -8 -7t-8 8t-11 19q-13 20 -33 20q-7 0 -14.5 -2.5t-12.5 -8.5t-5 -18l1 -10q10 -48 65 -92zM100 288q23 2 34.5 19t11.5 41q0 57 -26 57q-25 0 -48 -59q-9 -29 -12 -42
q14 -16 36 -16h4z" />
    <glyph glyph-name="f.swsh" unicode="&#xe020;" horiz-adv-x="1000" 
d="M64 -294q-33 0 -53 43q-30 70 -30 229q0 74 3 138l1 10q-21 0 -23 2t-2 3q0 10 26 10q1 25 7 91q14 173 53 279q34 79 75 79q28 0 28 -58q0 -31 -20 -97q-30 -92 -76 -162q-5 -60 -9 -129q56 15 78 32.5t30.5 33.5t25.5 26.5t64 10.5q46 0 144 -14q161 -23 268 -23
q98 0 176 27q-26 23 -42 46q-23 33 -23 60q0 17 10.5 29.5t33.5 12.5q17 0 31.5 -13t20.5 -29q30 46 62 46q13 0 23.5 -9t10.5 -32q0 -34 -52 -81q-23 -20 -52 -33q18 -13 40 -25q77 -41 77 -77q0 -15 -7 -24q-3 -5 -7 -5t-4 6q0 2 3 6.5t3 16.5q0 30 -70 67q-27 13 -48 30
q-83 -31 -188 -31q-115 0 -268 23q-96 12 -144 12q-24 0 -42 -4q-31 -5 -42 -32q-20 -42 -112 -65q-1 -3 -1 -7q26 -15 48 -42q70 -81 70 -212q0 -136 -85 -164zM842 242q31 13 56 34q48 44 48 73t-22 29q-27 0 -55 -45q-4 -7 -8 -7q-5 0 -9 8q-15 39 -44 39
q-6 0 -13.5 -2.5t-12.5 -8.5t-5 -18q0 -25 21 -54q16 -25 44 -48zM55 298q38 64 62 141q21 63 21 104q0 27 -10 27q-4 0 -11 -7q-17 -17 -29 -61q-22 -84 -33 -204zM86 -268q22 0 40 39q22 49 22 115q0 52 -16 102q-33 88 -89 123q-3 -36 -3 -140q0 -221 44 -239h2z" />
    <glyph glyph-name="g.swsh" unicode="&#xe021;" horiz-adv-x="1071" 
d="M-16 -375q-11 0 -51.5 8.5t-69.5 84.5q-10 27 -10 56q0 54 34 118q31 53 80 93q80 66 175 66q15 0 21 -1q9 106 9 194l-1 46q-9 -37 -22.5 -78t-33 -71t-43.5 -30q-38 0 -56 32q-23 38 -23 99q0 37 10 79t32 73.5t54 32.5q31 -2 50.5 -27.5t27.5 -54.5v-2q0 -5 -5 -5
q-4 0 -7 5q-4 14 -13 30q-14 25 -31 25q-35 0 -50 -86q-8 -43 -8 -83q0 -15 2.5 -49t23.5 -44h3q19 0 37.5 40.5t32 90t18.5 71.5q-2 43 -4 65q1 11 13 17t23 6q3 0 12 -1.5t11 -18.5q4 -46 5 -163q22 6 54 6q55 0 173 -16q161 -23 268 -23q98 0 176 27q-26 23 -42 46
q-23 33 -23 60q0 17 10.5 29.5t33.5 12.5q17 0 31.5 -13t20.5 -29q30 46 62 46q13 0 23.5 -9t10.5 -32q0 -34 -52 -81q-23 -20 -52 -33q18 -13 40 -25q77 -41 77 -77q0 -15 -7 -24q-3 -5 -7 -5t-4 6q0 2 3 6.5t3 16.5q0 30 -70 67q-27 13 -48 30q-83 -31 -188 -31
q-115 0 -268 23q-115 16 -170 16q-31 0 -52 -6l-3 10q0 -96 -10 -209l6 -3q31 -20 43 -62q6 -18 6 -42q0 -16 -5 -16q-6 0 -6 9q0 72 -45 101q-5 -61 -34.5 -157t-83.5 -169q-59 -68 -117 -68zM-34 -342q50 0 97 62q47 72 71 168t28 151h-20q-92 0 -167 -63q-48 -39 -78 -90
q-28 -61 -28 -108q0 -105 86 -119zM913 242q31 13 56 34q48 44 48 73t-22 29q-27 0 -55 -45q-4 -7 -8 -7q-5 0 -9 8q-15 39 -44 39q-6 0 -13.5 -2.5t-12.5 -8.5t-5 -18q0 -25 21 -54q16 -25 44 -48z" />
    <glyph glyph-name="h.swsh" unicode="&#xe022;" horiz-adv-x="1190" 
d="M1146 103q-4 0 -4 6q0 2 3 6.5t3 16.5q0 30 -70 67q-27 13 -48 30q-83 -31 -188 -31q-115 0 -268 23l-93 13q-54 8 -73 8t-30 -8.5t-27.5 -31.5t-55.5 -65q-29 -29 -63 -29q-42 0 -47 62q-2 25 -2 51q0 32 3 66q3 39 3 70q0 8 -1 29.5t-21 21.5q-46 -16 -74 -87
q-41 -98 -41 -191q-1 -20 -28 -20q-26 0 -28 18v47q0 142 15 298q-114 29 -114 212q0 55 7 55q6 0 6 -4v-2q-2 -26 -2 -49q0 -169 104 -200q10 139 56 297q57 196 148 196q81 0 85 -145q-1 -48 -15 -110q-24 -94 -70 -154q-66 -87 -147 -98q-10 -120 -15 -238
q34 161 110 186l14 1q65 0 67 -104q0 -48 -5 -94q-3 -33 -3 -57q0 -37 19 -37q12 0 30 15q50 49 64.5 72.5t29.5 31.5q10 5 32 5q37 0 156 -18l8 -1q161 -23 268 -23q98 0 176 27q-27 23 -42 46q-23 33 -23 60q0 17 10.5 29.5t33.5 12.5q17 0 31 -13t21 -29q30 46 62 46
q13 0 23.5 -9t10.5 -32q0 -34 -52 -81q-23 -20 -52 -33q18 -13 40 -25q77 -41 77 -77q0 -15 -7 -24q-3 -5 -7 -5zM1032 242q31 13 56 34q48 44 48 73t-22 29q-27 0 -55 -45q-5 -7 -9 -7t-8 8q-15 39 -44 39q-6 0 -13.5 -2.5t-12.5 -8.5t-5 -18q0 -49 65 -102zM70 483
q76 13 137 93q45 58 67 149q15 62 15 108q-3 124 -57 127q-74 -3 -120 -206q-32 -141 -42 -271z" />
    <glyph glyph-name="i.swsh" unicode="&#xe023;" horiz-adv-x="1017" 
d="M974 103q-5 0 -5 6q0 2 3 6.5t3 16.5q0 30 -70 67q-27 13 -48 30q-83 -31 -188 -31q-147 0 -361 37q-41 8 -64 8h-15q-25 -2 -83 -78l-13 -16q-33 -44 -69 -44q-35 0 -52 47q-12 44 -12 101q0 67 9 139l1 17q3 15 27 15q30 0 32 -18l-4 -33q-13 -101 -13 -169l1 -43
q1 -41 23 -41q20 0 49 39q42 58 68 79q20 16 53 16q28 0 115 -15q183 -29 310 -29q98 0 176 27q-26 23 -42 46q-23 33 -23 60q0 17 10.5 29.5t33.5 12.5q17 0 31.5 -13t20.5 -29q31 46 62 46q13 0 23.5 -9t10.5 -32q0 -34 -52 -81q-23 -20 -52 -33q18 -13 40 -25
q77 -40 77 -77q0 -1 -0.5 -8.5t-5 -14t-7.5 -6.5zM859 242q31 13 56 34q48 44 48 73t-22 29q-27 0 -55 -45q-4 -7 -8 -7q-5 0 -9 8q-15 39 -44 39q-6 0 -13.5 -2.5t-12.5 -8.5t-5 -18l1 -10q9 -47 64 -92zM53 472q-34 0 -36 45q3 59 41 59q34 0 35 -50q-7 -54 -40 -54z" />
    <glyph glyph-name="j.swsh" unicode="&#xe024;" horiz-adv-x="893" 
d="M16 472q-37 0 -37 53q0 27 12 39t25 12q5 0 18 -5t19 -40v-4q0 -55 -37 -55zM-189 -375q-11 0 -51 8.5t-69 84.5q-10 27 -10 57q0 53 33 117q32 53 81 93q78 66 175 66q15 0 21 -1q8 99 8 184q0 100 -5 169q0 11 12.5 17t23.5 6q3 0 11.5 -1.5t11.5 -18.5q3 -46 5 -162
q25 4 57 4q66 0 164 -15q161 -23 268 -23q98 0 176 27q-26 23 -42 46q-23 33 -23 60q0 17 10.5 29.5t33.5 12.5q17 0 31.5 -13t20.5 -29q30 46 62 46q13 0 23.5 -9t10.5 -32q0 -34 -52 -81q-23 -20 -52 -33q18 -13 40 -25q77 -41 77 -77q0 -15 -7 -24q-3 -5 -7 -5t-4 6
q0 2 3 6.5t3 16.5q0 30 -70 67q-27 13 -48 30q-83 -31 -188 -31q-115 0 -268 23q-115 16 -169 16q-30 0 -50 -5q0 -93 -10 -200q3 -1 5 -3q32 -20 44 -62q6 -18 6 -42q0 -16 -5 -16q-7 0 -7 9v7q0 66 -44 94q-5 -61 -35 -157t-83 -169q-59 -68 -118 -68zM-206 -342
q49 0 97 62q47 72 70.5 168t28.5 151h-20q-91 0 -168 -63q-47 -39 -77 -90q-28 -61 -28 -108q0 -105 86 -119zM735 242q31 13 56 34q48 44 48 73t-22 29q-27 0 -55 -45q-4 -7 -8 -7q-5 0 -9 8q-15 39 -44 39q-6 0 -13.5 -2.5t-12.5 -8.5t-5 -18q0 -25 21 -54q16 -25 44 -48z
" />
    <glyph glyph-name="k.swsh" unicode="&#xe025;" horiz-adv-x="1072" 
d="M1028 103q-4 0 -4 6l1 5q5 6 5 18q0 31 -71 67q-26 13 -47 30q-84 -31 -188 -31l-84 3q-99 4 -278 34q-41 8 -64 8q-3 0 -16 -0.5t-31 -18.5t-49 -63l-13 -17q-24 -33 -47 -33q-32 0 -56 44q-23 39 -32 69h-1l-1 -64v-30q-1 -20 -28 -20q-26 0 -28 18v47q0 142 15 298
q-114 30 -114 209q0 58 7 58q6 0 6 -6q-2 -27 -2 -51q0 -167 104 -198q3 41 16.5 124t39 172.5t66.5 147.5q35 49 82 49q81 0 84 -145q0 -48 -14 -110q-24 -94 -70 -154q-67 -88 -147 -98q-8 -96 -13 -195q9 41 27 80q36 69 61 75q7 2 13 2q34 0 34 -52q0 -92 -95 -143
q22 -104 56 -104q14 0 30 20t27 35q25 35 41 49.5t45 14.5q23 0 67 -7q36 -6 95 -13q161 -23 269 -23q97 0 175 27q-64 57 -64 107q0 41 44 41q17 0 31 -13t20 -29q31 46 62 46q13 0 22 -8q13 -10 13 -32q0 -34 -52 -82q-24 -20 -53 -33q18 -13 41 -25q45 -24 61 -44t16 -34
q-1 -15 -6 -21.5t-8 -6.5zM70 483q75 13 137 93q44 58 67 149q14 62 15 108q-3 124 -57 127q-75 -3 -120 -206q-32 -141 -42 -271zM61 249q49 29 76 74q31 50 31 84q0 15 -11 15q-26 0 -64 -71q-18 -39 -32 -102zM914 242q31 13 55 34q48 44 48 73t-21 29q-28 0 -56 -45
q-4 -7 -8 -7t-7.5 8t-10.5 19q-14 20 -34 20q-7 0 -14.5 -2.5t-12.5 -8.5t-5 -18l1 -10q10 -48 65 -92z" />
    <glyph glyph-name="l.swsh" unicode="&#xe026;" horiz-adv-x="1014" 
d="M971 103q-5 0 -5 6q0 2 3 6.5t3 16.5q0 30 -70 67q-27 13 -48 30q-83 -31 -188 -31q-114 0 -268 23q-96 18 -134 18q-35 0 -56 -14t-49 -47q-12 -15 -30 -33q-32 -40 -65 -40q-34 0 -52 47q-14 50 -14 115q0 61 10 165l3 41q-114 29 -114 212q0 55 7 55t7 -6
q-2 -27 -2 -52q0 -166 103 -197q10 139 56 297q57 196 148 196q81 0 85 -145q-1 -48 -15 -110q-23 -94 -69 -154q-67 -87 -147 -98l-4 -38q-14 -141 -14 -212l1 -53q1 -47 22 -47t45 31q61 82 106 95q15 4 38 4q43 0 114 -15l22 -3q161 -23 269 -23q97 0 175 27
q-64 57 -64 108q0 15 8 26q12 14 35 14q17 0 31.5 -13t20.5 -29q31 46 62 46q13 0 23.5 -9t10.5 -32q0 -34 -52 -81q-23 -20 -52 -33q18 -13 40 -25q77 -40 77 -77q0 -1 -0.5 -8.5t-5 -14t-7.5 -6.5zM71 483q75 13 136 93q45 58 68 149q14 62 14 108q-3 124 -57 127
q-74 -3 -120 -206q-31 -141 -41 -271zM856 242q31 13 56 34q48 44 48 73t-22 29q-27 0 -55 -45q-4 -7 -8 -7q-5 0 -9 8q-15 39 -44 39q-6 0 -13.5 -2.5t-12.5 -8.5t-5 -18l1 -10q9 -47 64 -92z" />
    <glyph glyph-name="m.swsh" unicode="&#xe027;" horiz-adv-x="1376" 
d="M1333 103q-3 0 -4 4q0 4 1 7q4 6 4 18q0 31 -70 67q-26 13 -47 30q-84 -31 -189 -31q-111 0 -267 23q-147 20 -162 21q-23 0 -34.5 -8.5t-28 -31.5t-55.5 -65q-28 -29 -62 -29q-42 0 -48 62q-2 24 -2 50q0 32 3 67q3 39 3 70q0 8 -1 29.5t-21 21.5q-71 -25 -103 -183
l-6 -68l-3 -26q-3 -24 -26 -24q-24 0 -24 23l2 38q6 71 6 133q0 107 -30 107q-72 -26 -103 -187q-11 -53 -12 -91q-1 0 -1 -1q-1 -24 -27 -24q-29 0 -31 25l8 278q3 19 28 19q30 0 30 -20l-5 -173q37 161 111 185l10 1q75 0 75 -141q35 119 98 140l14 1q67 0 67 -104
q0 -48 -4 -94q-3 -34 -3 -63q0 -31 19 -31q12 0 29 15q41 42 57 67t34 34q13 8 42 8q28 0 157 -19q161 -23 269 -23q97 0 175 27q-63 56 -64 107q0 41 44 41q16 0 30.5 -13t20.5 -29q31 46 62 46t35 -35q0 -39 -52 -87q-24 -20 -53 -33q18 -13 41 -25q76 -41 76 -77
q0 -16 -5 -22.5t-8 -6.5zM1218 242q31 13 56 34q48 44 48 73t-22 29q-27 0 -55 -45q-4 -7 -8 -7q-5 0 -9 8q-15 39 -44 39q-6 0 -13.5 -2.5t-12.5 -8.5t-5 -18l1 -10q9 -47 64 -92z" />
    <glyph glyph-name="n.swsh" unicode="&#xe028;" horiz-adv-x="1193" 
d="M1150 103q-4 0 -5 3q0 5 1 8q5 6 5 17q0 30 -70 67q-27 14 -48 30q-83 -30 -187 -30q-113 0 -269 23q-58 7 -94 13q-46 7 -68 8q-22 0 -33.5 -8.5t-28 -31.5t-55.5 -66q-29 -29 -68 -29q-37 9 -42 62q-2 25 -2 51q0 32 3 66q3 40 3 71q0 8 -1 29.5t-21 21.5
q-45 -16 -74 -88q-38 -92 -41 -190q-1 0 -1 -1v-1q-3 -24 -27 -24q-31 0 -31 26q0 62 8 278q1 18 30 18q26 0 28 -20l-5 -172q36 159 110 185l13 1q68 0 68 -105q0 -47 -4 -94q-3 -34 -3 -63q0 -31 18 -31q12 0 30 16q47 45 61 71q13 22 29 31q12 6 38 6q39 0 161 -19
q155 -22 269 -22q97 0 176 27q-27 22 -42 46q-23 33 -23 59q0 17 10 29.5t35 12.5q34 0 51 -42q30 47 63 47q12 0 22 -8.5t11 -26.5q0 -39 -52 -88q-24 -19 -53 -32q19 -14 41 -25q77 -41 77 -77q0 -16 -7 -24q-3 -5 -6 -5zM1035 242q31 13 55 33q48 44 48 73t-24 29
q-26 0 -52 -44q-5 -7 -9 -7t-7.5 8t-10.5 19q-15 20 -34 20q-31 0 -31 -29q0 -50 65 -102z" />
    <glyph glyph-name="o.swsh" unicode="&#xe029;" horiz-adv-x="1045" 
d="M53 96q-40 5 -56 40t-16 69q1 31 7 64v1q-12 25 -12 50q0 53 39 85q23 18 47 18q12 0 37 -8t39 -79v-2q5 -15 5 -57q-1 -27 -5 -54q15 4 29 11q73 36 155 36q78 0 187 -19q90 -16 182 -20q102 0 184 28q-26 23 -42 46q-23 35 -23 60q0 17 9 28q12 14 35 14q17 0 31.5 -13
t20.5 -29q30 46 62 46t34 -35q0 -39 -52 -87q-23 -20 -52 -33q18 -13 40 -25q77 -38 77 -76q0 -15 -6 -25q-3 -4 -6 -4q-5 0 -6 3q0 5 3 9t3 16q0 30 -70 67q-27 14 -48 30q-85 -32 -171 -32q-92 0 -208 20q-91 16 -176 18q-90 0 -158 -33q-17 -9 -36 -14q-5 -36 -24 -74
t-59 -40zM75 124q29 0 49 84q-11 -2 -22 -2q-32 0 -62 14q0 -96 35 -96zM102 218q12 0 24 2q5 28 5 57q0 26 -3 51q-1 1 -1 6q-16 78 -63 78q-22 0 -47 -22q-29 -25 -29 -69q0 -17 5 -33q7 26 17 48q8 12 22 12q15 0 27 -13q6 -7 6 -15q0 -6 -4 -14q-16 -33 -20 -74
q29 -14 61 -14zM887 264q31 14 56 34q48 44 48 73t-24 29q-25 0 -53 -45q-4 -7 -8 -7q-5 0 -9 8q-15 39 -44 39q-6 0 -13.5 -2.5t-12.5 -8.5t-5 -18q0 -46 65 -102z" />
    <glyph glyph-name="p.swsh" unicode="&#xe02a;" horiz-adv-x="1156" 
d="M26 -387h-2q-8 0 -13 9q-20 62 -20 239q0 181 8 386q3 93 4 150q3 27 33 27q25 0 26 -25q-2 -89 -12 -232q34 198 104 254q25 20 46 20q16 0 41.5 -18t25.5 -117q0 -40 -10 -83q109 38 200 38q92 0 190 -18t176 -18q77 0 163 31q-26 23 -42 46q-23 33 -23 60
q0 17 10.5 29.5t33.5 12.5q17 0 31.5 -13t20.5 -29q30 46 62 46q13 0 23.5 -9t10.5 -32q0 -34 -52 -81q-23 -20 -52 -33q18 -13 40 -25q77 -40 77 -77q0 -15 -7 -24q-3 -5 -6 -5q-5 0 -5 6q0 2 3 6.5t3 16.5q0 30 -70 67q-27 13 -48 30q-88 -34 -170 -34q-76 0 -175 16
t-195 16q-93 0 -202 -37q-15 -55 -58 -106q-40 -46 -91 -46q-35 0 -35 40q0 8 2 18q14 60 77 79q40 10 43 10q17 55 17 109q-4 94 -37 94q-3 0 -23 -3.5t-54 -98.5q-27 -86 -40 -178q-20 -143 -20 -370q0 -83 10 -115q2 -5 2 -9q0 -7 -5.5 -13.5t-15.5 -6.5zM101 68
q41 0 86 123q-58 -10 -81.5 -37.5t-23.5 -57.5q0 -7 2 -14q5 -14 17 -14zM998 261q31 13 56 34q48 44 48 73t-22 29q-27 0 -55 -45q-4 -7 -8 -7q-5 0 -9 8q-15 39 -44 39q-6 0 -13.5 -2.5t-12.5 -8.5t-5 -18q0 -25 21 -54q16 -25 44 -48z" />
    <glyph glyph-name="q.swsh" unicode="&#xe02b;" horiz-adv-x="1169" 
d="M232 -294q-32 0 -52 43q-30 69 -30 229v58q2 79 4 89h-16q-9 0 -9 6q0 9 25 9l8 119q-9 -35 -22.5 -69t-30.5 -57t-38 -23q-37 0 -56 33q-23 38 -23 99q0 37 10 79t32.5 73.5t53.5 31.5q31 -2 50.5 -27.5t27.5 -53.5v-2q0 -5 -5 -5t-6 4q-4 14 -13 31q-15 25 -32 25
q-35 0 -50 -87q-8 -45 -8 -87q0 -13 2.5 -46t23.5 -42h3q20 0 39 40q32 70 49 161q4 48 7 74q5 16 30 16q28 0 28 -25v-2q-10 -79 -21 -256q62 14 87 54q11 17 32 31q23 15 84 15q50 0 139 -12q154 -22 268 -22q98 0 176 27q-27 22 -42 46q-23 34 -23 59q0 17 10 29.5
t35 12.5q16 0 30 -12.5t21 -29.5q30 47 64 47q12 0 20 -8q12 -10 12 -33q0 -34 -52 -82q-23 -19 -52 -32q18 -14 40 -25q77 -41 77 -77q0 -1 -0.5 -9t-5 -14t-7.5 -6q-5 0 -5 5q0 3 3 7.5t3 15.5q0 30 -70 67q-27 14 -48 30q-83 -30 -187 -30q-116 0 -269 23q-90 11 -139 11
l-36 -1q-52 -2 -71 -40q-8 -16 -26.5 -32t-68.5 -27v-8q63 -37 100 -132q18 -51 18 -121q0 -138 -85 -164zM256 -268q21 0 39 38q22 47 22 120q0 50 -16 98q-33 87 -90 123q-2 -37 -2 -140q0 -239 47 -239zM1011 242q31 13 56 33q48 44 48 75q0 27 -24 27q-26 0 -53 -44
q-5 -7 -9 -7t-7.5 8t-10.5 19q-14 20 -33 20q-32 0 -32 -30q0 -48 65 -101z" />
    <glyph glyph-name="r.swsh" unicode="&#xe02c;" horiz-adv-x="1106" 
d="M115 26h-5q-44 10 -51 53q-2 14 -2 30q0 61 38 176q23 74 23 92q0 19 -46 40l-15 8q-3 -6 -5 -12.5t-4 -12.5l-38 -100l-11 5l15 37q26 69 32 90q-34 27 -34 63q0 5 2.5 28.5t26 56.5t44.5 36l1 1q15 -2 15 -24q0 -31 -23 -105q-4 -14 -10 -30l30 -14q25 -11 42 -24
q34 -32 34 -83q0 -14 -7 -56q-9 -54 -40 -127q-28 -75 -28 -96q0 -20 16 -20q42 0 125 147q22 38 37.5 54t40.5 16t78 -9q222 -36 364 -36q97 0 175 27q-26 22 -42 46q-22 34 -22 60q0 41 44 41q16 0 30.5 -12.5t20.5 -29.5q31 47 64 47q12 0 20 -8q13 -11 13 -32
q0 -34 -52 -83q-24 -19 -53 -32q18 -14 41 -25q45 -24 61 -44t16 -35q-1 -15 -5.5 -21t-7.5 -6q-5 0 -5 6l1 5q5 6 5 18q-2 31 -71 66q-26 14 -47 30q-84 -30 -187 -30q-116 0 -269 23q-147 19 -165 20q-28 0 -43 -15t-35 -51q-17 -30 -49 -80q-47 -69 -83 -69zM58 465l9 27
q22 72 22 102l-2 11h-1q-7 -2 -18 -19q-28 -45 -28 -85q0 -2 0.5 -14t17.5 -22zM948 242q31 13 55 33q48 44 48 73t-24 29q-26 0 -53 -44q-4 -7 -8 -7t-8 8t-11 19q-14 20 -33 20q-32 0 -32 -30l1 -10q9 -47 65 -91z" />
    <glyph glyph-name="s.swsh" unicode="&#xe02d;" horiz-adv-x="1010" 
d="M9 -32q-38 0 -62 25q-16 16 -16 40q0 28 21 65q43 66 121 106q-19 27 -41 52q-54 63 -54 134q0 65 51 89q21 11 40 11q12 0 32.5 -7.5t21.5 -46.5q0 -7 -6 -7q-5 0 -5 9q-3 39 -42 39q-15 0 -35 -11q-24 -13 -24 -47q0 -52 65 -126h1q26 -30 48 -62q76 32 157 32
q89 0 193 -18q114 -20 198 -20t167 29q-26 22 -42 46q-22 34 -22 61q0 16 7 25t17.5 12t19.5 3q16 0 30.5 -12.5t20.5 -28.5q31 46 62 46q13 0 22 -8q13 -11 13 -32q0 -34 -52 -83q-24 -19 -53 -32q18 -14 41 -25q76 -41 76 -77q0 -17 -4.5 -23t-7.5 -6q-5 0 -5 6l1 5
q4 6 4 17q0 31 -70 67q-26 14 -47 30q-86 -31 -179 -31q-90 0 -215 20q-116 18 -192 18q-75 0 -134 -30q23 -42 23 -86q0 -35 -15 -72q-47 -96 -130 -96zM8 -20q15 0 48 10t48 76q2 15 2 29q0 53 -27 99q-27 -15 -62 -42q-74 -58 -74 -118q0 -22 16 -36q21 -18 49 -18z
M852 259q31 13 56 33q48 45 48 74q0 28 -22 28q-27 0 -55 -44q-4 -7 -8 -7q-5 0 -8.5 8t-10.5 19q-14 20 -33 20q-32 0 -32 -30l1 -9q9 -47 64 -92z" />
    <glyph glyph-name="t.swsh" unicode="&#xe02e;" horiz-adv-x="1023" 
d="M980 103q-5 0 -5 6l1 5q5 6 5 17q0 30 -70 67q-27 14 -48 30q-84 -30 -187 -30q-116 0 -269 23q-59 7 -95 14q-45 8 -67 8q-22 -1 -38 -14.5t-71 -84.5q-30 -39 -64 -39q-72 0 -72 192q0 96 16 226q-46 -12 -78 -12t-50 12q-30 21 -30 55q0 13 5 24q10 21 26 21q5 0 5 -4
q0 -5 -8 -8t-12 -13t-4 -20q0 -28 25 -45q15 -11 43 -11q31 0 80 14l21 169q3 15 24 15q11 0 22.5 -4.5t12.5 -13.5l-19 -142q32 15 76 23q12 2 24 2q17 0 36.5 -6.5t28.5 -38.5v-4q0 -7 -5 -7t-6 8q-11 37 -55 37q-33 0 -101 -27q-28 -206 -28 -315q0 -19 2.5 -62t26.5 -49
h2q24 0 47 29q56 72 74 87.5t48 15.5q25 0 69 -8q35 -6 90 -13q155 -22 269 -22q97 0 176 27q-27 22 -42 46q-23 34 -23 59q0 17 10 29.5t35 12.5q16 0 30 -12.5t21 -29.5q30 47 63 47q12 0 22.5 -9t10.5 -31q0 -34 -52 -83q-24 -19 -53 -32q19 -14 41 -25q77 -41 77 -77
q0 -1 -0.5 -9t-5 -14t-7.5 -6zM865 242q31 13 55 33q48 44 48 73t-24 29q-26 0 -52 -44q-5 -7 -9 -7t-7.5 8t-10.5 19q-15 20 -34 20q-31 0 -31 -29q0 -50 65 -102z" />
    <glyph glyph-name="u.swsh" unicode="&#xe02f;" horiz-adv-x="1197" 
d="M1155 103q-6 0 -6 5q0 3 3 7.5t3 15.5q0 30 -70 67q-27 14 -48 30q-83 -30 -187 -30l-84 3q-57 3 -237 26q-64 10 -96 10q-31 0 -51 -16t-65 -74q-32 -42 -74 -42q-60 0 -60 152q0 34 2 67q-50 -199 -112 -214h-3q-47 0 -61 57q-9 43 -9 92q0 74 12 144q5 20 32 20
q25 0 25 -18v-2q-3 -17 -7 -59q-7 -71 -7 -123q0 -88 21 -94q26 0 50 53q41 93 63 212l2 5q0 7 1 12q2 15 24 15q10 0 22 -4.5t12 -13.5l-3 -33q-14 -109 -14 -169l2 -43q2 -41 23 -41q23 0 53 38q37 49 68 74q23 18 59 18t121 -14l24 -4q154 -22 268 -22q98 0 176 27
q-26 22 -42 46q-23 34 -23 59q0 17 10 29.5t35 12.5q16 0 30.5 -12.5t20.5 -29.5q30 47 64 47q12 0 20 -8q12 -10 12 -33q0 -34 -52 -82q-23 -19 -52 -32q18 -14 40 -25q77 -40 77 -77q0 -1 -0.5 -9t-5 -14t-6.5 -6zM1039 242q31 13 56 33q48 44 48 73t-24 29q-26 0 -53 -44
q-4 -7 -8 -7q-5 0 -8.5 8t-10.5 19q-14 20 -33 20q-32 0 -32 -30q0 -48 65 -101z" />
    <glyph glyph-name="v.swsh" unicode="&#xe030;" horiz-adv-x="1163" 
d="M92 110q-43 0 -63.5 57t-27 126.5t-6.5 107.5q2 22 29 22t30 -23q0 -104 18 -212q10 -61 27 -61t33 31t27 70t15 56q-14 28 -23 61q-16 59 -16 107q0 84 39 84q34 0 34 -79q0 -75 -22 -172q20 -39 43 -39q21 0 53 16q36 19 99 35q37 10 88 10q37 0 80 -5q154 -22 268 -22
q98 0 176 27q-26 22 -42 46q-23 33 -23 60q0 17 7.5 26t18 12t19.5 3q16 0 30.5 -12.5t20.5 -28.5q30 46 62 46q13 0 23.5 -9t10.5 -32q0 -34 -52 -82q-23 -19 -52 -32q18 -14 40 -25q77 -41 77 -77q0 -1 -0.5 -9t-5 -14t-6.5 -6q-6 0 -6 6q0 2 3 6.5t3 15.5q0 30 -70 67
q-27 14 -48 30q-83 -30 -187 -30q-115 0 -269 23q-41 5 -77 5q-99 0 -184 -43q-36 -18 -60 -18t-44 34l-1 -5q-7 -27 -18 -62t-28.5 -62.5t-42.5 -29.5zM178 303q18 78 18 153q0 69 -20 69q-29 0 -29 -72q0 -77 31 -150zM1005 312q31 13 56 33q48 44 48 73t-24 29
q-26 0 -53 -44q-4 -7 -8 -7q-5 0 -8.5 8t-10.5 19q-14 20 -33 20q-32 0 -32 -30q0 -48 65 -101z" />
    <glyph glyph-name="w.swsh" unicode="&#xe031;" horiz-adv-x="1327" 
d="M70 109q-37 5 -51 56q-19 63 -19 180l1 43q1 21 28 21q28 0 30 -26l1 -91q1 -153 16 -165h1q13 0 29.5 46t31.5 105t22 94l-1 29q2 22 29 22q28 0 29 -23q4 -130 19 -212q10 -61 27 -61t33 31t27 70t15 56q-14 28 -23 61q-16 59 -16 107q0 84 39 84q34 0 34 -78
q0 -76 -22 -173q20 -39 43 -39q21 0 53 16q35 19 99 35q37 10 88 10q37 0 80 -5q154 -22 268 -22q98 0 176 27q-27 22 -42 46q-23 33 -23 60q0 17 7.5 26t18 12t19.5 3q16 0 30 -12.5t21 -28.5q30 46 62 46q13 0 23.5 -9t10.5 -32q0 -34 -52 -82q-23 -19 -52 -32
q18 -14 40 -25q77 -41 77 -77q0 -1 -0.5 -9t-5 -14t-7.5 -6q-5 0 -5 6q0 2 3 6.5t3 15.5q0 30 -70 67q-27 14 -48 30q-83 -30 -187 -30q-116 0 -269 23q-41 5 -77 5q-99 0 -184 -43q-36 -18 -60 -18t-44 34l-1 -5q-7 -27 -18 -62t-28.5 -62.5t-42.5 -29.5q-47 1 -68 68
t-25 142q-9 -45 -23.5 -94t-32.5 -83t-37 -34zM342 303q18 78 18 153q0 69 -20 69q-29 0 -29 -72q0 -77 31 -150zM1169 312q31 13 56 33q48 44 48 73t-24 29q-26 0 -53 -44q-4 -7 -8 -7q-5 0 -8.5 8t-10.5 19q-14 20 -33 20q-32 0 -32 -30q0 -48 65 -101z" />
    <glyph glyph-name="x.swsh" unicode="&#xe032;" horiz-adv-x="1077" 
d="M-15 85h-2q-1 0 -4.5 1t-3.5 20q0 70 47 127q-26 86 -35 146l-4 21q0 10 12.5 16.5t27.5 6.5q14 -1 17 -14q0 -20 23 -130q27 28 46.5 60t21.5 77q0 4 2 5t3 1q6 0 6 -6q-1 -50 -23.5 -85t-52.5 -66q30 -134 75 -139q31 0 93 88q15 22 27 30.5t32 8.5q23 0 84 -9l85 -12
q155 -22 269 -22q97 0 175 27q-26 22 -41 46q-23 34 -23 59q0 17 10 29.5t35 12.5q16 0 30 -12.5t21 -29.5q30 47 63 47q12 0 22.5 -9t10.5 -31q0 -34 -52 -83q-24 -19 -53 -32q19 -14 41 -25q77 -41 77 -77q0 -1 -0.5 -9t-5 -14t-7.5 -6q-5 0 -5 6l1 5q5 6 5 17
q0 30 -70 67q-27 14 -48 30q-84 -30 -187 -30q-149 0 -363 36q-53 8 -72 8t-30 -8.5t-27.5 -32t-55.5 -65.5q-22 -27 -46 -27q-69 2 -109 111q-39 -45 -39 -118v-11q0 -5 -3 -6zM919 242q31 13 55 33q48 44 48 73t-24 29q-26 0 -53 -44q-4 -7 -8 -7t-7.5 8t-10.5 19
q-15 20 -34 20q-31 0 -31 -29q0 -50 65 -102z" />
    <glyph glyph-name="y.swsh" unicode="&#xe033;" horiz-adv-x="1086" 
d="M4 -375q-11 0 -51 8.5t-69 83.5q-10 27 -10 57q0 53 33 117q31 53 81 94q80 66 175 66l21 -1q8 116 8 205q0 54 -3 98q-25 -121 -66 -195q-27 -48 -55 -48q-47 0 -61 57q-9 43 -9 92q0 74 12 144q5 20 32 20q25 0 25 -18v-2q-3 -17 -7 -59q-7 -71 -7 -123q0 -88 21 -94
q45 0 90 170q23 87 23 105q0 11 14 18q10 5 21 5q4 0 12.5 -1t10.5 -19q4 -45 5 -161q24 4 56 4q67 0 166 -16q154 -22 269 -22q97 0 175 27q-26 22 -42 46q-22 32 -22 61q0 15 7 24.5t17.5 12.5t19.5 3q16 0 30.5 -12.5t20.5 -29.5q31 47 64 47q12 0 20 -8q13 -11 13 -32
q0 -34 -53 -83q-23 -19 -52 -32q18 -14 40 -25q77 -40 77 -77q0 -1 -0.5 -9t-4.5 -14t-7 -6q-6 0 -6 6q0 3 2 5q4 6 4 17q0 30 -70 67q-27 14 -48 30q-83 -30 -187 -30q-115 0 -269 23q-124 15 -168 15q-31 0 -52 -4q0 -93 -9 -200l5 -4q50 -32 50 -111q-1 -9 -6 -9
q-6 0 -6 9v8q0 65 -44 94q-5 -62 -35 -157.5t-84 -168.5q-58 -68 -117 -68zM-12 -342q48 0 95 62q48 72 71.5 167.5t28.5 150.5q-6 1 -21 1q-90 0 -167 -63q-48 -39 -78 -91q-27 -60 -27 -107q0 -107 85 -119q6 -1 13 -1zM928 242q31 13 56 33q48 44 48 73t-24 29
q-26 0 -53 -44q-4 -7 -8 -7q-5 0 -8.5 8t-10.5 19q-14 20 -33 20q-32 0 -32 -30l1 -10q9 -46 64 -91z" />
    <glyph glyph-name="z.swsh" unicode="&#xe034;" horiz-adv-x="1198" 
d="M52 -373q-32 0 -56 21q-34 30 -34 88q0 12 5 56t91 138q50 49 108 95l41 34q-19 80 -95 106q-25 9 -25 23q0 15 38 42t79 90q21 30 21 54q0 34 -49 34q-19 0 -45 -4q-95 -28 -95 -84q0 -34 29 -61q2 -3 2 -6q0 -5 -5 -12q-10 -16 -24 -16q-5 0 -10 4q-30 36 -30 68
q0 8 6 30.5t43 49t81 39.5q27 8 49 8q20 0 36 -6q37 -16 37 -47q0 -8 -7 -34.5t-42.5 -71.5t-59.5 -67q81 -20 114 -97q49 48 68 82q17 29 38.5 45.5t71.5 18.5q55 0 151 -15q154 -22 268 -22q98 0 176 27q-27 22 -42 46q-23 33 -23 59q0 17 10 29.5t35 12.5q34 0 51 -42
q30 47 64 47q12 0 21.5 -8.5t10.5 -26.5q0 -40 -52 -88q-23 -19 -52 -32q18 -14 40 -25q77 -41 77 -77q0 -16 -7 -24q-3 -5 -6 -5h-2q-2 0 -3 3q0 5 3 9.5t3 15.5q0 30 -70 67q-27 14 -48 30q-83 -30 -187 -30q-113 0 -269 23q-99 12 -146 12q-47 -1 -65 -14t-32 -38
q-16 -35 -80 -92q15 -42 15 -103q0 -102 -51 -212q-78 -147 -171 -147zM48 -353q24 0 65 22.5t79 131.5q26 92 26 167q0 40 -7 75l-1 3l-37 -30q-56 -45 -105 -93q-94 -101 -94 -185q0 -53 32 -77q19 -14 42 -14zM1040 242q31 13 56 33q48 44 48 73t-24 29q-26 0 -53 -44
q-5 -7 -9 -7t-7.5 8t-10.5 19q-14 20 -33 20q-32 0 -32 -30q0 -48 65 -101z" />
    <glyph glyph-name="b.salt" unicode="&#xe040;" horiz-adv-x="320" 
d="M111 46q-17 0 -28 13q-13 17 -13 38q0 14 9.5 41.5t39.5 61.5t62 43q0 2 0.5 4t1.5 3q12 49 12 87v25q0 21 -17 33q-7 4 -14 4q-14 0 -31 -22q-36 -44 -67 -154q-14 -51 -14 -77v-16q-1 -21 -28 -21q-26 0 -28 18v47q0 143 15 299q-115 30 -115 212q0 23 2 48
q11 95 35 171q-23 4 -44 4q-26 0 -60 -8t-47 -72q-1 -5 -7 -5q-4 0 -4 4v2q14 69 62 83q27 7 56 7q23 0 47 -4q28 83 59 83q5 0 9 -1q11 -7 11 -20q0 -16 -10 -31l9 3q9 3 17 3q10 0 16.5 -6.5t6.5 -16.5q0 -31 -40 -34q-24 0 -55 5l-15 2q-23 -76 -34 -168q-2 -26 -2 -49
q0 -170 104 -201q3 41 16.5 124.5t39 172.5t66.5 147q35 49 82 49q81 0 84 -144q0 -49 -14 -111q-24 -94 -70 -154q-65 -84 -147 -98q-10 -122 -16 -242q17 70 51.5 134t87.5 66q36 -2 52 -48q8 -22 8 -53q0 -34 -9 -78q24 1 44.5 13t33.5 48q1 2 6 2t5 -5v-1
q-15 -42 -39 -55t-53 -14q-19 -72 -49 -128q-39 -63 -80 -63zM97 76q13 0 44 61q24 55 36 93q-29 -11 -53 -44q-39 -53 -39 -90q0 -20 12 -20zM70 482q76 13 137 94q44 58 67 149q14 61 15 108q-3 123 -57 127q-75 -3 -120 -207q-32 -141 -42 -271zM13 906q29 3 29 22
q0 13 -11 13q-13 0 -31 -12q-11 -7 -18 -7q-4 0 -4 4t5 10q20 22 20 38q0 9 -1.5 10t-2.5 1.5l-3 1.5q-20 0 -41 -53l-7 -20q41 -7 65 -8z" />
    <glyph glyph-name="d.salt" unicode="&#xe041;" horiz-adv-x="370" 
d="M235 105q-37 0 -54 47q-13 46 -13 123q-9 -36 -23 -74t-32 -64.5t-41 -26.5q-37 0 -56 33q-23 39 -23 99q0 37 10 78.5t32.5 73t53.5 32.5q31 -2 51 -27q27 -37 27 -57q0 -4 -4 -4q-6 0 -7 4q-4 14 -13 30q-16 26 -32 26q-35 0 -50 -87q-8 -45 -8 -87q0 -13 2.5 -46
t24.5 -42q21 0 40 40q34 71 50 161q4 72 11 136q-115 30 -115 211q0 24 2 51l1 1q6 73 33 168q-22 4 -44 4q-25 0 -59 -8t-47 -72q-1 -5 -7 -5q-5 0 -5 6q15 69 63 83q27 7 56 7q23 0 47 -4q28 83 59 83q5 0 9 -1q11 -7 11 -20q0 -16 -10 -31l9 3q9 3 17 3q10 0 16.5 -6.5
t6.5 -16.5q0 -31 -41 -34q-23 0 -54 5l-15 2q-23 -76 -34 -168q-2 -27 -2 -51q0 -168 104 -199q11 145 55 297q57 196 149 196q81 0 84 -144q0 -49 -15 -111q-23 -94 -69 -154q-65 -83 -147 -98l-3 -38q-14 -143 -14 -226q0 -10 1 -42t15 -42l8 -1q37 0 91 111q29 60 35 79
q1 1 5 1q6 0 6 -5l-9 -22q-67 -172 -139 -180zM240 482q75 13 137 94q44 58 67 149q14 61 15 108q-3 123 -57 127q-75 -3 -120 -207q-32 -141 -42 -271zM183 906q29 3 29 23q0 12 -11 12q-13 0 -31 -12q-11 -7 -18 -7q-4 0 -4 4t5 10q20 23 20 41q0 6 -1.5 7t-2.5 1.5
l-3 1.5q-10 0 -20 -13q-17 -23 -28 -60q42 -7 65 -8z" />
    <glyph glyph-name="h.salt" unicode="&#xe044;" horiz-adv-x="375" 
d="M233 107h-6q-37 9 -42 62q-2 24 -2 50q0 32 3 67q3 40 3 71q0 8 -1 29t-21 21q-72 -24 -103 -187q-11 -52 -12 -90q-1 -21 -27 -21t-29 18q0 183 15 346q-114 29 -114 212q0 23 2 48q7 79 34 171q-22 4 -44 4q-26 0 -59.5 -8t-46.5 -72q-1 -5 -7 -5q-5 0 -5 6
q14 69 63 83q27 7 56 7q23 0 47 -4q28 83 59 83q18 0 20 -21q0 -11 -10 -31q1 1 3 1.5l6 1.5q9 3 16 3q10 0 16.5 -6t7.5 -14q0 -34 -41 -37q-20 0 -69 7q-27 -88 -34 -168q-2 -27 -2 -51q0 -168 103 -199q3 41 16.5 124.5t39.5 172.5t67 147q34 49 81 49q81 0 85 -144
q0 -49 -15 -111q-23 -94 -69 -154q-65 -83 -147 -98q-10 -119 -16 -237q33 159 110 186l12 1q69 0 69 -105q0 -47 -4 -94q-3 -34 -3 -63q0 -31 18 -31q12 0 30 16q41 40 80 141l11 27q1 1 5 1q6 0 6 -6q-28 -63 -45 -97q-50 -102 -110 -102zM71 482q75 13 136 94
q45 58 68 149q14 61 14 108q-3 123 -56 127q-75 -3 -121 -207q-31 -141 -41 -271zM14 906q29 3 29 25q0 10 -11 10q-13 0 -31 -11q-11 -8 -18 -8q-4 0 -5 4q0 3 6 10q20 23 20 41q0 6 -1.5 7t-3 1.5t-2.5 1.5q-10 0 -20.5 -14t-28.5 -59l13 -2q31 -5 53 -6z" />
    <glyph glyph-name="k.salt" unicode="&#xe046;" horiz-adv-x="252" 
d="M24 109q-26 0 -29 18v33q0 149 16 313q-115 30 -115 212q0 23 2 48q10 91 34 171q-22 4 -44 4q-25 0 -59 -8t-47 -72q-1 -5 -7 -5q-5 0 -5 6q15 69 63 83q27 7 56 7q23 0 47 -4q28 83 59 83q18 0 20 -21q0 -16 -10 -31l9 3q9 3 17 3q10 0 16.5 -6.5t6.5 -16.5
q0 -31 -41 -34q-23 0 -54 5l-15 2q-23 -76 -34 -168q-2 -27 -2 -51q0 -168 104 -199q3 41 16 124.5t39 172.5t67 147q34 49 81 49q82 0 85 -144q0 -49 -15 -111q-23 -94 -69 -154q-65 -83 -147 -98q-8 -96 -14 -194q9 40 28 80q40 76 73 76q34 0 34 -53q0 -92 -94 -142
q5 -28 18 -60q16 -45 38 -45q38 0 102 177q1 3 6 3t5 -4v-2q-71 -196 -122 -196q-32 0 -57 44q-23 39 -32 69h-1q-2 -51 -2 -93q0 -21 -27 -21zM61 248q48 29 76 74q31 50 31 84q0 16 -11 16q-27 0 -64 -72q-19 -39 -32 -102zM70 482q75 13 137 94q44 58 67 149
q14 61 15 108q-3 123 -57 127q-75 -3 -120 -207q-32 -141 -42 -271zM13 906q29 3 29 23q0 12 -11 12q-13 0 -31 -12q-14 -7 -18 -7t-4 4t5 10q20 23 20 41q0 6 -1.5 7t-2.5 1.5l-3 1.5q-10 0 -20 -13q-17 -23 -28 -60q42 -7 65 -8z" />
    <glyph glyph-name="l.salt" unicode="&#xe047;" horiz-adv-x="203" 
d="M66 105h-3q-34 0 -51 47q-13 49 -13 113q0 76 13 208q-115 30 -115 212q0 23 2 48q10 91 34 171q-22 4 -44 4q-25 0 -59 -8t-47 -72q-1 -5 -7 -5q-5 0 -5 6q15 69 63 83q27 7 56 7q23 0 47 -4q28 83 59 83q5 0 9 -1q11 -7 11 -20q0 -16 -10 -31l9 3q9 3 17 3
q10 0 16.5 -6.5t6.5 -16.5q0 -31 -40 -34q-24 0 -55 5l-15 2q-23 -76 -34 -168q-2 -27 -2 -51q0 -168 104 -199q3 41 16.5 124.5t39 172.5t66.5 147q35 49 82 49q81 0 84 -144q0 -49 -15 -111q-23 -94 -69 -154q-65 -84 -147 -98l-3 -38q-14 -144 -14 -226l1 -42
q1 -43 24 -43q36 0 90 111q28 59 35 79l2 1q9 0 9 -5l-9 -22q-64 -172 -139 -180zM14 906q29 3 29 23q0 12 -11 12q-13 0 -31 -12q-11 -7 -18 -7q-4 0 -4 4t5 10q20 24 20 38q0 9 -1.5 10t-2.5 1.5l-3 1.5q-9 0 -19 -13q-18 -22 -29 -60q41 -7 65 -8zM71 482q75 13 137 94
q44 58 67 149q14 61 15 108q-3 123 -57 127q-75 -3 -120 -207q-32 -141 -42 -271z" />
    <glyph glyph-name="a.ss01" unicode="&#xe054;" horiz-adv-x="1116" 
d="M279 91q-12 0 -45 3t-56 59q-12 43 -12 115q-9 -36 -22.5 -72t-31.5 -60.5t-40 -24.5q-37 0 -56 33q-23 39 -23 99q0 37 10 78.5t32.5 73t54.5 32.5q58 -4 77 -82q0 -6 -3 -6q-7 0 -8 4q-4 14 -13 30q-15 26 -33 26q-34 0 -49 -87q-7 -41 -7 -81q0 -16 2 -50.5t24 -44.5
q21 0 39 37q32 68 50 160q4 48 8 77q1 14 27 14q31 0 31 -18l-13 -134q-4 -42 -4 -77q0 -82 53 -89q12 -2 25 -2q34 0 81 16q133 43 268 148q-88 66 -118 100q-32 41 -32 76q0 33 21 50q11 11 27 12q36 0 71 -46q18 -24 34 -64q6 7 18 29.5t27 46.5q59 86 102 86q14 0 23 -9
q15 -14 15 -45q0 -54 -64 -136q-43 -51 -104 -100q91 -66 204 -106q58 -19 114 -19q7 0 42.5 1.5t88.5 39.5q2 2 5 2h1q1 -1 4 -6q0 -3 -3 -5q-56 -40 -122 -44q-73 0 -133 20q-117 41 -211 110q-91 -71 -191 -119q-105 -51 -185 -51zM646 395zM655 275q62 49 105 100
q62 80 62 131q0 40 -27 40q-37 0 -92 -80q-15 -24 -26 -45q-19 -38 -30 -38q-6 0 -10 9q-7 19 -15 34q-38 68 -73 68q-15 0 -26 -9q-16 -16 -16 -41q0 -31 29 -69q29 -34 119 -100z" />
    <glyph glyph-name="b.ss01" unicode="&#xe055;" horiz-adv-x="1127" 
d="M113 47q-17 0 -28 13q-13 17 -13 38q0 14 9 41.5t39.5 61.5t62.5 43v3l2 4q12 52 12 93q-1 56 -31 56q-31 0 -67 -87.5t-46 -148.5v-34q-2 -20 -27 -20q-26 0 -29 18v35q0 148 15 310q-114 30 -114 212q0 24 2 51q1 4 6 4q6 0 6 -5q-2 -27 -2 -51q0 -167 103 -199
q4 41 17 124.5t39 172.5t67 147q34 49 81 49q82 0 85 -144q0 -49 -15 -111q-23 -94 -69 -154q-68 -87 -147 -98q-10 -122 -16 -242q17 69 51.5 133.5t87.5 65.5q35 -2 52 -47q8 -21 8 -51q0 -23 -12 -92l-1 -1q25 -14 60 -14q68 0 167.5 47t187.5 115q-88 67 -117 100
q-33 42 -33 77q0 33 21 50q13 12 32 12q31 0 66 -46q18 -24 34 -64q6 7 19 31q11 21 26 45q60 86 102 86q14 0 23 -9q15 -14 15 -45q0 -54 -64 -136q-43 -51 -104 -100q91 -66 205 -106q57 -19 113 -19q7 0 42.5 1.5t88.5 39.5q2 2 4 2q6 0 6 -6q0 -3 -3 -5
q-61 -44 -136 -44q-59 0 -119 20q-117 41 -211 109q-91 -71 -192.5 -118.5t-173.5 -47.5q-36 0 -62 13q-19 -65 -46 -115q-37 -63 -79 -63zM98 77q13 0 44 61q27 55 37 93q-29 -11 -53 -44q-39 -53 -39 -90q0 -14 8 -19zM658 513h-1h1zM666 393q62 49 105 100q62 79 62 130
q0 41 -26 41q-38 0 -93 -80q-15 -24 -26 -45q-19 -38 -30 -38q-6 0 -9 8q-8 19 -16 35q-41 68 -74 68q-14 0 -24 -9q-17 -15 -17 -41q0 -31 29 -69q30 -34 119 -100zM72 483q75 13 137 93q44 59 67 150q14 61 15 108q-3 123 -57 127q-75 -3 -120 -207q-32 -141 -42 -271z
" />
    <glyph glyph-name="c.ss01" unicode="&#xe056;" horiz-adv-x="958" 
d="M131 101q-38 0 -81.5 18t-53.5 104l-1 24q0 103 51 156q22 23 50 23q36 0 50 -31q10 -19 10 -44q0 -12 -8 -12q-4 0 -4 7v5q0 21 -7 39t-21 18q-27 -5 -46.5 -62.5t-22.5 -122.5q0 -81 43 -100q23 -10 51 -10q61 0 160 46.5t188 115.5q-89 66 -118 100q-32 41 -32 76
q0 32 20 50q14 12 34 12q30 0 65 -45q18 -26 34 -64q6 7 18 30l1 2q11 21 26 44q59 86 101 86q15 0 24 -9q15 -14 15 -45q0 -53 -64 -137q-43 -50 -105 -100q92 -66 205 -106q59 -19 117 -19q6 0 40 1.5t87 40.5l5 1q5 0 6 -4q0 -3 -3 -6q-61 -44 -138 -44q-58 0 -117 19
q-117 41 -211 110q-159 -124 -316 -161q-27 -6 -52 -6zM498 282q63 50 106 101q61 79 61 129q0 41 -26 41q-37 0 -92 -80q-15 -23 -26 -43v-1q-20 -38 -31 -38q-5 0 -9 8q-17 41 -33 62q-31 41 -57 41q-13 0 -24 -9q-16 -14 -16 -42q0 -31 29 -66.5t118 -102.5z" />
    <glyph glyph-name="d.ss01" unicode="&#xe057;" horiz-adv-x="1103" 
d="M301 102q-7 0 -41 4t-60 54.5t-29 129.5q-44 -179 -100 -179q-37 0 -55 33q-23 39 -23 99q0 37 9.5 78.5t32 73t54.5 32.5q56 -4 78 -82q0 -6 -4 -6q-7 0 -8 4q-4 14 -13 30q-15 26 -32 26q-35 0 -50 -87q-7 -41 -7 -81q0 -16 2.5 -50.5t23.5 -44.5q22 0 40 40
q34 73 50 162q1 65 7 135q-114 29 -114 212q0 55 7 55q6 0 6 -4l-2 -50q0 -170 104 -201q3 41 16.5 124.5t39.5 172.5q57 196 148 196q81 0 85 -144q-1 -49 -15 -111q-24 -94 -70 -154q-67 -88 -147 -98q0 -11 -1 -21q-9 -89 -9 -160q0 -23 2.5 -77t51.5 -81q16 -9 41 -9
q49 0 130 37q97 46 186 115q-89 66 -118 100q-32 41 -32 76q0 12 4 24q11 36 44 38q59 0 105 -109l18 30v1q75 131 128 131q15 0 24 -9q15 -15 15 -45q0 -53 -64 -137q-43 -50 -105 -100q92 -66 205 -106q59 -19 117 -19q6 0 40 1.5t87 40.5q3 1 8 1l2 -5q0 -3 -2 -5
q-56 -41 -122 -44q-74 0 -134 19q-117 41 -210 110q-91 -71 -191 -118q-95 -48 -153 -48zM644 282q62 50 106 101q61 79 61 129q0 41 -27 41q-36 0 -91 -80q-15 -23 -26 -43q0 -1 -1 -1q-18 -38 -30 -38q-5 0 -9 8q-17 41 -33 62q-32 41 -58 41q-13 0 -23 -9
q-16 -14 -16 -42q0 -31 29 -66.5t118 -102.5zM236 483q75 13 136 93q45 59 67 150q15 61 15 108q-3 123 -57 127q-74 -3 -120 -207q-32 -141 -41 -271z" />
    <glyph glyph-name="e.ss01" unicode="&#xe058;" horiz-adv-x="958" 
d="M117 100q-62 0 -96 37q-26 38 -26 94q0 7 1.5 44t20.5 80q34 70 88 70q55 0 55 -74q0 -30 -16 -52.5t-46 -22.5q-22 0 -39 15q-8 -42 -8 -84q0 -89 68 -95q54 0 102 16q138 46 268 147q-89 66 -118 100q-32 41 -32 76q0 12 4 24q11 36 44 38q59 0 105 -109q6 7 18 30
l27 46q59 86 101 86q15 0 24 -9q15 -14 15 -45q0 -53 -64 -137q-43 -50 -105 -100q92 -66 205 -106q59 -19 117 -19q6 0 40 1.5t87 40.5q3 1 8 1q2 -1 3 -4q0 -3 -3 -6q-56 -41 -122 -44q-74 0 -133 19q-118 41 -211 110q-138 -108 -278 -151q-52 -17 -104 -17zM101 288
q23 2 35 18.5t12 41.5q0 58 -27 58q-24 0 -47 -60q-10 -29 -12 -41q14 -17 35 -17h4zM498 282q63 50 106 101q61 79 61 129q0 41 -26 41q-37 0 -92 -80q-15 -23 -26 -43v-1q-20 -38 -31 -38q-5 0 -9 8q-17 41 -33 62q-32 41 -58 41q-13 0 -23 -9q-16 -14 -16 -42
q0 -31 29 -66.5t118 -102.5z" />
    <glyph glyph-name="f.ss01" unicode="&#xe059;" horiz-adv-x="928" 
d="M61 -293q-82 0 -82 282q0 76 4 128v9h-16q-9 0 -9 7q0 8 26 8q1 25 7 91q16 179 53 279q34 79 76 79q27 0 27 -57q0 -36 -20 -98q-30 -92 -76 -162q-5 -59 -8 -134l-1 -11q25 -13 60 -13q68 0 170 47q97 46 186 115q-89 66 -118 100q-32 41 -32 76q0 32 20 50
q13 12 33 12q31 0 66 -46q18 -24 34 -64q6 7 17.5 29.5t27.5 46.5q58 86 101 86q15 0 24 -9q15 -14 15 -44q0 -54 -64 -137q-43 -51 -105 -100q92 -66 205 -106q57 -19 113 -19q7 0 42.5 1.5t88.5 39.5q3 2 5 2q5 0 6 -5q0 -3 -3 -6q-61 -44 -142 -44q-56 0 -113 20
q-117 41 -211 110q-91 -71 -191 -118.5t-175 -47.5q-18 0 -35 3q48 -44 75 -115q18 -49 18 -117q0 -141 -86 -167zM467 284q63 50 106 100q61 79 61 129q0 42 -26 42q-37 0 -92 -80q-15 -24 -26 -45q-19 -38 -30 -38q-6 0 -10 9q-17 41 -33 62q-30 40 -56 40q-14 0 -25 -9
q-16 -14 -16 -41q0 -31 29 -69q29 -34 118 -100zM53 298q38 64 63 141q20 64 20 106q0 26 -9 26q-4 0 -11 -8q-43 -46 -63 -265zM85 -267q22 0 40 38q22 50 22 120q0 49 -16 97q-32 85 -90 124q-2 -38 -2 -141q0 -222 43 -238h3z" />
    <glyph glyph-name="g.ss01" unicode="&#xe060;" horiz-adv-x="1119" 
d="M-16 -375q-11 0 -51 9t-69 84q-10 27 -10 57q0 53 33 117q31 53 81 94q79 65 174 65q17 0 22 -1q8 100 8 182q0 30 -1 58q-8 -36 -22 -77.5t-33.5 -71.5t-43.5 -30q-37 0 -56 33q-23 39 -23 99q0 37 10 78.5t32.5 73t54.5 32.5q58 -4 77 -82q0 -6 -4 -6q-6 0 -7 4
q-4 14 -13 30q-16 26 -33 26q-34 0 -49 -87q-8 -45 -8 -87q0 -13 2.5 -46t24.5 -43q22 0 40 40q34 73 50 162l-3 65q0 11 14 18q10 5 21 5l12 -1q17 -4 17 -176q0 -54 -3 -117q26 -17 65 -17q72 0 170 46.5t187 115.5q-89 66 -118 100q-32 40 -32 75q0 12 4 24q11 37 43 39
q36 0 72 -46q20 -26 33 -64q6 7 18 29.5t28 46.5q58 86 101 86q14 0 24 -9q15 -15 15 -44q0 -54 -65 -137q-43 -51 -104 -100q91 -66 205 -106q57 -19 113 -19q7 0 42.5 1.5t88.5 39.5q3 2 5 2q1 0 2 -0.5t3 -5.5q0 -3 -3 -5q-62 -44 -141 -44q-56 0 -114 20
q-117 41 -211 110q-91 -71 -192.5 -119t-173.5 -48q-38 0 -66 16q-2 -43 -6 -86l5 -4q50 -32 50 -111q-1 -9 -6 -9q-1 0 -3.5 1.5t-2.5 14.5q0 65 -44 94l-1 1q-4 -62 -34 -158t-84 -169q-58 -68 -117 -68zM-32 -341q48 0 95 61q48 73 71.5 168.5t27.5 150.5l-15 1
q-94 0 -172 -64q-48 -39 -78 -90q-27 -60 -27 -107q0 -107 85 -119q6 -1 13 -1zM659 284q62 50 105 100q62 79 62 130q0 41 -27 41q-36 0 -92 -80q-15 -24 -26 -45q-18 -38 -30 -38q-6 0 -9 9q-17 41 -33 62q-31 40 -56 40q-15 0 -25 -9q-17 -15 -17 -42q0 -31 29.5 -66.5
t118.5 -101.5z" />
    <glyph glyph-name="h.ss01" unicode="&#xe061;" horiz-adv-x="1122" 
d="M286 95q-7 0 -36 1t-59 48q-14 26 -14 67q0 45 4.5 90.5t4.5 76.5q-1 30 -19 30q-72 -24 -103 -187q-11 -53 -12 -91q-2 -20 -27 -20q-26 0 -29 18q0 180 15 342v3q-31 8 -55 32q-59 51 -59 180q0 24 2 51l5 4q7 0 7 -5q-2 -27 -2 -51q0 -168 103 -199q3 41 16.5 124.5
t39.5 172.5t67 147q34 49 81 49q81 0 85 -144q0 -49 -15 -111q-23 -94 -69 -154q-68 -87 -147 -98q-10 -119 -16 -237q33 159 110 186l12 1q69 0 69 -105q0 -48 -4 -94q-3 -26 -4 -47q1 -58 41 -65l20 -1q34 0 81 17q145 52 272 151q-88 66 -118 100q-32 41 -32 76
q0 33 21 50q11 11 27 12q36 0 71 -46q18 -24 34 -64q6 7 18 30l27 46q59 86 102 86q14 0 23 -9q15 -14 15 -45q0 -54 -64 -136q-43 -51 -104 -100q91 -66 204 -106q58 -19 114 -19q7 0 42.5 1.5t88.5 39.5q2 2 5 2h1q1 -1 4 -6q0 -3 -3 -5q-62 -44 -141 -44q-56 0 -114 20
q-117 41 -211 110q-91 -71 -191 -119l-10 -4q-98 -52 -174 -52zM652 404zM661 284q62 50 105 100q62 80 62 131q0 40 -27 40q-37 0 -92 -80q-15 -24 -26 -45q-19 -38 -30 -38q-6 0 -10 9q-7 19 -15 34q-38 68 -73 68q-15 0 -26 -9q-16 -16 -16 -41q0 -31 29 -69
q29 -34 119 -100zM71 483q75 13 136 93q45 59 68 150q14 61 14 108q-3 123 -56 127q-75 -3 -121 -207q-31 -141 -41 -271z" />
    <glyph glyph-name="i.ss01" unicode="&#xe062;" horiz-adv-x="948" 
d="M108 89q-9 0 -42.5 3t-55.5 61q-12 44 -12 100l1 53q3 61 9 104q3 14 27 14q31 0 31 -18l-3 -32q-13 -113 -13 -169q0 -19 1 -36q7 -59 52 -66q12 -2 25 -2q35 0 82 17q143 49 272 149q-89 66 -118 100q-32 40 -32 75q0 33 20 51q13 12 32 12q31 0 67 -45q17 -24 34 -64
q6 7 17.5 29t27.5 47q58 85 102 85q13 0 23 -9q15 -15 15 -44q0 -54 -64 -137q-43 -51 -105 -100q91 -66 205 -106q57 -19 113 -19q7 0 42.5 1.5t88.5 40.5l5 1q5 0 5 -6q0 -3 -3 -5q-60 -44 -141 -44q-56 0 -114 20q-117 41 -210 110q-138 -108 -284 -154q-51 -17 -100 -17
zM491 274q62 50 106 101q61 78 61 128q0 42 -27 42q-36 0 -91 -80q-16 -24 -27 -45q-19 -38 -30 -38q-6 0 -9 9q-17 41 -33 62q-31 40 -56 40q-15 0 -25 -8q-17 -15 -17 -43q0 -31 29.5 -66t118.5 -102zM51 472q-34 0 -36 45q3 59 42 59q33 0 33 -50q-6 -54 -39 -54z" />
    <glyph glyph-name="j.ss01" unicode="&#xe063;" horiz-adv-x="943" 
d="M19 472q-38 0 -38 54q0 26 12 38.5t24 12.5q6 0 19 -5.5t19 -40.5v-4q0 -35 -16 -47q-9 -8 -20 -8zM-187 -375q-11 0 -51 9t-69 84q-10 27 -10 57q0 53 33 117q32 53 81 94q79 65 174 65q16 0 22 -1q8 99 8 184q0 100 -5 169q0 11 12.5 17t23.5 6q3 0 11.5 -1.5
t10.5 -18.5q6 -60 6 -158q0 -54 -3 -118q26 -15 63 -15q69 0 167.5 46.5t187.5 115.5q-88 66 -117 100q-33 41 -33 76q0 33 21 50q12 12 32 12q31 0 66 -46q18 -24 34 -64q6 7 19 31q11 21 26 45q59 86 102 86q14 0 23 -9q15 -14 15 -45q0 -54 -64 -136q-43 -51 -104 -100
q91 -66 204 -106q58 -19 114 -19q7 0 42.5 1.5t88.5 39.5q2 2 5 2q4 0 5 -6q0 -3 -3 -5q-61 -44 -141 -44q-56 0 -114 20q-117 41 -211 110q-91 -71 -191 -119q-104 -48 -175 -48q-36 0 -63 14q-2 -42 -6 -84l5 -4q50 -31 50 -104v-8t-2 -6.5t-4 -1.5q-6 0 -6 9v7
q0 66 -44 94l-1 1q-4 -62 -34 -158t-83 -169q-59 -68 -118 -68zM-203 -341q48 0 96 61q47 73 70.5 168.5t28.5 150.5l-16 1q-94 0 -172 -64q-47 -39 -77 -90q-28 -61 -28 -108q0 -105 86 -118zM485 284q62 50 105 100q62 80 62 131q0 40 -27 40q-37 0 -92 -80
q-15 -24 -26 -45q-19 -38 -30 -38q-6 0 -10 9q-7 19 -15 34q-38 68 -73 68q-15 0 -26 -9q-16 -16 -16 -41q0 -31 29 -69q29 -34 119 -100z" />
    <glyph glyph-name="k.ss01" unicode="&#xe064;" horiz-adv-x="1029" 
d="M199 102q-8 0 -54.5 2.5t-89.5 119.5h-1l-1 -64v-30q-2 -20 -28 -20t-28 18v47q0 143 15 298q-114 30 -114 209q0 58 7 58q6 0 6 -5q-2 -26 -2 -49q0 -170 104 -201q3 41 16.5 124.5t39 172.5t66.5 147q35 49 82 49q81 0 84 -144q0 -49 -14 -111q-24 -94 -70 -154
q-69 -88 -147 -98q-8 -96 -13 -195q9 41 27 81q40 76 73 76q35 0 35 -52q0 -92 -95 -143q26 -117 95 -125l18 -1q66 0 165 50q98 46 186 115q-88 66 -117 100q-33 41 -33 76q0 33 21 50q12 12 32 12q31 0 66 -46q18 -24 34 -64q6 7 18 30l27 46q59 86 102 86q14 0 23 -9
q15 -14 15 -45q0 -54 -64 -136q-43 -51 -104 -100q91 -66 205 -106q57 -19 113 -19q7 0 42.5 1.5t88.5 39.5q2 2 5 2q4 0 5 -6q0 -3 -3 -5q-61 -44 -141 -44q-56 0 -114 20q-117 41 -211 110q-91 -71 -191.5 -119.5t-180.5 -48.5zM563 404h-1h1zM571 284q62 50 105 100
q62 79 62 130q0 41 -27 41q-37 0 -92 -80q-15 -24 -26 -45q-19 -38 -30 -38q-6 0 -9 9q-17 41 -33 62q-31 40 -56 40q-15 0 -25 -9q-17 -15 -17 -41q0 -31 29 -69q30 -34 119 -100zM62 249q49 29 76 74q31 50 31 84q0 15 -11 15q-26 0 -64 -71q-17 -36 -32 -102zM71 483
q75 13 137 93q44 59 67 150q14 61 15 108q-3 123 -57 127q-75 -3 -120 -207q-32 -141 -42 -271z" />
    <glyph glyph-name="l.ss01" unicode="&#xe065;" horiz-adv-x="935" 
d="M111 98q-38 0 -72 24q-41 27 -41 134q0 89 9 177l3 40q-114 30 -114 212q0 24 2 51q1 4 6 4q6 0 6 -5q-2 -27 -2 -51q0 -167 103 -199q3 41 16.5 124.5t39.5 172.5t67 147q34 49 81 49q81 0 85 -144q0 -49 -15 -111q-23 -94 -69 -154q-68 -87 -147 -98q-16 -177 -16 -240
q0 -77 28 -101q20 -16 49 -16q48 0 150 48q98 46 186 115q-88 66 -117 100q-33 41 -33 76q0 33 21 50q12 12 32 12q31 0 66 -46q18 -24 34 -64q6 7 18 30l27 46q59 86 102 86q14 0 23 -9q15 -14 15 -45q0 -54 -64 -136q-43 -51 -104 -100q91 -66 205 -106q57 -19 113 -19
q7 0 42.5 1.5t88.5 39.5q2 2 5 2q4 0 5 -6q0 -3 -3 -5q-61 -44 -141 -44q-56 0 -114 20q-117 41 -211 110q-91 -71 -191 -119q-110 -53 -174 -53zM468 404h-1h1zM476 284q62 50 105 100q62 79 62 130q0 41 -27 41q-50 0 -118 -124v-1q-19 -38 -30 -38q-6 0 -9 9
q-8 19 -16 34q-38 68 -73 68q-15 0 -25 -9q-17 -15 -17 -41q0 -31 29 -69q30 -34 119 -100zM70 483q75 13 137 93q44 59 67 150q14 61 14 108q-2 123 -56 127q-75 -3 -120 -207q-32 -141 -42 -271z" />
    <glyph glyph-name="m.ss01" unicode="&#xe066;" horiz-adv-x="1306" 
d="M474 101q-25 0 -62 9q-43 12 -43 99q0 38 3 78q3 33 3 60q0 13 -1 37t-21 24q-71 -23 -103 -183q-3 -37 -7 -67l-2 -27q-4 -24 -26 -24q-25 0 -25 23l3 38q6 86 6 130q0 38 -5 74t-25 36q-46 -15 -74 -87q-40 -97 -41 -191q-1 0 -1 -1q-3 -24 -27 -24q-30 0 -32 25
q2 40 9 279q1 18 27 18q29 0 31 -20l-5 -172q34 159 110 185l10 1q75 0 75 -136v-6q8 24 17 47q30 76 82 94l12 1q69 0 69 -106v-30q0 -49 -7 -84v-13q0 -52 28 -66q18 -9 42 -9q54 0 158 49q97 46 186 115q-89 66 -118 100q-32 41 -32 76q0 32 20 50q13 12 33 12
q31 0 66 -46q18 -24 34 -64q6 7 17.5 29.5t27.5 46.5q58 86 101 86q15 0 24 -9q15 -15 15 -44q0 -54 -64 -137q-43 -51 -105 -100q92 -66 205 -106q57 -19 113 -19q7 0 42.5 1.5t88.5 39.5q3 2 5 2q5 0 6 -5q0 -3 -3 -6q-61 -44 -142 -44q-56 0 -114 20q-117 41 -210 110
q-154 -120 -305 -159q-37 -10 -69 -10zM847 284q63 50 106 100q61 79 61 129q0 42 -26 42q-37 0 -92 -80q-16 -24 -27 -45q-18 -38 -29 -38q-6 0 -10 9q-17 41 -33 62q-31 40 -56 40q-14 0 -25 -9q-16 -14 -16 -41q0 -31 29 -69q29 -34 118 -100z" />
    <glyph glyph-name="n.ss01" unicode="&#xe067;" horiz-adv-x="1119" 
d="M285 99q-20 0 -56 8q-45 9 -45 103q0 37 4 76q3 33 3 60q0 14 -1 37.5t-22 23.5q-45 -15 -73 -87q-39 -95 -42 -190v-2q-3 -24 -28 -24q-29 0 -31 25l8 279q3 18 28 18q29 0 31 -20q-3 -78 -5 -172q34 159 110 185l12 1q70 0 70 -111q0 -50 -7 -105q-2 -13 -2 -29
q0 -46 32 -57q15 -5 34 -5q59 0 157.5 47t187.5 116q-89 66 -118 100q-32 41 -32 76q0 32 20 50q13 12 33 12q31 0 66 -45q17 -24 34 -64q6 7 18 30l2 2q10 20 25 44q58 85 103 85q13 0 22 -9q15 -14 15 -45q0 -54 -64 -136q-43 -51 -104 -100q91 -66 204 -106
q60 -19 118 -19q6 0 39.5 1.5t87.5 40.5l4 1q6 0 6 -6q0 -3 -3 -5q-61 -43 -138 -43q-57 0 -117 19q-117 41 -211 110q-144 -112 -298 -158q-41 -12 -77 -12zM651 403zM660 283q62 50 105 101q62 79 62 130q0 40 -27 40q-37 0 -92 -80q-15 -24 -26 -45q-20 -38 -30 -38
q-6 0 -10 9q-7 19 -15 34q-38 68 -73 68q-15 0 -26 -8q-16 -14 -16 -42q0 -31 29 -66.5t119 -102.5z" />
    <glyph glyph-name="o.ss01" unicode="&#xe068;" horiz-adv-x="931" 
d="M54 96q-39 4 -55 38.5t-16 66.5q0 35 7 67l-1 2q-12 25 -12 53q0 50 39 81q23 19 48 19q12 0 36.5 -8t39.5 -79q0 -4 1 -7q3 -25 3 -52q0 -46 -5 -56q64 10 140 45q97 46 186 115q-89 66 -118 100q-32 41 -32 76q0 32 20 50q13 12 33 12q31 0 66 -45q17 -24 34 -64
q6 7 18 30q75 131 130 131q13 0 22 -9q15 -14 15 -44q0 -54 -64 -137q-43 -51 -105 -100q92 -66 205 -106q58 -19 113 -19q8 0 43 1.5t89 40.5l4 1q5 0 6 -5q0 -3 -3 -6q-61 -44 -141 -44q-56 0 -114 20q-117 41 -211 110q-91 -71 -191 -118q-79 -38 -147 -47
q-5 -36 -24 -73.5t-59 -39.5zM106 219l22 1q4 29 4 67q0 34 -4 47q-16 77 -64 77q-22 0 -46 -21q-29 -25 -29 -70q0 -17 5 -33q16 61 39 61q16 0 28 -13q6 -7 6 -15q0 -6 -4 -14q-16 -31 -20 -70q26 -17 63 -17zM77 124q28 0 48 84q-12 -2 -24 -2q-33 0 -59 13l-1 -14
q3 -81 36 -81zM475 388q62 50 105 101q62 79 62 130q0 40 -27 40q-37 0 -92 -80q-15 -24 -26 -45q-20 -38 -30 -38q-6 0 -10 9q-7 19 -15 34q-38 68 -73 68q-15 0 -26 -8q-16 -16 -16 -42q0 -31 29 -66.5t119 -102.5z" />
    <glyph glyph-name="p.ss01" unicode="&#xe069;" horiz-adv-x="1098" 
d="M26 -387h-2q-9 0 -14 9q-20 62 -20 239q0 183 8 386q3 93 4 150q3 26 32 26q26 0 27 -25q-2 -88 -12 -231q13 75 34 141q27 78 70 112q25 20 47 20q15 0 39 -16.5t27 -110.5q0 -48 -12 -98q-3 -13 -5 -18q10 -1 21 -1q74 0 172 46.5t187 114.5q-88 67 -118 100
q-32 42 -32 76q0 13 4 24q10 35 44 39q36 0 71 -46q18 -24 34 -64q6 7 18 29.5t27 46.5q59 86 102 86q14 0 23 -9q15 -14 15 -44q0 -54 -64 -137q-43 -51 -104 -100q91 -66 204 -106q58 -19 114 -19q7 0 42 1.5t89 39.5q2 2 4 2q4 0 6 -5q0 -3 -3 -6q-56 -41 -122 -44
q-73 0 -133 20q-117 41 -211 109q-91 -71 -191 -118.5t-176 -47.5q-14 0 -27 2q-19 -51 -59 -92q-36 -37 -90 -37q-27 5 -27 40q0 8 2 18q14 60 77 79q40 10 43 10q17 55 17 108q-4 95 -37 95q-3 0 -23 -3.5t-54 -98.5q-27 -86 -40 -178q-20 -143 -20 -355q0 -98 10 -130
q2 -5 2 -10q0 -6 -5.5 -12.5t-14.5 -6.5zM100 68q41 0 86 123l-35 -8q-29 -9 -46 -29q-24 -29 -24 -58q0 -8 2 -15q5 -13 17 -13zM639 365q62 49 105 100q62 80 62 131q0 40 -26 40q-38 0 -93 -80q-15 -24 -26 -45q-19 -38 -31 -38q-5 0 -9 8q-7 19 -15 35q-41 68 -74 68
q-14 0 -25 -9q-16 -14 -16 -41q0 -31 29 -69q29 -34 119 -100z" />
    <glyph glyph-name="q.ss01" unicode="&#xe070;" horiz-adv-x="1075" 
d="M231 -294q-32 0 -51 43q-31 70 -31 239l1 50q2 79 4 87h-16q-9 0 -9 7q0 8 25 8l8 118q-9 -34 -22.5 -68t-30.5 -57t-38 -23q-38 0 -56 33q-23 39 -23 99q0 37 10 78.5t32.5 73t53.5 32.5q56 -4 78 -81q0 -7 -4 -7q-6 0 -7 4q-4 14 -13 30q-16 26 -32 26q-35 0 -50 -87
q-8 -43 -8 -83q0 -15 2.5 -49t23.5 -43q22 0 41 40q34 71 50 161q4 48 7 74q3 16 30 16q28 0 28 -27q-10 -79 -21 -256l-1 -8q18 -4 38 -4q72 0 169.5 46.5t186.5 114.5q-89 66 -118 100q-32 41 -32 76q0 12 4 24q10 35 43 39q36 0 72 -46q20 -26 33 -64q6 7 19 31l1 2
q11 20 26 43q59 86 101 86q15 0 24 -9q15 -15 15 -44q0 -54 -65 -137q-42 -51 -104 -100q91 -66 205 -106q57 -19 113 -19q7 0 42.5 1.5t88.5 39.5q3 1 8 1l2 -5q0 -3 -3 -5q-55 -41 -121 -44q-74 0 -134 20q-117 41 -210 109q-92 -71 -191.5 -118t-174.5 -47q-20 0 -38 3
q64 -37 100 -133q18 -48 18 -116q0 -142 -86 -168zM255 -268q22 0 40 38q22 49 22 120q0 49 -16 97q-32 85 -90 124q-2 -38 -2 -141q0 -78 8 -153q10 -85 38 -85zM607 421zM615 301q62 49 106 100q61 79 61 129q0 42 -26 42q-37 0 -92 -80q-16 -24 -27 -45q-18 -38 -30 -38
q-6 0 -9 8q-17 41 -33 62q-31 41 -57 41q-14 0 -24 -9q-17 -15 -17 -42q0 -31 29.5 -66.5t118.5 -101.5z" />
    <glyph glyph-name="r.ss01" unicode="&#xe071;" horiz-adv-x="985" 
d="M160 16q-99 0 -99 100q0 56 36 172q23 68 23 92q0 10 -4 14q-20 16 -57 34q-4 -13 -9 -25l-38 -100l-11 5q5 10 38 99l10 27q-34 29 -34 66q0 4 2 27t26 56q27 36 50 36q11 -4 11 -28q-1 -28 -23 -100l-10 -30q14 -8 29 -15q26 -11 43 -23q34 -32 34 -84q0 -67 -42 -168
q-21 -55 -21 -88q0 -54 59 -54q56 0 160 49q97 46 186 115q-89 66 -118 100q-32 41 -32 76q0 32 20 50q13 12 32 12q31 0 67 -45q18 -26 34 -64q5 6 17 28l1 3q11 21 27 45q59 86 101 86q15 0 24 -9q15 -15 15 -45q0 -53 -64 -137q-43 -50 -105 -100q92 -66 205 -106
q59 -19 117 -19q6 0 43 7t103 62l5 1q5 0 5 -5q0 -3 -2 -5q-80 -71 -157 -71q-58 0 -118 19q-117 41 -210 110q-171 -134 -333 -166q-19 -4 -36 -4zM61 468q31 87 31 123q0 14 -3 17q-7 -2 -18 -19q-28 -43 -28 -84v-15q0 -12 18 -22zM520 320zM528 200q62 50 106 101
q61 79 61 129q0 41 -27 41q-36 0 -91 -80q-15 -23 -26 -43q0 -1 -1 -1q-18 -38 -30 -38q-5 0 -9 8q-17 41 -33 62q-32 41 -58 41q-13 0 -23 -9q-16 -14 -16 -42q0 -31 29 -66.5t118 -102.5z" />
    <glyph glyph-name="s.ss01" unicode="&#xe072;" horiz-adv-x="976" 
d="M11 -32q-38 0 -63 25q-16 16 -16 40q0 28 21 65q42 64 121 105q-19 28 -41 52q-31 37 -45 83q-9 28 -9 53q0 64 51 88q21 10 40 10q12 0 32.5 -7t22.5 -46q-1 -7 -5 -7q-7 0 -7 8q-3 40 -41 40q-15 0 -35 -11t-25 -42v-3q0 -54 65 -128q27 -29 53 -67l6 -10l17 -1
q73 0 171 46.5t187 115.5q-88 66 -118 100q-32 41 -32 76q0 33 21 50q12 12 32 12q31 0 66 -46q18 -24 34 -64q6 7 18 30l1 1q11 21 26 45q59 86 102 86q14 0 23 -9q15 -14 15 -45q0 -54 -64 -136q-43 -51 -104 -100q91 -66 204 -106q58 -19 114 -19q7 0 42.5 1.5t88.5 39.5
q2 2 5 2q4 0 5 -6q0 -3 -3 -5q-63 -44 -137 -44q-58 0 -118 20q-117 41 -211 110q-91 -71 -191.5 -118.5t-178.5 -47.5h-9q13 -33 13 -67q0 -36 -15 -73q-46 -96 -129 -96zM9 -20q15 0 48 10t49 76l2 26q0 55 -28 102q-27 -15 -62 -42q-74 -58 -74 -118q0 -22 16 -36
q21 -18 49 -18zM521 384q62 50 105 100q62 80 62 131q0 40 -27 40q-37 0 -92 -80q-15 -23 -26 -44v-1q-19 -38 -30 -38q-6 0 -10 9q-7 19 -15 34q-38 68 -73 68q-15 0 -26 -9q-16 -16 -16 -41q0 -31 29 -69q29 -34 119 -100z" />
    <glyph glyph-name="t.ss01" unicode="&#xe073;" horiz-adv-x="956" 
d="M127 94q-18 0 -54.5 5t-57.5 60q-15 55 -15 137q0 93 16 227q-47 -13 -79 -13t-49 13q-30 21 -30 56q0 12 4 22q10 22 26 22q3 0 4 -1.5t1 -2.5q0 -5 -7 -8q-17 -6 -17 -33q0 -28 25 -45q15 -11 43 -11q31 0 80 14q7 59 13.5 104t8.5 65q1 15 24 15q10 0 22 -4.5
t12 -14.5l-9 -72q-5 -31 -10 -69q32 15 76 23q12 2 24 2q17 0 36.5 -7t28.5 -38l1 -5q0 -6 -5 -6q-4 0 -7 8q-12 36 -58 36q-32 0 -98 -26q-27 -204 -27 -310q0 -36 3 -65q9 -52 54 -61q17 -3 35 -3q30 0 75 11.5t85 31.5q98 46 187 115q-89 66 -118 100q-32 40 -32 75
q0 33 20 51q12 12 32 12q31 0 67 -46q20 -26 33 -64q6 7 18 30q1 0 1 1q11 21 27 45q58 86 102 86q13 0 23 -9q15 -15 15 -44q0 -54 -65 -137q-43 -51 -104 -100q91 -66 205 -106q57 -19 113 -19q7 0 42.5 1.5t88.5 39.5q3 2 5 2q1 0 3 -1t2 -5q0 -3 -3 -5q-60 -44 -141 -44
q-56 0 -114 20q-117 41 -211 110q-146 -114 -289 -153q-41 -12 -81 -12zM497 273q62 50 106 100q61 79 61 129q0 42 -27 42q-36 0 -92 -80q-15 -24 -26 -45q-18 -38 -30 -38q-6 0 -9 9q-17 41 -33 62q-31 40 -56 40q-15 0 -25 -8q-17 -17 -17 -43q0 -31 30 -68
q29 -33 118 -100z" />
    <glyph glyph-name="u.ss01" unicode="&#xe074;" horiz-adv-x="1125" 
d="M294 90q-32 0 -67 18q-45 23 -45 151q0 33 2 64q-49 -198 -112 -214h-2q-48 0 -62 58q-9 43 -9 92q0 74 12 144q4 19 32 19q25 0 25 -17v-2q-3 -17 -7 -60q-7 -72 -7 -122q0 -94 22 -94q53 0 113 264q0 3 1 5q0 8 1 13q3 15 24 15q10 0 22 -4.5t12 -14.5l-3 -32
q-13 -101 -13 -163q0 -76 34 -95q20 -11 46 -11q53 0 157 52q97 46 186 114q-89 67 -118 100q-32 42 -32 76q0 33 20 51q14 12 33 12q31 0 66 -46q18 -24 34 -64q6 7 18 31l2 2q10 20 25 43q59 86 102 86q14 0 23 -9q15 -14 15 -44q0 -54 -64 -137q-43 -51 -105 -100
q92 -66 205 -106q58 -19 114 -19q7 0 42 1.5t88 39.5q2 2 4 2q6 0 7 -5q0 -3 -3 -6q-61 -44 -137 -44q-58 0 -118 20q-117 41 -211 109q-91 -71 -191 -118q-115 -55 -181 -55zM666 278q62 49 105 100q62 80 62 131q0 40 -26 40q-38 0 -93 -80q-15 -24 -26 -45
q-19 -38 -31 -38q-5 0 -9 8q-7 19 -15 35q-41 68 -74 68q-14 0 -25 -9q-16 -14 -16 -41q0 -31 29 -69q29 -34 119 -100z" />
    </font>
</defs>
</svg>
