<?xml version="1.0" standalone="no"?>
<!DOCTYPE svg PUBLIC "-//W3C//DTD SVG 20010904//EN"
 "http://www.w3.org/TR/2001/REC-SVG-20010904/DTD/svg10.dtd">
<svg version="1.0" xmlns="http://www.w3.org/2000/svg"
 width="450.000000pt" height="450.000000pt" viewBox="0 0 450.000000 450.000000"
 preserveAspectRatio="xMidYMid meet">
<metadata>
Created by potrace 1.16, written by Peter Selinger 2001-2019
</metadata>
<g transform="translate(0.000000,450.000000) scale(0.100000,-0.100000)"
fill="#000000" stroke="none">
<path d="M2344 3131 c-148 -42 -270 -136 -308 -235 -17 -44 -20 -47 -45 -41
-50 13 -236 34 -356 40 -203 11 -466 -22 -645 -81 -251 -84 -389 -205 -457
-400 -24 -71 -27 -93 -27 -214 0 -152 12 -209 71 -321 66 -127 156 -214 309
-299 180 -100 392 -169 636 -207 158 -25 483 -24 623 1 319 58 532 174 607
331 15 33 28 68 28 77 0 13 32 0 143 -57 248 -128 436 -185 609 -185 203 0
378 103 440 259 32 83 33 262 0 342 -109 270 -504 626 -927 834 -310 153 -537
203 -701 156z m360 -55 c503 -150 1079 -606 1218 -963 39 -100 45 -162 24
-256 -15 -65 -24 -84 -63 -127 -174 -193 -477 -185 -908 25 -251 122 -436 255
-636 454 -141 141 -211 236 -257 343 -22 54 -26 78 -26 163 -1 121 12 166 64
236 46 62 111 110 190 139 80 30 268 23 394 -14z m-802 -245 c112 -18 105 -11
107 -101 2 -83 20 -159 52 -221 10 -20 15 -39 12 -43 -4 -3 -1 -6 6 -6 8 0 11
-7 7 -15 -3 -8 0 -15 7 -15 7 0 17 -11 24 -25 6 -14 10 -25 8 -25 -1 0 -51 11
-111 24 -60 14 -147 30 -194 36 -98 14 -470 28 -470 19 0 -4 -17 -6 -37 -4
-40 3 -202 -26 -293 -52 -64 -18 -182 -71 -241 -109 -46 -29 -44 -30 -79 38
-24 44 -25 84 -6 157 15 57 4 58 -12 1 -9 -29 -10 -31 -11 -10 -2 60 86 168
183 225 67 39 226 94 341 117 175 35 507 39 707 9z m-1273 -320 c-6 -18 -9
-58 -7 -89 17 -218 304 -425 733 -531 191 -47 271 -55 525 -56 283 0 372 12
562 76 128 43 128 43 128 31 0 -14 -238 -90 -350 -111 -58 -12 -143 -25 -190
-30 -55 -5 -69 -9 -40 -9 116 -3 347 44 506 104 l92 34 68 -46 c38 -25 70 -50
72 -55 2 -5 -4 -34 -13 -65 -24 -83 -101 -157 -226 -217 -165 -80 -332 -116
-575 -124 -318 -11 -614 42 -889 159 -161 69 -221 106 -295 180 -122 123 -181
258 -188 429 -5 122 19 239 64 316 29 50 40 52 23 4z m1081 -101 c132 -11 300
-42 393 -70 60 -19 72 -28 231 -186 92 -91 166 -167 164 -168 -15 -12 -110
-42 -192 -61 -393 -92 -948 -31 -1292 141 -102 51 -229 142 -229 163 0 20 104
75 209 110 213 70 452 94 716 71z"/>
<path d="M2356 3064 c-11 -10 -16 -11 -16 -3 0 8 -6 6 -18 -4 -10 -10 -22 -14
-25 -10 -13 12 -57 -40 -68 -80 -20 -74 33 -197 151 -358 67 -89 273 -287 397
-380 332 -251 703 -411 955 -413 108 -1 135 11 172 73 22 37 15 52 -13 27 -19
-17 -20 -17 -16 41 2 32 0 65 -5 73 -7 10 -10 -2 -11 -40 -2 -87 -17 -119 -19
-40 -2 71 -7 111 -16 119 -4 3 -3 -38 1 -91 7 -94 6 -98 -13 -98 -11 0 -26 -2
-34 -5 -8 -3 -23 16 -40 54 -61 130 -231 323 -420 475 -323 260 -683 429 -999
471 -36 4 -48 11 -52 26 -7 24 12 71 24 63 5 -3 4 7 -2 23 -5 15 -7 24 -3 21
3 -4 15 3 26 15 19 22 19 22 3 -13 -8 -19 -10 -26 -3 -16 7 11 26 34 42 53 29
34 30 46 2 17z m34 -235 c98 -15 288 -82 425 -149 303 -148 637 -418 797 -645
54 -76 91 -142 86 -154 -5 -13 -159 18 -265 55 -176 60 -387 167 -545 276 -53
38 -57 43 -63 91 -22 169 -166 314 -422 425 -46 20 -75 41 -90 62 -38 55 -34
57 77 39z m209 -263 c98 -75 153 -150 172 -233 4 -18 4 -33 -1 -33 -14 0 -38
35 -44 65 -8 34 -57 110 -71 110 -6 0 -17 4 -25 10 -13 8 -13 6 -2 -8 8 -9 19
-15 24 -14 6 1 13 -4 16 -12 3 -9 0 -11 -8 -6 -9 5 -11 4 -6 -4 4 -6 11 -9 16
-6 5 3 16 -8 25 -24 20 -39 19 -64 -1 -31 -8 14 -13 17 -10 8 3 -10 1 -18 -4
-18 -14 0 -244 229 -237 236 3 4 27 -5 53 -20 25 -14 41 -20 35 -12 -6 8 -36
24 -66 37 -30 13 -55 28 -55 32 0 4 9 3 21 -3 11 -7 23 -10 25 -7 2 2 -14 12
-35 22 -22 9 -42 24 -45 32 -8 21 151 -66 223 -121z"/>
</g>
</svg>
