<?xml version="1.0" standalone="no"?>
<!DOCTYPE svg PUBLIC "-//W3C//DTD SVG 20010904//EN"
 "http://www.w3.org/TR/2001/REC-SVG-20010904/DTD/svg10.dtd">
<svg version="1.0" xmlns="http://www.w3.org/2000/svg"
 width="1160.000000pt" height="634.000000pt" viewBox="0 0 1160.000000 634.000000"
 preserveAspectRatio="xMidYMid meet">
<metadata>
Created by potrace 1.16, written by Peter Selinger 2001-2019
</metadata>
<g transform="translate(0.000000,634.000000) scale(0.100000,-0.100000)"
fill="#000000" stroke="none">
<path d="M410 6314 c-187 -49 -337 -197 -385 -379 -19 -74 -19 -193 0 -264 38
-143 -144 46 2754 -2855 1782 -1783 2706 -2701 2745 -2727 165 -109 397 -109
562 0 39 26 964 944 2745 2727 2532 2534 2689 2693 2717 2754 40 85 51 137 52
235 0 150 -47 261 -155 370 -114 116 -236 162 -401 153 -103 -6 -178 -30 -256
-82 -30 -20 -1131 -1113 -2518 -2501 l-2465 -2465 -2480 2479 c-2233 2233
-2486 2482 -2542 2510 -118 59 -258 76 -373 45z"/>
</g>
</svg>
