<svg version="1.0" xmlns="http://www.w3.org/2000/svg"
 width="920" height="512" viewBox="0 0 920 512"
 preserveAspectRatio="xMidYMid meet">
<g transform="translate(0.000000,512.000000) scale(0.100000,-0.100000)"
fill="none">
<path d="M4175 4660 c-109 -22 -235 -95 -302 -175 -74 -88 -96 -145 -169 -438
l-69 -277 -67 0 -68 0 0 143 c0 141 0 144 -26 168 l-26 24 -370 0 -370 0 -24
-28 c-23 -27 -24 -35 -24 -168 l0 -139 -109 0 c-59 0 -132 -5 -162 -10 -176
-34 -311 -169 -338 -340 -15 -88 -15 -2546 -1 -2621 23 -123 103 -235 207
-294 104 -58 -20 -55 2334 -55 1518 0 2183 3 2224 11 169 31 302 165 335 338
14 75 14 2533 -1 2621 -24 152 -127 271 -284 329 -33 13 -145 16 -670 19
l-630 3 -68 272 c-37 150 -79 296 -93 325 -58 118 -171 220 -303 271 l-66 26
-410 2 c-225 1 -428 -2 -450 -7z m897 -192 c71 -33 137 -93 171 -155 16 -30
52 -156 97 -333 39 -157 75 -300 81 -318 21 -64 0 -62 712 -62 727 0 703 2
781 -76 64 -64 76 -108 76 -286 l0 -148 -752 0 -752 0 -45 38 c-226 189 -540
302 -841 302 -301 0 -615 -113 -841 -302 l-45 -38 -752 0 -752 0 0 148 c0 178
12 222 76 286 78 78 54 76 781 76 712 0 691 -2 712 62 6 18 42 161 81 317 39
155 79 300 90 321 40 79 116 144 209 181 42 17 80 18 451 16 l405 -2 57 -27z
m-1740 -613 l3 -85 -252 0 -253 0 0 85 0 85 249 0 250 0 3 -85z m1534 -624
c423 -106 741 -420 851 -840 37 -143 43 -357 13 -500 -49 -240 -155 -436 -326
-603 -85 -83 -137 -122 -239 -181 -338 -196 -792 -196 -1130 0 -284 164 -477
420 -556 737 -27 106 -36 327 -19 433 79 495 447 875 937 968 111 21 360 14
469 -14z m-1313 -313 c-4 -7 -30 -46 -57 -86 -61 -94 -128 -235 -157 -333
l-22 -77 -116 -4 c-92 -3 -126 -9 -166 -27 -63 -28 -119 -81 -153 -146 -23
-43 -27 -62 -27 -135 0 -99 19 -147 87 -217 64 -65 122 -86 259 -91 l117 -4
18 -67 c29 -110 97 -254 168 -356 23 -33 45 -66 49 -72 7 -10 -129 -13 -667
-13 l-676 0 0 820 0 820 675 0 c538 0 674 -3 668 -12z m3437 -808 l0 -820
-312 0 c-306 0 -312 0 -335 -22 -30 -28 -31 -83 -1 -115 l21 -23 314 0 313 0
0 -152 c-1 -98 -5 -166 -14 -189 -19 -54 -64 -107 -115 -137 l-46 -27 -2194
-3 c-1447 -1 -2206 1 -2231 8 -55 15 -115 63 -147 117 -27 47 -28 53 -31 216
l-4 167 753 0 753 0 45 -38 c479 -400 1203 -400 1682 0 l45 38 305 0 c326 1
328 1 348 53 13 34 -2 80 -32 96 -14 7 -101 12 -245 14 l-223 2 40 54 c53 71
131 224 169 331 54 153 67 237 67 430 0 193 -13 277 -67 430 -37 106 -115 260
-168 330 -22 29 -40 55 -40 57 0 2 304 3 675 3 l675 0 0 -820z m-3705 0 l0
-140 -78 0 c-93 0 -138 17 -167 65 -40 65 -16 161 51 197 24 13 55 18 114 18
l80 0 0 -140z" stroke="black" stroke-width="0.25"/>
<path d="M4136 4308 c-22 -20 -36 -65 -96 -305 -38 -155 -70 -298 -70 -317 0
-18 9 -44 19 -57 l19 -24 592 0 592 0 19 24 c10 13 19 39 19 57 0 19 -32 162
-70 317 -60 240 -74 285 -96 305 l-25 22 -439 0 -439 0 -25 -22z m858 -333
c25 -101 46 -189 46 -195 0 -7 -148 -10 -440 -10 -292 0 -440 3 -440 10 0 6
21 94 46 195 l46 185 348 0 348 0 46 -185z" stroke="black" stroke-width="0.25"/>
<path d="M4425 2964 c-349 -78 -610 -343 -681 -694 -23 -118 -15 -282 21 -405
82 -280 306 -504 590 -591 133 -41 357 -41 490 0 289 88 514 318 597 611 19
68 23 103 22 230 0 135 -3 159 -28 240 -88 287 -318 513 -606 595 -101 29
-305 36 -405 14z m329 -169 c38 -8 105 -32 150 -54 152 -75 252 -175 327 -327
48 -98 69 -190 69 -304 0 -114 -21 -206 -69 -304 -74 -151 -174 -251 -326
-327 -188 -93 -422 -93 -610 0 -152 76 -252 176 -326 327 -48 98 -69 190 -69
304 0 114 21 206 69 304 75 152 175 252 328 327 45 22 110 46 145 54 84 18
227 18 312 0z" stroke="black" stroke-width="0.25"/>
<path d="M4459 2626 c-68 -19 -163 -73 -214 -121 -37 -34 -45 -48 -45 -76 0
-71 81 -106 138 -60 95 75 166 103 268 102 39 0 90 -7 113 -16 61 -21 79 -19
112 14 53 53 28 115 -58 146 -63 23 -251 29 -314 11z" stroke="black" stroke-width="0.25"/>
<path d="M4959 2341 c-33 -34 -35 -51 -14 -112 22 -60 21 -184 -1 -239 -60
-153 -187 -242 -344 -242 -96 0 -149 22 -268 108 -54 40 -132 2 -132 -64 0
-29 8 -44 45 -79 128 -122 345 -167 522 -108 138 47 238 132 305 262 49 94 62
156 55 272 -6 110 -28 182 -64 211 -36 28 -70 25 -104 -9z" stroke="black" stroke-width="0.25"/>
</g>
</svg>
